<svg class="main-svg" xmlns="http://www.w3.org/2000/svg" xmlns:xlink="http://www.w3.org/1999/xlink" width="700" height="500" viewBox="0 0 700 500"><rect x="0" y="0" width="700" height="500" style="fill: rgb(255, 255, 255); fill-opacity: 1;"/><defs id="defs-cf01a9"><g class="clips"/><g class="gradients"/></defs><g class="bglayer"/><g class="layer-below"><g class="imagelayer"/><g class="shapelayer"/></g><g class="cartesianlayer"/><g class="polarlayer"/><g class="ternarylayer"/><g class="geolayer"/><g class="funnelarealayer"/><g class="pielayer"/><g class="treemaplayer"/><g class="sunburstlayer"/><g class="glimages"/><g class="sankey" transform="translate(80,100)matrix(1 0 0 1 0 0)" style="box-sizing: content-box; position: absolute; left: 0px; shape-rendering: geometricPrecision; pointer-events: auto;"><g class="sankey-links" style="fill: none;"><path class="sankey-link" d="M20,174.99625088556712C140,174.99625088556712 140,160.1113019358922 260,160.1113019358922L260,174.32750468487836C140,174.32750468487836 140,189.2124536345533 20,189.2124536345533Z" style="stroke: rgb(68, 68, 68); stroke-opacity: 1; fill: rgb(0, 0, 0); fill-opacity: 0.2; stroke-width: 0; opacity: 1;"/><path class="sankey-link" d="M20,74.9169135289649C140,74.9169135289649 140,71.26003475472866 260,71.26003475472866L260,160.1113019358922C140,160.1113019358922 140,163.76818071012843 20,163.76818071012843Z" style="stroke: rgb(68, 68, 68); stroke-opacity: 1; fill: rgb(0, 0, 0); fill-opacity: 0.2; stroke-width: 0; opacity: 1;"/><path class="sankey-link" d="M280,71.26003475472866C400,71.26003475472866 400,4.405364961712621e-13 520,4.405364961712621e-13L520,20.613013708910483C400,20.613013708910483 400,91.87304846363871 280,91.87304846363871Z" style="stroke: rgb(68, 68, 68); stroke-opacity: 1; fill: rgb(0, 0, 0); fill-opacity: 0.2; stroke-width: 0; opacity: 1;"/><path class="sankey-link" d="M280,174.52585913539633C400,174.52585913539633 400,282.91494718768524 520,282.91494718768524L520,283.8634944994842C400,283.8634944994842 400,175.47440644719524 280,175.47440644719524Z" style="stroke: rgb(0, 0, 0); stroke-opacity: 0.2; fill: rgb(0, 0, 0); fill-opacity: 0.2; stroke-width: 1; opacity: 1;"/><path class="sankey-link" d="M280,91.87304846363871C400,91.87304846363871 400,31.841083884349075 520,31.841083884349075L520,39.19700825270962C400,39.19700825270962 400,99.22897283199926 280,99.22897283199926Z" style="stroke: rgb(68, 68, 68); stroke-opacity: 1; fill: rgb(0, 0, 0); fill-opacity: 0.2; stroke-width: 0; opacity: 1;"/><path class="sankey-link" d="M280,115.92340551966004C400,115.92340551966004 400,89.57565146668617 520,89.57565146668617L520,96.6169943215134C400,96.6169943215134 400,122.96474837448727 280,122.96474837448727Z" style="stroke: rgb(68, 68, 68); stroke-opacity: 1; fill: rgb(0, 0, 0); fill-opacity: 0.2; stroke-width: 0; opacity: 1;"/><path class="sankey-link" d="M280,163.28353231281972C400,163.28353231281972 400,226.76033966335444 520,226.76033966335444L520,229.90807590716713C400,229.90807590716713 400,166.4312685566324 280,166.4312685566324Z" style="stroke: rgb(68, 68, 68); stroke-opacity: 1; fill: rgb(0, 0, 0); fill-opacity: 0.2; stroke-width: 0; opacity: 1;"/><path class="sankey-link" d="M280,130.78750210338885C400,130.78750210338885 400,126.89588840129225 520,126.89588840129225L520,132.51513070410098C400,132.51513070410098 400,136.4067444061976 280,136.4067444061976Z" style="stroke: rgb(68, 68, 68); stroke-opacity: 1; fill: rgb(0, 0, 0); fill-opacity: 0.2; stroke-width: 0; opacity: 1;"/><path class="sankey-link" d="M280,175.47440644719524C400,175.47440644719524 400,295.09156467492267 520,295.09156467492267L520,296.13376602510175C400,296.13376602510175 400,176.51660779737426 280,176.51660779737426Z" style="stroke: rgb(68, 68, 68); stroke-opacity: 1; fill: rgb(0, 0, 0); fill-opacity: 0.2; stroke-width: 0; opacity: 1;"/><path class="sankey-link" d="M280,136.40674440619756C400,136.40674440619756 400,143.74320087953953 520,143.74320087953953L520,149.7778828910602C400,149.7778828910602 400,142.44142641771822 280,142.44142641771822Z" style="stroke: rgb(68, 68, 68); stroke-opacity: 1; fill: rgb(0, 0, 0); fill-opacity: 0.2; stroke-width: 0; opacity: 1;"/><path class="sankey-link" d="M280,166.4312685566324C400,166.4312685566324 400,241.1361460826057 520,241.1361460826057L520,244.69740092665074C400,244.69740092665074 400,169.99252340067744 280,169.99252340067744Z" style="stroke: rgb(68, 68, 68); stroke-opacity: 1; fill: rgb(0, 0, 0); fill-opacity: 0.2; stroke-width: 0; opacity: 1;"/><path class="sankey-link" d="M280,177.8383304313341C400,177.8383304313341 400,319.9116290099387 520,319.9116290099387L520,320C400,320 400,177.92670142139536 280,177.92670142139536Z" style="stroke: rgb(0, 0, 0); stroke-opacity: 0.2; fill: rgb(0, 0, 0); fill-opacity: 0.2; stroke-width: 1; opacity: 1;"/><path class="sankey-link" d="M280,154.28794185712675C400,154.28794185712675 400,195.30860885678436 520,195.30860885678436L520,199.71707254032975C400,199.71707254032975 400,158.69640554067215 280,158.69640554067215Z" style="stroke: rgb(68, 68, 68); stroke-opacity: 1; fill: rgb(0, 0, 0); fill-opacity: 0.2; stroke-width: 0; opacity: 1;"/><path class="sankey-link" d="M280,158.69640554067217C400,158.69640554067217 400,210.94514271576833 520,210.94514271576833L520,215.53226948791587C400,215.53226948791587 400,163.28353231281972 280,163.28353231281972Z" style="stroke: rgb(68, 68, 68); stroke-opacity: 1; fill: rgb(0, 0, 0); fill-opacity: 0.2; stroke-width: 0; opacity: 1;"/><path class="sankey-link" d="M280,149.2070902057239C400,149.2070902057239 400,178.999687029943 520,178.999687029943L520,184.08053868134584C400,184.08053868134584 400,154.28794185712673 280,154.28794185712673Z" style="stroke: rgb(68, 68, 68); stroke-opacity: 1; fill: rgb(0, 0, 0); fill-opacity: 0.2; stroke-width: 0; opacity: 1;"/><path class="sankey-link" d="M280,169.9925234006774C400,169.9925234006774 400,255.92547110208926 520,255.92547110208926L520,257.93735195734274C400,257.93735195734274 400,172.0044042559309 280,172.0044042559309Z" style="stroke: rgb(68, 68, 68); stroke-opacity: 1; fill: rgb(0, 0, 0); fill-opacity: 0.2; stroke-width: 0; opacity: 1;"/><path class="sankey-link" d="M280,99.22897283199926C400,99.22897283199926 400,50.425078428148225 520,50.425078428148225L520,58.86931075019805C400,58.86931075019805 400,107.67320515404909 280,107.67320515404909Z" style="stroke: rgb(68, 68, 68); stroke-opacity: 1; fill: rgb(0, 0, 0); fill-opacity: 0.2; stroke-width: 0; opacity: 1;"/><path class="sankey-link" d="M280,176.5166077973743C400,176.5166077973743 400,307.3618362005403 520,307.3618362005403L520,308.6835588345001C400,308.6835588345001 400,177.83833043133407 280,177.83833043133407Z" style="stroke: rgb(68, 68, 68); stroke-opacity: 1; fill: rgb(0, 0, 0); fill-opacity: 0.2; stroke-width: 0; opacity: 1;"/><path class="sankey-link" d="M280,172.0044042559309C400,172.0044042559309 400,269.16542213278115 520,269.16542213278115L520,271.68687701224655C400,271.68687701224655 400,174.52585913539636 280,174.52585913539636Z" style="stroke: rgb(68, 68, 68); stroke-opacity: 1; fill: rgb(0, 0, 0); fill-opacity: 0.2; stroke-width: 0; opacity: 1;"/><path class="sankey-link" d="M280,107.67320515404909C400,107.67320515404909 400,70.09738092563666 520,70.09738092563666L520,78.34758129124762C400,78.34758129124762 400,115.92340551966005 280,115.92340551966005Z" style="stroke: rgb(68, 68, 68); stroke-opacity: 1; fill: rgb(0, 0, 0); fill-opacity: 0.2; stroke-width: 0; opacity: 1;"/><path class="sankey-link" d="M280,122.96474837448727C400,122.96474837448727 400,107.84506449695203 520,107.84506449695203L520,115.66781822585361C400,115.66781822585361 400,130.78750210338885 280,130.78750210338885Z" style="stroke: rgb(68, 68, 68); stroke-opacity: 1; fill: rgb(0, 0, 0); fill-opacity: 0.2; stroke-width: 0; opacity: 1;"/><path class="sankey-link" d="M280,142.44142641771822C400,142.44142641771822 400,161.00595306649885 520,161.00595306649885L520,167.77161685450452C400,167.77161685450452 400,149.2070902057239 280,149.2070902057239Z" style="stroke: rgb(68, 68, 68); stroke-opacity: 1; fill: rgb(0, 0, 0); fill-opacity: 0.2; stroke-width: 0; opacity: 1;"/></g><g class="sankey-node-set" style="cursor: move;"><g class="sankey-node" transform="translate(0.000, 174.996)" style="opacity: 1;"><rect class="node-rect" width="20" height="14.216202748986177" style="stroke-width: 0.5; stroke: rgb(0, 0, 0); stroke-opacity: 1; fill: rgb(0, 128, 0); fill-opacity: 1;"/><rect class="node-capture" x="-10" y="-7.5" width="40" height="29.216202748986177" style="fill-opacity: 0;"/><g class="node-entered" transform="translate(0 8.108101374493089)"><path class="node-label-guide" id="adea15_0_node_0" d="M24,0L540,0" transform="matrix(1 0 0 1 0 0)"/><text class="node-label" transform="scale(1 1)" style="user-select: none; cursor: default; fill: rgb(42, 63, 95); text-shadow: rgb(255, 255, 255) -1px 1px 1px, rgb(255, 255, 255) 1px 1px 1px, rgb(255, 255, 255) 1px -1px 1px, rgb(255, 255, 255) -1px -1px 1px; font-family: 'Open Sans', verdana, arial, sans-serif; font-size: 8px; fill-opacity: 1;"><textPath class="node-label-text-path" alignment-baseline="middle" xlink:href="#adea15_0_node_0" startOffset="0%" text-anchor="start" style="fill: rgb(0, 0, 0);">Hydro Power (296.00KW )</textPath></text></g></g><g class="sankey-node" transform="translate(0.000, 74.917)" style="opacity: 1;"><rect class="node-rect" width="20" height="88.85126718116362" style="stroke-width: 0.5; stroke: rgb(0, 0, 0); stroke-opacity: 1; fill: rgb(0, 128, 0); fill-opacity: 1;"/><rect class="node-capture" x="-10" y="-7.5" width="40" height="103.85126718116362" style="fill-opacity: 0;"/><g class="node-entered" transform="translate(0 45.42563359058181)"><path class="node-label-guide" id="adea15_0_node_2" d="M24,0L540,0" transform="matrix(1 0 0 1 0 0)"/><text class="node-label" transform="scale(1 1)" style="user-select: none; cursor: default; fill: rgb(42, 63, 95); text-shadow: rgb(255, 255, 255) -1px 1px 1px, rgb(255, 255, 255) 1px 1px 1px, rgb(255, 255, 255) 1px -1px 1px, rgb(255, 255, 255) -1px -1px 1px; font-family: 'Open Sans', verdana, arial, sans-serif; font-size: 8px; fill-opacity: 1;"><textPath class="node-label-text-path" alignment-baseline="middle" xlink:href="#adea15_0_node_2" startOffset="0%" text-anchor="start" style="fill: rgb(0, 0, 0);">COGEN 2 (1850.00KW)</textPath></text></g></g><g class="sankey-node" transform="translate(260.000, 71.260)" style="opacity: 1;"><rect class="node-rect" width="20" height="106.66666666666681" style="stroke-width: 0.5; stroke: rgb(0, 0, 0); stroke-opacity: 1; fill: rgb(255, 255, 0); fill-opacity: 1;"/><rect class="node-capture" x="-10" y="-7.5" width="40" height="121.66666666666681" style="fill-opacity: 0;"/><g class="node-entered" transform="translate(0 54.33333333333341)"><path class="node-label-guide" id="adea15_0_node_5" d="M24,0L540,0" transform="matrix(1 0 0 1 0 0)"/><text class="node-label" transform="scale(1 1)" style="user-select: none; cursor: default; fill: rgb(42, 63, 95); text-shadow: rgb(255, 255, 255) -1px 1px 1px, rgb(255, 255, 255) 1px 1px 1px, rgb(255, 255, 255) 1px -1px 1px, rgb(255, 255, 255) -1px -1px 1px; font-family: 'Open Sans', verdana, arial, sans-serif; font-size: 8px; fill-opacity: 1;"><textPath class="node-label-text-path" alignment-baseline="middle" xlink:href="#adea15_0_node_5" startOffset="0%" text-anchor="start" style="fill: rgb(0, 0, 0);">Total Power (2146.00KW)</textPath></text></g></g><g class="sankey-node" transform="translate(520.000, 0.000)" style="opacity: 1;"><rect class="node-rect" width="20" height="20.613013708910046" style="stroke-width: 0.5; stroke: rgb(0, 0, 0); stroke-opacity: 1; fill: rgb(255, 0, 0); fill-opacity: 1;"/><rect class="node-capture" x="-10" y="-7.5" width="40" height="35.613013708910046" style="fill-opacity: 0;"/><g class="node-entered" transform="translate(0 11.306506854455023)"><path class="node-label-guide" id="adea15_0_node_6" d="M-540,0L-4,0" transform="matrix(1 0 0 1 0 0)"/><text class="node-label" transform="scale(1 1)" style="user-select: none; cursor: default; fill: rgb(42, 63, 95); text-shadow: rgb(255, 255, 255) -1px 1px 1px, rgb(255, 255, 255) 1px 1px 1px, rgb(255, 255, 255) 1px -1px 1px, rgb(255, 255, 255) -1px -1px 1px; font-family: 'Open Sans', verdana, arial, sans-serif; font-size: 8px; fill-opacity: 1;"><textPath class="node-label-text-path" alignment-baseline="middle" xlink:href="#adea15_0_node_6" startOffset="100%" text-anchor="end" style="fill: rgb(0, 0, 0);">Building A (429.19KW)</textPath></text></g></g><g class="sankey-node" transform="translate(520.000, 282.915)" style="opacity: 1;"><rect class="node-rect" width="20" height="0.9485473117988477" style="stroke-width: 0.5; stroke: rgb(0, 0, 0); stroke-opacity: 1; fill: rgb(255, 0, 0); fill-opacity: 1;"/><rect class="node-capture" x="-10" y="-7.5" width="40" height="15.948547311798848" style="fill-opacity: 0;"/><g class="node-entered" transform="translate(0 1.4742736558994238)"><path class="node-label-guide" id="adea15_0_node_7" d="M-540,0L-4,0" transform="matrix(1 0 0 1 0 0)"/><text class="node-label" transform="scale(1 1)" style="user-select: none; cursor: default; fill: rgb(42, 63, 95); text-shadow: rgb(255, 255, 255) -1px 1px 1px, rgb(255, 255, 255) 1px 1px 1px, rgb(255, 255, 255) 1px -1px 1px, rgb(255, 255, 255) -1px -1px 1px; font-family: 'Open Sans', verdana, arial, sans-serif; font-size: 8px; fill-opacity: 1;"><textPath class="node-label-text-path" alignment-baseline="middle" xlink:href="#adea15_0_node_7" startOffset="100%" text-anchor="end" style="fill: rgb(0, 0, 0);">Building A Fitness Zone (19.75KW)</textPath></text></g></g><g class="sankey-node" transform="translate(520.000, 31.841)" style="opacity: 1;"><rect class="node-rect" width="20" height="7.355924368360547" style="stroke-width: 0.5; stroke: rgb(0, 0, 0); stroke-opacity: 1; fill: rgb(255, 0, 0); fill-opacity: 1;"/><rect class="node-capture" x="-10" y="-7.5" width="40" height="22.355924368360547" style="fill-opacity: 0;"/><g class="node-entered" transform="translate(0 4.677962184180274)"><path class="node-label-guide" id="adea15_0_node_8" d="M-540,0L-4,0" transform="matrix(1 0 0 1 0 0)"/><text class="node-label" transform="scale(1 1)" style="user-select: none; cursor: default; fill: rgb(42, 63, 95); text-shadow: rgb(255, 255, 255) -1px 1px 1px, rgb(255, 255, 255) 1px 1px 1px, rgb(255, 255, 255) 1px -1px 1px, rgb(255, 255, 255) -1px -1px 1px; font-family: 'Open Sans', verdana, arial, sans-serif; font-size: 8px; fill-opacity: 1;"><textPath class="node-label-text-path" alignment-baseline="middle" xlink:href="#adea15_0_node_8" startOffset="100%" text-anchor="end" style="fill: rgb(0, 0, 0);">Building B (153.16KW)</textPath></text></g></g><g class="sankey-node" transform="translate(520.000, 89.576)" style="opacity: 1;"><rect class="node-rect" width="20" height="7.041342854827263" style="stroke-width: 0.5; stroke: rgb(0, 0, 0); stroke-opacity: 1; fill: rgb(255, 0, 0); fill-opacity: 1;"/><rect class="node-capture" x="-10" y="-7.5" width="40" height="22.041342854827263" style="fill-opacity: 0;"/><g class="node-entered" transform="translate(0 4.520671427413632)"><path class="node-label-guide" id="adea15_0_node_9" d="M-540,0L-4,0" transform="matrix(1 0 0 1 0 0)"/><text class="node-label" transform="scale(1 1)" style="user-select: none; cursor: default; fill: rgb(42, 63, 95); text-shadow: rgb(255, 255, 255) -1px 1px 1px, rgb(255, 255, 255) 1px 1px 1px, rgb(255, 255, 255) 1px -1px 1px, rgb(255, 255, 255) -1px -1px 1px; font-family: 'Open Sans', verdana, arial, sans-serif; font-size: 8px; fill-opacity: 1;"><textPath class="node-label-text-path" alignment-baseline="middle" xlink:href="#adea15_0_node_9" startOffset="100%" text-anchor="end" style="fill: rgb(0, 0, 0);">Building C (146.61KW)</textPath></text></g></g><g class="sankey-node" transform="translate(520.000, 226.760)" style="opacity: 1;"><rect class="node-rect" width="20" height="3.1477362438126875" style="stroke-width: 0.5; stroke: rgb(0, 0, 0); stroke-opacity: 1; fill: rgb(255, 0, 0); fill-opacity: 1;"/><rect class="node-capture" x="-10" y="-7.5" width="40" height="18.147736243812687" style="fill-opacity: 0;"/><g class="node-entered" transform="translate(0 2.5738681219063437)"><path class="node-label-guide" id="adea15_0_node_10" d="M-540,0L-4,0" transform="matrix(1 0 0 1 0 0)"/><text class="node-label" transform="scale(1 1)" style="user-select: none; cursor: default; fill: rgb(42, 63, 95); text-shadow: rgb(255, 255, 255) -1px 1px 1px, rgb(255, 255, 255) 1px 1px 1px, rgb(255, 255, 255) 1px -1px 1px, rgb(255, 255, 255) -1px -1px 1px; font-family: 'Open Sans', verdana, arial, sans-serif; font-size: 8px; fill-opacity: 1;"><textPath class="node-label-text-path" alignment-baseline="middle" xlink:href="#adea15_0_node_10" startOffset="100%" text-anchor="end" style="fill: rgb(0, 0, 0);">Building D (65.54KW)</textPath></text></g></g><g class="sankey-node" transform="translate(520.000, 126.896)" style="opacity: 1;"><rect class="node-rect" width="20" height="5.619242302808686" style="stroke-width: 0.5; stroke: rgb(0, 0, 0); stroke-opacity: 1; fill: rgb(255, 0, 0); fill-opacity: 1;"/><rect class="node-capture" x="-10" y="-7.5" width="40" height="20.619242302808686" style="fill-opacity: 0;"/><g class="node-entered" transform="translate(0 3.809621151404343)"><path class="node-label-guide" id="adea15_0_node_11" d="M-540,0L-4,0" transform="matrix(1 0 0 1 0 0)"/><text class="node-label" transform="scale(1 1)" style="user-select: none; cursor: default; fill: rgb(42, 63, 95); text-shadow: rgb(255, 255, 255) -1px 1px 1px, rgb(255, 255, 255) 1px 1px 1px, rgb(255, 255, 255) 1px -1px 1px, rgb(255, 255, 255) -1px -1px 1px; font-family: 'Open Sans', verdana, arial, sans-serif; font-size: 8px; fill-opacity: 1;"><textPath class="node-label-text-path" alignment-baseline="middle" xlink:href="#adea15_0_node_11" startOffset="100%" text-anchor="end" style="fill: rgb(0, 0, 0);">Building E (117.00KW)</textPath></text></g></g><g class="sankey-node" transform="translate(520.000, 295.092)" style="opacity: 1;"><rect class="node-rect" width="20" height="1.0422013501790843" style="stroke-width: 0.5; stroke: rgb(0, 0, 0); stroke-opacity: 1; fill: rgb(255, 0, 0); fill-opacity: 1;"/><rect class="node-capture" x="-10" y="-7.5" width="40" height="16.042201350179084" style="fill-opacity: 0;"/><g class="node-entered" transform="translate(0 1.5211006750895422)"><path class="node-label-guide" id="adea15_0_node_12" d="M-540,0L-4,0" transform="matrix(1 0 0 1 0 0)"/><text class="node-label" transform="scale(1 1)" style="user-select: none; cursor: default; fill: rgb(42, 63, 95); text-shadow: rgb(255, 255, 255) -1px 1px 1px, rgb(255, 255, 255) 1px 1px 1px, rgb(255, 255, 255) 1px -1px 1px, rgb(255, 255, 255) -1px -1px 1px; font-family: 'Open Sans', verdana, arial, sans-serif; font-size: 8px; fill-opacity: 1;"><textPath class="node-label-text-path" alignment-baseline="middle" xlink:href="#adea15_0_node_12" startOffset="100%" text-anchor="end" style="fill: rgb(0, 0, 0);">Building G (21.70KW)</textPath></text></g></g><g class="sankey-node" transform="translate(520.000, 143.743)" style="opacity: 1;"><rect class="node-rect" width="20" height="6.034682011520715" style="stroke-width: 0.5; stroke: rgb(0, 0, 0); stroke-opacity: 1; fill: rgb(255, 0, 0); fill-opacity: 1;"/><rect class="node-capture" x="-10" y="-7.5" width="40" height="21.034682011520715" style="fill-opacity: 0;"/><g class="node-entered" transform="translate(0 4.017341005760358)"><path class="node-label-guide" id="adea15_0_node_13" d="M-540,0L-4,0" transform="matrix(1 0 0 1 0 0)"/><text class="node-label" transform="scale(1 1)" style="user-select: none; cursor: default; fill: rgb(42, 63, 95); text-shadow: rgb(255, 255, 255) -1px 1px 1px, rgb(255, 255, 255) 1px 1px 1px, rgb(255, 255, 255) 1px -1px 1px, rgb(255, 255, 255) -1px -1px 1px; font-family: 'Open Sans', verdana, arial, sans-serif; font-size: 8px; fill-opacity: 1;"><textPath class="node-label-text-path" alignment-baseline="middle" xlink:href="#adea15_0_node_13" startOffset="100%" text-anchor="end" style="fill: rgb(0, 0, 0);">Building H (125.65KW)</textPath></text></g></g><g class="sankey-node" transform="translate(520.000, 241.136)" style="opacity: 1;"><rect class="node-rect" width="20" height="3.5612548440449814" style="stroke-width: 0.5; stroke: rgb(0, 0, 0); stroke-opacity: 1; fill: rgb(255, 0, 0); fill-opacity: 1;"/><rect class="node-capture" x="-10" y="-7.5" width="40" height="18.56125484404498" style="fill-opacity: 0;"/><g class="node-entered" transform="translate(0 2.7806274220224907)"><path class="node-label-guide" id="adea15_0_node_14" d="M-540,0L-4,0" transform="matrix(1 0 0 1 0 0)"/><text class="node-label" transform="scale(1 1)" style="user-select: none; cursor: default; fill: rgb(42, 63, 95); text-shadow: rgb(255, 255, 255) -1px 1px 1px, rgb(255, 255, 255) 1px 1px 1px, rgb(255, 255, 255) 1px -1px 1px, rgb(255, 255, 255) -1px -1px 1px; font-family: 'Open Sans', verdana, arial, sans-serif; font-size: 8px; fill-opacity: 1;"><textPath class="node-label-text-path" alignment-baseline="middle" xlink:href="#adea15_0_node_14" startOffset="100%" text-anchor="end" style="fill: rgb(0, 0, 0);">Building J (74.15KW)</textPath></text></g></g><g class="sankey-node" transform="translate(520.000, 319.912)" style="opacity: 1;"><rect class="node-rect" width="20" height="0.5" style="stroke-width: 0.5; stroke: rgb(0, 0, 0); stroke-opacity: 1; fill: rgb(255, 0, 0); fill-opacity: 1;"/><rect class="node-capture" x="-10" y="-7.5" width="40" height="15.5" style="fill-opacity: 0;"/><g class="node-entered" transform="translate(0 1.0441854950306606)"><path class="node-label-guide" id="adea15_0_node_15" d="M-540,0L-4,0" transform="matrix(1 0 0 1 0 0)"/><text class="node-label" transform="scale(1 1)" style="user-select: none; cursor: default; fill: rgb(42, 63, 95); text-shadow: rgb(255, 255, 255) -1px 1px 1px, rgb(255, 255, 255) 1px 1px 1px, rgb(255, 255, 255) 1px -1px 1px, rgb(255, 255, 255) -1px -1px 1px; font-family: 'Open Sans', verdana, arial, sans-serif; font-size: 8px; fill-opacity: 1;"><textPath class="node-label-text-path" alignment-baseline="middle" xlink:href="#adea15_0_node_15" startOffset="100%" text-anchor="end" style="fill: rgb(0, 0, 0);">Building K (1.84KW)</textPath></text></g></g><g class="sankey-node" transform="translate(520.000, 195.309)" style="opacity: 1;"><rect class="node-rect" width="20" height="4.408463683545392" style="stroke-width: 0.5; stroke: rgb(0, 0, 0); stroke-opacity: 1; fill: rgb(255, 0, 0); fill-opacity: 1;"/><rect class="node-capture" x="-10" y="-7.5" width="40" height="19.408463683545392" style="fill-opacity: 0;"/><g class="node-entered" transform="translate(0 3.204231841772696)"><path class="node-label-guide" id="adea15_0_node_16" d="M-540,0L-4,0" transform="matrix(1 0 0 1 0 0)"/><text class="node-label" transform="scale(1 1)" style="user-select: none; cursor: default; fill: rgb(42, 63, 95); text-shadow: rgb(255, 255, 255) -1px 1px 1px, rgb(255, 255, 255) 1px 1px 1px, rgb(255, 255, 255) 1px -1px 1px, rgb(255, 255, 255) -1px -1px 1px; font-family: 'Open Sans', verdana, arial, sans-serif; font-size: 8px; fill-opacity: 1;"><textPath class="node-label-text-path" alignment-baseline="middle" xlink:href="#adea15_0_node_16" startOffset="100%" text-anchor="end" style="fill: rgb(0, 0, 0);">Building M (91.79KW)</textPath></text></g></g><g class="sankey-node" transform="translate(520.000, 210.945)" style="opacity: 1;"><rect class="node-rect" width="20" height="4.587126772147542" style="stroke-width: 0.5; stroke: rgb(0, 0, 0); stroke-opacity: 1; fill: rgb(255, 0, 0); fill-opacity: 1;"/><rect class="node-capture" x="-10" y="-7.5" width="40" height="19.587126772147542" style="fill-opacity: 0;"/><g class="node-entered" transform="translate(0 3.293563386073771)"><path class="node-label-guide" id="adea15_0_node_17" d="M-540,0L-4,0" transform="matrix(1 0 0 1 0 0)"/><text class="node-label" transform="scale(1 1)" style="user-select: none; cursor: default; fill: rgb(42, 63, 95); text-shadow: rgb(255, 255, 255) -1px 1px 1px, rgb(255, 255, 255) 1px 1px 1px, rgb(255, 255, 255) 1px -1px 1px, rgb(255, 255, 255) -1px -1px 1px; font-family: 'Open Sans', verdana, arial, sans-serif; font-size: 8px; fill-opacity: 1;"><textPath class="node-label-text-path" alignment-baseline="middle" xlink:href="#adea15_0_node_17" startOffset="100%" text-anchor="end" style="fill: rgb(0, 0, 0);">Building N (95.51KW)</textPath></text></g></g><g class="sankey-node" transform="translate(520.000, 179.000)" style="opacity: 1;"><rect class="node-rect" width="20" height="5.0808516514027815" style="stroke-width: 0.5; stroke: rgb(0, 0, 0); stroke-opacity: 1; fill: rgb(255, 0, 0); fill-opacity: 1;"/><rect class="node-capture" x="-10" y="-7.5" width="40" height="20.08085165140278" style="fill-opacity: 0;"/><g class="node-entered" transform="translate(0 3.5404258257013907)"><path class="node-label-guide" id="adea15_0_node_18" d="M-540,0L-4,0" transform="matrix(1 0 0 1 0 0)"/><text class="node-label" transform="scale(1 1)" style="user-select: none; cursor: default; fill: rgb(42, 63, 95); text-shadow: rgb(255, 255, 255) -1px 1px 1px, rgb(255, 255, 255) 1px 1px 1px, rgb(255, 255, 255) 1px -1px 1px, rgb(255, 255, 255) -1px -1px 1px; font-family: 'Open Sans', verdana, arial, sans-serif; font-size: 8px; fill-opacity: 1;"><textPath class="node-label-text-path" alignment-baseline="middle" xlink:href="#adea15_0_node_18" startOffset="100%" text-anchor="end" style="fill: rgb(0, 0, 0);">Building P (105.79KW)</textPath></text></g></g><g class="sankey-node" transform="translate(520.000, 255.925)" style="opacity: 1;"><rect class="node-rect" width="20" height="2.0118808552533096" style="stroke-width: 0.5; stroke: rgb(0, 0, 0); stroke-opacity: 1; fill: rgb(255, 0, 0); fill-opacity: 1;"/><rect class="node-capture" x="-10" y="-7.5" width="40" height="17.01188085525331" style="fill-opacity: 0;"/><g class="node-entered" transform="translate(0 2.005940427626655)"><path class="node-label-guide" id="adea15_0_node_19" d="M-540,0L-4,0" transform="matrix(1 0 0 1 0 0)"/><text class="node-label" transform="scale(1 1)" style="user-select: none; cursor: default; fill: rgb(42, 63, 95); text-shadow: rgb(255, 255, 255) -1px 1px 1px, rgb(255, 255, 255) 1px 1px 1px, rgb(255, 255, 255) 1px -1px 1px, rgb(255, 255, 255) -1px -1px 1px; font-family: 'Open Sans', verdana, arial, sans-serif; font-size: 8px; fill-opacity: 1;"><textPath class="node-label-text-path" alignment-baseline="middle" xlink:href="#adea15_0_node_19" startOffset="100%" text-anchor="end" style="fill: rgb(0, 0, 0);">Building S (41.89KW)</textPath></text></g></g><g class="sankey-node" transform="translate(520.000, 50.425)" style="opacity: 1;"><rect class="node-rect" width="20" height="8.444232322049828" style="stroke-width: 0.5; stroke: rgb(0, 0, 0); stroke-opacity: 1; fill: rgb(255, 0, 0); fill-opacity: 1;"/><rect class="node-capture" x="-10" y="-7.5" width="40" height="23.444232322049828" style="fill-opacity: 0;"/><g class="node-entered" transform="translate(0 5.222116161024914)"><path class="node-label-guide" id="adea15_0_node_20" d="M-540,0L-4,0" transform="matrix(1 0 0 1 0 0)"/><text class="node-label" transform="scale(1 1)" style="user-select: none; cursor: default; fill: rgb(42, 63, 95); text-shadow: rgb(255, 255, 255) -1px 1px 1px, rgb(255, 255, 255) 1px 1px 1px, rgb(255, 255, 255) 1px -1px 1px, rgb(255, 255, 255) -1px -1px 1px; font-family: 'Open Sans', verdana, arial, sans-serif; font-size: 8px; fill-opacity: 1;"><textPath class="node-label-text-path" alignment-baseline="middle" xlink:href="#adea15_0_node_20" startOffset="100%" text-anchor="end" style="fill: rgb(0, 0, 0);">Building T (175.82KW)</textPath></text></g></g><g class="sankey-node" transform="translate(520.000, 307.362)" style="opacity: 1;"><rect class="node-rect" width="20" height="1.32172263395978" style="stroke-width: 0.5; stroke: rgb(0, 0, 0); stroke-opacity: 1; fill: rgb(255, 0, 0); fill-opacity: 1;"/><rect class="node-capture" x="-10" y="-7.5" width="40" height="16.32172263395978" style="fill-opacity: 0;"/><g class="node-entered" transform="translate(0 1.66086131697989)"><path class="node-label-guide" id="adea15_0_node_21" d="M-540,0L-4,0" transform="matrix(1 0 0 1 0 0)"/><text class="node-label" transform="scale(1 1)" style="user-select: none; cursor: default; fill: rgb(42, 63, 95); text-shadow: rgb(255, 255, 255) -1px 1px 1px, rgb(255, 255, 255) 1px 1px 1px, rgb(255, 255, 255) 1px -1px 1px, rgb(255, 255, 255) -1px -1px 1px; font-family: 'Open Sans', verdana, arial, sans-serif; font-size: 8px; fill-opacity: 1;"><textPath class="node-label-text-path" alignment-baseline="middle" xlink:href="#adea15_0_node_21" startOffset="100%" text-anchor="end" style="fill: rgb(0, 0, 0);">Building V (27.52KW)</textPath></text></g></g><g class="sankey-node" transform="translate(520.000, 269.165)" style="opacity: 1;"><rect class="node-rect" width="20" height="2.521454879465523" style="stroke-width: 0.5; stroke: rgb(0, 0, 0); stroke-opacity: 1; fill: rgb(255, 0, 0); fill-opacity: 1;"/><rect class="node-capture" x="-10" y="-7.5" width="40" height="17.521454879465523" style="fill-opacity: 0;"/><g class="node-entered" transform="translate(0 2.2607274397327615)"><path class="node-label-guide" id="adea15_0_node_22" d="M-540,0L-4,0" transform="matrix(1 0 0 1 0 0)"/><text class="node-label" transform="scale(1 1)" style="user-select: none; cursor: default; fill: rgb(42, 63, 95); text-shadow: rgb(255, 255, 255) -1px 1px 1px, rgb(255, 255, 255) 1px 1px 1px, rgb(255, 255, 255) 1px -1px 1px, rgb(255, 255, 255) -1px -1px 1px; font-family: 'Open Sans', verdana, arial, sans-serif; font-size: 8px; fill-opacity: 1;"><textPath class="node-label-text-path" alignment-baseline="middle" xlink:href="#adea15_0_node_22" startOffset="100%" text-anchor="end" style="fill: rgb(0, 0, 0);">Building Z (52.50KW)</textPath></text></g></g><g class="sankey-node" transform="translate(520.000, 70.097)" style="opacity: 1;"><rect class="node-rect" width="20" height="8.250200365610908" style="stroke-width: 0.5; stroke: rgb(0, 0, 0); stroke-opacity: 1; fill: rgb(255, 0, 0); fill-opacity: 1;"/><rect class="node-capture" x="-10" y="-7.5" width="40" height="23.250200365610908" style="fill-opacity: 0;"/><g class="node-entered" transform="translate(0 5.125100182805454)"><path class="node-label-guide" id="adea15_0_node_23" d="M-540,0L-4,0" transform="matrix(1 0 0 1 0 0)"/><text class="node-label" transform="scale(1 1)" style="user-select: none; cursor: default; fill: rgb(42, 63, 95); text-shadow: rgb(255, 255, 255) -1px 1px 1px, rgb(255, 255, 255) 1px 1px 1px, rgb(255, 255, 255) 1px -1px 1px, rgb(255, 255, 255) -1px -1px 1px; font-family: 'Open Sans', verdana, arial, sans-serif; font-size: 8px; fill-opacity: 1;"><textPath class="node-label-text-path" alignment-baseline="middle" xlink:href="#adea15_0_node_23" startOffset="100%" text-anchor="end" style="fill: rgb(0, 0, 0);">Residence 1&amp;2 (171.78KW)</textPath></text></g></g><g class="sankey-node" transform="translate(520.000, 107.845)" style="opacity: 1;"><rect class="node-rect" width="20" height="7.822753728901603" style="stroke-width: 0.5; stroke: rgb(0, 0, 0); stroke-opacity: 1; fill: rgb(255, 0, 0); fill-opacity: 1;"/><rect class="node-capture" x="-10" y="-7.5" width="40" height="22.822753728901603" style="fill-opacity: 0;"/><g class="node-entered" transform="translate(0 4.911376864450801)"><path class="node-label-guide" id="adea15_0_node_24" d="M-540,0L-4,0" transform="matrix(1 0 0 1 0 0)"/><text class="node-label" transform="scale(1 1)" style="user-select: none; cursor: default; fill: rgb(42, 63, 95); text-shadow: rgb(255, 255, 255) -1px 1px 1px, rgb(255, 255, 255) 1px 1px 1px, rgb(255, 255, 255) 1px -1px 1px, rgb(255, 255, 255) -1px -1px 1px; font-family: 'Open Sans', verdana, arial, sans-serif; font-size: 8px; fill-opacity: 1;"><textPath class="node-label-text-path" alignment-baseline="middle" xlink:href="#adea15_0_node_24" startOffset="100%" text-anchor="end" style="fill: rgb(0, 0, 0);">Residence 3 (162.88KW)</textPath></text></g></g><g class="sankey-node" transform="translate(520.000, 161.006)" style="opacity: 1;"><rect class="node-rect" width="20" height="6.765663788005554" style="stroke-width: 0.5; stroke: rgb(0, 0, 0); stroke-opacity: 1; fill: rgb(255, 0, 0); fill-opacity: 1;"/><rect class="node-capture" x="-10" y="-7.5" width="40" height="21.765663788005554" style="fill-opacity: 0;"/><g class="node-entered" transform="translate(0 4.382831894002777)"><path class="node-label-guide" id="adea15_0_node_25" d="M-540,0L-4,0" transform="matrix(1 0 0 1 0 0)"/><text class="node-label" transform="scale(1 1)" style="user-select: none; cursor: default; fill: rgb(42, 63, 95); text-shadow: rgb(255, 255, 255) -1px 1px 1px, rgb(255, 255, 255) 1px 1px 1px, rgb(255, 255, 255) 1px -1px 1px, rgb(255, 255, 255) -1px -1px 1px; font-family: 'Open Sans', verdana, arial, sans-serif; font-size: 8px; fill-opacity: 1;"><textPath class="node-label-text-path" alignment-baseline="middle" xlink:href="#adea15_0_node_25" startOffset="100%" text-anchor="end" style="fill: rgb(0, 0, 0);">Plant Chillers (140.87KW)</textPath></text></g></g></g></g><defs id="topdefs-cf01a9"><g class="clips"/></defs><g class="layer-above"><g class="imagelayer"/><g class="shapelayer"/></g><g class="infolayer"><g class="g-gtitle"><text class="gtitle" x="350" y="50" text-anchor="middle" dy="0em" style="font-family: 'Open Sans', verdana, arial, sans-serif; font-size: 11px; fill: rgb(42, 63, 95); opacity: 1; font-weight: normal; white-space: pre;">Algonquin College Power Usage at 1:00 Jan, 09 2020 (In KW)</text></g><g class="first-render"/></g></svg>