<svg class="main-svg" xmlns="http://www.w3.org/2000/svg" xmlns:xlink="http://www.w3.org/1999/xlink" width="700" height="500" viewBox="0 0 700 500"><rect x="0" y="0" width="700" height="500" style="fill: rgb(255, 255, 255); fill-opacity: 1;"/><defs id="defs-dc1f17"><g class="clips"/><g class="gradients"/></defs><g class="bglayer"/><g class="layer-below"><g class="imagelayer"/><g class="shapelayer"/></g><g class="cartesianlayer"/><g class="polarlayer"/><g class="ternarylayer"/><g class="geolayer"/><g class="funnelarealayer"/><g class="pielayer"/><g class="treemaplayer"/><g class="sunburstlayer"/><g class="glimages"/><g class="sankey" transform="translate(80,100)matrix(1 0 0 1 0 0)" style="box-sizing: content-box; position: absolute; left: 0px; shape-rendering: geometricPrecision; pointer-events: auto;"><g class="sankey-links" style="fill: none;"><path class="sankey-link" d="M20,165.68525319068107C140,165.68525319068107 140,148.0200104374817 260,148.0200104374817L260,181.74164145093744C140,181.74164145093744 140,199.40688420413682 20,199.40688420413682Z" style="stroke: rgb(68, 68, 68); stroke-opacity: 1; fill: rgb(0, 0, 0); fill-opacity: 0.2; stroke-width: 0; opacity: 1;"/><path class="sankey-link" d="M20,85.59641879971215C140,85.59641879971215 140,79.1592462219514 260,79.1592462219514L260,148.02001043748166C140,148.02001043748166 140,154.4571830152424 20,154.4571830152424Z" style="stroke: rgb(68, 68, 68); stroke-opacity: 1; fill: rgb(0, 0, 0); fill-opacity: 0.2; stroke-width: 0; opacity: 1;"/><path class="sankey-link" d="M280,79.15924622195139C400,79.15924622195139 400,-1.2789769243681803e-13 520,-1.2789769243681803e-13L520,19.492147201074186C400,19.492147201074186 400,98.65139342302571 280,98.65139342302571Z" style="stroke: rgb(68, 68, 68); stroke-opacity: 1; fill: rgb(0, 0, 0); fill-opacity: 0.2; stroke-width: 0; opacity: 1;"/><path class="sankey-link" d="M280,181.34772505325816C400,181.34772505325816 400,270.6095314628857 520,270.6095314628857L520,271.65400675976264C400,271.65400675976264 400,182.3922003501351 280,182.3922003501351Z" style="stroke: rgb(68, 68, 68); stroke-opacity: 1; fill: rgb(0, 0, 0); fill-opacity: 0.2; stroke-width: 0; opacity: 1;"/><path class="sankey-link" d="M280,109.55235828039538C400,109.55235828039538 400,52.84925240932111 520,52.84925240932111L520,62.27564196363558C400,62.27564196363558 400,118.97874783470984 280,118.97874783470984Z" style="stroke: rgb(68, 68, 68); stroke-opacity: 1; fill: rgb(0, 0, 0); fill-opacity: 0.2; stroke-width: 0; opacity: 1;"/><path class="sankey-link" d="M280,118.97874783470985C400,118.97874783470985 400,73.50371213907422 520,73.50371213907422L520,80.82585699707337C400,80.82585699707337 400,126.300892692709 280,126.300892692709Z" style="stroke: rgb(68, 68, 68); stroke-opacity: 1; fill: rgb(0, 0, 0); fill-opacity: 0.2; stroke-width: 0; opacity: 1;"/><path class="sankey-link" d="M280,165.20908960894232C400,165.20908960894232 400,198.33054514137694 520,198.33054514137694L520,201.57737120709731C400,201.57737120709731 400,168.4559156746627 280,168.4559156746627Z" style="stroke: rgb(68, 68, 68); stroke-opacity: 1; fill: rgb(0, 0, 0); fill-opacity: 0.2; stroke-width: 0; opacity: 1;"/><path class="sankey-link" d="M280,126.30089269270898C400,126.30089269270898 400,92.053927172512 520,92.053927172512L520,99.58907038569572C400,99.58907038569572 400,133.8360359058927 280,133.8360359058927Z" style="stroke: rgb(68, 68, 68); stroke-opacity: 1; fill: rgb(0, 0, 0); fill-opacity: 0.2; stroke-width: 0; opacity: 1;"/><path class="sankey-link" d="M280,184.04769369568507C400,184.04769369568507 400,295.7656404561898 520,295.7656404561898L520,296.34868148798216C400,296.34868148798216 400,184.63073472747746 280,184.63073472747746Z" style="stroke: rgb(0, 0, 0); stroke-opacity: 0.2; fill: rgb(0, 0, 0); fill-opacity: 0.2; stroke-width: 1; opacity: 1;"/><path class="sankey-link" d="M280,149.86947776673736C400,149.86947776673736 400,149.3067227728562 520,149.3067227728562L520,154.79171018902716C400,154.79171018902716 400,155.3544651829083 280,155.3544651829083Z" style="stroke: rgb(68, 68, 68); stroke-opacity: 1; fill: rgb(0, 0, 0); fill-opacity: 0.2; stroke-width: 0; opacity: 1;"/><path class="sankey-link" d="M280,176.01903590472702C400,176.01903590472702 400,242.82470196347742 520,242.82470196347742L520,245.6791037390854C400,245.6791037390854 400,178.873437680335 280,178.873437680335Z" style="stroke: rgb(68, 68, 68); stroke-opacity: 1; fill: rgb(0, 0, 0); fill-opacity: 0.2; stroke-width: 0; opacity: 1;"/><path class="sankey-link" d="M280,185.46668799187077C400,185.46668799187077 400,319.6407751032526 520,319.6407751032526L520,320C400,320 400,185.8259128886181 280,185.8259128886181Z" style="stroke: rgb(0, 0, 0); stroke-opacity: 0.2; fill: rgb(0, 0, 0); fill-opacity: 0.2; stroke-width: 1; opacity: 1;"/><path class="sankey-link" d="M280,168.45591567466266C400,168.45591567466266 400,212.8054413825359 520,212.8054413825359L520,216.5532425638654C400,216.5532425638654 400,172.20371685599218 280,172.20371685599218Z" style="stroke: rgb(68, 68, 68); stroke-opacity: 1; fill: rgb(0, 0, 0); fill-opacity: 0.2; stroke-width: 0; opacity: 1;"/><path class="sankey-link" d="M280,172.2037168559922C400,172.2037168559922 400,227.78131273930404 520,227.78131273930404L520,231.59663178803885C400,231.59663178803885 400,176.01903590472702 280,176.01903590472702Z" style="stroke: rgb(68, 68, 68); stroke-opacity: 1; fill: rgb(0, 0, 0); fill-opacity: 0.2; stroke-width: 0; opacity: 1;"/><path class="sankey-link" d="M280,155.3544651829083C400,155.3544651829083 400,166.01978036446576 520,166.01978036446576L520,170.5669781747979C400,170.5669781747979 400,159.90166299324045 280,159.90166299324045Z" style="stroke: rgb(68, 68, 68); stroke-opacity: 1; fill: rgb(0, 0, 0); fill-opacity: 0.2; stroke-width: 0; opacity: 1;"/><path class="sankey-link" d="M280,182.3922003501351C400,182.3922003501351 400,282.8820769352012 520,282.8820769352012L520,284.5375702807512C400,284.5375702807512 400,184.0476936956851 280,184.0476936956851Z" style="stroke: rgb(68, 68, 68); stroke-opacity: 1; fill: rgb(0, 0, 0); fill-opacity: 0.2; stroke-width: 0; opacity: 1;"/><path class="sankey-link" d="M280,98.65139342302571C400,98.65139342302571 400,30.720217376512835 520,30.720217376512835L520,41.62118223388251C400,41.62118223388251 400,109.55235828039538 280,109.55235828039538Z" style="stroke: rgb(68, 68, 68); stroke-opacity: 1; fill: rgb(0, 0, 0); fill-opacity: 0.2; stroke-width: 0; opacity: 1;"/><path class="sankey-link" d="M280,184.63073472747746C400,184.63073472747746 400,307.57675166342074 520,307.57675166342074L520,308.41270492781405C400,308.41270492781405 400,185.46668799187077 280,185.46668799187077Z" style="stroke: rgb(0, 0, 0); stroke-opacity: 0.2; fill: rgb(0, 0, 0); fill-opacity: 0.2; stroke-width: 1; opacity: 1;"/><path class="sankey-link" d="M280,178.87343768033503C400,178.87343768033503 400,256.907173914524 520,256.907173914524L520,259.38146128744717C400,259.38146128744717 400,181.34772505325816 280,181.34772505325816Z" style="stroke: rgb(68, 68, 68); stroke-opacity: 1; fill: rgb(0, 0, 0); fill-opacity: 0.2; stroke-width: 0; opacity: 1;"/><path class="sankey-link" d="M280,133.83603590589271C400,133.83603590589271 400,110.81714056113435 520,110.81714056113435L520,119.05357433079257C400,119.05357433079257 400,142.07246967555093 280,142.07246967555093Z" style="stroke: rgb(68, 68, 68); stroke-opacity: 1; fill: rgb(0, 0, 0); fill-opacity: 0.2; stroke-width: 0; opacity: 1;"/><path class="sankey-link" d="M280,142.07246967555093C400,142.07246967555093 400,130.2816445062312 520,130.2816445062312L520,138.0786525974176C400,138.0786525974176 400,149.86947776673733 280,149.86947776673733Z" style="stroke: rgb(68, 68, 68); stroke-opacity: 1; fill: rgb(0, 0, 0); fill-opacity: 0.2; stroke-width: 0; opacity: 1;"/><path class="sankey-link" d="M280,159.90166299324045C400,159.90166299324045 400,181.79504835023653 520,181.79504835023653L520,187.10247496593837C400,187.10247496593837 400,165.2090896089423 280,165.2090896089423Z" style="stroke: rgb(68, 68, 68); stroke-opacity: 1; fill: rgb(0, 0, 0); fill-opacity: 0.2; stroke-width: 0; opacity: 1;"/></g><g class="sankey-node-set" style="cursor: move;"><g class="sankey-node" transform="translate(0.000, 165.685)" style="opacity: 1;"><rect class="node-rect" width="20" height="33.72163101345569" style="stroke-width: 0.5; stroke: rgb(0, 0, 0); stroke-opacity: 1; fill: rgb(0, 128, 0); fill-opacity: 1;"/><rect class="node-capture" x="-10" y="-7.5" width="40" height="48.72163101345569" style="fill-opacity: 0;"/><g class="node-entered" transform="translate(0 17.860815506727846)"><path class="node-label-guide" id="2e5c93_0_node_0" d="M24,0L540,0" transform="matrix(1 0 0 1 0 0)"/><text class="node-label" transform="scale(1 1)" style="user-select: none; cursor: default; fill: rgb(42, 63, 95); text-shadow: rgb(255, 255, 255) -1px 1px 1px, rgb(255, 255, 255) 1px 1px 1px, rgb(255, 255, 255) 1px -1px 1px, rgb(255, 255, 255) -1px -1px 1px; font-family: 'Open Sans', verdana, arial, sans-serif; font-size: 8px; fill-opacity: 1;"><textPath class="node-label-text-path" alignment-baseline="middle" xlink:href="#2e5c93_0_node_0" startOffset="0%" text-anchor="start" style="fill: rgb(0, 0, 0);">Hydro Power (904.00KW )</textPath></text></g></g><g class="sankey-node" transform="translate(0.000, 85.596)" style="opacity: 1;"><rect class="node-rect" width="20" height="68.8607642155303" style="stroke-width: 0.5; stroke: rgb(0, 0, 0); stroke-opacity: 1; fill: rgb(0, 128, 0); fill-opacity: 1;"/><rect class="node-capture" x="-10" y="-7.5" width="40" height="83.8607642155303" style="fill-opacity: 0;"/><g class="node-entered" transform="translate(0 35.43038210776515)"><path class="node-label-guide" id="2e5c93_0_node_2" d="M24,0L540,0" transform="matrix(1 0 0 1 0 0)"/><text class="node-label" transform="scale(1 1)" style="user-select: none; cursor: default; fill: rgb(42, 63, 95); text-shadow: rgb(255, 255, 255) -1px 1px 1px, rgb(255, 255, 255) 1px 1px 1px, rgb(255, 255, 255) 1px -1px 1px, rgb(255, 255, 255) -1px -1px 1px; font-family: 'Open Sans', verdana, arial, sans-serif; font-size: 8px; fill-opacity: 1;"><textPath class="node-label-text-path" alignment-baseline="middle" xlink:href="#2e5c93_0_node_2" startOffset="0%" text-anchor="start" style="fill: rgb(0, 0, 0);">COGEN 2 (1846.00KW)</textPath></text></g></g><g class="sankey-node" transform="translate(260.000, 79.159)" style="opacity: 1;"><rect class="node-rect" width="20" height="106.66666666666659" style="stroke-width: 0.5; stroke: rgb(0, 0, 0); stroke-opacity: 1; fill: rgb(255, 255, 0); fill-opacity: 1;"/><rect class="node-capture" x="-10" y="-7.5" width="40" height="121.66666666666659" style="fill-opacity: 0;"/><g class="node-entered" transform="translate(0 54.33333333333329)"><path class="node-label-guide" id="2e5c93_0_node_5" d="M24,0L540,0" transform="matrix(1 0 0 1 0 0)"/><text class="node-label" transform="scale(1 1)" style="user-select: none; cursor: default; fill: rgb(42, 63, 95); text-shadow: rgb(255, 255, 255) -1px 1px 1px, rgb(255, 255, 255) 1px 1px 1px, rgb(255, 255, 255) 1px -1px 1px, rgb(255, 255, 255) -1px -1px 1px; font-family: 'Open Sans', verdana, arial, sans-serif; font-size: 8px; fill-opacity: 1;"><textPath class="node-label-text-path" alignment-baseline="middle" xlink:href="#2e5c93_0_node_5" startOffset="0%" text-anchor="start" style="fill: rgb(0, 0, 0);">Total Power (2750.00KW)</textPath></text></g></g><g class="sankey-node" transform="translate(520.000, -0.000)" style="opacity: 1;"><rect class="node-rect" width="20" height="19.49214720107436" style="stroke-width: 0.5; stroke: rgb(0, 0, 0); stroke-opacity: 1; fill: rgb(255, 0, 0); fill-opacity: 1;"/><rect class="node-capture" x="-10" y="-7.5" width="40" height="34.49214720107436" style="fill-opacity: 0;"/><g class="node-entered" transform="translate(0 10.74607360053718)"><path class="node-label-guide" id="2e5c93_0_node_6" d="M-540,0L-4,0" transform="matrix(1 0 0 1 0 0)"/><text class="node-label" transform="scale(1 1)" style="user-select: none; cursor: default; fill: rgb(42, 63, 95); text-shadow: rgb(255, 255, 255) -1px 1px 1px, rgb(255, 255, 255) 1px 1px 1px, rgb(255, 255, 255) 1px -1px 1px, rgb(255, 255, 255) -1px -1px 1px; font-family: 'Open Sans', verdana, arial, sans-serif; font-size: 8px; fill-opacity: 1;"><textPath class="node-label-text-path" alignment-baseline="middle" xlink:href="#2e5c93_0_node_6" startOffset="100%" text-anchor="end" style="fill: rgb(0, 0, 0);">Building A (522.54KW)</textPath></text></g></g><g class="sankey-node" transform="translate(520.000, 270.610)" style="opacity: 1;"><rect class="node-rect" width="20" height="1.0444752968769535" style="stroke-width: 0.5; stroke: rgb(0, 0, 0); stroke-opacity: 1; fill: rgb(255, 0, 0); fill-opacity: 1;"/><rect class="node-capture" x="-10" y="-7.5" width="40" height="16.044475296876954" style="fill-opacity: 0;"/><g class="node-entered" transform="translate(0 1.5222376484384768)"><path class="node-label-guide" id="2e5c93_0_node_7" d="M-540,0L-4,0" transform="matrix(1 0 0 1 0 0)"/><text class="node-label" transform="scale(1 1)" style="user-select: none; cursor: default; fill: rgb(42, 63, 95); text-shadow: rgb(255, 255, 255) -1px 1px 1px, rgb(255, 255, 255) 1px 1px 1px, rgb(255, 255, 255) 1px -1px 1px, rgb(255, 255, 255) -1px -1px 1px; font-family: 'Open Sans', verdana, arial, sans-serif; font-size: 8px; fill-opacity: 1;"><textPath class="node-label-text-path" alignment-baseline="middle" xlink:href="#2e5c93_0_node_7" startOffset="100%" text-anchor="end" style="fill: rgb(0, 0, 0);">Building A Fitness Zone (28.00KW)</textPath></text></g></g><g class="sankey-node" transform="translate(520.000, 52.849)" style="opacity: 1;"><rect class="node-rect" width="20" height="9.426389554314511" style="stroke-width: 0.5; stroke: rgb(0, 0, 0); stroke-opacity: 1; fill: rgb(255, 0, 0); fill-opacity: 1;"/><rect class="node-capture" x="-10" y="-7.5" width="40" height="24.42638955431451" style="fill-opacity: 0;"/><g class="node-entered" transform="translate(0 5.7131947771572555)"><path class="node-label-guide" id="2e5c93_0_node_8" d="M-540,0L-4,0" transform="matrix(1 0 0 1 0 0)"/><text class="node-label" transform="scale(1 1)" style="user-select: none; cursor: default; fill: rgb(42, 63, 95); text-shadow: rgb(255, 255, 255) -1px 1px 1px, rgb(255, 255, 255) 1px 1px 1px, rgb(255, 255, 255) 1px -1px 1px, rgb(255, 255, 255) -1px -1px 1px; font-family: 'Open Sans', verdana, arial, sans-serif; font-size: 8px; fill-opacity: 1;"><textPath class="node-label-text-path" alignment-baseline="middle" xlink:href="#2e5c93_0_node_8" startOffset="100%" text-anchor="end" style="fill: rgb(0, 0, 0);">Building B (252.70KW)</textPath></text></g></g><g class="sankey-node" transform="translate(520.000, 73.504)" style="opacity: 1;"><rect class="node-rect" width="20" height="7.322144857999177" style="stroke-width: 0.5; stroke: rgb(0, 0, 0); stroke-opacity: 1; fill: rgb(255, 0, 0); fill-opacity: 1;"/><rect class="node-capture" x="-10" y="-7.5" width="40" height="22.322144857999177" style="fill-opacity: 0;"/><g class="node-entered" transform="translate(0 4.661072428999589)"><path class="node-label-guide" id="2e5c93_0_node_9" d="M-540,0L-4,0" transform="matrix(1 0 0 1 0 0)"/><text class="node-label" transform="scale(1 1)" style="user-select: none; cursor: default; fill: rgb(42, 63, 95); text-shadow: rgb(255, 255, 255) -1px 1px 1px, rgb(255, 255, 255) 1px 1px 1px, rgb(255, 255, 255) 1px -1px 1px, rgb(255, 255, 255) -1px -1px 1px; font-family: 'Open Sans', verdana, arial, sans-serif; font-size: 8px; fill-opacity: 1;"><textPath class="node-label-text-path" alignment-baseline="middle" xlink:href="#2e5c93_0_node_9" startOffset="100%" text-anchor="end" style="fill: rgb(0, 0, 0);">Building C (196.29KW)</textPath></text></g></g><g class="sankey-node" transform="translate(520.000, 198.331)" style="opacity: 1;"><rect class="node-rect" width="20" height="3.24682606572037" style="stroke-width: 0.5; stroke: rgb(0, 0, 0); stroke-opacity: 1; fill: rgb(255, 0, 0); fill-opacity: 1;"/><rect class="node-capture" x="-10" y="-7.5" width="40" height="18.24682606572037" style="fill-opacity: 0;"/><g class="node-entered" transform="translate(0 2.623413032860185)"><path class="node-label-guide" id="2e5c93_0_node_10" d="M-540,0L-4,0" transform="matrix(1 0 0 1 0 0)"/><text class="node-label" transform="scale(1 1)" style="user-select: none; cursor: default; fill: rgb(42, 63, 95); text-shadow: rgb(255, 255, 255) -1px 1px 1px, rgb(255, 255, 255) 1px 1px 1px, rgb(255, 255, 255) 1px -1px 1px, rgb(255, 255, 255) -1px -1px 1px; font-family: 'Open Sans', verdana, arial, sans-serif; font-size: 8px; fill-opacity: 1;"><textPath class="node-label-text-path" alignment-baseline="middle" xlink:href="#2e5c93_0_node_10" startOffset="100%" text-anchor="end" style="fill: rgb(0, 0, 0);">Building D (87.04KW)</textPath></text></g></g><g class="sankey-node" transform="translate(520.000, 92.054)" style="opacity: 1;"><rect class="node-rect" width="20" height="7.535143213183744" style="stroke-width: 0.5; stroke: rgb(0, 0, 0); stroke-opacity: 1; fill: rgb(255, 0, 0); fill-opacity: 1;"/><rect class="node-capture" x="-10" y="-7.5" width="40" height="22.535143213183744" style="fill-opacity: 0;"/><g class="node-entered" transform="translate(0 4.767571606591872)"><path class="node-label-guide" id="2e5c93_0_node_11" d="M-540,0L-4,0" transform="matrix(1 0 0 1 0 0)"/><text class="node-label" transform="scale(1 1)" style="user-select: none; cursor: default; fill: rgb(42, 63, 95); text-shadow: rgb(255, 255, 255) -1px 1px 1px, rgb(255, 255, 255) 1px 1px 1px, rgb(255, 255, 255) 1px -1px 1px, rgb(255, 255, 255) -1px -1px 1px; font-family: 'Open Sans', verdana, arial, sans-serif; font-size: 8px; fill-opacity: 1;"><textPath class="node-label-text-path" alignment-baseline="middle" xlink:href="#2e5c93_0_node_11" startOffset="100%" text-anchor="end" style="fill: rgb(0, 0, 0);">Building E (202.00KW)</textPath></text></g></g><g class="sankey-node" transform="translate(520.000, 295.766)" style="opacity: 1;"><rect class="node-rect" width="20" height="0.5830410317923906" style="stroke-width: 0.5; stroke: rgb(0, 0, 0); stroke-opacity: 1; fill: rgb(255, 0, 0); fill-opacity: 1;"/><rect class="node-capture" x="-10" y="-7.5" width="40" height="15.58304103179239" style="fill-opacity: 0;"/><g class="node-entered" transform="translate(0 1.2915205158961953)"><path class="node-label-guide" id="2e5c93_0_node_12" d="M-540,0L-4,0" transform="matrix(1 0 0 1 0 0)"/><text class="node-label" transform="scale(1 1)" style="user-select: none; cursor: default; fill: rgb(42, 63, 95); text-shadow: rgb(255, 255, 255) -1px 1px 1px, rgb(255, 255, 255) 1px 1px 1px, rgb(255, 255, 255) 1px -1px 1px, rgb(255, 255, 255) -1px -1px 1px; font-family: 'Open Sans', verdana, arial, sans-serif; font-size: 8px; fill-opacity: 1;"><textPath class="node-label-text-path" alignment-baseline="middle" xlink:href="#2e5c93_0_node_12" startOffset="100%" text-anchor="end" style="fill: rgb(0, 0, 0);">Building G (15.63KW)</textPath></text></g></g><g class="sankey-node" transform="translate(520.000, 149.307)" style="opacity: 1;"><rect class="node-rect" width="20" height="5.484987416170952" style="stroke-width: 0.5; stroke: rgb(0, 0, 0); stroke-opacity: 1; fill: rgb(255, 0, 0); fill-opacity: 1;"/><rect class="node-capture" x="-10" y="-7.5" width="40" height="20.484987416170952" style="fill-opacity: 0;"/><g class="node-entered" transform="translate(0 3.742493708085476)"><path class="node-label-guide" id="2e5c93_0_node_13" d="M-540,0L-4,0" transform="matrix(1 0 0 1 0 0)"/><text class="node-label" transform="scale(1 1)" style="user-select: none; cursor: default; fill: rgb(42, 63, 95); text-shadow: rgb(255, 255, 255) -1px 1px 1px, rgb(255, 255, 255) 1px 1px 1px, rgb(255, 255, 255) 1px -1px 1px, rgb(255, 255, 255) -1px -1px 1px; font-family: 'Open Sans', verdana, arial, sans-serif; font-size: 8px; fill-opacity: 1;"><textPath class="node-label-text-path" alignment-baseline="middle" xlink:href="#2e5c93_0_node_13" startOffset="100%" text-anchor="end" style="fill: rgb(0, 0, 0);">Building H (147.04KW)</textPath></text></g></g><g class="sankey-node" transform="translate(520.000, 242.825)" style="opacity: 1;"><rect class="node-rect" width="20" height="2.8544017756079825" style="stroke-width: 0.5; stroke: rgb(0, 0, 0); stroke-opacity: 1; fill: rgb(255, 0, 0); fill-opacity: 1;"/><rect class="node-capture" x="-10" y="-7.5" width="40" height="17.854401775607982" style="fill-opacity: 0;"/><g class="node-entered" transform="translate(0 2.4272008878039912)"><path class="node-label-guide" id="2e5c93_0_node_14" d="M-540,0L-4,0" transform="matrix(1 0 0 1 0 0)"/><text class="node-label" transform="scale(1 1)" style="user-select: none; cursor: default; fill: rgb(42, 63, 95); text-shadow: rgb(255, 255, 255) -1px 1px 1px, rgb(255, 255, 255) 1px 1px 1px, rgb(255, 255, 255) 1px -1px 1px, rgb(255, 255, 255) -1px -1px 1px; font-family: 'Open Sans', verdana, arial, sans-serif; font-size: 8px; fill-opacity: 1;"><textPath class="node-label-text-path" alignment-baseline="middle" xlink:href="#2e5c93_0_node_14" startOffset="100%" text-anchor="end" style="fill: rgb(0, 0, 0);">Building J (76.52KW)</textPath></text></g></g><g class="sankey-node" transform="translate(520.000, 319.641)" style="opacity: 1;"><rect class="node-rect" width="20" height="0.5" style="stroke-width: 0.5; stroke: rgb(0, 0, 0); stroke-opacity: 1; fill: rgb(255, 0, 0); fill-opacity: 1;"/><rect class="node-capture" x="-10" y="-7.5" width="40" height="15.5" style="fill-opacity: 0;"/><g class="node-entered" transform="translate(0 1.179612448373689)"><path class="node-label-guide" id="2e5c93_0_node_15" d="M-540,0L-4,0" transform="matrix(1 0 0 1 0 0)"/><text class="node-label" transform="scale(1 1)" style="user-select: none; cursor: default; fill: rgb(42, 63, 95); text-shadow: rgb(255, 255, 255) -1px 1px 1px, rgb(255, 255, 255) 1px 1px 1px, rgb(255, 255, 255) 1px -1px 1px, rgb(255, 255, 255) -1px -1px 1px; font-family: 'Open Sans', verdana, arial, sans-serif; font-size: 8px; fill-opacity: 1;"><textPath class="node-label-text-path" alignment-baseline="middle" xlink:href="#2e5c93_0_node_15" startOffset="100%" text-anchor="end" style="fill: rgb(0, 0, 0);">Building K (9.63KW)</textPath></text></g></g><g class="sankey-node" transform="translate(520.000, 212.805)" style="opacity: 1;"><rect class="node-rect" width="20" height="3.747801181329578" style="stroke-width: 0.5; stroke: rgb(0, 0, 0); stroke-opacity: 1; fill: rgb(255, 0, 0); fill-opacity: 1;"/><rect class="node-capture" x="-10" y="-7.5" width="40" height="18.747801181329578" style="fill-opacity: 0;"/><g class="node-entered" transform="translate(0 2.873900590664789)"><path class="node-label-guide" id="2e5c93_0_node_16" d="M-540,0L-4,0" transform="matrix(1 0 0 1 0 0)"/><text class="node-label" transform="scale(1 1)" style="user-select: none; cursor: default; fill: rgb(42, 63, 95); text-shadow: rgb(255, 255, 255) -1px 1px 1px, rgb(255, 255, 255) 1px 1px 1px, rgb(255, 255, 255) 1px -1px 1px, rgb(255, 255, 255) -1px -1px 1px; font-family: 'Open Sans', verdana, arial, sans-serif; font-size: 8px; fill-opacity: 1;"><textPath class="node-label-text-path" alignment-baseline="middle" xlink:href="#2e5c93_0_node_16" startOffset="100%" text-anchor="end" style="fill: rgb(0, 0, 0);">Building M (100.47KW)</textPath></text></g></g><g class="sankey-node" transform="translate(520.000, 227.781)" style="opacity: 1;"><rect class="node-rect" width="20" height="3.815319048734807" style="stroke-width: 0.5; stroke: rgb(0, 0, 0); stroke-opacity: 1; fill: rgb(255, 0, 0); fill-opacity: 1;"/><rect class="node-capture" x="-10" y="-7.5" width="40" height="18.815319048734807" style="fill-opacity: 0;"/><g class="node-entered" transform="translate(0 2.9076595243674035)"><path class="node-label-guide" id="2e5c93_0_node_17" d="M-540,0L-4,0" transform="matrix(1 0 0 1 0 0)"/><text class="node-label" transform="scale(1 1)" style="user-select: none; cursor: default; fill: rgb(42, 63, 95); text-shadow: rgb(255, 255, 255) -1px 1px 1px, rgb(255, 255, 255) 1px 1px 1px, rgb(255, 255, 255) 1px -1px 1px, rgb(255, 255, 255) -1px -1px 1px; font-family: 'Open Sans', verdana, arial, sans-serif; font-size: 8px; fill-opacity: 1;"><textPath class="node-label-text-path" alignment-baseline="middle" xlink:href="#2e5c93_0_node_17" startOffset="100%" text-anchor="end" style="fill: rgb(0, 0, 0);">Building N (102.28KW)</textPath></text></g></g><g class="sankey-node" transform="translate(520.000, 166.020)" style="opacity: 1;"><rect class="node-rect" width="20" height="4.547197810332193" style="stroke-width: 0.5; stroke: rgb(0, 0, 0); stroke-opacity: 1; fill: rgb(255, 0, 0); fill-opacity: 1;"/><rect class="node-capture" x="-10" y="-7.5" width="40" height="19.547197810332193" style="fill-opacity: 0;"/><g class="node-entered" transform="translate(0 3.2735989051660965)"><path class="node-label-guide" id="2e5c93_0_node_18" d="M-540,0L-4,0" transform="matrix(1 0 0 1 0 0)"/><text class="node-label" transform="scale(1 1)" style="user-select: none; cursor: default; fill: rgb(42, 63, 95); text-shadow: rgb(255, 255, 255) -1px 1px 1px, rgb(255, 255, 255) 1px 1px 1px, rgb(255, 255, 255) 1px -1px 1px, rgb(255, 255, 255) -1px -1px 1px; font-family: 'Open Sans', verdana, arial, sans-serif; font-size: 8px; fill-opacity: 1;"><textPath class="node-label-text-path" alignment-baseline="middle" xlink:href="#2e5c93_0_node_18" startOffset="100%" text-anchor="end" style="fill: rgb(0, 0, 0);">Building P (121.90KW)</textPath></text></g></g><g class="sankey-node" transform="translate(520.000, 282.882)" style="opacity: 1;"><rect class="node-rect" width="20" height="1.655493345549985" style="stroke-width: 0.5; stroke: rgb(0, 0, 0); stroke-opacity: 1; fill: rgb(255, 0, 0); fill-opacity: 1;"/><rect class="node-capture" x="-10" y="-7.5" width="40" height="16.655493345549985" style="fill-opacity: 0;"/><g class="node-entered" transform="translate(0 1.8277466727749925)"><path class="node-label-guide" id="2e5c93_0_node_19" d="M-540,0L-4,0" transform="matrix(1 0 0 1 0 0)"/><text class="node-label" transform="scale(1 1)" style="user-select: none; cursor: default; fill: rgb(42, 63, 95); text-shadow: rgb(255, 255, 255) -1px 1px 1px, rgb(255, 255, 255) 1px 1px 1px, rgb(255, 255, 255) 1px -1px 1px, rgb(255, 255, 255) -1px -1px 1px; font-family: 'Open Sans', verdana, arial, sans-serif; font-size: 8px; fill-opacity: 1;"><textPath class="node-label-text-path" alignment-baseline="middle" xlink:href="#2e5c93_0_node_19" startOffset="100%" text-anchor="end" style="fill: rgb(0, 0, 0);">Building S (44.38KW)</textPath></text></g></g><g class="sankey-node" transform="translate(520.000, 30.720)" style="opacity: 1;"><rect class="node-rect" width="20" height="10.900964857369672" style="stroke-width: 0.5; stroke: rgb(0, 0, 0); stroke-opacity: 1; fill: rgb(255, 0, 0); fill-opacity: 1;"/><rect class="node-capture" x="-10" y="-7.5" width="40" height="25.900964857369672" style="fill-opacity: 0;"/><g class="node-entered" transform="translate(0 6.450482428684836)"><path class="node-label-guide" id="2e5c93_0_node_20" d="M-540,0L-4,0" transform="matrix(1 0 0 1 0 0)"/><text class="node-label" transform="scale(1 1)" style="user-select: none; cursor: default; fill: rgb(42, 63, 95); text-shadow: rgb(255, 255, 255) -1px 1px 1px, rgb(255, 255, 255) 1px 1px 1px, rgb(255, 255, 255) 1px -1px 1px, rgb(255, 255, 255) -1px -1px 1px; font-family: 'Open Sans', verdana, arial, sans-serif; font-size: 8px; fill-opacity: 1;"><textPath class="node-label-text-path" alignment-baseline="middle" xlink:href="#2e5c93_0_node_20" startOffset="100%" text-anchor="end" style="fill: rgb(0, 0, 0);">Building T (292.23KW)</textPath></text></g></g><g class="sankey-node" transform="translate(520.000, 307.577)" style="opacity: 1;"><rect class="node-rect" width="20" height="0.8359532643933107" style="stroke-width: 0.5; stroke: rgb(0, 0, 0); stroke-opacity: 1; fill: rgb(255, 0, 0); fill-opacity: 1;"/><rect class="node-capture" x="-10" y="-7.5" width="40" height="15.83595326439331" style="fill-opacity: 0;"/><g class="node-entered" transform="translate(0 1.4179766321966554)"><path class="node-label-guide" id="2e5c93_0_node_21" d="M-540,0L-4,0" transform="matrix(1 0 0 1 0 0)"/><text class="node-label" transform="scale(1 1)" style="user-select: none; cursor: default; fill: rgb(42, 63, 95); text-shadow: rgb(255, 255, 255) -1px 1px 1px, rgb(255, 255, 255) 1px 1px 1px, rgb(255, 255, 255) 1px -1px 1px, rgb(255, 255, 255) -1px -1px 1px; font-family: 'Open Sans', verdana, arial, sans-serif; font-size: 8px; fill-opacity: 1;"><textPath class="node-label-text-path" alignment-baseline="middle" xlink:href="#2e5c93_0_node_21" startOffset="100%" text-anchor="end" style="fill: rgb(0, 0, 0);">Building V (22.41KW)</textPath></text></g></g><g class="sankey-node" transform="translate(520.000, 256.907)" style="opacity: 1;"><rect class="node-rect" width="20" height="2.474287372923129" style="stroke-width: 0.5; stroke: rgb(0, 0, 0); stroke-opacity: 1; fill: rgb(255, 0, 0); fill-opacity: 1;"/><rect class="node-capture" x="-10" y="-7.5" width="40" height="17.47428737292313" style="fill-opacity: 0;"/><g class="node-entered" transform="translate(0 2.2371436864615646)"><path class="node-label-guide" id="2e5c93_0_node_22" d="M-540,0L-4,0" transform="matrix(1 0 0 1 0 0)"/><text class="node-label" transform="scale(1 1)" style="user-select: none; cursor: default; fill: rgb(42, 63, 95); text-shadow: rgb(255, 255, 255) -1px 1px 1px, rgb(255, 255, 255) 1px 1px 1px, rgb(255, 255, 255) 1px -1px 1px, rgb(255, 255, 255) -1px -1px 1px; font-family: 'Open Sans', verdana, arial, sans-serif; font-size: 8px; fill-opacity: 1;"><textPath class="node-label-text-path" alignment-baseline="middle" xlink:href="#2e5c93_0_node_22" startOffset="100%" text-anchor="end" style="fill: rgb(0, 0, 0);">Building Z (66.33KW)</textPath></text></g></g><g class="sankey-node" transform="translate(520.000, 110.817)" style="opacity: 1;"><rect class="node-rect" width="20" height="8.236433769658248" style="stroke-width: 0.5; stroke: rgb(0, 0, 0); stroke-opacity: 1; fill: rgb(255, 0, 0); fill-opacity: 1;"/><rect class="node-capture" x="-10" y="-7.5" width="40" height="23.236433769658248" style="fill-opacity: 0;"/><g class="node-entered" transform="translate(0 5.118216884829124)"><path class="node-label-guide" id="2e5c93_0_node_23" d="M-540,0L-4,0" transform="matrix(1 0 0 1 0 0)"/><text class="node-label" transform="scale(1 1)" style="user-select: none; cursor: default; fill: rgb(42, 63, 95); text-shadow: rgb(255, 255, 255) -1px 1px 1px, rgb(255, 255, 255) 1px 1px 1px, rgb(255, 255, 255) 1px -1px 1px, rgb(255, 255, 255) -1px -1px 1px; font-family: 'Open Sans', verdana, arial, sans-serif; font-size: 8px; fill-opacity: 1;"><textPath class="node-label-text-path" alignment-baseline="middle" xlink:href="#2e5c93_0_node_23" startOffset="100%" text-anchor="end" style="fill: rgb(0, 0, 0);">Residence 1&amp;2 (220.80KW)</textPath></text></g></g><g class="sankey-node" transform="translate(520.000, 130.282)" style="opacity: 1;"><rect class="node-rect" width="20" height="7.797008091186399" style="stroke-width: 0.5; stroke: rgb(0, 0, 0); stroke-opacity: 1; fill: rgb(255, 0, 0); fill-opacity: 1;"/><rect class="node-capture" x="-10" y="-7.5" width="40" height="22.7970080911864" style="fill-opacity: 0;"/><g class="node-entered" transform="translate(0 4.898504045593199)"><path class="node-label-guide" id="2e5c93_0_node_24" d="M-540,0L-4,0" transform="matrix(1 0 0 1 0 0)"/><text class="node-label" transform="scale(1 1)" style="user-select: none; cursor: default; fill: rgb(42, 63, 95); text-shadow: rgb(255, 255, 255) -1px 1px 1px, rgb(255, 255, 255) 1px 1px 1px, rgb(255, 255, 255) 1px -1px 1px, rgb(255, 255, 255) -1px -1px 1px; font-family: 'Open Sans', verdana, arial, sans-serif; font-size: 8px; fill-opacity: 1;"><textPath class="node-label-text-path" alignment-baseline="middle" xlink:href="#2e5c93_0_node_24" startOffset="100%" text-anchor="end" style="fill: rgb(0, 0, 0);">Residence 3 (209.02KW)</textPath></text></g></g><g class="sankey-node" transform="translate(520.000, 181.795)" style="opacity: 1;"><rect class="node-rect" width="20" height="5.307426615701843" style="stroke-width: 0.5; stroke: rgb(0, 0, 0); stroke-opacity: 1; fill: rgb(255, 0, 0); fill-opacity: 1;"/><rect class="node-capture" x="-10" y="-7.5" width="40" height="20.307426615701843" style="fill-opacity: 0;"/><g class="node-entered" transform="translate(0 3.6537133078509214)"><path class="node-label-guide" id="2e5c93_0_node_25" d="M-540,0L-4,0" transform="matrix(1 0 0 1 0 0)"/><text class="node-label" transform="scale(1 1)" style="user-select: none; cursor: default; fill: rgb(42, 63, 95); text-shadow: rgb(255, 255, 255) -1px 1px 1px, rgb(255, 255, 255) 1px 1px 1px, rgb(255, 255, 255) 1px -1px 1px, rgb(255, 255, 255) -1px -1px 1px; font-family: 'Open Sans', verdana, arial, sans-serif; font-size: 8px; fill-opacity: 1;"><textPath class="node-label-text-path" alignment-baseline="middle" xlink:href="#2e5c93_0_node_25" startOffset="100%" text-anchor="end" style="fill: rgb(0, 0, 0);">Plant Chillers (142.28KW)</textPath></text></g></g></g></g><defs id="topdefs-dc1f17"><g class="clips"/></defs><g class="layer-above"><g class="imagelayer"/><g class="shapelayer"/></g><g class="infolayer"><g class="g-gtitle"><text class="gtitle" x="350" y="50" text-anchor="middle" dy="0em" style="font-family: 'Open Sans', verdana, arial, sans-serif; font-size: 11px; fill: rgb(42, 63, 95); opacity: 1; font-weight: normal; white-space: pre;">Algonquin College Power Usage at 19:00 Jan, 08 2020 (In KW)</text></g><g class="first-render"/></g></svg>