<svg class="main-svg" xmlns="http://www.w3.org/2000/svg" xmlns:xlink="http://www.w3.org/1999/xlink" width="700" height="500" viewBox="0 0 700 500"><rect x="0" y="0" width="700" height="500" style="fill: rgb(255, 255, 255); fill-opacity: 1;"/><defs id="defs-23c3b1"><g class="clips"/><g class="gradients"/></defs><g class="bglayer"/><g class="layer-below"><g class="imagelayer"/><g class="shapelayer"/></g><g class="cartesianlayer"/><g class="polarlayer"/><g class="ternarylayer"/><g class="geolayer"/><g class="funnelarealayer"/><g class="pielayer"><g class="trace" stroke-linejoin="round" style="opacity: 1;"><g class="slice"><path class="surface" d="M309,260l0,-160a160,160 0 0 1 159.15712253911286,176.40153483884404Z" style="pointer-events: all; stroke-width: 0; fill: rgb(250, 128, 114); fill-opacity: 1; stroke: rgb(68, 68, 68); stroke-opacity: 1;"/><g class="slicetext"><text data-notex="1" class="slicetext" transform="translate(377.1760793843154,198.4885815720441)translate(-0.1796875,3)" text-anchor="middle" x="0" y="0" style="font-family: 'Open Sans', verdana, arial, sans-serif; font-size: 8px; fill: rgb(68, 68, 68); fill-opacity: 1; white-space: pre;">Building A (522.68KW)</text></g></g><g class="slice"><path class="surface" d="M309,260l-104.6652573636632,-121.01728761213477a160,160 0 0 1 104.6652573636632,-38.982712387865234Z" style="pointer-events: all; stroke-width: 0; fill: rgb(0, 255, 127); fill-opacity: 1; stroke: rgb(68, 68, 68); stroke-opacity: 1;"/><g class="slicetext"><text data-notex="1" class="slicetext" transform="translate(277.562085531109,175.59188144415583)rotate(69.5720874330492)translate(-0.1953125,3)" text-anchor="middle" x="0" y="0" style="font-family: 'Open Sans', verdana, arial, sans-serif; font-size: 8px; fill: rgb(68, 68, 68); fill-opacity: 1; white-space: pre;">Building T (237.95KW)</text></g></g><g class="slice"><path class="surface" d="M309,260l-158.01847265613893,-25.103033669679775a160,160 0 0 1 53.353215292475724,-95.91425394245499Z" style="pointer-events: all; stroke-width: 0; fill: rgb(255, 160, 122); fill-opacity: 1; stroke: rgb(68, 68, 68); stroke-opacity: 1;"/><g class="slicetext"><text data-notex="1" class="slicetext" transform="translate(230.17603837278912,216.1534222283001)rotate(29.08541558361037)translate(-0.1875,3)" text-anchor="middle" x="0" y="0" style="font-family: 'Open Sans', verdana, arial, sans-serif; font-size: 8px; fill: rgb(68, 68, 68); fill-opacity: 1; white-space: pre;">Building B (233.65KW)</text></g></g><g class="slice"><path class="surface" d="M309,260l-140.89356477167797,75.8221828090499a160,160 0 0 1 -17.124907884460953,-100.92521647872968Z" style="pointer-events: all; stroke-width: 0; fill: rgb(221, 160, 221); fill-opacity: 1; stroke: rgb(68, 68, 68); stroke-opacity: 1;"/><g class="slicetext"><text data-notex="1" class="slicetext" transform="translate(220.9322169416265,274.943269136125)rotate(-9.63017899641818)translate(-0.1796875,3)" text-anchor="middle" x="0" y="0" style="font-family: 'Open Sans', verdana, arial, sans-serif; font-size: 8px; fill: rgb(68, 68, 68); fill-opacity: 1; white-space: pre;">Residence 1&amp;2 (217.32KW)</text></g></g><g class="slice"><path class="surface" d="M309,260l-80.46910381904077,138.2921665553058a160,160 0 0 1 -60.424460952637205,-62.469983746255906Z" style="pointer-events: all; stroke-width: 0; fill: rgb(255, 228, 181); fill-opacity: 1; stroke: rgb(68, 68, 68); stroke-opacity: 1;"/><g class="slicetext"><text data-notex="1" class="slicetext" transform="translate(242.38183028218162,324.43681834784746)rotate(-44.0464255564724)translate(-0.1875,3)" text-anchor="middle" x="0" y="0" style="font-family: 'Open Sans', verdana, arial, sans-serif; font-size: 8px; fill: rgb(68, 68, 68); fill-opacity: 1; white-space: pre;">Building H (183.57KW)</text></g></g><g class="slice"><path class="surface" d="M309,260l-9.035684355893391,159.7446600303768a160,160 0 0 1 -71.43341946314737,-21.45249347507098Z" style="pointer-events: all; stroke-width: 0; fill: rgb(135, 206, 250); fill-opacity: 1; stroke: rgb(68, 68, 68); stroke-opacity: 1;"/><g class="slicetext"><text data-notex="1" class="slicetext" transform="translate(281.77346997277874,350.6600504142111)rotate(-73.28422418192486)translate(-0.1796875,3)" text-anchor="middle" x="0" y="0" style="font-family: 'Open Sans', verdana, arial, sans-serif; font-size: 8px; fill: rgb(68, 68, 68); fill-opacity: 1; white-space: pre;">Building E (157.00KW)</text></g></g><g class="slice"><path class="surface" d="M309,260l49.08712670899888,152.28412258490604a160,160 0 0 1 -58.122811064892275,7.460537445470749Z" style="pointer-events: all; stroke-width: 0; fill: rgb(189, 183, 107); fill-opacity: 1; stroke: rgb(68, 68, 68); stroke-opacity: 1;"/><g class="slicetext"><text data-notex="1" class="slicetext" transform="translate(321.4739132000079,357.1805188919841)rotate(82.68561399157716)translate(-0.1875,3)" text-anchor="middle" x="0" y="0" style="font-family: 'Open Sans', verdana, arial, sans-serif; font-size: 8px; fill: rgb(68, 68, 68); fill-opacity: 1; white-space: pre;">Building P (122.91KW)</text></g></g><g class="slice"><path class="surface" d="M309,260l97.5766375637136,126.80220740097418a160,160 0 0 1 -48.48951085471472,25.48191518393186Z" style="pointer-events: all; stroke-width: 0; fill: rgb(240, 230, 140); fill-opacity: 1; stroke: rgb(68, 68, 68); stroke-opacity: 1;"/><g class="slicetext"><text data-notex="1" class="slicetext" transform="translate(354.9576768146454,347.452817132302)rotate(62.27744683286517)translate(-0.1875,3)" text-anchor="middle" x="0" y="0" style="font-family: 'Open Sans', verdana, arial, sans-serif; font-size: 8px; fill: rgb(68, 68, 68); fill-opacity: 1; white-space: pre;">Building N (114.81KW)</text></g></g><g class="slice"><path class="surface" d="M309,260l130.61375948154165,92.41236840433204a160,160 0 0 1 -33.037121917828046,34.38983899664214Z" style="pointer-events: all; stroke-width: 0; fill: rgb(175, 238, 238); fill-opacity: 1; stroke: rgb(68, 68, 68); stroke-opacity: 1;"/><g class="slicetext"><text data-notex="1" class="slicetext" transform="translate(382.71888842180465,330.81917146153904)rotate(43.850688466106135)translate(-0.1953125,3)" text-anchor="middle" x="0" y="0" style="font-family: 'Open Sans', verdana, arial, sans-serif; font-size: 8px; fill: rgb(68, 68, 68); fill-opacity: 1; white-space: pre;">Building J (99.83KW)</text></g></g><g class="slice"><path class="surface" d="M309,260l146.25525569828622,64.87989041782453a160,160 0 0 1 -15.64149621674457,27.532477986507516Z" style="pointer-events: all; stroke-width: 0; fill: rgb(102, 205, 170); fill-opacity: 1; stroke: rgb(68, 68, 68); stroke-opacity: 1;"/><g class="slicetext"><text data-notex="1" class="slicetext" transform="translate(403.73804495871184,313.82170004928923)rotate(29.601371685847653)translate(-0.1875,3)" text-anchor="middle" x="0" y="0" style="font-family: 'Open Sans', verdana, arial, sans-serif; font-size: 8px; fill: rgb(68, 68, 68); fill-opacity: 1; white-space: pre;">Building D (66.15KW)</text></g></g><g class="slice"><path class="surface" d="M309,260l152.88102865530425,47.19524422329053a160,160 0 0 1 -6.625772957018029,17.684646194533997Z" style="pointer-events: all; stroke-width: 0; fill: rgb(100, 149, 237); fill-opacity: 1; stroke: rgb(68, 68, 68); stroke-opacity: 1;"/><g class="slicetext"><text data-notex="1" class="slicetext" transform="translate(0,19.703201046464983)translate(505.13397646572423,316.7508748754005)translate(-0.1953125,3)" text-anchor="middle" x="0" y="0" style="font-family: 'Open Sans', verdana, arial, sans-serif; font-size: 8px; fill: rgb(42, 63, 95); fill-opacity: 1; white-space: pre;">Building Z (39.41KW)</text></g><path class="textline" stroke-width="1" d="M458.82928896572423,316.135409217583V336.45407592186547h2.5" fill="none" style="stroke: rgb(42, 63, 95); stroke-opacity: 1;"/></g><g class="slice"><path class="surface" d="M309,260l156.8260860748784,31.710861332276007a160,160 0 0 1 -3.945057419574141,15.484382891014523Z" style="pointer-events: all; stroke-width: 0; fill: rgb(144, 238, 144); fill-opacity: 1; stroke: rgb(68, 68, 68); stroke-opacity: 1;"/><g class="slicetext"><text data-notex="1" class="slicetext" transform="translate(0,26.646971487783844)translate(510.34385419341254,299.8071044340816)translate(-0.1875,3)" text-anchor="middle" x="0" y="0" style="font-family: 'Open Sans', verdana, arial, sans-serif; font-size: 8px; fill: rgb(42, 63, 95); fill-opacity: 1; white-space: pre;">Building V (33.34KW)</text></g><path class="textline" stroke-width="1" d="M464.04697919341254,299.5023321209962V326.45407592186547h2.5" fill="none" style="stroke: rgb(42, 63, 95); stroke-opacity: 1;"/></g><g class="slice"><path class="surface" d="M309,260l158.19241371801277,23.98249866192184a160,160 0 0 1 -1.3663276431343832,7.728362670354166Z" style="pointer-events: all; stroke-width: 0; fill: rgb(0, 191, 255); fill-opacity: 1; stroke: rgb(68, 68, 68); stroke-opacity: 1;"/><g class="slicetext"><text data-notex="1" class="slicetext" transform="translate(0,28.44747333278599)translate(513.2207053314975,288.0066025890795)translate(-0.1953125,3)" text-anchor="middle" x="0" y="0" style="font-family: 'Open Sans', verdana, arial, sans-serif; font-size: 8px; fill: rgb(42, 63, 95); fill-opacity: 1; white-space: pre;">Building G (16.37KW)</text></g><path class="textline" stroke-width="1" d="M466.55664283149747,287.85505878055056V316.45407592186547h2.5" fill="none" style="stroke: rgb(42, 63, 95); stroke-opacity: 1;"/></g><g class="slice"><path class="surface" d="M309,260l158.76384078930514,19.850512785018214a160,160 0 0 1 -0.5714270712923621,4.131985876903627Z" style="pointer-events: all; stroke-width: 0; fill: rgb(255, 165, 0); fill-opacity: 1; stroke: rgb(68, 68, 68); stroke-opacity: 1;"/><g class="slicetext"><text data-notex="1" class="slicetext" transform="translate(0,24.44187690528622)translate(511.2806557932995,282.01219901657925)translate(-0.1796875,3)" text-anchor="middle" x="0" y="0" style="font-family: 'Open Sans', verdana, arial, sans-serif; font-size: 8px; fill: rgb(42, 63, 95); fill-opacity: 1; white-space: pre;">Building K (8.70KW)</text></g><path class="textline" stroke-width="1" d="M467.4915932932995,281.91836799014345V306.45407592186547h2.5" fill="none" style="stroke: rgb(42, 63, 95); stroke-opacity: 1;"/></g><g class="slice"><path class="surface" d="M309,260l158.98714534590505,17.974638098166686a160,160 0 0 1 -0.22330455659991344,1.8758746868515281Z" style="pointer-events: all; stroke-width: 0; fill: rgb(152, 251, 152); fill-opacity: 1; stroke: rgb(68, 68, 68); stroke-opacity: 1;"/><g class="slicetext"><text data-notex="1" class="slicetext" transform="translate(0,17.471308022005417)translate(511.6282616468811,278.98276789986005)translate(-0.1875,3)" text-anchor="middle" x="0" y="0" style="font-family: 'Open Sans', verdana, arial, sans-serif; font-size: 8px; fill: rgb(42, 63, 95); fill-opacity: 1; white-space: pre;">Building S (3.94KW)</text></g><path class="textline" stroke-width="1" d="M467.8782616468811,278.91290501390984V296.45407592186547h2.5" fill="none" style="stroke: rgb(42, 63, 95); stroke-opacity: 1;"/></g><g class="slice"><path class="surface" d="M309,260l159.15712253911286,16.401534838844047a160,160 0 0 1 -0.16997719320781357,1.5731032593226395Z" style="pointer-events: all; stroke-width: 0; fill: rgb(255, 140, 0); fill-opacity: 1; stroke: rgb(68, 68, 68); stroke-opacity: 1;"/><g class="slicetext"><text data-notex="1" class="slicetext" transform="translate(0,9.208076691951419)translate(512.464703531009,277.24599922991405)translate(-0.1875,3)" text-anchor="middle" x="0" y="0" style="font-family: 'Open Sans', verdana, arial, sans-serif; font-size: 8px; fill: rgb(42, 63, 95); fill-opacity: 1; white-space: pre;">Building M (3.30KW)</text></g><path class="textline" stroke-width="1" d="M468.07407853100904,277.18829658547844V286.45407592186547h2.5" fill="none" style="stroke: rgb(42, 63, 95); stroke-opacity: 1;"/></g><g class="slice"><path class="surface" d="M309,260l159.15712253911286,16.401534838844047a160,160 0 0 1 0,0Z" style="pointer-events: all; stroke-width: 0; fill: rgb(127, 255, 212); fill-opacity: 1; stroke: rgb(68, 68, 68); stroke-opacity: 1;"/><g class="slicetext"><text data-notex="1" class="slicetext" transform="translate(511.96962253911283,276.45407592186547)translate(-0.1875,3)" text-anchor="middle" x="0" y="0" style="font-family: 'Open Sans', verdana, arial, sans-serif; font-size: 8px; fill: rgb(42, 63, 95); fill-opacity: 1; white-space: pre;">Building C (0.00KW)</text></g></g></g></g><g class="treemaplayer"/><g class="sunburstlayer"/><g class="glimages"/><defs id="topdefs-23c3b1"><g class="clips"/></defs><g class="layer-above"><g class="imagelayer"/><g class="shapelayer"/></g><g class="infolayer"><g class="g-gtitle"/></g></svg>