<svg class="main-svg" xmlns="http://www.w3.org/2000/svg" xmlns:xlink="http://www.w3.org/1999/xlink" width="700" height="500" viewBox="0 0 700 500"><rect x="0" y="0" width="700" height="500" style="fill: rgb(255, 255, 255); fill-opacity: 1;"/><defs id="defs-9f5198"><g class="clips"/><g class="gradients"/></defs><g class="bglayer"/><g class="layer-below"><g class="imagelayer"/><g class="shapelayer"/></g><g class="cartesianlayer"/><g class="polarlayer"/><g class="ternarylayer"/><g class="geolayer"/><g class="funnelarealayer"/><g class="pielayer"><g class="trace" stroke-linejoin="round" style="opacity: 1;"><g class="slice"><path class="surface" d="M308.5,260l0,-160a160,160 0 0 1 159.98425918901268,162.24428423841837Z" style="pointer-events: all; stroke-width: 0; fill: rgb(250, 128, 114); fill-opacity: 1; stroke: rgb(68, 68, 68); stroke-opacity: 1;"/><g class="slicetext"><text data-notex="1" class="slicetext" transform="translate(375.0447159493248,194.38223642780827)translate(-0.1796875,3)" text-anchor="middle" x="0" y="0" style="font-family: 'Open Sans', verdana, arial, sans-serif; font-size: 8px; fill: rgb(68, 68, 68); fill-opacity: 1; white-space: pre;">Building A (614.25KW)</text></g></g><g class="slice"><path class="surface" d="M308.5,260l-110.78342382980796,-115.44276939048689a160,160 0 0 1 110.78342382980796,-44.55723060951311Z" style="pointer-events: all; stroke-width: 0; fill: rgb(0, 255, 127); fill-opacity: 1; stroke: rgb(68, 68, 68); stroke-opacity: 1;"/><g class="slicetext"><text data-notex="1" class="slicetext" transform="translate(275.13721115749956,177.04951304370354)rotate(68.08994737531498)translate(-0.1953125,3)" text-anchor="middle" x="0" y="0" style="font-family: 'Open Sans', verdana, arial, sans-serif; font-size: 8px; fill: rgb(68, 68, 68); fill-opacity: 1; white-space: pre;">Building T (315.96KW)</text></g></g><g class="slice"><path class="surface" d="M308.5,260l-159.43804266959634,-13.398154712048175a160,160 0 0 1 48.654618839788384,-102.0446146784387Z" style="pointer-events: all; stroke-width: 0; fill: rgb(255, 160, 122); fill-opacity: 1; stroke: rgb(68, 68, 68); stroke-opacity: 1;"/><g class="slicetext"><text data-notex="1" class="slicetext" transform="translate(227.35239987636325,221.30902579993437)rotate(25.491690230916788)translate(-0.1875,3)" text-anchor="middle" x="0" y="0" style="font-family: 'Open Sans', verdana, arial, sans-serif; font-size: 8px; fill: rgb(68, 68, 68); fill-opacity: 1; white-space: pre;">Building B (298.34KW)</text></g></g><g class="slice"><path class="surface" d="M308.5,260l-139.02008408628723,79.20490023124594a160,160 0 0 1 -20.417958583309115,-92.60305494329413Z" style="pointer-events: all; stroke-width: 0; fill: rgb(255, 228, 181); fill-opacity: 1; stroke: rgb(68, 68, 68); stroke-opacity: 1;"/><g class="slicetext"><text data-notex="1" class="slicetext" transform="translate(218.95518747370392,279.74364965207326)rotate(-12.434142094354684)translate(-0.1875,3)" text-anchor="middle" x="0" y="0" style="font-family: 'Open Sans', verdana, arial, sans-serif; font-size: 8px; fill: rgb(68, 68, 68); fill-opacity: 1; white-space: pre;">Building H (248.58KW)</text></g></g><g class="slice"><path class="surface" d="M308.5,260l-81.8969236730187,137.45142375725234a160,160 0 0 1 -57.12316041326852,-58.2465235260064Z" style="pointer-events: all; stroke-width: 0; fill: rgb(135, 206, 250); fill-opacity: 1; stroke: rgb(68, 68, 68); stroke-opacity: 1;"/><g class="slicetext"><text data-notex="1" class="slicetext" transform="translate(241.7127046269805,325.4992119050323)rotate(-44.44212440383092)translate(-0.1796875,3)" text-anchor="middle" x="0" y="0" style="font-family: 'Open Sans', verdana, arial, sans-serif; font-size: 8px; fill: rgb(68, 68, 68); fill-opacity: 1; white-space: pre;">Building E (213.00KW)</text></g></g><g class="slice"><path class="surface" d="M308.5,260l-9.680260507224288,159.70689577007084a160,160 0 0 1 -72.21666316579442,-22.2554720128185Z" style="pointer-events: all; stroke-width: 0; fill: rgb(189, 183, 107); fill-opacity: 1; stroke: rgb(68, 68, 68); stroke-opacity: 1;"/><g class="slicetext"><text data-notex="1" class="slicetext" transform="translate(280.6619699763443,350.33147606394056)rotate(-72.87193632644255)translate(-0.1875,3)" text-anchor="middle" x="0" y="0" style="font-family: 'Open Sans', verdana, arial, sans-serif; font-size: 8px; fill: rgb(68, 68, 68); fill-opacity: 1; white-space: pre;">Building P (196.98KW)</text></g></g><g class="slice"><path class="surface" d="M308.5,260l58.541679575420964,148.90557999110962a160,160 0 0 1 -68.22194008264525,10.801315778961225Z" style="pointer-events: all; stroke-width: 0; fill: rgb(221, 160, 221); fill-opacity: 1; stroke: rgb(68, 68, 68); stroke-opacity: 1;"/><g class="slicetext"><text data-notex="1" class="slicetext" transform="translate(323.11355768072576,352.3003527431942)rotate(81.00325918620501)translate(-0.1796875,3)" text-anchor="middle" x="0" y="0" style="font-family: 'Open Sans', verdana, arial, sans-serif; font-size: 8px; fill: rgb(68, 68, 68); fill-opacity: 1; white-space: pre;">Residence 1&amp;2 (179.76KW)</text></g></g><g class="slice"><path class="surface" d="M308.5,260l98.7635833797772,125.8799213456451a160,160 0 0 1 -40.22190380435624,23.025658645464517Z" style="pointer-events: all; stroke-width: 0; fill: rgb(175, 238, 238); fill-opacity: 1; stroke: rgb(68, 68, 68); stroke-opacity: 1;"/><g class="slicetext"><text data-notex="1" class="slicetext" transform="translate(359.0659612846988,348.33012170831336)rotate(60.21034464160505)translate(-0.1875,3)" text-anchor="middle" x="0" y="0" style="font-family: 'Open Sans', verdana, arial, sans-serif; font-size: 8px; fill: rgb(68, 68, 68); fill-opacity: 1; white-space: pre;">Building J (120.09KW)</text></g></g><g class="slice"><path class="surface" d="M308.5,260l129.8872178921631,93.43077987597952a160,160 0 0 1 -31.123634512385905,32.44914146966558Z" style="pointer-events: all; stroke-width: 0; fill: rgb(102, 205, 170); fill-opacity: 1; stroke: rgb(68, 68, 68); stroke-opacity: 1;"/><g class="slicetext"><text data-notex="1" class="slicetext" transform="translate(381.9967076161929,330.4944587778536)rotate(43.80554292802822)translate(-0.1875,3)" text-anchor="middle" x="0" y="0" style="font-family: 'Open Sans', verdana, arial, sans-serif; font-size: 8px; fill: rgb(68, 68, 68); fill-opacity: 1; white-space: pre;">Building D (116.48KW)</text></g></g><g class="slice"><path class="surface" d="M308.5,260l150.34588819640905,54.7367691998064a160,160 0 0 1 -20.458670304245942,38.69401067617312Z" style="pointer-events: all; stroke-width: 0; fill: rgb(240, 230, 140); fill-opacity: 1; stroke: rgb(68, 68, 68); stroke-opacity: 1;"/><g class="slicetext"><text data-notex="1" class="slicetext" transform="translate(398.94686798032376,307.8219398745488)rotate(27.866735497391858)translate(-0.1875,3)" text-anchor="middle" x="0" y="0" style="font-family: 'Open Sans', verdana, arial, sans-serif; font-size: 8px; fill: rgb(68, 68, 68); fill-opacity: 1; white-space: pre;">Building N (113.37KW)</text></g></g><g class="slice"><path class="surface" d="M308.5,260l157.66109645113062,27.257635000624887a160,160 0 0 1 -7.315208254721568,27.479134199181516Z" style="pointer-events: all; stroke-width: 0; fill: rgb(144, 238, 144); fill-opacity: 1; stroke: rgb(68, 68, 68); stroke-opacity: 1;"/><g class="slicetext"><text data-notex="1" class="slicetext" transform="translate(415.90605680999033,288.5925192434534)rotate(14.90696294698239)translate(-0.1875,3)" text-anchor="middle" x="0" y="0" style="font-family: 'Open Sans', verdana, arial, sans-serif; font-size: 8px; fill: rgb(68, 68, 68); fill-opacity: 1; white-space: pre;">Building V (73.52KW)</text></g></g><g class="slice"><path class="surface" d="M308.5,260l159.4477300052969,13.282371631524825a160,160 0 0 1 -1.7866335541662863,13.975263369100063Z" style="pointer-events: all; stroke-width: 0; fill: rgb(100, 149, 237); fill-opacity: 1; stroke: rgb(68, 68, 68); stroke-opacity: 1;"/><g class="slicetext"><text data-notex="1" class="slicetext" transform="translate(0,31.875185095735276)translate(513.5130015566432,280.37008289497703)translate(-0.1953125,3)" text-anchor="middle" x="0" y="0" style="font-family: 'Open Sans', verdana, arial, sans-serif; font-size: 8px; fill: rgb(42, 63, 95); fill-opacity: 1; white-space: pre;">Building Z (36.39KW)</text></g><path class="textline" stroke-width="1" d="M467.2083140566432,280.289678393161V312.2452679907123h2.5" fill="none" style="stroke: rgb(42, 63, 95); stroke-opacity: 1;"/></g><g class="slice"><path class="surface" d="M308.5,260l159.85622526530827,6.781389527745486a160,160 0 0 1 -0.4084952600113638,6.5009821037793385Z" style="pointer-events: all; stroke-width: 0; fill: rgb(0, 191, 255); fill-opacity: 1; stroke: rgb(68, 68, 68); stroke-opacity: 1;"/><g class="slicetext"><text data-notex="1" class="slicetext" transform="translate(0,32.1916442705853)translate(514.8491264694946,270.053623720127)translate(-0.1953125,3)" text-anchor="middle" x="0" y="0" style="font-family: 'Open Sans', verdana, arial, sans-serif; font-size: 8px; fill: rgb(42, 63, 95); fill-opacity: 1; white-space: pre;">Building G (16.82KW)</text></g><path class="textline" stroke-width="1" d="M468.1850639694946,270.03395959023277V302.2452679907123h2.5" fill="none" style="stroke: rgb(42, 63, 95); stroke-opacity: 1;"/></g><g class="slice"><path class="surface" d="M308.5,260l159.91839641969807,5.109450709449778a160,160 0 0 1 -0.062171154389801586,1.6719388182957085Z" style="pointer-events: all; stroke-width: 0; fill: rgb(152, 251, 152); fill-opacity: 1; stroke: rgb(68, 68, 68); stroke-opacity: 1;"/><g class="slicetext"><text data-notex="1" class="slicetext" transform="translate(0,26.292862508370717)translate(512.139496256947,265.9524054823416)translate(-0.1875,3)" text-anchor="middle" x="0" y="0" style="font-family: 'Open Sans', verdana, arial, sans-serif; font-size: 8px; fill: rgb(42, 63, 95); fill-opacity: 1; white-space: pre;">Building S (4.32KW)</text></g><path class="textline" stroke-width="1" d="M468.389496256947,265.9455013833768V292.2452679907123h2.5" fill="none" style="stroke: rgb(42, 63, 95); stroke-opacity: 1;"/></g><g class="slice"><path class="surface" d="M308.5,260l159.96190731607516,3.49116138317704a160,160 0 0 1 -0.04351089637708583,1.618289326272738Z" style="pointer-events: all; stroke-width: 0; fill: rgb(255, 165, 0); fill-opacity: 1; stroke: rgb(68, 68, 68); stroke-opacity: 1;"/><g class="slicetext"><text data-notex="1" class="slicetext" transform="translate(0,17.941294979192435)translate(512.2312611050227,264.3039730115199)translate(-0.1796875,3)" text-anchor="middle" x="0" y="0" style="font-family: 'Open Sans', verdana, arial, sans-serif; font-size: 8px; fill: rgb(42, 63, 95); fill-opacity: 1; white-space: pre;">Building K (4.18KW)</text></g><path class="textline" stroke-width="1" d="M468.44219860502267,264.3003610768731V282.2452679907123h2.5" fill="none" style="stroke: rgb(42, 63, 95); stroke-opacity: 1;"/></g><g class="slice"><path class="surface" d="M308.5,260l159.98425918901268,2.2442842384187784a160,160 0 0 1 -0.022351872937520056,1.2468771447582614Z" style="pointer-events: all; stroke-width: 0; fill: rgb(255, 140, 0); fill-opacity: 1; stroke: rgb(68, 68, 68); stroke-opacity: 1;"/><g class="slicetext"><text data-notex="1" class="slicetext" transform="translate(0,9.375917160868823)translate(512.8649230637167,262.8693508298435)translate(-0.1875,3)" text-anchor="middle" x="0" y="0" style="font-family: 'Open Sans', verdana, arial, sans-serif; font-size: 8px; fill: rgb(42, 63, 95); fill-opacity: 1; white-space: pre;">Building M (3.22KW)</text></g><path class="textline" stroke-width="1" d="M468.4742980637167,262.86774458784714V272.2452679907123h2.5" fill="none" style="stroke: rgb(42, 63, 95); stroke-opacity: 1;"/></g><g class="slice"><path class="surface" d="M308.5,260l159.98425918901268,2.2442842384187784a160,160 0 0 1 0,0Z" style="pointer-events: all; stroke-width: 0; fill: rgb(127, 255, 212); fill-opacity: 1; stroke: rgb(68, 68, 68); stroke-opacity: 1;"/><g class="slicetext"><text data-notex="1" class="slicetext" transform="translate(512.2967591890126,262.2452679907123)translate(-0.1875,3)" text-anchor="middle" x="0" y="0" style="font-family: 'Open Sans', verdana, arial, sans-serif; font-size: 8px; fill: rgb(42, 63, 95); fill-opacity: 1; white-space: pre;">Building C (0.00KW)</text></g></g></g></g><g class="treemaplayer"/><g class="sunburstlayer"/><g class="glimages"/><defs id="topdefs-9f5198"><g class="clips"/></defs><g class="layer-above"><g class="imagelayer"/><g class="shapelayer"/></g><g class="infolayer"><g class="g-gtitle"/></g></svg>