<svg class="main-svg" xmlns="http://www.w3.org/2000/svg" xmlns:xlink="http://www.w3.org/1999/xlink" width="700" height="500" viewBox="0 0 700 500"><rect x="0" y="0" width="700" height="500" style="fill: rgb(255, 255, 255); fill-opacity: 1;"/><defs id="defs-700afb"><g class="clips"/><g class="gradients"/></defs><g class="bglayer"/><g class="layer-below"><g class="imagelayer"/><g class="shapelayer"/></g><g class="cartesianlayer"/><g class="polarlayer"/><g class="ternarylayer"/><g class="geolayer"/><g class="funnelarealayer"/><g class="pielayer"><g class="trace" stroke-linejoin="round" style="opacity: 1;"><g class="slice"><path class="surface" d="M310.5,260l0,-160a160,160 0 0 1 158.2427312121751,183.64821385456648Z" style="pointer-events: all; stroke-width: 0; fill: rgb(99, 110, 250); fill-opacity: 1; stroke: rgb(68, 68, 68); stroke-opacity: 1;"/><g class="slicetext"><text data-notex="1" class="slicetext" transform="translate(379.46482121707726,200.57561771010762)translate(0,3.171875)" text-anchor="middle" x="0" y="0" style="font-family: 'Open Sans', verdana, arial, sans-serif; font-size: 8px; fill: rgb(255, 255, 255); fill-opacity: 1; white-space: pre;">Building A (419.00KW)</text></g></g><g class="slice"><path class="surface" d="M310.5,260l-100.42929390039733,-124.55503573387796a160,160 0 0 1 100.42929390039733,-35.44496426612204Z" style="pointer-events: all; stroke-width: 0; fill: rgb(239, 85, 59); fill-opacity: 1; stroke: rgb(68, 68, 68); stroke-opacity: 1;"/><g class="slicetext"><text data-notex="1" class="slicetext" transform="translate(280.4520862960922,174.86263792490797)rotate(70.56030450217224)translate(-0.0078125,3.171875)" text-anchor="middle" x="0" y="0" style="font-family: 'Open Sans', verdana, arial, sans-serif; font-size: 8px; fill: rgb(68, 68, 68); fill-opacity: 1; white-space: pre;">Building T (168.54KW)</text></g></g><g class="slice"><path class="surface" d="M310.5,260l-155.3193910626182,-38.417271635782186a160,160 0 0 1 54.89009716222087,-86.13776409809577Z" style="pointer-events: all; stroke-width: 0; fill: rgb(0, 204, 150); fill-opacity: 1; stroke: rgb(68, 68, 68); stroke-opacity: 1;"/><g class="slicetext"><text data-notex="1" class="slicetext" transform="translate(235.3673968242683,212.12278921391612)rotate(32.50676030706529)translate(0,3.171875)" text-anchor="middle" x="0" y="0" style="font-family: 'Open Sans', verdana, arial, sans-serif; font-size: 8px; fill: rgb(68, 68, 68); fill-opacity: 1; white-space: pre;">Residence 1&amp;2 (161.38KW)</text></g></g><g class="slice"><path class="surface" d="M310.5,260l-147.42354054502263,62.179576173934066a160,160 0 0 1 -7.895850517595562,-100.59684780971625Z" style="pointer-events: all; stroke-width: 0; fill: rgb(171, 99, 250); fill-opacity: 1; stroke: rgb(68, 68, 68); stroke-opacity: 1;"/><g class="slicetext"><text data-notex="1" class="slicetext" transform="translate(219.99288070204102,267.10390733223204)rotate(-4.487946789014359)translate(-0.0078125,3.171875)" text-anchor="middle" x="0" y="0" style="font-family: 'Open Sans', verdana, arial, sans-serif; font-size: 8px; fill: rgb(68, 68, 68); fill-opacity: 1; white-space: pre;">Building B (159.36KW)</text></g></g><g class="slice"><path class="surface" d="M310.5,260l-84.70062766300886,135.74167994205882a160,160 0 0 1 -62.72291288201377,-73.56210376812476Z" style="pointer-events: all; stroke-width: 0; fill: rgb(255, 161, 90); fill-opacity: 1; stroke: rgb(68, 68, 68); stroke-opacity: 1;"/><g class="slicetext"><text data-notex="1" class="slicetext" transform="translate(241.11381655312638,319.162303912242)rotate(-40.45265221904674)translate(-0.0078125,3.171875)" text-anchor="middle" x="0" y="0" style="font-family: 'Open Sans', verdana, arial, sans-serif; font-size: 8px; fill: rgb(68, 68, 68); fill-opacity: 1; white-space: pre;">Building H (152.45KW)</text></g></g><g class="slice"><path class="surface" d="M310.5,260l-21.080834448782472,158.60516517107197a160,160 0 0 1 -63.61979321422639,-22.86348522901315Z" style="pointer-events: all; stroke-width: 0; fill: rgb(25, 211, 243); fill-opacity: 1; stroke: rgb(68, 68, 68); stroke-opacity: 1;"/><g class="slicetext"><text data-notex="1" class="slicetext" transform="translate(278.1718179736121,349.9562002428551)rotate(-70.23273398351898)translate(-0.0078125,3.171875)" text-anchor="middle" x="0" y="0" style="font-family: 'Open Sans', verdana, arial, sans-serif; font-size: 8px; fill: rgb(68, 68, 68); fill-opacity: 1; white-space: pre;">Building P (105.74KW)</text></g></g><g class="slice"><path class="surface" d="M310.5,260l34.62605806786987,156.20830996678922a160,160 0 0 1 -55.706892516652346,2.3968552042827582Z" style="pointer-events: all; stroke-width: 0; fill: rgb(255, 102, 146); fill-opacity: 1; stroke: rgb(68, 68, 68); stroke-opacity: 1;"/><g class="slicetext"><text data-notex="1" class="slicetext" transform="translate(314.7574777345751,358.9508478143503)rotate(87.53630060618491)translate(0,3.171875)" text-anchor="middle" x="0" y="0" style="font-family: 'Open Sans', verdana, arial, sans-serif; font-size: 8px; fill: rgb(68, 68, 68); fill-opacity: 1; white-space: pre;">Building E (87.00KW)</text></g></g><g class="slice"><path class="surface" d="M310.5,260l75.63342284637409,140.99498341622504a160,160 0 0 1 -41.00736477850422,15.213326550564176Z" style="pointer-events: all; stroke-width: 0; fill: rgb(182, 232, 128); fill-opacity: 1; stroke: rgb(68, 68, 68); stroke-opacity: 1;"/><g class="slicetext"><text data-notex="1" class="slicetext" transform="translate(346.38548545254156,356.72895584769435)rotate(69.64564456804521)translate(-0.0078125,3.171875)" text-anchor="middle" x="0" y="0" style="font-family: 'Open Sans', verdana, arial, sans-serif; font-size: 8px; fill: rgb(68, 68, 68); fill-opacity: 1; white-space: pre;">Building J (68.11KW)</text></g></g><g class="slice"><path class="surface" d="M310.5,260l110.58445710508434,115.6333768717915a160,160 0 0 1 -34.95103425871025,25.361606544433542Z" style="pointer-events: all; stroke-width: 0; fill: rgb(255, 151, 255); fill-opacity: 1; stroke: rgb(68, 68, 68); stroke-opacity: 1;"/><g class="slicetext"><text data-notex="1" class="slicetext" transform="translate(370.9591319199185,343.3192166782803)rotate(54.034141152648374)translate(-0.0078125,3.171875)" text-anchor="middle" x="0" y="0" style="font-family: 'Open Sans', verdana, arial, sans-serif; font-size: 8px; fill: rgb(68, 68, 68); fill-opacity: 1; white-space: pre;">Building N (67.24KW)</text></g></g><g class="slice"><path class="surface" d="M310.5,260l134.7903666183122,86.20647926287789a160,160 0 0 1 -24.20590951322785,29.426897608913606Z" style="pointer-events: all; stroke-width: 0; fill: rgb(254, 203, 82); fill-opacity: 1; stroke: rgb(68, 68, 68); stroke-opacity: 1;"/><g class="slicetext"><text data-notex="1" class="slicetext" transform="translate(391.6306577400257,326.73626918146)rotate(39.43995181278757)translate(-0.0078125,3.171875)" text-anchor="middle" x="0" y="0" style="font-family: 'Open Sans', verdana, arial, sans-serif; font-size: 8px; fill: rgb(68, 68, 68); fill-opacity: 1; white-space: pre;">Building D (59.29KW)</text></g></g><g class="slice"><path class="surface" d="M310.5,260l147.4085154513512,62.21518763476284a160,160 0 0 1 -12.618148833039015,23.99129162811505Z" style="pointer-events: all; stroke-width: 0; fill: rgb(198, 202, 253); fill-opacity: 1; stroke: rgb(68, 68, 68); stroke-opacity: 1;"/><g class="slicetext"><text data-notex="1" class="slicetext" transform="translate(409.1708392476678,311.8956359001903)rotate(27.74199336144261)translate(0,3.171875)" text-anchor="middle" x="0" y="0" style="font-family: 'Open Sans', verdana, arial, sans-serif; font-size: 8px; fill: rgb(68, 68, 68); fill-opacity: 1; white-space: pre;">Building V (42.13KW)</text></g></g><g class="slice"><path class="surface" d="M310.5,260l155.4438517069539,37.910538989923786a160,160 0 0 1 -8.035336255602687,24.304648644839055Z" style="pointer-events: all; stroke-width: 0; fill: rgb(247, 167, 153); fill-opacity: 1; stroke: rgb(68, 68, 68); stroke-opacity: 1;"/><g class="slicetext"><text data-notex="1" class="slicetext" transform="translate(417.4018800589401,295.3427266191766)rotate(18.29435209986036)translate(-0.0078125,3.171875)" text-anchor="middle" x="0" y="0" style="font-family: 'Open Sans', verdana, arial, sans-serif; font-size: 8px; fill: rgb(68, 68, 68); fill-opacity: 1; white-space: pre;">Building Z (39.78KW)</text></g></g><g class="slice"><path class="surface" d="M310.5,260l157.63086930879368,27.43189823825557a160,160 0 0 1 -2.187017601839784,10.478640751668216Z" style="pointer-events: all; stroke-width: 0; fill: rgb(51, 255, 201); fill-opacity: 1; stroke: rgb(68, 68, 68); stroke-opacity: 1;"/><g class="slicetext"><text data-notex="1" class="slicetext" transform="translate(0,29.487634658942113)translate(513.5156412418912,292.89105072133236)translate(-0.0078125,3.171875)" text-anchor="middle" x="0" y="0" style="font-family: 'Open Sans', verdana, arial, sans-serif; font-size: 8px; fill: rgb(42, 63, 95); fill-opacity: 1; white-space: pre;">Building G (16.62KW)</text></g><path class="textline" stroke-width="1" d="M467.12501624189116,292.6895134137437V322.3786853802745h2.4140625" fill="none" style="stroke: rgb(42, 63, 95); stroke-opacity: 1;"/></g><g class="slice"><path class="surface" d="M310.5,260l158.00886492556631,25.163437860001086a160,160 0 0 1 -0.3779956167726368,2.2684603782544848Z" style="pointer-events: all; stroke-width: 0; fill: rgb(224, 198, 253); fill-opacity: 1; stroke: rgb(68, 68, 68); stroke-opacity: 1;"/><g class="slicetext"><text data-notex="1" class="slicetext" transform="translate(0,26.293652796476067)translate(511.8083178445706,286.4287825837984)translate(-0.0078125,3.171875)" text-anchor="middle" x="0" y="0" style="font-family: 'Open Sans', verdana, arial, sans-serif; font-size: 8px; fill: rgb(42, 63, 95); fill-opacity: 1; white-space: pre;">Building S (3.57KW)</text></g><path class="textline" stroke-width="1" d="M468.3239428445706,286.29834719129167V312.7224353802745h2.4140625" fill="none" style="stroke: rgb(42, 63, 95); stroke-opacity: 1;"/></g><g class="slice"><path class="surface" d="M310.5,260l158.2427312121751,23.648213854566453a160,160 0 0 1 -0.23386628660878728,1.5152240054346322Z" style="pointer-events: all; stroke-width: 0; fill: rgb(255, 219, 192); fill-opacity: 1; stroke: rgb(68, 68, 68); stroke-opacity: 1;"/><g class="slicetext"><text data-notex="1" class="slicetext" transform="translate(0,18.547739113531975)translate(512.7448004929998,284.5184462667425)translate(0,3.171875)" text-anchor="middle" x="0" y="0" style="font-family: 'Open Sans', verdana, arial, sans-serif; font-size: 8px; fill: rgb(42, 63, 95); fill-opacity: 1; white-space: pre;">Building M (2.38KW)</text></g><path class="textline" stroke-width="1" d="M468.62761299299984,284.4061059805956V303.0661853802745h2.4140625" fill="none" style="stroke: rgb(42, 63, 95); stroke-opacity: 1;"/></g><g class="slice"><path class="surface" d="M310.5,260l158.2427312121751,23.648213854566453a160,160 0 0 1 0,0Z" style="pointer-events: all; stroke-width: 0; fill: rgb(122, 230, 248); fill-opacity: 1; stroke: rgb(68, 68, 68); stroke-opacity: 1;"/><g class="slicetext"><text data-notex="1" class="slicetext" transform="translate(0,9.65625)translate(512.2817937121752,283.7536853802745)translate(0,3.171875)" text-anchor="middle" x="0" y="0" style="font-family: 'Open Sans', verdana, arial, sans-serif; font-size: 8px; fill: rgb(42, 63, 95); fill-opacity: 1; white-space: pre;">Building C (0.00KW)</text></g><path class="textline" stroke-width="1" d="M468.7427312121751,283.64821385456645V293.4099353802745h2.4140625" fill="none" style="stroke: rgb(42, 63, 95); stroke-opacity: 1;"/></g><g class="slice"><path class="surface" d="M310.5,260l158.2427312121751,23.648213854566453a160,160 0 0 1 0,0Z" style="pointer-events: all; stroke-width: 0; fill: rgb(255, 204, 219); fill-opacity: 1; stroke: rgb(68, 68, 68); stroke-opacity: 1;"/><g class="slicetext"><text data-notex="1" class="slicetext" transform="translate(512.2661687121752,283.7536853802745)translate(0,3.171875)" text-anchor="middle" x="0" y="0" style="font-family: 'Open Sans', verdana, arial, sans-serif; font-size: 8px; fill: rgb(42, 63, 95); fill-opacity: 1; white-space: pre;">Building K (0.00KW)</text></g></g></g></g><g class="treemaplayer"/><g class="sunburstlayer"/><g class="glimages"/><defs id="topdefs-700afb"><g class="clips"/></defs><g class="layer-above"><g class="imagelayer"/><g class="shapelayer"/></g><g class="infolayer"><g class="g-gtitle"/></g></svg>