<svg class="main-svg" xmlns="http://www.w3.org/2000/svg" xmlns:xlink="http://www.w3.org/1999/xlink" width="700" height="500" viewBox="0 0 700 500"><rect x="0" y="0" width="700" height="500" style="fill: rgb(255, 255, 255); fill-opacity: 1;"/><defs id="defs-cc63d5"><g class="clips"/><g class="gradients"/></defs><g class="bglayer"/><g class="layer-below"><g class="imagelayer"/><g class="shapelayer"/></g><g class="cartesianlayer"/><g class="polarlayer"/><g class="ternarylayer"/><g class="geolayer"/><g class="funnelarealayer"/><g class="pielayer"><g class="trace" stroke-linejoin="round" style="opacity: 1;"><g class="slice"><path class="surface" d="M310.5,260l0,-160a160,160 0 0 1 157.34721560282895,189.01471595650838Z" style="pointer-events: all; stroke-width: 0; fill: rgb(99, 110, 250); fill-opacity: 1; stroke: rgb(68, 68, 68); stroke-opacity: 1;"/><g class="slicetext"><text data-notex="1" class="slicetext" transform="translate(380.0304689931821,202.11865652749816)translate(0,3.171875)" text-anchor="middle" x="0" y="0" style="font-family: 'Open Sans', verdana, arial, sans-serif; font-size: 8px; fill: rgb(255, 255, 255); fill-opacity: 1; white-space: pre;">Building A (414.87KW)</text></g></g><g class="slice"><path class="surface" d="M310.5,260l-105.031508582492,-120.6995534576906a160,160 0 0 1 105.031508582492,-39.3004465423094Z" style="pointer-events: all; stroke-width: 0; fill: rgb(239, 85, 59); fill-opacity: 1; stroke: rgb(68, 68, 68); stroke-opacity: 1;"/><g class="slicetext"><text data-notex="1" class="slicetext" transform="translate(279.041389075664,175.92600965142833)rotate(69.48527249318681)translate(-0.0078125,3.171875)" text-anchor="middle" x="0" y="0" style="font-family: 'Open Sans', verdana, arial, sans-serif; font-size: 8px; fill: rgb(68, 68, 68); fill-opacity: 1; white-space: pre;">Building T (174.39KW)</text></g></g><g class="slice"><path class="surface" d="M310.5,260l-157.16736341283507,-29.973653061611103a160,160 0 0 1 52.13585483034308,-90.7259003960795Z" style="pointer-events: all; stroke-width: 0; fill: rgb(0, 204, 150); fill-opacity: 1; stroke: rgb(68, 68, 68); stroke-opacity: 1;"/><g class="slicetext"><text data-notex="1" class="slicetext" transform="translate(233.44317215773708,215.71911028127352)rotate(29.883931430662756)translate(0,3.171875)" text-anchor="middle" x="0" y="0" style="font-family: 'Open Sans', verdana, arial, sans-serif; font-size: 8px; fill: rgb(68, 68, 68); fill-opacity: 1; white-space: pre;">Residence 1&amp;2 (162.25KW)</text></g></g><g class="slice"><path class="surface" d="M310.5,260l-144.76997848440394,68.12968024015103a160,160 0 0 1 -12.397384928431137,-98.10333330176213Z" style="pointer-events: all; stroke-width: 0; fill: rgb(171, 99, 250); fill-opacity: 1; stroke: rgb(68, 68, 68); stroke-opacity: 1;"/><g class="slicetext"><text data-notex="1" class="slicetext" transform="translate(220.21958556613458,271.4087973524017)rotate(-7.202329213857638)translate(-0.0078125,3.171875)" text-anchor="middle" x="0" y="0" style="font-family: 'Open Sans', verdana, arial, sans-serif; font-size: 8px; fill: rgb(68, 68, 68); fill-opacity: 1; white-space: pre;">Building B (153.01KW)</text></g></g><g class="slice"><path class="surface" d="M310.5,260l-92.72365888546963,130.39295641594705a160,160 0 0 1 -52.0463195989343,-62.26327617579602Z" style="pointer-events: all; stroke-width: 0; fill: rgb(255, 161, 90); fill-opacity: 1; stroke: rgb(68, 68, 68); stroke-opacity: 1;"/><g class="slicetext"><text data-notex="1" class="slicetext" transform="translate(239.02885833480826,319.74324047299814)rotate(-39.89249279472983)translate(-0.0078125,3.171875)" text-anchor="middle" x="0" y="0" style="font-family: 'Open Sans', verdana, arial, sans-serif; font-size: 8px; fill: rgb(68, 68, 68); fill-opacity: 1; white-space: pre;">Building H (124.88KW)</text></g></g><g class="slice"><path class="surface" d="M310.5,260l-33.4847680515382,156.45692796592513a160,160 0 0 1 -59.238890833931436,-26.063971549978078Z" style="pointer-events: all; stroke-width: 0; fill: rgb(25, 211, 243); fill-opacity: 1; stroke: rgb(68, 68, 68); stroke-opacity: 1;"/><g class="slicetext"><text data-notex="1" class="slicetext" transform="translate(271.46952019509575,348.7095171940761)rotate(-66.25142961709139)translate(-0.0078125,3.171875)" text-anchor="middle" x="0" y="0" style="font-family: 'Open Sans', verdana, arial, sans-serif; font-size: 8px; fill: rgb(68, 68, 68); fill-opacity: 1; white-space: pre;">Building P (99.19KW)</text></g></g><g class="slice"><path class="surface" d="M310.5,260l23.34206431598513,158.28818033406162a160,160 0 0 1 -56.82683236752332,-1.8312523681364894Z" style="pointer-events: all; stroke-width: 0; fill: rgb(255, 102, 146); fill-opacity: 1; stroke: rgb(68, 68, 68); stroke-opacity: 1;"/><g class="slicetext"><text data-notex="1" class="slicetext" transform="translate(307.3194042397284,358.6992209499441)rotate(-88.15427447341074)translate(0,3.171875)" text-anchor="middle" x="0" y="0" style="font-family: 'Open Sans', verdana, arial, sans-serif; font-size: 8px; fill: rgb(68, 68, 68); fill-opacity: 1; white-space: pre;">Building E (87.00KW)</text></g></g><g class="slice"><path class="surface" d="M310.5,260l68.12819406120045,144.77067788043064a160,160 0 0 1 -44.78612974521532,13.517502453630982Z" style="pointer-events: all; stroke-width: 0; fill: rgb(182, 232, 128); fill-opacity: 1; stroke: rgb(68, 68, 68); stroke-opacity: 1;"/><g class="slicetext"><text data-notex="1" class="slicetext" transform="translate(339.86464221901326,357.29080359732393)rotate(73.20495644160962)translate(-0.0078125,3.171875)" text-anchor="middle" x="0" y="0" style="font-family: 'Open Sans', verdana, arial, sans-serif; font-size: 8px; fill: rgb(68, 68, 68); fill-opacity: 1; white-space: pre;">Building N (71.46KW)</text></g></g><g class="slice"><path class="surface" d="M310.5,260l103.92935976698466,121.64985893302413a160,160 0 0 1 -35.801165705784214,23.120818947406505Z" style="pointer-events: all; stroke-width: 0; fill: rgb(255, 151, 255); fill-opacity: 1; stroke: rgb(68, 68, 68); stroke-opacity: 1;"/><g class="slicetext"><text data-notex="1" class="slicetext" transform="translate(366.70991260249906,347.0375915302709)rotate(57.14514453020337)translate(-0.0078125,3.171875)" text-anchor="middle" x="0" y="0" style="font-family: 'Open Sans', verdana, arial, sans-serif; font-size: 8px; fill: rgb(68, 68, 68); fill-opacity: 1; white-space: pre;">Building J (65.06KW)</text></g></g><g class="slice"><path class="surface" d="M310.5,260l130.79437091979105,92.15656534233531a160,160 0 0 1 -26.86501115280639,29.493293590688822Z" style="pointer-events: all; stroke-width: 0; fill: rgb(254, 203, 82); fill-opacity: 1; stroke: rgb(68, 68, 68); stroke-opacity: 1;"/><g class="slicetext"><text data-notex="1" class="slicetext" transform="translate(387.57263661034415,330.2043410562588)rotate(42.32993275081208)translate(-0.0078125,3.171875)" text-anchor="middle" x="0" y="0" style="font-family: 'Open Sans', verdana, arial, sans-serif; font-size: 8px; fill: rgb(68, 68, 68); fill-opacity: 1; white-space: pre;">Building D (60.88KW)</text></g></g><g class="slice"><path class="surface" d="M310.5,260l145.97723295724768,65.50303396137801a160,160 0 0 1 -15.18286203745663,26.653531380957304Z" style="pointer-events: all; stroke-width: 0; fill: rgb(198, 202, 253); fill-opacity: 1; stroke: rgb(68, 68, 68); stroke-opacity: 1;"/><g class="slicetext"><text data-notex="1" class="slicetext" transform="translate(405.32732059712794,314.01723716942433)rotate(29.66747923379063)translate(0,3.171875)" text-anchor="middle" x="0" y="0" style="font-family: 'Open Sans', verdana, arial, sans-serif; font-size: 8px; fill: rgb(68, 68, 68); fill-opacity: 1; white-space: pre;">Building V (46.76KW)</text></g></g><g class="slice"><path class="surface" d="M310.5,260l154.17439142360155,42.78150335322608a160,160 0 0 1 -8.19715846635387,22.72153060815193Z" style="pointer-events: all; stroke-width: 0; fill: rgb(247, 167, 153); fill-opacity: 1; stroke: rgb(68, 68, 68); stroke-opacity: 1;"/><g class="slicetext"><text data-notex="1" class="slicetext" transform="translate(417.4803153419235,298.5948734159499)rotate(19.837726206270077)translate(-0.0078125,3.171875)" text-anchor="middle" x="0" y="0" style="font-family: 'Open Sans', verdana, arial, sans-serif; font-size: 8px; fill: rgb(68, 68, 68); fill-opacity: 1; white-space: pre;">Building Z (36.80KW)</text></g></g><g class="slice"><path class="surface" d="M310.5,260l156.53181308320956,33.132936677619476a160,160 0 0 1 -2.3574216596080078,9.648566675606602Z" style="pointer-events: all; stroke-width: 0; fill: rgb(51, 255, 201); fill-opacity: 1; stroke: rgb(68, 68, 68); stroke-opacity: 1;"/><g class="slicetext"><text data-notex="1" class="slicetext" transform="translate(0,29.550985554329202)translate(512.3186150451669,298.24750286695536)translate(-0.0078125,3.171875)" text-anchor="middle" x="0" y="0" style="font-family: 'Open Sans', verdana, arial, sans-serif; font-size: 8px; fill: rgb(42, 63, 95); fill-opacity: 1; white-space: pre;">Building G (15.12KW)</text></g><path class="textline" stroke-width="1" d="M465.9279900451669,297.97551725150703V327.79848842128456h2.4140625" fill="none" style="stroke: rgb(42, 63, 95); stroke-opacity: 1;"/></g><g class="slice"><path class="surface" d="M310.5,260l156.9778555150979,30.950813848444184a160,160 0 0 1 -0.446042431888344,2.1821228291752917Z" style="pointer-events: all; stroke-width: 0; fill: rgb(224, 198, 253); fill-opacity: 1; stroke: rgb(68, 68, 68); stroke-opacity: 1;"/><g class="slicetext"><text data-notex="1" class="slicetext" transform="translate(0,25.905946861009)translate(510.7430063131291,292.23629156027556)translate(-0.0078125,3.171875)" text-anchor="middle" x="0" y="0" style="font-family: 'Open Sans', verdana, arial, sans-serif; font-size: 8px; fill: rgb(42, 63, 95); fill-opacity: 1; white-space: pre;">Building S (3.39KW)</text></g><path class="textline" stroke-width="1" d="M467.2586313131291,292.0426514014439V318.14223842128456h2.4140625" fill="none" style="stroke: rgb(42, 63, 95); stroke-opacity: 1;"/></g><g class="slice"><path class="surface" d="M310.5,260l157.34721560282895,29.01471595650832a160,160 0 0 1 -0.369360087731053,1.9360978919358658Z" style="pointer-events: all; stroke-width: 0; fill: rgb(255, 219, 192); fill-opacity: 1; stroke: rgb(68, 68, 68); stroke-opacity: 1;"/><g class="slicetext"><text data-notex="1" class="slicetext" transform="translate(0,18.333104525046622)translate(511.7827043988549,290.15288389623794)translate(0,3.171875)" text-anchor="middle" x="0" y="0" style="font-family: 'Open Sans', verdana, arial, sans-serif; font-size: 8px; fill: rgb(42, 63, 95); fill-opacity: 1; white-space: pre;">Building M (3.00KW)</text></g><path class="textline" stroke-width="1" d="M467.6655168988549,289.983333669153V308.48598842128456h2.4140625" fill="none" style="stroke: rgb(42, 63, 95); stroke-opacity: 1;"/></g><g class="slice"><path class="surface" d="M310.5,260l157.34721560282895,29.01471595650832a160,160 0 0 1 0,0Z" style="pointer-events: all; stroke-width: 0; fill: rgb(122, 230, 248); fill-opacity: 1; stroke: rgb(68, 68, 68); stroke-opacity: 1;"/><g class="slicetext"><text data-notex="1" class="slicetext" transform="translate(511.38627810282895,289.17348842128456)translate(0,3.171875)" text-anchor="middle" x="0" y="0" style="font-family: 'Open Sans', verdana, arial, sans-serif; font-size: 8px; fill: rgb(42, 63, 95); fill-opacity: 1; white-space: pre;">Building C (0.00KW)</text></g></g><g class="slice"><path class="surface" d="M310.5,260l157.34721560282895,29.01471595650832a160,160 0 0 1 0,0Z" style="pointer-events: all; stroke-width: 0; fill: rgb(255, 204, 219); fill-opacity: 1; stroke: rgb(68, 68, 68); stroke-opacity: 1;"/><g class="slicetext"><text data-notex="1" class="slicetext" transform="translate(0,9.65625)translate(511.37065310282895,289.17348842128456)translate(0,3.171875)" text-anchor="middle" x="0" y="0" style="font-family: 'Open Sans', verdana, arial, sans-serif; font-size: 8px; fill: rgb(42, 63, 95); fill-opacity: 1; white-space: pre;">Building K (0.00KW)</text></g><path class="textline" stroke-width="1" d="M467.84721560282895,289.0147159565083V298.82973842128456h2.4140625" fill="none" style="stroke: rgb(42, 63, 95); stroke-opacity: 1;"/></g></g></g><g class="treemaplayer"/><g class="sunburstlayer"/><g class="glimages"/><defs id="topdefs-cc63d5"><g class="clips"/></defs><g class="layer-above"><g class="imagelayer"/><g class="shapelayer"/></g><g class="infolayer"><g class="g-gtitle"/></g></svg>