<svg class="main-svg" xmlns="http://www.w3.org/2000/svg" xmlns:xlink="http://www.w3.org/1999/xlink" width="700" height="500" viewBox="0 0 700 500"><rect x="0" y="0" width="700" height="500" style="fill: rgb(255, 255, 255); fill-opacity: 1;"/><defs id="defs-35cf57"><g class="clips"/><g class="gradients"/></defs><g class="bglayer"/><g class="layer-below"><g class="imagelayer"/><g class="shapelayer"/></g><g class="cartesianlayer"/><g class="polarlayer"/><g class="ternarylayer"/><g class="geolayer"/><g class="funnelarealayer"/><g class="pielayer"><g class="trace" stroke-linejoin="round" style="opacity: 1;"><g class="slice"><path class="surface" d="M308.5,260l0,-160a160,160 0 0 1 159.20084138530743,175.97160299438292Z" style="pointer-events: all; stroke-width: 0; fill: rgb(99, 110, 250); fill-opacity: 1; stroke: rgb(68, 68, 68); stroke-opacity: 1;"/><g class="slicetext"><text data-notex="1" class="slicetext" transform="translate(376.62834561860706,198.36454427810446)translate(0,3.171875)" text-anchor="middle" x="0" y="0" style="font-family: 'Open Sans', verdana, arial, sans-serif; font-size: 8px; fill: rgb(255, 255, 255); fill-opacity: 1; white-space: pre;">Building A (406.15KW)</text></g></g><g class="slice"><path class="surface" d="M308.5,260l-108.82035242546273,-117.29505913719505a160,160 0 0 1 108.82035242546273,-42.704940862804946Z" style="pointer-events: all; stroke-width: 0; fill: rgb(239, 85, 59); fill-opacity: 1; stroke: rgb(68, 68, 68); stroke-opacity: 1;"/><g class="slicetext"><text data-notex="1" class="slicetext" transform="translate(276.38142448482995,178.15573007832347)rotate(68.57320804614585)translate(0,3.171875)" text-anchor="middle" x="0" y="0" style="font-family: 'Open Sans', verdana, arial, sans-serif; font-size: 8px; fill: rgb(68, 68, 68); fill-opacity: 1; white-space: pre;">Residence 1&amp;2 (186.35KW)</text></g></g><g class="slice"><path class="surface" d="M308.5,260l-158.82471043651785,-19.357462508197063a160,160 0 0 1 50.00435801105512,-97.937596628998Z" style="pointer-events: all; stroke-width: 0; fill: rgb(0, 204, 150); fill-opacity: 1; stroke: rgb(68, 68, 68); stroke-opacity: 1;"/><g class="slicetext"><text data-notex="1" class="slicetext" transform="translate(228.37760159255436,219.09161310290878)rotate(27.047659808236517)translate(-0.0078125,3.171875)" text-anchor="middle" x="0" y="0" style="font-family: 'Open Sans', verdana, arial, sans-serif; font-size: 8px; fill: rgb(68, 68, 68); fill-opacity: 1; white-space: pre;">Building T (174.80KW)</text></g></g><g class="slice"><path class="surface" d="M308.5,260l-140.05257941301102,77.36455906784606a160,160 0 0 1 -18.77213102350683,-96.72202157604312Z" style="pointer-events: all; stroke-width: 0; fill: rgb(171, 99, 250); fill-opacity: 1; stroke: rgb(68, 68, 68); stroke-opacity: 1;"/><g class="slicetext"><text data-notex="1" class="slicetext" transform="translate(219.1309333138029,277.3450451297985)rotate(-10.983602368617767)translate(-0.0078125,3.171875)" text-anchor="middle" x="0" y="0" style="font-family: 'Open Sans', verdana, arial, sans-serif; font-size: 8px; fill: rgb(68, 68, 68); fill-opacity: 1; white-space: pre;">Building B (155.96KW)</text></g></g><g class="slice"><path class="surface" d="M308.5,260l-80.5494852564617,138.24536312267062a160,160 0 0 1 -59.503094156549324,-60.880804054824566Z" style="pointer-events: all; stroke-width: 0; fill: rgb(255, 161, 90); fill-opacity: 1; stroke: rgb(68, 68, 68); stroke-opacity: 1;"/><g class="slicetext"><text data-notex="1" class="slicetext" transform="translate(242.28110772140832,324.72038343395025)rotate(-44.344318319737795)translate(-0.0078125,3.171875)" text-anchor="middle" x="0" y="0" style="font-family: 'Open Sans', verdana, arial, sans-serif; font-size: 8px; fill: rgb(68, 68, 68); fill-opacity: 1; white-space: pre;">Building H (134.18KW)</text></g></g><g class="slice"><path class="surface" d="M308.5,260l-11.071917648266671,159.61645478956737a160,160 0 0 1 -69.47756760819502,-21.371091666896746Z" style="pointer-events: all; stroke-width: 0; fill: rgb(25, 211, 243); fill-opacity: 1; stroke: rgb(68, 68, 68); stroke-opacity: 1;"/><g class="slicetext"><text data-notex="1" class="slicetext" transform="translate(280.67296700730066,350.4658777483258)rotate(-72.90225938536037)translate(-0.0078125,3.171875)" text-anchor="middle" x="0" y="0" style="font-family: 'Open Sans', verdana, arial, sans-serif; font-size: 8px; fill: rgb(68, 68, 68); fill-opacity: 1; white-space: pre;">Building P (114.19KW)</text></g></g><g class="slice"><path class="surface" d="M308.5,260l55.79261363343588,149.95727479502335a160,160 0 0 1 -66.86453128170255,9.659179994544019Z" style="pointer-events: all; stroke-width: 0; fill: rgb(255, 102, 146); fill-opacity: 1; stroke: rgb(68, 68, 68); stroke-opacity: 1;"/><g class="slicetext"><text data-notex="1" class="slicetext" transform="translate(322.16350666953707,354.5840091642419)rotate(81.77997662043981)translate(0,3.171875)" text-anchor="middle" x="0" y="0" style="font-family: 'Open Sans', verdana, arial, sans-serif; font-size: 8px; fill: rgb(68, 68, 68); fill-opacity: 1; white-space: pre;">Building E (106.00KW)</text></g></g><g class="slice"><path class="surface" d="M308.5,260l99.07208305670176,125.63726500845993a160,160 0 0 1 -43.27946942326588,24.320009786563418Z" style="pointer-events: all; stroke-width: 0; fill: rgb(182, 232, 128); fill-opacity: 1; stroke: rgb(68, 68, 68); stroke-opacity: 1;"/><g class="slicetext"><text data-notex="1" class="slicetext" transform="translate(358.0228777279103,348.13005797232023)rotate(60.667084006720074)translate(-0.0078125,3.171875)" text-anchor="middle" x="0" y="0" style="font-family: 'Open Sans', verdana, arial, sans-serif; font-size: 8px; fill: rgb(68, 68, 68); fill-opacity: 1; white-space: pre;">Building J (77.62KW)</text></g></g><g class="slice"><path class="surface" d="M308.5,260l127.48466328901802,96.6833006577956a160,160 0 0 1 -28.41258023231626,28.953964350664336Z" style="pointer-events: all; stroke-width: 0; fill: rgb(255, 151, 255); fill-opacity: 1; stroke: rgb(68, 68, 68); stroke-opacity: 1;"/><g class="slicetext"><text data-notex="1" class="slicetext" transform="translate(382.7317167945215,332.8437247370766)rotate(44.459299763010506)translate(-0.0078125,3.171875)" text-anchor="middle" x="0" y="0" style="font-family: 'Open Sans', verdana, arial, sans-serif; font-size: 8px; fill: rgb(68, 68, 68); fill-opacity: 1; white-space: pre;">Building N (63.34KW)</text></g></g><g class="slice"><path class="surface" d="M308.5,260l146.08675649655208,65.25840617358882a160,160 0 0 1 -18.602093207534068,31.424894484206774Z" style="pointer-events: all; stroke-width: 0; fill: rgb(254, 203, 82); fill-opacity: 1; stroke: rgb(68, 68, 68); stroke-opacity: 1;"/><g class="slicetext"><text data-notex="1" class="slicetext" transform="translate(399.5459508721359,313.89501833150837)rotate(30.623582694015226)translate(-0.0078125,3.171875)" text-anchor="middle" x="0" y="0" style="font-family: 'Open Sans', verdana, arial, sans-serif; font-size: 8px; fill: rgb(68, 68, 68); fill-opacity: 1; white-space: pre;">Building D (56.99KW)</text></g></g><g class="slice"><path class="surface" d="M308.5,260l153.63689001032904,44.673325687193454a160,160 0 0 1 -7.550133513776956,20.58508048639537Z" style="pointer-events: all; stroke-width: 0; fill: rgb(198, 202, 253); fill-opacity: 1; stroke: rgb(68, 68, 68); stroke-opacity: 1;"/><g class="slicetext"><text data-notex="1" class="slicetext" transform="translate(417.07293134016743,299.8220511278625)rotate(20.141874325282515)translate(-0.0078125,3.171875)" text-anchor="middle" x="0" y="0" style="font-family: 'Open Sans', verdana, arial, sans-serif; font-size: 8px; fill: rgb(68, 68, 68); fill-opacity: 1; white-space: pre;">Building Z (34.17KW)</text></g></g><g class="slice"><path class="surface" d="M308.5,260l157.21169447784652,29.740260916882377a160,160 0 0 1 -3.574804467517481,14.933064770311077Z" style="pointer-events: all; stroke-width: 0; fill: rgb(247, 167, 153); fill-opacity: 1; stroke: rgb(68, 68, 68); stroke-opacity: 1;"/><g class="slicetext"><text data-notex="1" class="slicetext" transform="translate(0,26.78957314651609)translate(510.12697128196197,297.5113898695852)translate(0,3.171875)" text-anchor="middle" x="0" y="0" style="font-family: 'Open Sans', verdana, arial, sans-serif; font-size: 8px; fill: rgb(42, 63, 95); fill-opacity: 1; white-space: pre;">Building V (23.92KW)</text></g><path class="textline" stroke-width="1" d="M464.10353378196197,297.2497016708298V324.30096301610126h2.4140625" fill="none" style="stroke: rgb(42, 63, 95); stroke-opacity: 1;"/></g><g class="slice"><path class="surface" d="M308.5,260l158.7605407985114,19.87688822135363a160,160 0 0 1 -1.548846320664893,9.863372695528746Z" style="pointer-events: all; stroke-width: 0; fill: rgb(51, 255, 201); fill-opacity: 1; stroke: rgb(68, 68, 68); stroke-opacity: 1;"/><g class="slicetext"><text data-notex="1" class="slicetext" transform="translate(0,29.707865177528276)translate(512.9536975268152,284.936847838573)translate(-0.0078125,3.171875)" text-anchor="middle" x="0" y="0" style="font-family: 'Open Sans', verdana, arial, sans-serif; font-size: 8px; fill: rgb(42, 63, 95); fill-opacity: 1; white-space: pre;">Building G (15.55KW)</text></g><path class="textline" stroke-width="1" d="M466.56307252681523,284.8206588023515V314.64471301610126h2.4140625" fill="none" style="stroke: rgb(42, 63, 95); stroke-opacity: 1;"/></g><g class="slice"><path class="surface" d="M308.5,260l159.04381950517472,17.46606644912931a160,160 0 0 1 -0.28327870666331023,2.4108217722243204Z" style="pointer-events: all; stroke-width: 0; fill: rgb(224, 198, 253); fill-opacity: 1; stroke: rgb(68, 68, 68); stroke-opacity: 1;"/><g class="slicetext"><text data-notex="1" class="slicetext" transform="translate(0,26.25069465410286)translate(510.8911271297102,278.7377683619984)translate(-0.0078125,3.171875)" text-anchor="middle" x="0" y="0" style="font-family: 'Open Sans', verdana, arial, sans-serif; font-size: 8px; fill: rgb(42, 63, 95); fill-opacity: 1; white-space: pre;">Building S (3.78KW)</text></g><path class="textline" stroke-width="1" d="M467.4067521297102,278.67201455619744V304.98846301610126h2.4140625" fill="none" style="stroke: rgb(42, 63, 95); stroke-opacity: 1;"/></g><g class="slice"><path class="surface" d="M308.5,260l159.20084138530743,15.971602994383158a160,160 0 0 1 -0.15702188013270302,1.4944634547461533Z" style="pointer-events: all; stroke-width: 0; fill: rgb(255, 219, 192); fill-opacity: 1; stroke: rgb(68, 68, 68); stroke-opacity: 1;"/><g class="slicetext"><text data-notex="1" class="slicetext" transform="translate(0,18.5604758076376)translate(511.74127241984763,276.77173720846366)translate(0,3.171875)" text-anchor="middle" x="0" y="0" style="font-family: 'Open Sans', verdana, arial, sans-serif; font-size: 8px; fill: rgb(42, 63, 95); fill-opacity: 1; white-space: pre;">Building M (2.34KW)</text></g><path class="textline" stroke-width="1" d="M467.62408491984763,276.71901906276537V295.33221301610126h2.4140625" fill="none" style="stroke: rgb(42, 63, 95); stroke-opacity: 1;"/></g><g class="slice"><path class="surface" d="M308.5,260l159.20084138530743,15.971602994383158a160,160 0 0 1 0,0Z" style="pointer-events: all; stroke-width: 0; fill: rgb(122, 230, 248); fill-opacity: 1; stroke: rgb(68, 68, 68); stroke-opacity: 1;"/><g class="slicetext"><text data-notex="1" class="slicetext" transform="translate(0,9.65625)translate(511.2399038853074,276.01971301610126)translate(0,3.171875)" text-anchor="middle" x="0" y="0" style="font-family: 'Open Sans', verdana, arial, sans-serif; font-size: 8px; fill: rgb(42, 63, 95); fill-opacity: 1; white-space: pre;">Building C (0.00KW)</text></g><path class="textline" stroke-width="1" d="M467.7008413853074,275.97160299438315V285.67596301610126h2.4140625" fill="none" style="stroke: rgb(42, 63, 95); stroke-opacity: 1;"/></g><g class="slice"><path class="surface" d="M308.5,260l159.20084138530743,15.971602994383158a160,160 0 0 1 0,0Z" style="pointer-events: all; stroke-width: 0; fill: rgb(255, 204, 219); fill-opacity: 1; stroke: rgb(68, 68, 68); stroke-opacity: 1;"/><g class="slicetext"><text data-notex="1" class="slicetext" transform="translate(511.2242788853074,276.01971301610126)translate(0,3.171875)" text-anchor="middle" x="0" y="0" style="font-family: 'Open Sans', verdana, arial, sans-serif; font-size: 8px; fill: rgb(42, 63, 95); fill-opacity: 1; white-space: pre;">Building K (0.00KW)</text></g></g></g></g><g class="treemaplayer"/><g class="sunburstlayer"/><g class="glimages"/><defs id="topdefs-35cf57"><g class="clips"/></defs><g class="layer-above"><g class="imagelayer"/><g class="shapelayer"/></g><g class="infolayer"><g class="g-gtitle"/></g></svg>