<svg class="main-svg" xmlns="http://www.w3.org/2000/svg" xmlns:xlink="http://www.w3.org/1999/xlink" width="700" height="500" viewBox="0 0 700 500"><rect x="0" y="0" width="700" height="500" style="fill: rgb(255, 255, 255); fill-opacity: 1;"/><defs id="defs-79b6a3"><g class="clips"/><g class="gradients"/></defs><g class="bglayer"/><g class="layer-below"><g class="imagelayer"/><g class="shapelayer"/></g><g class="cartesianlayer"/><g class="polarlayer"/><g class="ternarylayer"/><g class="geolayer"/><g class="funnelarealayer"/><g class="pielayer"><g class="trace" stroke-linejoin="round" style="opacity: 1;"><g class="slice"><path class="surface" d="M310,260l0,-160a160,160 0 0 1 158.110456755332,184.51700358160207Z" style="pointer-events: all; stroke-width: 0; fill: rgb(250, 128, 114); fill-opacity: 1; stroke: rgb(68, 68, 68); stroke-opacity: 1;"/><g class="slicetext"><text data-notex="1" class="slicetext" transform="translate(379.0574316887431,200.82549654114368)translate(-0.1796875,3)" text-anchor="middle" x="0" y="0" style="font-family: 'Open Sans', verdana, arial, sans-serif; font-size: 8px; fill: rgb(68, 68, 68); fill-opacity: 1; white-space: pre;">Building A (429.19KW)</text></g></g><g class="slice"><path class="surface" d="M310,260l-104.48006392017464,-121.17721008191359a160,160 0 0 1 104.48006392017464,-38.822789918086414Z" style="pointer-events: all; stroke-width: 0; fill: rgb(0, 255, 127); fill-opacity: 1; stroke: rgb(68, 68, 68); stroke-opacity: 1;"/><g class="slicetext"><text data-notex="1" class="slicetext" transform="translate(278.6193810310593,175.54833945094333)rotate(69.61589850530072)translate(-0.1953125,3)" text-anchor="middle" x="0" y="0" style="font-family: 'Open Sans', verdana, arial, sans-serif; font-size: 8px; fill: rgb(68, 68, 68); fill-opacity: 1; white-space: pre;">Building T (181.38KW)</text></g></g><g class="slice"><path class="surface" d="M310,260l-157.25983171425577,-29.48466260963412a160,160 0 0 1 52.779767794081124,-91.69254747227947Z" style="pointer-events: all; stroke-width: 0; fill: rgb(221, 160, 221); fill-opacity: 1; stroke: rgb(68, 68, 68); stroke-opacity: 1;"/><g class="slicetext"><text data-notex="1" class="slicetext" transform="translate(232.8443981875687,215.58794187822258)rotate(29.92545234319391)translate(-0.1796875,3)" text-anchor="middle" x="0" y="0" style="font-family: 'Open Sans', verdana, arial, sans-serif; font-size: 8px; fill: rgb(68, 68, 68); fill-opacity: 1; white-space: pre;">Residence 1&amp;2 (171.79KW)</text></g></g><g class="slice"><path class="surface" d="M310,260l-143.8126722597033,70.12784965705966a160,160 0 0 1 -13.447159454552462,-99.61251226669378Z" style="pointer-events: all; stroke-width: 0; fill: rgb(255, 160, 122); fill-opacity: 1; stroke: rgb(68, 68, 68); stroke-opacity: 1;"/><g class="slicetext"><text data-notex="1" class="slicetext" transform="translate(219.70192566175518,272.18975986484986)rotate(-7.688148545883678)translate(-0.1875,3)" text-anchor="middle" x="0" y="0" style="font-family: 'Open Sans', verdana, arial, sans-serif; font-size: 8px; fill: rgb(68, 68, 68); fill-opacity: 1; white-space: pre;">Building B (162.90KW)</text></g></g><g class="slice"><path class="surface" d="M310,260l-84.9308717604932,135.59773973780926a160,160 0 0 1 -58.8818004992101,-65.46989008074961Z" style="pointer-events: all; stroke-width: 0; fill: rgb(255, 228, 181); fill-opacity: 1; stroke: rgb(68, 68, 68); stroke-opacity: 1;"/><g class="slicetext"><text data-notex="1" class="slicetext" transform="translate(241.20023434023437,321.87659809683834)rotate(-41.96733389108795)translate(-0.1875,3)" text-anchor="middle" x="0" y="0" style="font-family: 'Open Sans', verdana, arial, sans-serif; font-size: 8px; fill: rgb(68, 68, 68); fill-opacity: 1; white-space: pre;">Building H (142.12KW)</text></g></g><g class="slice"><path class="surface" d="M310,260l-20.624094289722837,158.6652032889651a160,160 0 0 1 -64.30677747077037,-23.06746355115584Z" style="pointer-events: all; stroke-width: 0; fill: rgb(189, 183, 107); fill-opacity: 1; stroke: rgb(68, 68, 68); stroke-opacity: 1;"/><g class="slicetext"><text data-notex="1" class="slicetext" transform="translate(277.6408736516985,350.2097940943533)rotate(-70.26659840415573)translate(-0.1875,3)" text-anchor="middle" x="0" y="0" style="font-family: 'Open Sans', verdana, arial, sans-serif; font-size: 8px; fill: rgb(68, 68, 68); fill-opacity: 1; white-space: pre;">Building P (109.69KW)</text></g></g><g class="slice"><path class="surface" d="M310,260l36.73316404460056,155.7262812092823a160,160 0 0 1 -57.35725833432339,2.9389220796828113Z" style="pointer-events: all; stroke-width: 0; fill: rgb(135, 206, 250); fill-opacity: 1; stroke: rgb(68, 68, 68); stroke-opacity: 1;"/><g class="slicetext"><text data-notex="1" class="slicetext" transform="translate(315.0679863111256,358.9089850634689)rotate(87.06679320205285)translate(-0.1875,3)" text-anchor="middle" x="0" y="0" style="font-family: 'Open Sans', verdana, arial, sans-serif; font-size: 8px; fill: rgb(68, 68, 68); fill-opacity: 1; white-space: pre;">Building E (92.00KW)</text></g></g><g class="slice"><path class="surface" d="M310,260l80.06974875958335,138.5237717273725a160,160 0 0 1 -43.33658471498279,17.2025094819098Z" style="pointer-events: all; stroke-width: 0; fill: rgb(240, 230, 140); fill-opacity: 1; stroke: rgb(68, 68, 68); stroke-opacity: 1;"/><g class="slicetext"><text data-notex="1" class="slicetext" transform="translate(347.69362446165354,354.9578287641697)rotate(68.34933756227906)translate(-0.1953125,3)" text-anchor="middle" x="0" y="0" style="font-family: 'Open Sans', verdana, arial, sans-serif; font-size: 8px; fill: rgb(68, 68, 68); fill-opacity: 1; white-space: pre;">Building N (74.55KW)</text></g></g><g class="slice"><path class="surface" d="M310,260l113.78873025214435,112.48166458407667a160,160 0 0 1 -33.718981492561,26.042107143295823Z" style="pointer-events: all; stroke-width: 0; fill: rgb(175, 238, 238); fill-opacity: 1; stroke: rgb(68, 68, 68); stroke-opacity: 1;"/><g class="slicetext"><text data-notex="1" class="slicetext" transform="translate(373.6464111001843,342.4085449824104)rotate(52.320092903612476)translate(-0.1953125,3)" text-anchor="middle" x="0" y="0" style="font-family: 'Open Sans', verdana, arial, sans-serif; font-size: 8px; fill: rgb(68, 68, 68); fill-opacity: 1; white-space: pre;">Building J (68.08KW)</text></g></g><g class="slice"><path class="surface" d="M310,260l138.24811232241274,80.54476667847234a160,160 0 0 1 -24.45938207026839,31.936897905604326Z" style="pointer-events: all; stroke-width: 0; fill: rgb(102, 205, 170); fill-opacity: 1; stroke: rgb(68, 68, 68); stroke-opacity: 1;"/><g class="slicetext"><text data-notex="1" class="slicetext" transform="translate(393.06853662101275,323.6193621946886)rotate(37.44727345379158)translate(-0.1875,3)" text-anchor="middle" x="0" y="0" style="font-family: 'Open Sans', verdana, arial, sans-serif; font-size: 8px; fill: rgb(68, 68, 68); fill-opacity: 1; white-space: pre;">Building D (64.26KW)</text></g></g><g class="slice"><path class="surface" d="M310,260l149.1434127196133,57.93308590388642a160,160 0 0 1 -10.895300397200572,22.61168077458592Z" style="pointer-events: all; stroke-width: 0; fill: rgb(100, 149, 237); fill-opacity: 1; stroke: rgb(68, 68, 68); stroke-opacity: 1;"/><g class="slicetext"><text data-notex="1" class="slicetext" transform="translate(412.3132408451942,309.29901075166475)rotate(25.726808436247325)translate(-0.1953125,3)" text-anchor="middle" x="0" y="0" style="font-family: 'Open Sans', verdana, arial, sans-serif; font-size: 8px; fill: rgb(68, 68, 68); fill-opacity: 1; white-space: pre;">Building Z (40.03KW)</text></g></g><g class="slice"><path class="surface" d="M310,260l154.80196867691154,40.45182930044689a160,160 0 0 1 -5.658555957298233,17.481256603439533Z" style="pointer-events: all; stroke-width: 0; fill: rgb(144, 238, 144); fill-opacity: 1; stroke: rgb(68, 68, 68); stroke-opacity: 1;"/><g class="slicetext"><text data-notex="1" class="slicetext" transform="translate(0,24.886450314046556)translate(508.5207144640556,309.7479523817389)translate(-0.1875,3)" text-anchor="middle" x="0" y="0" style="font-family: 'Open Sans', verdana, arial, sans-serif; font-size: 8px; fill: rgb(42, 63, 95); fill-opacity: 1; white-space: pre;">Building V (29.29KW)</text></g><path class="textline" stroke-width="1" d="M462.2238394640556,309.2737526358753V334.63440269578547h2.5" fill="none" style="stroke: rgb(42, 63, 95); stroke-opacity: 1;"/></g><g class="slice"><path class="surface" d="M310,260l157.51615477792132,28.083108517006043a160,160 0 0 1 -2.7141861010097728,12.368720783440846Z" style="pointer-events: all; stroke-width: 0; fill: rgb(0, 191, 255); fill-opacity: 1; stroke: rgb(68, 68, 68); stroke-opacity: 1;"/><g class="slicetext"><text data-notex="1" class="slicetext" transform="translate(0,30.110364616164645)translate(512.9455357239293,294.5240380796208)translate(-0.1953125,3)" text-anchor="middle" x="0" y="0" style="font-family: 'Open Sans', verdana, arial, sans-serif; font-size: 8px; fill: rgb(42, 63, 95); fill-opacity: 1; white-space: pre;">Building G (20.18KW)</text></g><path class="textline" stroke-width="1" d="M466.2814732239293,294.29433082826176V324.63440269578547h2.5" fill="none" style="stroke: rgb(42, 63, 95); stroke-opacity: 1;"/></g><g class="slice"><path class="surface" d="M310,260l157.8929788707764,25.88063413660018a160,160 0 0 1 -0.3768240928550881,2.2024743804058637Z" style="pointer-events: all; stroke-width: 0; fill: rgb(152, 251, 152); fill-opacity: 1; stroke: rgb(68, 68, 68); stroke-opacity: 1;"/><g class="slicetext"><text data-notex="1" class="slicetext" transform="translate(0,27.50967493532778)translate(511.4584116989471,287.1247277604577)translate(-0.1875,3)" text-anchor="middle" x="0" y="0" style="font-family: 'Open Sans', verdana, arial, sans-serif; font-size: 8px; fill: rgb(42, 63, 95); fill-opacity: 1; white-space: pre;">Building S (3.56KW)</text></g><path class="textline" stroke-width="1" d="M467.7084116989471,286.98252915120077V314.63440269578547h2.5" fill="none" style="stroke: rgb(42, 63, 95); stroke-opacity: 1;"/></g><g class="slice"><path class="surface" d="M310,260l158.11045675533205,24.51700358160185a160,160 0 0 1 -0.21747788455564887,1.3636305549983305Z" style="pointer-events: all; stroke-width: 0; fill: rgb(255, 140, 0); fill-opacity: 1; stroke: rgb(68, 68, 68); stroke-opacity: 1;"/><g class="slicetext"><text data-notex="1" class="slicetext" transform="translate(0,19.311327287656525)translate(512.3938139043656,285.32307540812894)translate(-0.1875,3)" text-anchor="middle" x="0" y="0" style="font-family: 'Open Sans', verdana, arial, sans-serif; font-size: 8px; fill: rgb(42, 63, 95); fill-opacity: 1; white-space: pre;">Building M (2.20KW)</text></g><path class="textline" stroke-width="1" d="M468.00318890436563,285.1990534753064V304.63440269578547h2.5" fill="none" style="stroke: rgb(42, 63, 95); stroke-opacity: 1;"/></g><g class="slice"><path class="surface" d="M310,260l158.11045675533205,24.51700358160185a160,160 0 0 1 0,0Z" style="pointer-events: all; stroke-width: 0; fill: rgb(127, 255, 212); fill-opacity: 1; stroke: rgb(68, 68, 68); stroke-opacity: 1;"/><g class="slicetext"><text data-notex="1" class="slicetext" transform="translate(0,10)translate(511.92295675533205,284.63440269578547)translate(-0.1875,3)" text-anchor="middle" x="0" y="0" style="font-family: 'Open Sans', verdana, arial, sans-serif; font-size: 8px; fill: rgb(42, 63, 95); fill-opacity: 1; white-space: pre;">Building C (0.00KW)</text></g><path class="textline" stroke-width="1" d="M468.11045675533205,284.51700358160184V294.63440269578547h2.5" fill="none" style="stroke: rgb(42, 63, 95); stroke-opacity: 1;"/></g><g class="slice"><path class="surface" d="M310,260l158.11045675533205,24.51700358160185a160,160 0 0 1 0,0Z" style="pointer-events: all; stroke-width: 0; fill: rgb(255, 165, 0); fill-opacity: 1; stroke: rgb(68, 68, 68); stroke-opacity: 1;"/><g class="slicetext"><text data-notex="1" class="slicetext" transform="translate(511.89951925533205,284.63440269578547)translate(-0.1796875,3)" text-anchor="middle" x="0" y="0" style="font-family: 'Open Sans', verdana, arial, sans-serif; font-size: 8px; fill: rgb(42, 63, 95); fill-opacity: 1; white-space: pre;">Building K (0.00KW)</text></g></g></g></g><g class="treemaplayer"/><g class="sunburstlayer"/><g class="glimages"/><defs id="topdefs-79b6a3"><g class="clips"/></defs><g class="layer-above"><g class="imagelayer"/><g class="shapelayer"/></g><g class="infolayer"><g class="g-gtitle"/></g></svg>