<svg class="main-svg" xmlns="http://www.w3.org/2000/svg" xmlns:xlink="http://www.w3.org/1999/xlink" width="700" height="500" viewBox="0 0 700 500"><rect x="0" y="0" width="700" height="500" style="fill: rgb(255, 255, 255); fill-opacity: 1;"/><defs id="defs-460567"><g class="clips"/><g class="gradients"/></defs><g class="bglayer"/><g class="layer-below"><g class="imagelayer"/><g class="shapelayer"/></g><g class="cartesianlayer"/><g class="polarlayer"/><g class="ternarylayer"/><g class="geolayer"/><g class="funnelarealayer"/><g class="pielayer"><g class="trace" stroke-linejoin="round" style="opacity: 1;"><g class="slice"><path class="surface" d="M308,260l0,-160a160,160 0 0 1 159.98893431311586,158.11827277388554Z" style="pointer-events: all; stroke-width: 0; fill: rgb(250, 128, 114); fill-opacity: 1; stroke: rgb(68, 68, 68); stroke-opacity: 1;"/><g class="slicetext"><text data-notex="1" class="slicetext" transform="translate(374.044642263115,193.17399850504898)translate(-0.1796875,3)" text-anchor="middle" x="0" y="0" style="font-family: 'Open Sans', verdana, arial, sans-serif; font-size: 8px; fill: rgb(68, 68, 68); fill-opacity: 1; white-space: pre;">Building A (611.59KW)</text></g></g><g class="slice"><path class="surface" d="M308,260l-114.24593280137833,-112.01726134102256a160,160 0 0 1 114.24593280137833,-47.98273865897744Z" style="pointer-events: all; stroke-width: 0; fill: rgb(0, 255, 127); fill-opacity: 1; stroke: rgb(68, 68, 68); stroke-opacity: 1;"/><g class="slicetext"><text data-notex="1" class="slicetext" transform="translate(273.51692268660213,177.89648853663113)rotate(67.21783007022282)translate(-0.1953125,3)" text-anchor="middle" x="0" y="0" style="font-family: 'Open Sans', verdana, arial, sans-serif; font-size: 8px; fill: rgb(68, 68, 68); fill-opacity: 1; white-space: pre;">Building T (326.59KW)</text></g></g><g class="slice"><path class="surface" d="M308,260l-159.15121814780076,-16.458729053943784a160,160 0 0 1 44.90528534642243,-95.55853228707878Z" style="pointer-events: all; stroke-width: 0; fill: rgb(255, 160, 122); fill-opacity: 1; stroke: rgb(68, 68, 68); stroke-opacity: 1;"/><g class="slicetext"><text data-notex="1" class="slicetext" transform="translate(226.00479151764168,221.46845136886253)rotate(25.169976282379253)translate(-0.1875,3)" text-anchor="middle" x="0" y="0" style="font-family: 'Open Sans', verdana, arial, sans-serif; font-size: 8px; fill: rgb(68, 68, 68); fill-opacity: 1; white-space: pre;">Building B (276.18KW)</text></g></g><g class="slice"><path class="surface" d="M308,260l-135.68260253843437,84.79523199093946a160,160 0 0 1 -23.468615609366395,-101.25396104488324Z" style="pointer-events: all; stroke-width: 0; fill: rgb(255, 228, 181); fill-opacity: 1; stroke: rgb(68, 68, 68); stroke-opacity: 1;"/><g class="slicetext"><text data-notex="1" class="slicetext" transform="translate(219.6332741799867,280.4816157267061)rotate(-13.049574477979831)translate(-0.1875,3)" text-anchor="middle" x="0" y="0" style="font-family: 'Open Sans', verdana, arial, sans-serif; font-size: 8px; fill: rgb(68, 68, 68); fill-opacity: 1; white-space: pre;">Building H (271.71KW)</text></g></g><g class="slice"><path class="surface" d="M308,260l-83.57269529943095,136.43901421656665a160,160 0 0 1 -52.10990723900342,-51.64378222562719Z" style="pointer-events: all; stroke-width: 0; fill: rgb(135, 206, 250); fill-opacity: 1; stroke: rgb(68, 68, 68); stroke-opacity: 1;"/><g class="slicetext"><text data-notex="1" class="slicetext" transform="translate(241.2180172940402,327.3847416682315)rotate(-45.25740594335673)translate(-0.1796875,3)" text-anchor="middle" x="0" y="0" style="font-family: 'Open Sans', verdana, arial, sans-serif; font-size: 8px; fill: rgb(68, 68, 68); fill-opacity: 1; white-space: pre;">Building E (190.00KW)</text></g></g><g class="slice"><path class="surface" d="M308,260l-14.931112038292692,159.30179500966068a160,160 0 0 1 -68.64158326113825,-22.862780793094032Z" style="pointer-events: all; stroke-width: 0; fill: rgb(189, 183, 107); fill-opacity: 1; stroke: rgb(68, 68, 68); stroke-opacity: 1;"/><g class="slicetext"><text data-notex="1" class="slicetext" transform="translate(277.95336218856676,350.20988346587075)rotate(-71.57838441147737)translate(-0.1875,3)" text-anchor="middle" x="0" y="0" style="font-family: 'Open Sans', verdana, arial, sans-serif; font-size: 8px; fill: rgb(68, 68, 68); fill-opacity: 1; white-space: pre;">Building P (187.32KW)</text></g></g><g class="slice"><path class="surface" d="M308,260l54.27877764223676,150.5118410546646a160,160 0 0 1 -69.20988968052946,8.789953954996093Z" style="pointer-events: all; stroke-width: 0; fill: rgb(221, 160, 221); fill-opacity: 1; stroke: rgb(68, 68, 68); stroke-opacity: 1;"/><g class="slicetext"><text data-notex="1" class="slicetext" transform="translate(319.75916434018313,352.5887064808469)rotate(82.76194019439151)translate(-0.1796875,3)" text-anchor="middle" x="0" y="0" style="font-family: 'Open Sans', verdana, arial, sans-serif; font-size: 8px; fill: rgb(68, 68, 68); fill-opacity: 1; white-space: pre;">Residence 1&amp;2 (180.52KW)</text></g></g><g class="slice"><path class="surface" d="M308,260l98.49621613706525,126.0892358874481a160,160 0 0 1 -44.217438494828485,24.42260516721649Z" style="pointer-events: all; stroke-width: 0; fill: rgb(102, 205, 170); fill-opacity: 1; stroke: rgb(68, 68, 68); stroke-opacity: 1;"/><g class="slicetext"><text data-notex="1" class="slicetext" transform="translate(356.34497602591443,347.5291963868516)rotate(61.08682509417292)translate(-0.1875,3)" text-anchor="middle" x="0" y="0" style="font-family: 'Open Sans', verdana, arial, sans-serif; font-size: 8px; fill: rgb(68, 68, 68); fill-opacity: 1; white-space: pre;">Building D (130.20KW)</text></g></g><g class="slice"><path class="surface" d="M308,260l131.71537166115093,90.83535032224445a160,160 0 0 1 -33.21915552408568,35.253885565203646Z" style="pointer-events: all; stroke-width: 0; fill: rgb(175, 238, 238); fill-opacity: 1; stroke: rgb(68, 68, 68); stroke-opacity: 1;"/><g class="slicetext"><text data-notex="1" class="slicetext" transform="translate(381.55732971063713,329.31185985370945)rotate(43.29791191926711)translate(-0.1875,3)" text-anchor="middle" x="0" y="0" style="font-family: 'Open Sans', verdana, arial, sans-serif; font-size: 8px; fill: rgb(68, 68, 68); fill-opacity: 1; white-space: pre;">Building J (124.81KW)</text></g></g><g class="slice"><path class="surface" d="M308,260l152.50118969247785,48.40854410513587a160,160 0 0 1 -20.785818031326926,42.426806217108584Z" style="pointer-events: all; stroke-width: 0; fill: rgb(240, 230, 140); fill-opacity: 1; stroke: rgb(68, 68, 68); stroke-opacity: 1;"/><g class="slicetext"><text data-notex="1" class="slicetext" transform="translate(398.76574688243034,304.4681197194355)rotate(26.101241687206425)translate(-0.1875,3)" text-anchor="middle" x="0" y="0" style="font-family: 'Open Sans', verdana, arial, sans-serif; font-size: 8px; fill: rgb(68, 68, 68); fill-opacity: 1; white-space: pre;">Building N (121.71KW)</text></g></g><g class="slice"><path class="surface" d="M308,260l157.58387679379038,27.70057354351158a160,160 0 0 1 -5.08268710131253,20.707970561624286Z" style="pointer-events: all; stroke-width: 0; fill: rgb(144, 238, 144); fill-opacity: 1; stroke: rgb(68, 68, 68); stroke-opacity: 1;"/><g class="slicetext"><text data-notex="1" class="slicetext" transform="translate(0,10.489367097445893)translate(509.68475137921956,298.4234249921297)translate(-0.1875,3)" text-anchor="middle" x="0" y="0" style="font-family: 'Open Sans', verdana, arial, sans-serif; font-size: 8px; fill: rgb(42, 63, 95); fill-opacity: 1; white-space: pre;">Building V (54.77KW)</text></g><path class="textline" stroke-width="1" d="M463.38787637921956,298.13932189166945V308.9127920895756h2.5" fill="none" style="stroke: rgb(42, 63, 95); stroke-opacity: 1;"/></g><g class="slice"><path class="surface" d="M308,260l159.51724784963437,12.419647276726991a160,160 0 0 1 -1.9333710558439918,15.28092626678459Z" style="pointer-events: all; stroke-width: 0; fill: rgb(100, 149, 237); fill-opacity: 1; stroke: rgb(68, 68, 68); stroke-opacity: 1;"/><g class="slicetext"><text data-notex="1" class="slicetext" transform="translate(0,18.750625333883022)translate(513.0392378960115,280.16216675569257)translate(-0.1953125,3)" text-anchor="middle" x="0" y="0" style="font-family: 'Open Sans', verdana, arial, sans-serif; font-size: 8px; fill: rgb(42, 63, 95); fill-opacity: 1; white-space: pre;">Building Z (39.55KW)</text></g><path class="textline" stroke-width="1" d="M466.7345503960115,280.08338892159566V298.9127920895756h2.5" fill="none" style="stroke: rgb(42, 63, 95); stroke-opacity: 1;"/></g><g class="slice"><path class="surface" d="M308,260l159.92789213260735,4.803052989621187a160,160 0 0 1 -0.4106442829729815,7.616594287105804Z" style="pointer-events: all; stroke-width: 0; fill: rgb(0, 191, 255); fill-opacity: 1; stroke: rgb(68, 68, 68); stroke-opacity: 1;"/><g class="slicetext"><text data-notex="1" class="slicetext" transform="translate(0,20.28450283493322)translate(514.4320270351411,268.62828925464237)translate(-0.1953125,3)" text-anchor="middle" x="0" y="0" style="font-family: 'Open Sans', verdana, arial, sans-serif; font-size: 8px; fill: rgb(42, 63, 95); fill-opacity: 1; white-space: pre;">Building G (19.58KW)</text></g><path class="textline" stroke-width="1" d="M467.7679645351411,268.61379755380295V288.9127920895756h2.5" fill="none" style="stroke: rgb(42, 63, 95); stroke-opacity: 1;"/></g><g class="slice"><path class="surface" d="M308,260l159.99364598233262,1.4259191000951978a160,160 0 0 1 -0.06575384972526876,3.377133889525989Z" style="pointer-events: all; stroke-width: 0; fill: rgb(255, 165, 0); fill-opacity: 1; stroke: rgb(68, 68, 68); stroke-opacity: 1;"/><g class="slicetext"><text data-notex="1" class="slicetext" transform="translate(0,15.796237776059684)translate(511.7587436767286,263.1165543135159)translate(-0.1796875,3)" text-anchor="middle" x="0" y="0" style="font-family: 'Open Sans', verdana, arial, sans-serif; font-size: 8px; fill: rgb(42, 63, 95); fill-opacity: 1; white-space: pre;">Building K (8.67KW)</text></g><path class="textline" stroke-width="1" d="M467.9696811767286,263.11465956659873V278.9127920895756h2.5" fill="none" style="stroke: rgb(42, 63, 95); stroke-opacity: 1;"/></g><g class="slice"><path class="surface" d="M308,260l159.99973318420965,-0.2922002425042082a160,160 0 0 1 -0.006087201877022608,1.718119342599406Z" style="pointer-events: all; stroke-width: 0; fill: rgb(152, 251, 152); fill-opacity: 1; stroke: rgb(68, 68, 68); stroke-opacity: 1;"/><g class="slicetext"><text data-notex="1" class="slicetext" transform="translate(0,8.345861728437)translate(511.74899581286274,260.5669303611386)translate(-0.1875,3)" text-anchor="middle" x="0" y="0" style="font-family: 'Open Sans', verdana, arial, sans-serif; font-size: 8px; fill: rgb(42, 63, 95); fill-opacity: 1; white-space: pre;">Building S (4.41KW)</text></g><path class="textline" stroke-width="1" d="M467.99899581286274,260.56686759963947V268.9127920895756h2.5" fill="none" style="stroke: rgb(42, 63, 95); stroke-opacity: 1;"/></g><g class="slice"><path class="surface" d="M308,260l159.98893431311586,-1.881727226114349a160,160 0 0 1 0.010798871093783191,1.5895269836101407Z" style="pointer-events: all; stroke-width: 0; fill: rgb(255, 140, 0); fill-opacity: 1; stroke: rgb(68, 68, 68); stroke-opacity: 1;"/><g class="slicetext"><text data-notex="1" class="slicetext" transform="translate(512.3869327095418,258.9127920895756)translate(-0.1875,3)" text-anchor="middle" x="0" y="0" style="font-family: 'Open Sans', verdana, arial, sans-serif; font-size: 8px; fill: rgb(42, 63, 95); fill-opacity: 1; white-space: pre;">Building M (4.08KW)</text></g></g><g class="slice"><path class="surface" d="M308,260l159.98893431311586,-1.881727226114349a160,160 0 0 1 0,0Z" style="pointer-events: all; stroke-width: 0; fill: rgb(127, 255, 212); fill-opacity: 1; stroke: rgb(68, 68, 68); stroke-opacity: 1;"/><g class="slicetext"><text data-notex="1" class="slicetext" transform="translate(0,-9.204789102795758)translate(511.80143431311586,258.11758119237135)translate(-0.1875,3)" text-anchor="middle" x="0" y="0" style="font-family: 'Open Sans', verdana, arial, sans-serif; font-size: 8px; fill: rgb(42, 63, 95); fill-opacity: 1; white-space: pre;">Building C (0.00KW)</text></g><path class="textline" stroke-width="1" d="M467.98893431311586,258.1182727738857V248.9127920895756h2.5" fill="none" style="stroke: rgb(42, 63, 95); stroke-opacity: 1;"/></g></g></g><g class="treemaplayer"/><g class="sunburstlayer"/><g class="glimages"/><defs id="topdefs-460567"><g class="clips"/></defs><g class="layer-above"><g class="imagelayer"/><g class="shapelayer"/></g><g class="infolayer"><g class="g-gtitle"/></g></svg>