<svg class="main-svg" xmlns="http://www.w3.org/2000/svg" xmlns:xlink="http://www.w3.org/1999/xlink" width="700" height="500" viewBox="0 0 700 500"><rect x="0" y="0" width="700" height="500" style="fill: rgb(255, 255, 255); fill-opacity: 1;"/><defs id="defs-90aca8"><g class="clips"/><g class="gradients"/></defs><g class="bglayer"/><g class="layer-below"><g class="imagelayer"/><g class="shapelayer"/></g><g class="cartesianlayer"/><g class="polarlayer"/><g class="ternarylayer"/><g class="geolayer"/><g class="funnelarealayer"/><g class="pielayer"><g class="trace" stroke-linejoin="round" style="opacity: 1;"><g class="slice"><path class="surface" d="M309,260l0,-160a160,160 0 0 1 159.67339072075092,170.21803776360292Z" style="pointer-events: all; stroke-width: 0; fill: rgb(250, 128, 114); fill-opacity: 1; stroke: rgb(68, 68, 68); stroke-opacity: 1;"/><g class="slicetext"><text data-notex="1" class="slicetext" transform="translate(376.47895335867815,196.70122493110165)translate(-0.1796875,3)" text-anchor="middle" x="0" y="0" style="font-family: 'Open Sans', verdana, arial, sans-serif; font-size: 8px; fill: rgb(68, 68, 68); fill-opacity: 1; white-space: pre;">Building A (606.28KW)</text></g></g><g class="slice"><path class="surface" d="M309,260l-111.59945497165913,-114.65409565309314a160,160 0 0 1 111.59945497165913,-45.34590434690686Z" style="pointer-events: all; stroke-width: 0; fill: rgb(0, 255, 127); fill-opacity: 1; stroke: rgb(68, 68, 68); stroke-opacity: 1;"/><g class="slicetext"><text data-notex="1" class="slicetext" transform="translate(275.37536857213337,177.24742079757857)rotate(67.88675058533681)translate(-0.1953125,3)" text-anchor="middle" x="0" y="0" style="font-family: 'Open Sans', verdana, arial, sans-serif; font-size: 8px; fill: rgb(68, 68, 68); fill-opacity: 1; white-space: pre;">Building T (301.18KW)</text></g></g><g class="slice"><path class="surface" d="M309,260l-159.13054728958863,-16.657398335754372a160,160 0 0 1 47.531092317929506,-97.99669731733877Z" style="pointer-events: all; stroke-width: 0; fill: rgb(255, 160, 122); fill-opacity: 1; stroke: rgb(68, 68, 68); stroke-opacity: 1;"/><g class="slicetext"><text data-notex="1" class="slicetext" transform="translate(227.77345209703486,220.60289119193138)rotate(25.874660423074147)translate(-0.1875,3)" text-anchor="middle" x="0" y="0" style="font-family: 'Open Sans', verdana, arial, sans-serif; font-size: 8px; fill: rgb(68, 68, 68); fill-opacity: 1; white-space: pre;">Building B (271.02KW)</text></g></g><g class="slice"><path class="surface" d="M309,260l-135.00169027672962,85.87516301251466a160,160 0 0 1 -24.128857012859015,-102.53256134826904Z" style="pointer-events: all; stroke-width: 0; fill: rgb(255, 228, 181); fill-opacity: 1; stroke: rgb(68, 68, 68); stroke-opacity: 1;"/><g class="slicetext"><text data-notex="1" class="slicetext" transform="translate(220.8380478260521,280.7470398672101)rotate(-13.242398779562564)translate(-0.1875,3)" text-anchor="middle" x="0" y="0" style="font-family: 'Open Sans', verdana, arial, sans-serif; font-size: 8px; fill: rgb(68, 68, 68); fill-opacity: 1; white-space: pre;">Building H (261.75KW)</text></g></g><g class="slice"><path class="surface" d="M309,260l-79.87271222848337,138.63747632320016a160,160 0 0 1 -55.12897804824625,-52.7623133106855Z" style="pointer-events: all; stroke-width: 0; fill: rgb(221, 160, 221); fill-opacity: 1; stroke: rgb(68, 68, 68); stroke-opacity: 1;"/><g class="slicetext"><text data-notex="1" class="slicetext" transform="translate(245.17466279134948,326.6882362260832)rotate(-46.25661818092817)translate(-0.1796875,3)" text-anchor="middle" x="0" y="0" style="font-family: 'Open Sans', verdana, arial, sans-serif; font-size: 8px; fill: rgb(68, 68, 68); fill-opacity: 1; white-space: pre;">Residence 1&amp;2 (187.90KW)</text></g></g><g class="slice"><path class="surface" d="M309,260l-14.308565676051945,159.35891863430209a160,160 0 0 1 -65.56414655243142,-20.721442311101924Z" style="pointer-events: all; stroke-width: 0; fill: rgb(135, 206, 250); fill-opacity: 1; stroke: rgb(68, 68, 68); stroke-opacity: 1;"/><g class="slicetext"><text data-notex="1" class="slicetext" transform="translate(280.1542427185271,351.27006843558775)rotate(-72.46094355476873)translate(-0.1796875,3)" text-anchor="middle" x="0" y="0" style="font-family: 'Open Sans', verdana, arial, sans-serif; font-size: 8px; fill: rgb(68, 68, 68); fill-opacity: 1; white-space: pre;">Building E (169.00KW)</text></g></g><g class="slice"><path class="surface" d="M309,260l43.19889958191893,154.05796011537763a160,160 0 0 1 -57.50746525797088,5.30095851892446Z" style="pointer-events: all; stroke-width: 0; fill: rgb(240, 230, 140); fill-opacity: 1; stroke: rgb(68, 68, 68); stroke-opacity: 1;"/><g class="slicetext"><text data-notex="1" class="slicetext" transform="translate(317.99686989282736,357.60257148687003)rotate(84.73343721192055)translate(-0.1875,3)" text-anchor="middle" x="0" y="0" style="font-family: 'Open Sans', verdana, arial, sans-serif; font-size: 8px; fill: rgb(68, 68, 68); fill-opacity: 1; white-space: pre;">Building N (141.61KW)</text></g></g><g class="slice"><path class="surface" d="M309,260l90.09603414211126,132.22217904672243a160,160 0 0 1 -46.897134560192335,21.835781068655194Z" style="pointer-events: all; stroke-width: 0; fill: rgb(189, 183, 107); fill-opacity: 1; stroke: rgb(68, 68, 68); stroke-opacity: 1;"/><g class="slicetext"><text data-notex="1" class="slicetext" transform="translate(351.14282191738454,350.5109638163048)rotate(65.03283596700908)translate(-0.1875,3)" text-anchor="middle" x="0" y="0" style="font-family: 'Open Sans', verdana, arial, sans-serif; font-size: 8px; fill: rgb(68, 68, 68); fill-opacity: 1; white-space: pre;">Building P (126.71KW)</text></g></g><g class="slice"><path class="surface" d="M309,260l125.61906405930134,99.09516004762871a160,160 0 0 1 -35.52302991719007,33.12701899909372Z" style="pointer-events: all; stroke-width: 0; fill: rgb(175, 238, 238); fill-opacity: 1; stroke: rgb(68, 68, 68); stroke-opacity: 1;"/><g class="slicetext"><text data-notex="1" class="slicetext" transform="translate(377.8999622203866,333.8833584547712)rotate(46.99891498543798)translate(-0.1875,3)" text-anchor="middle" x="0" y="0" style="font-family: 'Open Sans', verdana, arial, sans-serif; font-size: 8px; fill: rgb(68, 68, 68); fill-opacity: 1; white-space: pre;">Building J (118.91KW)</text></g></g><g class="slice"><path class="surface" d="M309,260l147.59196515167739,61.77873276999169a160,160 0 0 1 -21.97290109237605,37.31642727763702Z" style="pointer-events: all; stroke-width: 0; fill: rgb(102, 205, 170); fill-opacity: 1; stroke: rgb(68, 68, 68); stroke-opacity: 1;"/><g class="slicetext"><text data-notex="1" class="slicetext" transform="translate(397.28658604519944,311.98548104623256)rotate(30.49070395418471)translate(-0.1875,3)" text-anchor="middle" x="0" y="0" style="font-family: 'Open Sans', verdana, arial, sans-serif; font-size: 8px; fill: rgb(68, 68, 68); fill-opacity: 1; white-space: pre;">Building D (105.93KW)</text></g></g><g class="slice"><path class="surface" d="M309,260l154.81693540237524,40.39451092186626a160,160 0 0 1 -7.224970250697851,21.384221848125435Z" style="pointer-events: all; stroke-width: 0; fill: rgb(144, 238, 144); fill-opacity: 1; stroke: rgb(68, 68, 68); stroke-opacity: 1;"/><g class="slicetext"><text data-notex="1" class="slicetext" transform="translate(418.58974824294813,297.0264897390304)rotate(18.668287390172964)translate(-0.1875,3)" text-anchor="middle" x="0" y="0" style="font-family: 'Open Sans', verdana, arial, sans-serif; font-size: 8px; fill: rgb(68, 68, 68); fill-opacity: 1; white-space: pre;">Building V (55.09KW)</text></g></g><g class="slice"><path class="surface" d="M309,260l158.27568895160135,23.426614926103465a160,160 0 0 1 -3.4587535492261168,16.96789599576279Z" style="pointer-events: all; stroke-width: 0; fill: rgb(100, 149, 237); fill-opacity: 1; stroke: rgb(68, 68, 68); stroke-opacity: 1;"/><g class="slicetext"><text data-notex="1" class="slicetext" transform="translate(0,28.081572365712873)translate(512.0807227536249,292.15685764315185)translate(-0.1953125,3)" text-anchor="middle" x="0" y="0" style="font-family: 'Open Sans', verdana, arial, sans-serif; font-size: 8px; fill: rgb(42, 63, 95); fill-opacity: 1; white-space: pre;">Building Z (42.25KW)</text></g><path class="textline" stroke-width="1" d="M465.77603525362485,291.9573899146061V320.2384300088647h2.5" fill="none" style="stroke: rgb(42, 63, 95); stroke-opacity: 1;"/></g><g class="slice"><path class="surface" d="M309,260l159.20488193234607,15.931276436863017a160,160 0 0 1 -0.9291929807447161,7.4953384892404475Z" style="pointer-events: all; stroke-width: 0; fill: rgb(0, 191, 255); fill-opacity: 1; stroke: rgb(68, 68, 68); stroke-opacity: 1;"/><g class="slicetext"><text data-notex="1" class="slicetext" transform="translate(0,30.478321752900683)translate(514.4485807848957,279.76010825596404)translate(-0.1953125,3)" text-anchor="middle" x="0" y="0" style="font-family: 'Open Sans', verdana, arial, sans-serif; font-size: 8px; fill: rgb(42, 63, 95); fill-opacity: 1; white-space: pre;">Building G (18.42KW)</text></g><path class="textline" stroke-width="1" d="M467.7845182848957,279.68442920263715V310.2384300088647h2.5" fill="none" style="stroke: rgb(42, 63, 95); stroke-opacity: 1;"/></g><g class="slice"><path class="surface" d="M309,260l159.4647248346484,13.076755461882614a160,160 0 0 1 -0.2598429023023243,2.854520974980403Z" style="pointer-events: all; stroke-width: 0; fill: rgb(255, 165, 0); fill-opacity: 1; stroke: rgb(68, 68, 68); stroke-opacity: 1;"/><g class="slicetext"><text data-notex="1" class="slicetext" transform="translate(0,25.692741678067193)translate(512.1302581832158,274.54568833079753)translate(-0.1796875,3)" text-anchor="middle" x="0" y="0" style="font-family: 'Open Sans', verdana, arial, sans-serif; font-size: 8px; fill: rgb(42, 63, 95); fill-opacity: 1; white-space: pre;">Building K (6.99KW)</text></g><path class="textline" stroke-width="1" d="M468.3411956832158,274.50459783114064V300.2384300088647h2.5" fill="none" style="stroke: rgb(42, 63, 95); stroke-opacity: 1;"/></g><g class="slice"><path class="surface" d="M309,260l159.60723238144237,11.204078343900152a160,160 0 0 1 -0.14250754679397915,1.8726771179824624Z" style="pointer-events: all; stroke-width: 0; fill: rgb(152, 251, 152); fill-opacity: 1; stroke: rgb(68, 68, 68); stroke-opacity: 1;"/><g class="slicetext"><text data-notex="1" class="slicetext" transform="translate(0,18.069015961873447)translate(512.288726334153,272.1694140469913)translate(-0.1875,3)" text-anchor="middle" x="0" y="0" style="font-family: 'Open Sans', verdana, arial, sans-serif; font-size: 8px; fill: rgb(42, 63, 95); fill-opacity: 1; white-space: pre;">Building S (4.58KW)</text></g><path class="textline" stroke-width="1" d="M468.538726334153,272.1406260001795V290.2384300088647h2.5" fill="none" style="stroke: rgb(42, 63, 95); stroke-opacity: 1;"/></g><g class="slice"><path class="surface" d="M309,260l159.6733907207509,10.218037763603302a160,160 0 0 1 -0.06615833930851522,0.9860405802968497Z" style="pointer-events: all; stroke-width: 0; fill: rgb(255, 140, 0); fill-opacity: 1; stroke: rgb(68, 68, 68); stroke-opacity: 1;"/><g class="slicetext"><text data-notex="1" class="slicetext" transform="translate(0,9.504913090778075)translate(513.031697851374,270.73351691808665)translate(-0.1875,3)" text-anchor="middle" x="0" y="0" style="font-family: 'Open Sans', verdana, arial, sans-serif; font-size: 8px; fill: rgb(42, 63, 95); fill-opacity: 1; white-space: pre;">Building M (2.41KW)</text></g><path class="textline" stroke-width="1" d="M468.641072851374,270.7111091331526V280.2384300088647h2.5" fill="none" style="stroke: rgb(42, 63, 95); stroke-opacity: 1;"/></g><g class="slice"><path class="surface" d="M309,260l159.6733907207509,10.218037763603302a160,160 0 0 1 0,0Z" style="pointer-events: all; stroke-width: 0; fill: rgb(127, 255, 212); fill-opacity: 1; stroke: rgb(68, 68, 68); stroke-opacity: 1;"/><g class="slicetext"><text data-notex="1" class="slicetext" transform="translate(512.4858907207508,270.2384300088647)translate(-0.1875,3)" text-anchor="middle" x="0" y="0" style="font-family: 'Open Sans', verdana, arial, sans-serif; font-size: 8px; fill: rgb(42, 63, 95); fill-opacity: 1; white-space: pre;">Building C (0.00KW)</text></g></g></g></g><g class="treemaplayer"/><g class="sunburstlayer"/><g class="glimages"/><defs id="topdefs-90aca8"><g class="clips"/></defs><g class="layer-above"><g class="imagelayer"/><g class="shapelayer"/></g><g class="infolayer"><g class="g-gtitle"/></g></svg>