<svg class="main-svg" xmlns="http://www.w3.org/2000/svg" xmlns:xlink="http://www.w3.org/1999/xlink" width="700" height="500" viewBox="0 0 700 500"><rect x="0" y="0" width="700" height="500" style="fill: rgb(255, 255, 255); fill-opacity: 1;"/><defs id="defs-a78ec5"><g class="clips"/><g class="gradients"/></defs><g class="bglayer"/><g class="layer-below"><g class="imagelayer"/><g class="shapelayer"/></g><g class="cartesianlayer"/><g class="polarlayer"/><g class="ternarylayer"/><g class="geolayer"/><g class="funnelarealayer"/><g class="pielayer"><g class="trace" stroke-linejoin="round" style="opacity: 1;"><g class="slice"><path class="surface" d="M310.5,260l0,-160a160,160 0 0 1 158.01837196158775,185.10366751312046Z" style="pointer-events: all; stroke-width: 0; fill: rgb(99, 110, 250); fill-opacity: 1; stroke: rgb(68, 68, 68); stroke-opacity: 1;"/><g class="slicetext"><text data-notex="1" class="slicetext" transform="translate(379.6197388852818,200.9942074308815)translate(0,3.171875)" text-anchor="middle" x="0" y="0" style="font-family: 'Open Sans', verdana, arial, sans-serif; font-size: 8px; fill: rgb(255, 255, 255); fill-opacity: 1; white-space: pre;">Building A (416.49KW)</text></g></g><g class="slice"><path class="surface" d="M310.5,260l-105.2027703734287,-120.55030943865566a160,160 0 0 1 105.2027703734287,-39.44969056134434Z" style="pointer-events: all; stroke-width: 0; fill: rgb(239, 85, 59); fill-opacity: 1; stroke: rgb(68, 68, 68); stroke-opacity: 1;"/><g class="slicetext"><text data-notex="1" class="slicetext" transform="translate(278.98827961749845,175.96587358988307)rotate(69.44459857923573)translate(-0.0078125,3.171875)" text-anchor="middle" x="0" y="0" style="font-family: 'Open Sans', verdana, arial, sans-serif; font-size: 8px; fill: rgb(68, 68, 68); fill-opacity: 1; white-space: pre;">Building T (176.99KW)</text></g></g><g class="slice"><path class="surface" d="M310.5,260l-155.98196822163453,-35.631805872071666a160,160 0 0 1 50.779197848205825,-84.918503566584Z" style="pointer-events: all; stroke-width: 0; fill: rgb(0, 204, 150); fill-opacity: 1; stroke: rgb(68, 68, 68); stroke-opacity: 1;"/><g class="slicetext"><text data-notex="1" class="slicetext" transform="translate(232.40526493130614,213.30124959341714)rotate(30.878396252588914)translate(-0.0078125,3.171875)" text-anchor="middle" x="0" y="0" style="font-family: 'Open Sans', verdana, arial, sans-serif; font-size: 8px; fill: rgb(68, 68, 68); fill-opacity: 1; white-space: pre;">Building B (155.08KW)</text></g></g><g class="slice"><path class="surface" d="M310.5,260l-147.4089546337375,62.214147055060764a160,160 0 0 1 -8.573013587897037,-97.84595292713243Z" style="pointer-events: all; stroke-width: 0; fill: rgb(171, 99, 250); fill-opacity: 1; stroke: rgb(68, 68, 68); stroke-opacity: 1;"/><g class="slicetext"><text data-notex="1" class="slicetext" transform="translate(221.39268814248877,267.80735607843)rotate(-5.0073231948485954)translate(0,3.171875)" text-anchor="middle" x="0" y="0" style="font-family: 'Open Sans', verdana, arial, sans-serif; font-size: 8px; fill: rgb(68, 68, 68); fill-opacity: 1; white-space: pre;">Residence 1&amp;2 (153.91KW)</text></g></g><g class="slice"><path class="surface" d="M310.5,260l-95.43497038617595,128.42183002663418a160,160 0 0 1 -51.973984247561546,-66.20768297157342Z" style="pointer-events: all; stroke-width: 0; fill: rgb(255, 161, 90); fill-opacity: 1; stroke: rgb(68, 68, 68); stroke-opacity: 1;"/><g class="slicetext"><text data-notex="1" class="slicetext" transform="translate(237.56395314494839,317.2558467565078)rotate(-38.132424009755596)translate(-0.0078125,3.171875)" text-anchor="middle" x="0" y="0" style="font-family: 'Open Sans', verdana, arial, sans-serif; font-size: 8px; fill: rgb(68, 68, 68); fill-opacity: 1; white-space: pre;">Building H (131.31KW)</text></g></g><g class="slice"><path class="surface" d="M310.5,260l-32.20725082405568,156.72489589837463a160,160 0 0 1 -63.22771956212027,-28.303065871740444Z" style="pointer-events: all; stroke-width: 0; fill: rgb(25, 211, 243); fill-opacity: 1; stroke: rgb(68, 68, 68); stroke-opacity: 1;"/><g class="slicetext"><text data-notex="1" class="slicetext" transform="translate(271.5761244847211,346.9541093711765)rotate(-65.8849451889514)translate(-0.0078125,3.171875)" text-anchor="middle" x="0" y="0" style="font-family: 'Open Sans', verdana, arial, sans-serif; font-size: 8px; fill: rgb(68, 68, 68); fill-opacity: 1; white-space: pre;">Building P (107.65KW)</text></g></g><g class="slice"><path class="surface" d="M310.5,260l19.41452105997047,158.81774577172402a160,160 0 0 1 -51.621771884026145,-2.092849873349394Z" style="pointer-events: all; stroke-width: 0; fill: rgb(255, 102, 146); fill-opacity: 1; stroke: rgb(68, 68, 68); stroke-opacity: 1;"/><g class="slicetext"><text data-notex="1" class="slicetext" transform="translate(306.44060964357254,360.1280242965287)rotate(-87.67838592914245)translate(0,3.171875)" text-anchor="middle" x="0" y="0" style="font-family: 'Open Sans', verdana, arial, sans-serif; font-size: 8px; fill: rgb(68, 68, 68); fill-opacity: 1; white-space: pre;">Building E (80.00KW)</text></g></g><g class="slice"><path class="surface" d="M310.5,260l68.94765629435831,144.3822035138508a160,160 0 0 1 -49.53313523438784,14.435542257873209Z" style="pointer-events: all; stroke-width: 0; fill: rgb(182, 232, 128); fill-opacity: 1; stroke: rgb(68, 68, 68); stroke-opacity: 1;"/><g class="slicetext"><text data-notex="1" class="slicetext" transform="translate(338.49975510934416,356.0764501662179)rotate(73.75218566718502)translate(-0.0078125,3.171875)" text-anchor="middle" x="0" y="0" style="font-family: 'Open Sans', verdana, arial, sans-serif; font-size: 8px; fill: rgb(68, 68, 68); fill-opacity: 1; white-space: pre;">Building N (79.89KW)</text></g></g><g class="slice"><path class="surface" d="M310.5,260l106.60547673006138,119.31166049953517a160,160 0 0 1 -37.65782043570307,25.070543014315646Z" style="pointer-events: all; stroke-width: 0; fill: rgb(255, 151, 255); fill-opacity: 1; stroke: rgb(68, 68, 68); stroke-opacity: 1;"/><g class="slicetext"><text data-notex="1" class="slicetext" transform="translate(367.361259644264,345.40984151036884)rotate(56.34646776826446)translate(-0.0078125,3.171875)" text-anchor="middle" x="0" y="0" style="font-family: 'Open Sans', verdana, arial, sans-serif; font-size: 8px; fill: rgb(68, 68, 68); fill-opacity: 1; white-space: pre;">Building J (69.98KW)</text></g></g><g class="slice"><path class="surface" d="M310.5,260l130.99706539928124,91.86821461624488a160,160 0 0 1 -24.391588669219857,27.44344588329028Z" style="pointer-events: all; stroke-width: 0; fill: rgb(254, 203, 82); fill-opacity: 1; stroke: rgb(68, 68, 68); stroke-opacity: 1;"/><g class="slicetext"><text data-notex="1" class="slicetext" transform="translate(389.50909697354,330.2228649674965)rotate(41.630523850387476)translate(-0.0078125,3.171875)" text-anchor="middle" x="0" y="0" style="font-family: 'Open Sans', verdana, arial, sans-serif; font-size: 8px; fill: rgb(68, 68, 68); fill-opacity: 1; white-space: pre;">Building D (56.73KW)</text></g></g><g class="slice"><path class="surface" d="M310.5,260l147.24450221559547,62.60236870344045a160,160 0 0 1 -16.247436816314234,29.265845912804437Z" style="pointer-events: all; stroke-width: 0; fill: rgb(198, 202, 253); fill-opacity: 1; stroke: rgb(68, 68, 68); stroke-opacity: 1;"/><g class="slicetext"><text data-notex="1" class="slicetext" transform="translate(404.5003848395268,312.1859275122207)rotate(29.037596701658913)translate(0,3.171875)" text-anchor="middle" x="0" y="0" style="font-family: 'Open Sans', verdana, arial, sans-serif; font-size: 8px; fill: rgb(68, 68, 68); fill-opacity: 1; white-space: pre;">Building V (51.70KW)</text></g></g><g class="slice"><path class="surface" d="M310.5,260l155.0235588387811,39.59414356895445a160,160 0 0 1 -7.779056623185625,23.008225134485997Z" style="pointer-events: all; stroke-width: 0; fill: rgb(247, 167, 153); fill-opacity: 1; stroke: rgb(68, 68, 68); stroke-opacity: 1;"/><g class="slicetext"><text data-notex="1" class="slicetext" transform="translate(418.1359807076369,296.3916114225526)rotate(18.680340931820183)translate(-0.0078125,3.171875)" text-anchor="middle" x="0" y="0" style="font-family: 'Open Sans', verdana, arial, sans-serif; font-size: 8px; fill: rgb(68, 68, 68); fill-opacity: 1; white-space: pre;">Building Z (37.48KW)</text></g></g><g class="slice"><path class="surface" d="M310.5,260l157.24484897112973,29.56446299269785a160,160 0 0 1 -2.221290132348628,10.029680576256599Z" style="pointer-events: all; stroke-width: 0; fill: rgb(51, 255, 201); fill-opacity: 1; stroke: rgb(68, 68, 68); stroke-opacity: 1;"/><g class="slicetext"><text data-notex="1" class="slicetext" transform="translate(0,29.02464094795357)translate(513.105343423552,294.8228803150976)translate(-0.0078125,3.171875)" text-anchor="middle" x="0" y="0" style="font-family: 'Open Sans', verdana, arial, sans-serif; font-size: 8px; fill: rgb(42, 63, 95); fill-opacity: 1; white-space: pre;">Building G (15.84KW)</text></g><path class="textline" stroke-width="1" d="M466.714718423552,294.59713496592417V323.8475212630512h2.4140625" fill="none" style="stroke: rgb(42, 63, 95); stroke-opacity: 1;"/></g><g class="slice"><path class="surface" d="M310.5,260l157.6783181467752,27.157834714946276a160,160 0 0 1 -0.4334691756454845,2.406628277751576Z" style="pointer-events: all; stroke-width: 0; fill: rgb(224, 198, 253); fill-opacity: 1; stroke: rgb(68, 68, 68); stroke-opacity: 1;"/><g class="slicetext"><text data-notex="1" class="slicetext" transform="translate(0,25.67758521541674)translate(511.4505563273243,288.51368604763445)translate(-0.0078125,3.171875)" text-anchor="middle" x="0" y="0" style="font-family: 'Open Sans', verdana, arial, sans-serif; font-size: 8px; fill: rgb(42, 63, 95); fill-opacity: 1; white-space: pre;">Building S (3.77KW)</text></g><path class="textline" stroke-width="1" d="M467.9661813273243,288.36197697957977V314.1912712630512h2.4140625" fill="none" style="stroke: rgb(42, 63, 95); stroke-opacity: 1;"/></g><g class="slice"><path class="surface" d="M310.5,260l158.01837196158772,25.103667513120612a160,160 0 0 1 -0.3400538148125065,2.0541672018256634Z" style="pointer-events: all; stroke-width: 0; fill: rgb(255, 219, 192); fill-opacity: 1; stroke: rgb(68, 68, 68); stroke-opacity: 1;"/><g class="slicetext"><text data-notex="1" class="slicetext" transform="translate(0,18.274933346200214)translate(512.4688740195529,286.260087916851)translate(0,3.171875)" text-anchor="middle" x="0" y="0" style="font-family: 'Open Sans', verdana, arial, sans-serif; font-size: 8px; fill: rgb(42, 63, 95); fill-opacity: 1; white-space: pre;">Building M (3.21KW)</text></g><path class="textline" stroke-width="1" d="M468.3516865195529,286.1313042715591V304.5350212630512h2.4140625" fill="none" style="stroke: rgb(42, 63, 95); stroke-opacity: 1;"/></g><g class="slice"><path class="surface" d="M310.5,260l158.01837196158772,25.103667513120612a160,160 0 0 1 0,0Z" style="pointer-events: all; stroke-width: 0; fill: rgb(122, 230, 248); fill-opacity: 1; stroke: rgb(68, 68, 68); stroke-opacity: 1;"/><g class="slicetext"><text data-notex="1" class="slicetext" transform="translate(512.0574344615877,285.2225212630512)translate(0,3.171875)" text-anchor="middle" x="0" y="0" style="font-family: 'Open Sans', verdana, arial, sans-serif; font-size: 8px; fill: rgb(42, 63, 95); fill-opacity: 1; white-space: pre;">Building C (0.00KW)</text></g></g><g class="slice"><path class="surface" d="M310.5,260l158.01837196158772,25.103667513120612a160,160 0 0 1 0,0Z" style="pointer-events: all; stroke-width: 0; fill: rgb(255, 204, 219); fill-opacity: 1; stroke: rgb(68, 68, 68); stroke-opacity: 1;"/><g class="slicetext"><text data-notex="1" class="slicetext" transform="translate(0,9.65625)translate(512.0418094615877,285.2225212630512)translate(0,3.171875)" text-anchor="middle" x="0" y="0" style="font-family: 'Open Sans', verdana, arial, sans-serif; font-size: 8px; fill: rgb(42, 63, 95); fill-opacity: 1; white-space: pre;">Building K (0.00KW)</text></g><path class="textline" stroke-width="1" d="M468.5183719615877,285.1036675131206V294.8787712630512h2.4140625" fill="none" style="stroke: rgb(42, 63, 95); stroke-opacity: 1;"/></g></g></g><g class="treemaplayer"/><g class="sunburstlayer"/><g class="glimages"/><defs id="topdefs-a78ec5"><g class="clips"/></defs><g class="layer-above"><g class="imagelayer"/><g class="shapelayer"/></g><g class="infolayer"><g class="g-gtitle"/></g></svg>