<svg class="main-svg" xmlns="http://www.w3.org/2000/svg" xmlns:xlink="http://www.w3.org/1999/xlink" width="700" height="500" viewBox="0 0 700 500"><rect x="0" y="0" width="700" height="500" style="fill: rgb(255, 255, 255); fill-opacity: 1;"/><defs id="defs-fef252"><g class="clips"/><g class="gradients"/></defs><g class="bglayer"/><g class="layer-below"><g class="imagelayer"/><g class="shapelayer"/></g><g class="cartesianlayer"/><g class="polarlayer"/><g class="ternarylayer"/><g class="geolayer"/><g class="funnelarealayer"/><g class="pielayer"><g class="trace" stroke-linejoin="round" style="opacity: 1;"><g class="slice"><path class="surface" d="M308,260l0,-160a160,160 0 0 1 159.99959018616818,159.63786707104606Z" style="pointer-events: all; stroke-width: 0; fill: rgb(99, 110, 250); fill-opacity: 1; stroke: rgb(68, 68, 68); stroke-opacity: 1;"/><g class="slicetext"><text data-notex="1" class="slicetext" transform="translate(374.23019037365293,193.61973877400706)translate(0,3.171875)" text-anchor="middle" x="0" y="0" style="font-family: 'Open Sans', verdana, arial, sans-serif; font-size: 8px; fill: rgb(255, 255, 255); fill-opacity: 1; white-space: pre;">Building A (602.58KW)</text></g></g><g class="slice"><path class="surface" d="M308,260l-124.87960240017114,-100.02542129066576a160,160 0 0 1 124.87960240017114,-59.97457870933424Z" style="pointer-events: all; stroke-width: 0; fill: rgb(239, 85, 59); fill-opacity: 1; stroke: rgb(68, 68, 68); stroke-opacity: 1;"/><g class="slicetext"><text data-notex="1" class="slicetext" transform="translate(259.66003175023513,159.34608720931286)translate(-0.0078125,3.171875)" text-anchor="middle" x="0" y="0" style="font-family: 'Open Sans', verdana, arial, sans-serif; font-size: 8px; fill: rgb(68, 68, 68); fill-opacity: 1; white-space: pre;">Building T (361.02KW)</text></g></g><g class="slice"><path class="surface" d="M308,260l-159.82556748733822,7.469134980056204a160,160 0 0 1 34.94596508716708,-107.49455627072197Z" style="pointer-events: all; stroke-width: 0; fill: rgb(0, 204, 150); fill-opacity: 1; stroke: rgb(68, 68, 68); stroke-opacity: 1;"/><g class="slicetext"><text data-notex="1" class="slicetext" transform="translate(222.75383299473333,232.28687963994835)rotate(18.00909532325113)translate(-0.0078125,3.171875)" text-anchor="middle" x="0" y="0" style="font-family: 'Open Sans', verdana, arial, sans-serif; font-size: 8px; fill: rgb(68, 68, 68); fill-opacity: 1; white-space: pre;">Building B (291.10KW)</text></g></g><g class="slice"><path class="surface" d="M308,260l-131.9667864330017,90.46970365015311a160,160 0 0 1 -27.858781054336532,-83.0005686700969Z" style="pointer-events: all; stroke-width: 0; fill: rgb(171, 99, 250); fill-opacity: 1; stroke: rgb(68, 68, 68); stroke-opacity: 1;"/><g class="slicetext"><text data-notex="1" class="slicetext" transform="translate(220.52197308788192,289.3616205028251)rotate(-18.554104146188365)translate(-0.0078125,3.171875)" text-anchor="middle" x="0" y="0" style="font-family: 'Open Sans', verdana, arial, sans-serif; font-size: 8px; fill: rgb(68, 68, 68); fill-opacity: 1; white-space: pre;">Building H (223.46KW)</text></g></g><g class="slice"><path class="surface" d="M308,260l-77.56401450192999,139.94221541173482a160,160 0 0 1 -54.4027719310717,-49.472511761581714Z" style="pointer-events: all; stroke-width: 0; fill: rgb(255, 161, 90); fill-opacity: 1; stroke: rgb(68, 68, 68); stroke-opacity: 1;"/><g class="slicetext"><text data-notex="1" class="slicetext" transform="translate(245.84007672424914,328.35456718916083)rotate(-47.717405464299645)translate(0,3.171875)" text-anchor="middle" x="0" y="0" style="font-family: 'Open Sans', verdana, arial, sans-serif; font-size: 8px; fill: rgb(68, 68, 68); fill-opacity: 1; white-space: pre;">Residence 1&amp;2 (186.96KW)</text></g></g><g class="slice"><path class="surface" d="M308,260l-8.01913030285234,159.79891598251183a160,160 0 0 1 -69.54488419907764,-19.856700570777008Z" style="pointer-events: all; stroke-width: 0; fill: rgb(25, 211, 243); fill-opacity: 1; stroke: rgb(68, 68, 68); stroke-opacity: 1;"/><g class="slicetext"><text data-notex="1" class="slicetext" transform="translate(281.99636931037287,351.0735133775014)rotate(-74.06470943521367)translate(-0.0078125,3.171875)" text-anchor="middle" x="0" y="0" style="font-family: 'Open Sans', verdana, arial, sans-serif; font-size: 8px; fill: rgb(68, 68, 68); fill-opacity: 1; white-space: pre;">Building P (183.83KW)</text></g></g><g class="slice"><path class="surface" d="M308,260l62.13084677507681,147.44408390644884a160,160 0 0 1 -70.14997707792915,12.35483207606299Z" style="pointer-events: all; stroke-width: 0; fill: rgb(255, 102, 146); fill-opacity: 1; stroke: rgb(68, 68, 68); stroke-opacity: 1;"/><g class="slicetext"><text data-notex="1" class="slicetext" transform="translate(324.45655571257157,353.4393117535946)rotate(80.01148758275201)translate(0,3.171875)" text-anchor="middle" x="0" y="0" style="font-family: 'Open Sans', verdana, arial, sans-serif; font-size: 8px; fill: rgb(68, 68, 68); fill-opacity: 1; white-space: pre;">Building E (181.00KW)</text></g></g><g class="slice"><path class="surface" d="M308,260l104.64111638966477,121.038162414689a160,160 0 0 1 -42.51026961458796,26.40592149175984Z" style="pointer-events: all; stroke-width: 0; fill: rgb(182, 232, 128); fill-opacity: 1; stroke: rgb(68, 68, 68); stroke-opacity: 1;"/><g class="slicetext"><text data-notex="1" class="slicetext" transform="translate(360.5953413463913,344.67199835476634)rotate(58.15286775068387)translate(0,3.171875)" text-anchor="middle" x="0" y="0" style="font-family: 'Open Sans', verdana, arial, sans-serif; font-size: 8px; fill: rgb(68, 68, 68); fill-opacity: 1; white-space: pre;">Building D (126.62KW)</text></g></g><g class="slice"><path class="surface" d="M308,260l134.81485453104557,86.16817856826857a160,160 0 0 1 -30.173738141380795,34.869983846420425Z" style="pointer-events: all; stroke-width: 0; fill: rgb(255, 151, 255); fill-opacity: 1; stroke: rgb(68, 68, 68); stroke-opacity: 1;"/><g class="slicetext"><text data-notex="1" class="slicetext" transform="translate(384.65946943518736,326.3350682060032)rotate(40.87033242932762)translate(-0.0078125,3.171875)" text-anchor="middle" x="0" y="0" style="font-family: 'Open Sans', verdana, arial, sans-serif; font-size: 8px; fill: rgb(68, 68, 68); fill-opacity: 1; white-space: pre;">Building J (116.60KW)</text></g></g><g class="slice"><path class="surface" d="M308,260l153.56760007390795,44.91093639126517a160,160 0 0 1 -18.752745542862385,41.257242177003405Z" style="pointer-events: all; stroke-width: 0; fill: rgb(254, 203, 82); fill-opacity: 1; stroke: rgb(68, 68, 68); stroke-opacity: 1;"/><g class="slicetext"><text data-notex="1" class="slicetext" transform="translate(400.1806607495487,301.89907962323144)rotate(24.443325951278325)translate(-0.0078125,3.171875)" text-anchor="middle" x="0" y="0" style="font-family: 'Open Sans', verdana, arial, sans-serif; font-size: 8px; fill: rgb(68, 68, 68); fill-opacity: 1; white-space: pre;">Building N (114.58KW)</text></g></g><g class="slice"><path class="surface" d="M308,260l158.09000389450625,24.64854293127679a160,160 0 0 1 -4.522403820598299,20.262393459988377Z" style="pointer-events: all; stroke-width: 0; fill: rgb(198, 202, 253); fill-opacity: 1; stroke: rgb(68, 68, 68); stroke-opacity: 1;"/><g class="slicetext"><text data-notex="1" class="slicetext" transform="translate(0,22.493075331130626)translate(510.18904415391046,295.0822670070422)translate(-0.0078125,3.171875)" text-anchor="middle" x="0" y="0" style="font-family: 'Open Sans', verdana, arial, sans-serif; font-size: 8px; fill: rgb(42, 63, 95); fill-opacity: 1; white-space: pre;">Building Z (52.35KW)</text></g><path class="textline" stroke-width="1" d="M464.15779415391046,294.85316807673195V317.57534233817285h2.4140625" fill="none" style="stroke: rgb(42, 63, 95); stroke-opacity: 1;"/></g><g class="slice"><path class="surface" d="M308,260l159.5629065274241,11.818581155135234a160,160 0 0 1 -1.472902632917851,12.829961776141555Z" style="pointer-events: all; stroke-width: 0; fill: rgb(247, 167, 153); fill-opacity: 1; stroke: rgb(68, 68, 68); stroke-opacity: 1;"/><g class="slicetext"><text data-notex="1" class="slicetext" transform="translate(0,29.60785945165958)translate(512.979390061315,278.31123288651327)translate(0,3.171875)" text-anchor="middle" x="0" y="0" style="font-family: 'Open Sans', verdana, arial, sans-serif; font-size: 8px; fill: rgb(42, 63, 95); fill-opacity: 1; white-space: pre;">Building V (32.55KW)</text></g><path class="textline" stroke-width="1" d="M466.95595256131503,278.24842857138543V307.91909233817285h2.4140625" fill="none" style="stroke: rgb(42, 63, 95); stroke-opacity: 1;"/></g><g class="slice"><path class="surface" d="M308,260l159.92975048226162,4.740771106216039a160,160 0 0 1 -0.3668439548375204,7.077810048919195Z" style="pointer-events: all; stroke-width: 0; fill: rgb(51, 255, 201); fill-opacity: 1; stroke: rgb(68, 68, 68); stroke-opacity: 1;"/><g class="slicetext"><text data-notex="1" class="slicetext" transform="translate(0,29.9681994034039)translate(514.1761478722218,268.29464293476894)translate(-0.0078125,3.171875)" text-anchor="middle" x="0" y="0" style="font-family: 'Open Sans', verdana, arial, sans-serif; font-size: 8px; fill: rgb(42, 63, 95); fill-opacity: 1; white-space: pre;">Building G (17.86KW)</text></g><path class="textline" stroke-width="1" d="M467.7855228722218,268.2817075806068V298.26284233817285h2.4140625" fill="none" style="stroke: rgb(42, 63, 95); stroke-opacity: 1;"/></g><g class="slice"><path class="surface" d="M308,260l159.974077110243,2.880043875712355a160,160 0 0 1 -0.04432662798137699,1.860727230503684Z" style="pointer-events: all; stroke-width: 0; fill: rgb(224, 198, 253); fill-opacity: 1; stroke: rgb(68, 68, 68); stroke-opacity: 1;"/><g class="slicetext"><text data-notex="1" class="slicetext" transform="translate(0,24.79338199616552)translate(511.4780570129741,263.8132103420073)translate(0,3.171875)" text-anchor="middle" x="0" y="0" style="font-family: 'Open Sans', verdana, arial, sans-serif; font-size: 8px; fill: rgb(42, 63, 95); fill-opacity: 1; white-space: pre;">Building K (4.69KW)</text></g><path class="textline" stroke-width="1" d="M467.9546195129741,263.8104719471062V288.60659233817285h2.4140625" fill="none" style="stroke: rgb(42, 63, 95); stroke-opacity: 1;"/></g><g class="slice"><path class="surface" d="M308,260l159.99595306644568,1.137981704470594a160,160 0 0 1 -0.02187595620267757,1.7420621712417612Z" style="pointer-events: all; stroke-width: 0; fill: rgb(255, 219, 192); fill-opacity: 1; stroke: rgb(68, 68, 68); stroke-opacity: 1;"/><g class="slicetext"><text data-notex="1" class="slicetext" transform="translate(0,16.940538541027138)translate(511.47176121519476,262.0098037971457)translate(-0.0078125,3.171875)" text-anchor="middle" x="0" y="0" style="font-family: 'Open Sans', verdana, arial, sans-serif; font-size: 8px; fill: rgb(42, 63, 95); fill-opacity: 1; white-space: pre;">Building S (4.39KW)</text></g><path class="textline" stroke-width="1" d="M467.98738621519476,262.00904256553116V278.95034233817285h2.4140625" fill="none" style="stroke: rgb(42, 63, 95); stroke-opacity: 1;"/></g><g class="slice"><path class="surface" d="M308,260l159.99959018616818,-0.3621329289537862a160,160 0 0 1 -0.003637119722498028,1.5001146334243802Z" style="pointer-events: all; stroke-width: 0; fill: rgb(122, 230, 248); fill-opacity: 1; stroke: rgb(68, 68, 68); stroke-opacity: 1;"/><g class="slicetext"><text data-notex="1" class="slicetext" transform="translate(0,8.906135305851762)translate(512.1167172223159,260.3879570323211)translate(0,3.171875)" text-anchor="middle" x="0" y="0" style="font-family: 'Open Sans', verdana, arial, sans-serif; font-size: 8px; fill: rgb(42, 63, 95); fill-opacity: 1; white-space: pre;">Building M (3.78KW)</text></g><path class="textline" stroke-width="1" d="M467.9995297223158,260.38792865036976V269.29409233817285h2.4140625" fill="none" style="stroke: rgb(42, 63, 95); stroke-opacity: 1;"/></g><g class="slice"><path class="surface" d="M308,260l159.99959018616818,-0.3621329289537862a160,160 0 0 1 0,0Z" style="pointer-events: all; stroke-width: 0; fill: rgb(255, 204, 219); fill-opacity: 1; stroke: rgb(68, 68, 68); stroke-opacity: 1;"/><g class="slicetext"><text data-notex="1" class="slicetext" transform="translate(511.5386526861682,259.63784233817285)translate(0,3.171875)" text-anchor="middle" x="0" y="0" style="font-family: 'Open Sans', verdana, arial, sans-serif; font-size: 8px; fill: rgb(42, 63, 95); fill-opacity: 1; white-space: pre;">Building C (0.00KW)</text></g></g></g></g><g class="treemaplayer"/><g class="sunburstlayer"/><g class="glimages"/><defs id="topdefs-fef252"><g class="clips"/></defs><g class="layer-above"><g class="imagelayer"/><g class="shapelayer"/></g><g class="infolayer"><g class="g-gtitle"/></g></svg>