<svg class="main-svg" xmlns="http://www.w3.org/2000/svg" xmlns:xlink="http://www.w3.org/1999/xlink" width="700" height="500" viewBox="0 0 700 500"><rect x="0" y="0" width="700" height="500" style="fill: rgb(255, 255, 255); fill-opacity: 1;"/><defs id="defs-dcad15"><g class="clips"/><g class="gradients"/></defs><g class="bglayer"/><g class="layer-below"><g class="imagelayer"/><g class="shapelayer"/></g><g class="cartesianlayer"/><g class="polarlayer"/><g class="ternarylayer"/><g class="geolayer"/><g class="funnelarealayer"/><g class="pielayer"><g class="trace" stroke-linejoin="round" style="opacity: 1;"><g class="slice"><path class="surface" d="M290.5,260l0,-160a160,160 0 0 1 141.27584991648735,84.8925154836474Z" style="pointer-events: all; stroke-width: 0; fill: rgb(99, 110, 250); fill-opacity: 1; stroke: rgb(68, 68, 68); stroke-opacity: 1;"/><g class="slicetext"><text data-notex="1" class="slicetext" transform="translate(344.8937774997192,169.47933274610784)translate(0,3.171875)" text-anchor="middle" x="0" y="0" style="font-family: 'Open Sans', verdana, arial, sans-serif; font-size: 8px; fill: rgb(255, 255, 255); fill-opacity: 1; white-space: pre;">Building A (471.29KW)</text></g></g><g class="slice"><path class="surface" d="M290.5,260l-98.1203038354002,-126.381984377714a160,160 0 0 1 98.1203038354002,-33.618015622285995Z" style="pointer-events: all; stroke-width: 0; fill: rgb(239, 85, 59); fill-opacity: 1; stroke: rgb(68, 68, 68); stroke-opacity: 1;"/><g class="slicetext"><text data-notex="1" class="slicetext" transform="translate(261.1487798717225,174.33311622899208)rotate(71.08749515783632)translate(-0.0078125,3.171875)" text-anchor="middle" x="0" y="0" style="font-family: 'Open Sans', verdana, arial, sans-serif; font-size: 8px; fill: rgb(68, 68, 68); fill-opacity: 1; white-space: pre;">Building T (287.51KW)</text></g></g><g class="slice"><path class="surface" d="M290.5,260l-150.1660273085677,-55.22829204640048a160,160 0 0 1 52.0457234731675,-71.15369233131352Z" style="pointer-events: all; stroke-width: 0; fill: rgb(0, 204, 150); fill-opacity: 1; stroke: rgb(68, 68, 68); stroke-opacity: 1;"/><g class="slicetext"><text data-notex="1" class="slicetext" transform="translate(216.0383762972583,205.53467361116208)rotate(36.18379026304831)translate(-0.0078125,3.171875)" text-anchor="middle" x="0" y="0" style="font-family: 'Open Sans', verdana, arial, sans-serif; font-size: 8px; fill: rgb(68, 68, 68); fill-opacity: 1; white-space: pre;">Building B (243.10KW)</text></g></g><g class="slice"><path class="surface" d="M290.5,260l-158.4050040744635,22.53563143488998a160,160 0 0 1 8.238976765895814,-77.76392348129046Z" style="pointer-events: all; stroke-width: 0; fill: rgb(171, 99, 250); fill-opacity: 1; stroke: rgb(68, 68, 68); stroke-opacity: 1;"/><g class="slicetext"><text data-notex="1" class="slicetext" transform="translate(197.42545990424387,250.1388852437484)rotate(6.047844232160742)translate(-0.0078125,3.171875)" text-anchor="middle" x="0" y="0" style="font-family: 'Open Sans', verdana, arial, sans-serif; font-size: 8px; fill: rgb(68, 68, 68); fill-opacity: 1; white-space: pre;">Building H (215.03KW)</text></g></g><g class="slice"><path class="surface" d="M290.5,260l-133.03322441457595,88.8941010521006a160,160 0 0 1 -25.37177965988755,-66.35846961721062Z" style="pointer-events: all; stroke-width: 0; fill: rgb(255, 161, 90); fill-opacity: 1; stroke: rgb(68, 68, 68); stroke-opacity: 1;"/><g class="slicetext"><text data-notex="1" class="slicetext" transform="translate(201.8479579437934,293.8955990158307)rotate(-20.92406756371554)translate(0,3.171875)" text-anchor="middle" x="0" y="0" style="font-family: 'Open Sans', verdana, arial, sans-serif; font-size: 8px; fill: rgb(68, 68, 68); fill-opacity: 1; white-space: pre;">Building E (195.00KW)</text></g></g><g class="slice"><path class="surface" d="M290.5,260l-91.89950319432455,130.97511715068757a160,160 0 0 1 -41.1337212202514,-42.08101609858697Z" style="pointer-events: all; stroke-width: 0; fill: rgb(25, 211, 243); fill-opacity: 1; stroke: rgb(68, 68, 68); stroke-opacity: 1;"/><g class="slicetext"><text data-notex="1" class="slicetext" transform="translate(221.60639296476015,327.342728108228)rotate(-44.34778795342754)translate(0,3.171875)" text-anchor="middle" x="0" y="0" style="font-family: 'Open Sans', verdana, arial, sans-serif; font-size: 8px; fill: rgb(68, 68, 68); fill-opacity: 1; white-space: pre;">Residence 3 (161.09KW)</text></g></g><g class="slice"><path class="surface" d="M290.5,260l-39.275897216061175,155.10449348059973a160,160 0 0 1 -52.62360597826338,-24.129376329912162Z" style="pointer-events: all; stroke-width: 0; fill: rgb(255, 102, 146); fill-opacity: 1; stroke: rgb(68, 68, 68); stroke-opacity: 1;"/><g class="slicetext"><text data-notex="1" class="slicetext" transform="translate(249.8145324177166,348.73068187996904)rotate(-65.36723700655602)translate(-0.0078125,3.171875)" text-anchor="middle" x="0" y="0" style="font-family: 'Open Sans', verdana, arial, sans-serif; font-size: 8px; fill: rgb(68, 68, 68); fill-opacity: 1; white-space: pre;">Building C (158.45KW)</text></g></g><g class="slice"><path class="surface" d="M290.5,260l15.746381519584919,159.22327552540702a160,160 0 0 1 -55.0222787356461,-4.11878204480729Z" style="pointer-events: all; stroke-width: 0; fill: rgb(182, 232, 128); fill-opacity: 1; stroke: rgb(68, 68, 68); stroke-opacity: 1;"/><g class="slicetext"><text data-notex="1" class="slicetext" transform="translate(283.3431536475859,355.6073884431883)rotate(-85.71901563379356)translate(0,3.171875)" text-anchor="middle" x="0" y="0" style="font-family: 'Open Sans', verdana, arial, sans-serif; font-size: 8px; fill: rgb(68, 68, 68); fill-opacity: 1; white-space: pre;">Residence 1&amp;2 (150.94KW)</text></g></g><g class="slice"><path class="surface" d="M290.5,260l66.37904586318383,145.58098182899212a160,160 0 0 1 -50.63266434359892,13.642293696414896Z" style="pointer-events: all; stroke-width: 0; fill: rgb(255, 151, 255); fill-opacity: 1; stroke: rgb(68, 68, 68); stroke-opacity: 1;"/><g class="slicetext"><text data-notex="1" class="slicetext" transform="translate(315.8320416429478,354.01855657033053)rotate(74.92051542548916)translate(-0.0078125,3.171875)" text-anchor="middle" x="0" y="0" style="font-family: 'Open Sans', verdana, arial, sans-serif; font-size: 8px; fill: rgb(68, 68, 68); fill-opacity: 1; white-space: pre;">Plant Chillers (143.38KW)</text></g></g><g class="slice"><path class="surface" d="M290.5,260l105.08494124981115,120.65303610984571a160,160 0 0 1 -38.70589538662732,24.927945719146408Z" style="pointer-events: all; stroke-width: 0; fill: rgb(254, 203, 82); fill-opacity: 1; stroke: rgb(68, 68, 68); stroke-opacity: 1;"/><g class="slicetext"><text data-notex="1" class="slicetext" transform="translate(345.29490139210384,345.0806458301272)rotate(57.217053187057445)translate(-0.0078125,3.171875)" text-anchor="middle" x="0" y="0" style="font-family: 'Open Sans', verdana, arial, sans-serif; font-size: 8px; fill: rgb(68, 68, 68); fill-opacity: 1; white-space: pre;">Building P (125.75KW)</text></g></g><g class="slice"><path class="surface" d="M290.5,260l132.40741424617408,89.82358628245731a160,160 0 0 1 -27.322472996362933,30.8294498273884Z" style="pointer-events: all; stroke-width: 0; fill: rgb(198, 202, 253); fill-opacity: 1; stroke: rgb(68, 68, 68); stroke-opacity: 1;"/><g class="slicetext"><text data-notex="1" class="slicetext" transform="translate(367.42221260462003,328.17199426125006)rotate(41.5488345916869)translate(0,3.171875)" text-anchor="middle" x="0" y="0" style="font-family: 'Open Sans', verdana, arial, sans-serif; font-size: 8px; fill: rgb(68, 68, 68); fill-opacity: 1; white-space: pre;">Building D (112.44KW)</text></g></g><g class="slice"><path class="surface" d="M290.5,260l149.63424288774095,56.65327312179366a160,160 0 0 1 -17.22682864156687,33.17031316066365Z" style="pointer-events: all; stroke-width: 0; fill: rgb(247, 167, 153); fill-opacity: 1; stroke: rgb(68, 68, 68); stroke-opacity: 1;"/><g class="slicetext"><text data-notex="1" class="slicetext" transform="translate(383.59169190617234,308.3466832722866)rotate(27.444872422689855)translate(-0.0078125,3.171875)" text-anchor="middle" x="0" y="0" style="font-family: 'Open Sans', verdana, arial, sans-serif; font-size: 8px; fill: rgb(68, 68, 68); fill-opacity: 1; white-space: pre;">Building J (101.97KW)</text></g></g><g class="slice"><path class="surface" d="M290.5,260l158.1548062684777,24.229264416822275a160,160 0 0 1 -8.520563380736746,32.424008704971385Z" style="pointer-events: all; stroke-width: 0; fill: rgb(51, 255, 201); fill-opacity: 1; stroke: rgb(68, 68, 68); stroke-opacity: 1;"/><g class="slicetext"><text data-notex="1" class="slicetext" transform="translate(394.3549032799741,287.2915756299321)rotate(14.723612948494008)translate(-0.0078125,3.171875)" text-anchor="middle" x="0" y="0" style="font-family: 'Open Sans', verdana, arial, sans-serif; font-size: 8px; fill: rgb(68, 68, 68); fill-opacity: 1; white-space: pre;">Building N (91.42KW)</text></g></g><g class="slice"><path class="surface" d="M290.5,260l159.89808637456315,-5.709813810690281a160,160 0 0 1 -1.7432801060854501,29.939078227512557Z" style="pointer-events: all; stroke-width: 0; fill: rgb(224, 198, 253); fill-opacity: 1; stroke: rgb(68, 68, 68); stroke-opacity: 1;"/><g class="slicetext"><text data-notex="1" class="slicetext" transform="translate(399.60295497571366,266.3528011610429)rotate(3.332431899078358)translate(0,3.171875)" text-anchor="middle" x="0" y="0" style="font-family: 'Open Sans', verdana, arial, sans-serif; font-size: 8px; fill: rgb(68, 68, 68); fill-opacity: 1; white-space: pre;">Building M (81.75KW)</text></g></g><g class="slice"><path class="surface" d="M290.5,260l157.8900705419596,-25.898371073390337a160,160 0 0 1 2.0080158326035473,20.188557262700055Z" style="pointer-events: all; stroke-width: 0; fill: rgb(255, 219, 192); fill-opacity: 1; stroke: rgb(68, 68, 68); stroke-opacity: 1;"/><g class="slicetext"><text data-notex="1" class="slicetext" transform="translate(522.5737670322137,244.1167519182637)translate(-0.0078125,3.171875)" text-anchor="middle" x="0" y="0" style="font-family: 'Open Sans', verdana, arial, sans-serif; font-size: 8px; fill: rgb(42, 63, 95); fill-opacity: 1; white-space: pre;">Building A Fitness Zone (55.26KW)</text></g></g><g class="slice"><path class="surface" d="M290.5,260l154.16037069105533,-42.83199865049971a160,160 0 0 1 3.729699850904268,16.933627577109377Z" style="pointer-events: all; stroke-width: 0; fill: rgb(122, 230, 248); fill-opacity: 1; stroke: rgb(68, 68, 68); stroke-opacity: 1;"/><g class="slicetext"><text data-notex="1" class="slicetext" transform="translate(492.7782179201839,225.36086922152654)translate(0,3.171875)" text-anchor="middle" x="0" y="0" style="font-family: 'Open Sans', verdana, arial, sans-serif; font-size: 8px; fill: rgb(42, 63, 95); fill-opacity: 1; white-space: pre;">Building S (47.22KW)</text></g></g><g class="slice"><path class="surface" d="M290.5,260l149.23249132875665,-57.70323675334488a160,160 0 0 1 4.9278793622986825,14.871238102845169Z" style="pointer-events: all; stroke-width: 0; fill: rgb(255, 204, 219); fill-opacity: 1; stroke: rgb(68, 68, 68); stroke-opacity: 1;"/><g class="slicetext"><text data-notex="1" class="slicetext" transform="translate(488.4098054705504,209.19432944528558)translate(-0.0078125,3.171875)" text-anchor="middle" x="0" y="0" style="font-family: 'Open Sans', verdana, arial, sans-serif; font-size: 8px; fill: rgb(42, 63, 95); fill-opacity: 1; white-space: pre;">Building Z (42.66KW)</text></g></g><g class="slice"><path class="surface" d="M290.5,260l146.1164725047726,-65.19184352940198a160,160 0 0 1 3.1160188239840636,7.488606776057097Z" style="pointer-events: all; stroke-width: 0; fill: rgb(232, 248, 214); fill-opacity: 1; stroke: rgb(68, 68, 68); stroke-opacity: 1;"/><g class="slicetext"><text data-notex="1" class="slicetext" transform="translate(484.24538041047776,197.82014272209022)translate(0,3.171875)" text-anchor="middle" x="0" y="0" style="font-family: 'Open Sans', verdana, arial, sans-serif; font-size: 8px; fill: rgb(42, 63, 95); fill-opacity: 1; white-space: pre;">Building V (22.08KW)</text></g></g><g class="slice"><path class="surface" d="M290.5,260l143.63630242180594,-70.48838646608039a160,160 0 0 1 2.4801700829666515,5.2965429366784065Z" style="pointer-events: all; stroke-width: 0; fill: rgb(255, 253, 255); fill-opacity: 1; stroke: rgb(68, 68, 68); stroke-opacity: 1;"/><g class="slicetext"><text data-notex="1" class="slicetext" transform="translate(0,-3.1163851726595624)translate(481.79121501323334,191.2802778947498)translate(-0.0078125,3.171875)" text-anchor="middle" x="0" y="0" style="font-family: 'Open Sans', verdana, arial, sans-serif; font-size: 8px; fill: rgb(42, 63, 95); fill-opacity: 1; white-space: pre;">Building G (15.92KW)</text></g><path class="textline" stroke-width="1" d="M435.40059001323334,192.14855186647185V188.16389272209022h2.4140625" fill="none" style="stroke: rgb(42, 63, 95); stroke-opacity: 1;"/></g><g class="slice"><path class="surface" d="M290.5,260l141.27584991648723,-75.10748451635276a160,160 0 0 1 2.3604525053187047,4.61909805027237Z" style="pointer-events: all; stroke-width: 0; fill: rgb(255, 233, 183); fill-opacity: 1; stroke: rgb(68, 68, 68); stroke-opacity: 1;"/><g class="slicetext"><text data-notex="1" class="slicetext" transform="translate(0,-7.6851066964625545)translate(479.0372965578797,186.19274941855278)translate(-0.0078125,3.171875)" text-anchor="middle" x="0" y="0" style="font-family: 'Open Sans', verdana, arial, sans-serif; font-size: 8px; fill: rgb(42, 63, 95); fill-opacity: 1; white-space: pre;">Building K (14.12KW)</text></g><path class="textline" stroke-width="1" d="M432.9747965578797,187.1924980116005V178.50764272209022h2.4140625" fill="none" style="stroke: rgb(42, 63, 95); stroke-opacity: 1;"/></g></g></g><g class="treemaplayer"/><g class="sunburstlayer"/><g class="glimages"/><defs id="topdefs-dcad15"><g class="clips"/></defs><g class="layer-above"><g class="imagelayer"/><g class="shapelayer"/></g><g class="infolayer"><g class="g-gtitle"><text class="gtitle" x="350" y="50" text-anchor="middle" dy="0em" style="font-family: 'Open Sans', verdana, arial, sans-serif; font-size: 17px; fill: rgb(42, 63, 95); opacity: 1; font-weight: normal; white-space: pre;">Algonquin College Power Usage at 8:00h Jan, 08 2020 (In KW)</text></g></g></svg>