<svg class="main-svg" xmlns="http://www.w3.org/2000/svg" xmlns:xlink="http://www.w3.org/1999/xlink" width="700" height="500" viewBox="0 0 700 500"><rect x="0" y="0" width="700" height="500" style="fill: rgb(255, 255, 255); fill-opacity: 1;"/><defs id="defs-340524"><g class="clips"/><g class="gradients"/></defs><g class="bglayer"/><g class="layer-below"><g class="imagelayer"/><g class="shapelayer"/></g><g class="cartesianlayer"/><g class="polarlayer"/><g class="ternarylayer"/><g class="geolayer"/><g class="funnelarealayer"/><g class="pielayer"/><g class="treemaplayer"/><g class="sunburstlayer"/><g class="glimages"/><g class="sankey" transform="translate(80,100)matrix(1 0 0 1 0 0)" style="box-sizing: content-box; position: absolute; left: 0px; shape-rendering: geometricPrecision; pointer-events: auto;"><g class="sankey-links" style="fill: none;"><path class="sankey-link" d="M20,171.84765867449798C140,171.84765867449798 140,155.77631985507935 260,155.77631985507935L260,169.32332425609184C140,169.32332425609184 140,185.39466307551046 20,185.39466307551046Z" style="stroke: rgb(68, 68, 68); stroke-opacity: 1; fill: rgb(0, 0, 0); fill-opacity: 0.2; stroke-width: 0; opacity: 1;"/><path class="sankey-link" d="M20,73.69297692589574C140,73.69297692589574 140,68.84970828191581 260,68.84970828191581L260,155.77631985507935C140,155.77631985507935 140,160.61958849905926 20,160.61958849905926Z" style="stroke: rgb(68, 68, 68); stroke-opacity: 1; fill: rgb(0, 0, 0); fill-opacity: 0.2; stroke-width: 0; opacity: 1;"/><path class="sankey-link" d="M280,68.84970828191581C400,68.84970828191581 400,-1.7053025658242404e-13 520,-1.7053025658242404e-13L520,21.07782177810296C400,21.07782177810296 400,89.92753006001894 280,89.92753006001894Z" style="stroke: rgb(68, 68, 68); stroke-opacity: 1; fill: rgb(0, 0, 0); fill-opacity: 0.2; stroke-width: 0; opacity: 1;"/><path class="sankey-link" d="M280,172.41702730975368C400,172.41702730975368 400,283.21644183485523 520,283.21644183485523L520,284.30161333322803C400,284.30161333322803 400,173.50219880812642 280,173.50219880812642Z" style="stroke: rgb(68, 68, 68); stroke-opacity: 1; fill: rgb(0, 0, 0); fill-opacity: 0.2; stroke-width: 0; opacity: 1;"/><path class="sankey-link" d="M280,107.33731224370904C400,107.33731224370904 400,72.17181448810885 520,72.17181448810885L520,79.16780742061783C400,79.16780742061783 400,114.33330517621802 280,114.33330517621802Z" style="stroke: rgb(68, 68, 68); stroke-opacity: 1; fill: rgb(0, 0, 0); fill-opacity: 0.2; stroke-width: 0; opacity: 1;"/><path class="sankey-link" d="M280,89.92753006001894C400,89.92753006001894 400,32.30589195354156 520,32.30589195354156L520,41.22292537124969C400,41.22292537124969 400,98.84456347772706 280,98.84456347772706Z" style="stroke: rgb(68, 68, 68); stroke-opacity: 1; fill: rgb(0, 0, 0); fill-opacity: 0.2; stroke-width: 0; opacity: 1;"/><path class="sankey-link" d="M280,162.32309788470758C400,162.32309788470758 400,228.21023170805483 520,228.21023170805483L520,230.9365663437586C400,230.9365663437586 400,165.04943252041136 280,165.04943252041136Z" style="stroke: rgb(68, 68, 68); stroke-opacity: 1; fill: rgb(0, 0, 0); fill-opacity: 0.2; stroke-width: 0; opacity: 1;"/><path class="sankey-link" d="M280,114.33330517621803C400,114.33330517621803 400,90.39587759605644 520,90.39587759605644L520,97.35753263546565C400,97.35753263546565 400,121.29496021562724 280,121.29496021562724Z" style="stroke: rgb(68, 68, 68); stroke-opacity: 1; fill: rgb(0, 0, 0); fill-opacity: 0.2; stroke-width: 0; opacity: 1;"/><path class="sankey-link" d="M280,173.50219880812645C400,173.50219880812645 400,295.5296835086666 520,295.5296835086666L520,296.460569679139C400,296.460569679139 400,174.43308497859883 280,174.43308497859883Z" style="stroke: rgb(0, 0, 0); stroke-opacity: 0.2; fill: rgb(0, 0, 0); fill-opacity: 0.2; stroke-width: 1; opacity: 1;"/><path class="sankey-link" d="M280,135.83729313443635C400,135.83729313443635 400,145.58407608059062 520,145.58407608059062L520,151.46855611728043C400,151.46855611728043 400,141.72177317112616 280,141.72177317112616Z" style="stroke: rgb(68, 68, 68); stroke-opacity: 1; fill: rgb(0, 0, 0); fill-opacity: 0.2; stroke-width: 0; opacity: 1;"/><path class="sankey-link" d="M280,165.04943252041136C400,165.04943252041136 400,242.1646365191972 520,242.1646365191972L520,245.40321725881427C400,245.40321725881427 400,168.28801326002844 280,168.28801326002844Z" style="stroke: rgb(68, 68, 68); stroke-opacity: 1; fill: rgb(0, 0, 0); fill-opacity: 0.2; stroke-width: 0; opacity: 1;"/><path class="sankey-link" d="M280,175.43452846365975C400,175.43452846365975 400,319.91815351507717 520,319.91815351507717L520,320C400,320 400,175.51637494858252 280,175.51637494858252Z" style="stroke: rgb(0, 0, 0); stroke-opacity: 0.2; fill: rgb(0, 0, 0); fill-opacity: 0.2; stroke-width: 1; opacity: 1;"/><path class="sankey-link" d="M280,148.4632893890189C400,148.4632893890189 400,180.66621268605041 520,180.66621268605041L520,185.26560883303307C400,185.26560883303307 400,153.06268553600157 280,153.06268553600157Z" style="stroke: rgb(68, 68, 68); stroke-opacity: 1; fill: rgb(0, 0, 0); fill-opacity: 0.2; stroke-width: 0; opacity: 1;"/><path class="sankey-link" d="M280,157.8751647730418C400,157.8751647730418 400,212.53422842095046 520,212.53422842095046L520,216.9821615326162C400,216.9821615326162 400,162.32309788470755 280,162.32309788470755Z" style="stroke: rgb(68, 68, 68); stroke-opacity: 1; fill: rgb(0, 0, 0); fill-opacity: 0.2; stroke-width: 0; opacity: 1;"/><path class="sankey-link" d="M280,153.06268553600157C400,153.06268553600157 400,196.49367900847164 520,196.49367900847164L520,201.30615824551188C400,201.30615824551188 400,157.8751647730418 280,157.8751647730418Z" style="stroke: rgb(68, 68, 68); stroke-opacity: 1; fill: rgb(0, 0, 0); fill-opacity: 0.2; stroke-width: 0; opacity: 1;"/><path class="sankey-link" d="M280,168.2880132600284C400,168.2880132600284 400,256.63128743425284 520,256.63128743425284L520,258.5702024391478C400,258.5702024391478 400,170.22692826492332 280,170.22692826492332Z" style="stroke: rgb(68, 68, 68); stroke-opacity: 1; fill: rgb(0, 0, 0); fill-opacity: 0.2; stroke-width: 0; opacity: 1;"/><path class="sankey-link" d="M280,98.84456347772706C400,98.84456347772706 400,52.45099554668829 520,52.45099554668829L520,60.94374431267026C400,60.94374431267026 400,107.33731224370902 280,107.33731224370902Z" style="stroke: rgb(68, 68, 68); stroke-opacity: 1; fill: rgb(0, 0, 0); fill-opacity: 0.2; stroke-width: 0; opacity: 1;"/><path class="sankey-link" d="M280,174.4330849785988C400,174.4330849785988 400,307.68863985457756 520,307.68863985457756L520,308.6900833396385C400,308.6900833396385 400,175.43452846365977 280,175.43452846365977Z" style="stroke: rgb(68, 68, 68); stroke-opacity: 1; fill: rgb(0, 0, 0); fill-opacity: 0.2; stroke-width: 0; opacity: 1;"/><path class="sankey-link" d="M280,170.22692826492332C400,170.22692826492332 400,269.7982726145863 520,269.7982726145863L520,271.9883716594167C400,271.9883716594167 400,172.41702730975365 280,172.41702730975365Z" style="stroke: rgb(68, 68, 68); stroke-opacity: 1; fill: rgb(0, 0, 0); fill-opacity: 0.2; stroke-width: 0; opacity: 1;"/><path class="sankey-link" d="M280,121.29496021562724C400,121.29496021562724 400,108.58560281090425 520,108.58560281090425L520,116.08208229489509C400,116.08208229489509 400,128.79143969961808 280,128.79143969961808Z" style="stroke: rgb(68, 68, 68); stroke-opacity: 1; fill: rgb(0, 0, 0); fill-opacity: 0.2; stroke-width: 0; opacity: 1;"/><path class="sankey-link" d="M280,128.79143969961808C400,128.79143969961808 400,127.31015247033373 520,127.31015247033373L520,134.35600590515202C400,134.35600590515202 400,135.83729313443638 280,135.83729313443638Z" style="stroke: rgb(68, 68, 68); stroke-opacity: 1; fill: rgb(0, 0, 0); fill-opacity: 0.2; stroke-width: 0; opacity: 1;"/><path class="sankey-link" d="M280,141.72177317112616C400,141.72177317112616 400,162.696626292719 520,162.696626292719L520,169.43814251061175C400,169.43814251061175 400,148.4632893890189 280,148.4632893890189Z" style="stroke: rgb(68, 68, 68); stroke-opacity: 1; fill: rgb(0, 0, 0); fill-opacity: 0.2; stroke-width: 0; opacity: 1;"/></g><g class="sankey-node-set" style="cursor: move;"><g class="sankey-node" transform="translate(0.000, 171.848)" style="opacity: 1;"><rect class="node-rect" width="20" height="13.547004401012543" style="stroke-width: 0.5; stroke: rgb(0, 0, 0); stroke-opacity: 1; fill: rgb(0, 128, 0); fill-opacity: 1;"/><rect class="node-capture" x="-10" y="-7.5" width="40" height="28.547004401012543" style="fill-opacity: 0;"/><g class="node-entered" transform="translate(0 7.773502200506272)"><path class="node-label-guide" id="a0ac80_0_node_0" d="M24,0L540,0" transform="matrix(1 0 0 1 0 0)"/><text class="node-label" transform="scale(1 1)" style="user-select: none; cursor: default; fill: rgb(42, 63, 95); text-shadow: rgb(255, 255, 255) -1px 1px 1px, rgb(255, 255, 255) 1px 1px 1px, rgb(255, 255, 255) 1px -1px 1px, rgb(255, 255, 255) -1px -1px 1px; font-family: 'Open Sans', verdana, arial, sans-serif; font-size: 8px; fill-opacity: 1;"><textPath class="node-label-text-path" alignment-baseline="middle" xlink:href="#a0ac80_0_node_0" startOffset="0%" text-anchor="start" style="fill: rgb(0, 0, 0);">Hydro Power (288.00KW )</textPath></text></g></g><g class="sankey-node" transform="translate(0.000, 73.693)" style="opacity: 1;"><rect class="node-rect" width="20" height="86.92661157316364" style="stroke-width: 0.5; stroke: rgb(0, 0, 0); stroke-opacity: 1; fill: rgb(0, 128, 0); fill-opacity: 1;"/><rect class="node-capture" x="-10" y="-7.5" width="40" height="101.92661157316364" style="fill-opacity: 0;"/><g class="node-entered" transform="translate(0 44.46330578658182)"><path class="node-label-guide" id="a0ac80_0_node_2" d="M24,0L540,0" transform="matrix(1 0 0 1 0 0)"/><text class="node-label" transform="scale(1 1)" style="user-select: none; cursor: default; fill: rgb(42, 63, 95); text-shadow: rgb(255, 255, 255) -1px 1px 1px, rgb(255, 255, 255) 1px 1px 1px, rgb(255, 255, 255) 1px -1px 1px, rgb(255, 255, 255) -1px -1px 1px; font-family: 'Open Sans', verdana, arial, sans-serif; font-size: 8px; fill-opacity: 1;"><textPath class="node-label-text-path" alignment-baseline="middle" xlink:href="#a0ac80_0_node_2" startOffset="0%" text-anchor="start" style="fill: rgb(0, 0, 0);">COGEN 2 (1848.00KW)</textPath></text></g></g><g class="sankey-node" transform="translate(260.000, 68.850)" style="opacity: 1;"><rect class="node-rect" width="20" height="106.66666666666671" style="stroke-width: 0.5; stroke: rgb(0, 0, 0); stroke-opacity: 1; fill: rgb(255, 255, 0); fill-opacity: 1;"/><rect class="node-capture" x="-10" y="-7.5" width="40" height="121.66666666666671" style="fill-opacity: 0;"/><g class="node-entered" transform="translate(0 54.33333333333336)"><path class="node-label-guide" id="a0ac80_0_node_5" d="M24,0L540,0" transform="matrix(1 0 0 1 0 0)"/><text class="node-label" transform="scale(1 1)" style="user-select: none; cursor: default; fill: rgb(42, 63, 95); text-shadow: rgb(255, 255, 255) -1px 1px 1px, rgb(255, 255, 255) 1px 1px 1px, rgb(255, 255, 255) 1px -1px 1px, rgb(255, 255, 255) -1px -1px 1px; font-family: 'Open Sans', verdana, arial, sans-serif; font-size: 8px; fill-opacity: 1;"><textPath class="node-label-text-path" alignment-baseline="middle" xlink:href="#a0ac80_0_node_5" startOffset="0%" text-anchor="start" style="fill: rgb(0, 0, 0);">Total Power (2136.00KW)</textPath></text></g></g><g class="sankey-node" transform="translate(520.000, -0.000)" style="opacity: 1;"><rect class="node-rect" width="20" height="21.07782177810313" style="stroke-width: 0.5; stroke: rgb(0, 0, 0); stroke-opacity: 1; fill: rgb(255, 0, 0); fill-opacity: 1;"/><rect class="node-capture" x="-10" y="-7.5" width="40" height="36.07782177810313" style="fill-opacity: 0;"/><g class="node-entered" transform="translate(0 11.538910889051564)"><path class="node-label-guide" id="a0ac80_0_node_6" d="M-540,0L-4,0" transform="matrix(1 0 0 1 0 0)"/><text class="node-label" transform="scale(1 1)" style="user-select: none; cursor: default; fill: rgb(42, 63, 95); text-shadow: rgb(255, 255, 255) -1px 1px 1px, rgb(255, 255, 255) 1px 1px 1px, rgb(255, 255, 255) 1px -1px 1px, rgb(255, 255, 255) -1px -1px 1px; font-family: 'Open Sans', verdana, arial, sans-serif; font-size: 8px; fill-opacity: 1;"><textPath class="node-label-text-path" alignment-baseline="middle" xlink:href="#a0ac80_0_node_6" startOffset="100%" text-anchor="end" style="fill: rgb(0, 0, 0);">Building A (448.10KW)</textPath></text></g></g><g class="sankey-node" transform="translate(520.000, 283.216)" style="opacity: 1;"><rect class="node-rect" width="20" height="1.0851714983728016" style="stroke-width: 0.5; stroke: rgb(0, 0, 0); stroke-opacity: 1; fill: rgb(255, 0, 0); fill-opacity: 1;"/><rect class="node-capture" x="-10" y="-7.5" width="40" height="16.0851714983728" style="fill-opacity: 0;"/><g class="node-entered" transform="translate(0 1.5425857491864008)"><path class="node-label-guide" id="a0ac80_0_node_7" d="M-540,0L-4,0" transform="matrix(1 0 0 1 0 0)"/><text class="node-label" transform="scale(1 1)" style="user-select: none; cursor: default; fill: rgb(42, 63, 95); text-shadow: rgb(255, 255, 255) -1px 1px 1px, rgb(255, 255, 255) 1px 1px 1px, rgb(255, 255, 255) 1px -1px 1px, rgb(255, 255, 255) -1px -1px 1px; font-family: 'Open Sans', verdana, arial, sans-serif; font-size: 8px; fill-opacity: 1;"><textPath class="node-label-text-path" alignment-baseline="middle" xlink:href="#a0ac80_0_node_7" startOffset="100%" text-anchor="end" style="fill: rgb(0, 0, 0);">Building A Fitness Zone (23.07KW)</textPath></text></g></g><g class="sankey-node" transform="translate(520.000, 72.172)" style="opacity: 1;"><rect class="node-rect" width="20" height="6.995992932508983" style="stroke-width: 0.5; stroke: rgb(0, 0, 0); stroke-opacity: 1; fill: rgb(255, 0, 0); fill-opacity: 1;"/><rect class="node-capture" x="-10" y="-7.5" width="40" height="21.995992932508983" style="fill-opacity: 0;"/><g class="node-entered" transform="translate(0 4.497996466254492)"><path class="node-label-guide" id="a0ac80_0_node_8" d="M-540,0L-4,0" transform="matrix(1 0 0 1 0 0)"/><text class="node-label" transform="scale(1 1)" style="user-select: none; cursor: default; fill: rgb(42, 63, 95); text-shadow: rgb(255, 255, 255) -1px 1px 1px, rgb(255, 255, 255) 1px 1px 1px, rgb(255, 255, 255) 1px -1px 1px, rgb(255, 255, 255) -1px -1px 1px; font-family: 'Open Sans', verdana, arial, sans-serif; font-size: 8px; fill-opacity: 1;"><textPath class="node-label-text-path" alignment-baseline="middle" xlink:href="#a0ac80_0_node_8" startOffset="100%" text-anchor="end" style="fill: rgb(0, 0, 0);">Building B (148.73KW)</textPath></text></g></g><g class="sankey-node" transform="translate(520.000, 32.306)" style="opacity: 1;"><rect class="node-rect" width="20" height="8.917033417708126" style="stroke-width: 0.5; stroke: rgb(0, 0, 0); stroke-opacity: 1; fill: rgb(255, 0, 0); fill-opacity: 1;"/><rect class="node-capture" x="-10" y="-7.5" width="40" height="23.917033417708126" style="fill-opacity: 0;"/><g class="node-entered" transform="translate(0 5.458516708854063)"><path class="node-label-guide" id="a0ac80_0_node_9" d="M-540,0L-4,0" transform="matrix(1 0 0 1 0 0)"/><text class="node-label" transform="scale(1 1)" style="user-select: none; cursor: default; fill: rgb(42, 63, 95); text-shadow: rgb(255, 255, 255) -1px 1px 1px, rgb(255, 255, 255) 1px 1px 1px, rgb(255, 255, 255) 1px -1px 1px, rgb(255, 255, 255) -1px -1px 1px; font-family: 'Open Sans', verdana, arial, sans-serif; font-size: 8px; fill-opacity: 1;"><textPath class="node-label-text-path" alignment-baseline="middle" xlink:href="#a0ac80_0_node_9" startOffset="100%" text-anchor="end" style="fill: rgb(0, 0, 0);">Building C (189.57KW)</textPath></text></g></g><g class="sankey-node" transform="translate(520.000, 228.210)" style="opacity: 1;"><rect class="node-rect" width="20" height="2.726334635703779" style="stroke-width: 0.5; stroke: rgb(0, 0, 0); stroke-opacity: 1; fill: rgb(255, 0, 0); fill-opacity: 1;"/><rect class="node-capture" x="-10" y="-7.5" width="40" height="17.72633463570378" style="fill-opacity: 0;"/><g class="node-entered" transform="translate(0 2.3631673178518895)"><path class="node-label-guide" id="a0ac80_0_node_10" d="M-540,0L-4,0" transform="matrix(1 0 0 1 0 0)"/><text class="node-label" transform="scale(1 1)" style="user-select: none; cursor: default; fill: rgb(42, 63, 95); text-shadow: rgb(255, 255, 255) -1px 1px 1px, rgb(255, 255, 255) 1px 1px 1px, rgb(255, 255, 255) 1px -1px 1px, rgb(255, 255, 255) -1px -1px 1px; font-family: 'Open Sans', verdana, arial, sans-serif; font-size: 8px; fill-opacity: 1;"><textPath class="node-label-text-path" alignment-baseline="middle" xlink:href="#a0ac80_0_node_10" startOffset="100%" text-anchor="end" style="fill: rgb(0, 0, 0);">Building D (57.96KW)</textPath></text></g></g><g class="sankey-node" transform="translate(520.000, 90.396)" style="opacity: 1;"><rect class="node-rect" width="20" height="6.961655039409209" style="stroke-width: 0.5; stroke: rgb(0, 0, 0); stroke-opacity: 1; fill: rgb(255, 0, 0); fill-opacity: 1;"/><rect class="node-capture" x="-10" y="-7.5" width="40" height="21.96165503940921" style="fill-opacity: 0;"/><g class="node-entered" transform="translate(0 4.480827519704604)"><path class="node-label-guide" id="a0ac80_0_node_11" d="M-540,0L-4,0" transform="matrix(1 0 0 1 0 0)"/><text class="node-label" transform="scale(1 1)" style="user-select: none; cursor: default; fill: rgb(42, 63, 95); text-shadow: rgb(255, 255, 255) -1px 1px 1px, rgb(255, 255, 255) 1px 1px 1px, rgb(255, 255, 255) 1px -1px 1px, rgb(255, 255, 255) -1px -1px 1px; font-family: 'Open Sans', verdana, arial, sans-serif; font-size: 8px; fill-opacity: 1;"><textPath class="node-label-text-path" alignment-baseline="middle" xlink:href="#a0ac80_0_node_11" startOffset="100%" text-anchor="end" style="fill: rgb(0, 0, 0);">Building E (148.00KW)</textPath></text></g></g><g class="sankey-node" transform="translate(520.000, 295.530)" style="opacity: 1;"><rect class="node-rect" width="20" height="0.9308861704723768" style="stroke-width: 0.5; stroke: rgb(0, 0, 0); stroke-opacity: 1; fill: rgb(255, 0, 0); fill-opacity: 1;"/><rect class="node-capture" x="-10" y="-7.5" width="40" height="15.930886170472377" style="fill-opacity: 0;"/><g class="node-entered" transform="translate(0 1.4654430852361884)"><path class="node-label-guide" id="a0ac80_0_node_12" d="M-540,0L-4,0" transform="matrix(1 0 0 1 0 0)"/><text class="node-label" transform="scale(1 1)" style="user-select: none; cursor: default; fill: rgb(42, 63, 95); text-shadow: rgb(255, 255, 255) -1px 1px 1px, rgb(255, 255, 255) 1px 1px 1px, rgb(255, 255, 255) 1px -1px 1px, rgb(255, 255, 255) -1px -1px 1px; font-family: 'Open Sans', verdana, arial, sans-serif; font-size: 8px; fill-opacity: 1;"><textPath class="node-label-text-path" alignment-baseline="middle" xlink:href="#a0ac80_0_node_12" startOffset="100%" text-anchor="end" style="fill: rgb(0, 0, 0);">Building G (19.79KW)</textPath></text></g></g><g class="sankey-node" transform="translate(520.000, 145.584)" style="opacity: 1;"><rect class="node-rect" width="20" height="5.88448003668978" style="stroke-width: 0.5; stroke: rgb(0, 0, 0); stroke-opacity: 1; fill: rgb(255, 0, 0); fill-opacity: 1;"/><rect class="node-capture" x="-10" y="-7.5" width="40" height="20.88448003668978" style="fill-opacity: 0;"/><g class="node-entered" transform="translate(0 3.94224001834489)"><path class="node-label-guide" id="a0ac80_0_node_13" d="M-540,0L-4,0" transform="matrix(1 0 0 1 0 0)"/><text class="node-label" transform="scale(1 1)" style="user-select: none; cursor: default; fill: rgb(42, 63, 95); text-shadow: rgb(255, 255, 255) -1px 1px 1px, rgb(255, 255, 255) 1px 1px 1px, rgb(255, 255, 255) 1px -1px 1px, rgb(255, 255, 255) -1px -1px 1px; font-family: 'Open Sans', verdana, arial, sans-serif; font-size: 8px; fill-opacity: 1;"><textPath class="node-label-text-path" alignment-baseline="middle" xlink:href="#a0ac80_0_node_13" startOffset="100%" text-anchor="end" style="fill: rgb(0, 0, 0);">Building H (125.10KW)</textPath></text></g></g><g class="sankey-node" transform="translate(520.000, 242.165)" style="opacity: 1;"><rect class="node-rect" width="20" height="3.2385807396170776" style="stroke-width: 0.5; stroke: rgb(0, 0, 0); stroke-opacity: 1; fill: rgb(255, 0, 0); fill-opacity: 1;"/><rect class="node-capture" x="-10" y="-7.5" width="40" height="18.238580739617078" style="fill-opacity: 0;"/><g class="node-entered" transform="translate(0 2.619290369808539)"><path class="node-label-guide" id="a0ac80_0_node_14" d="M-540,0L-4,0" transform="matrix(1 0 0 1 0 0)"/><text class="node-label" transform="scale(1 1)" style="user-select: none; cursor: default; fill: rgb(42, 63, 95); text-shadow: rgb(255, 255, 255) -1px 1px 1px, rgb(255, 255, 255) 1px 1px 1px, rgb(255, 255, 255) 1px -1px 1px, rgb(255, 255, 255) -1px -1px 1px; font-family: 'Open Sans', verdana, arial, sans-serif; font-size: 8px; fill-opacity: 1;"><textPath class="node-label-text-path" alignment-baseline="middle" xlink:href="#a0ac80_0_node_14" startOffset="100%" text-anchor="end" style="fill: rgb(0, 0, 0);">Building J (68.85KW)</textPath></text></g></g><g class="sankey-node" transform="translate(520.000, 319.918)" style="opacity: 1;"><rect class="node-rect" width="20" height="0.5" style="stroke-width: 0.5; stroke: rgb(0, 0, 0); stroke-opacity: 1; fill: rgb(255, 0, 0); fill-opacity: 1;"/><rect class="node-capture" x="-10" y="-7.5" width="40" height="15.5" style="fill-opacity: 0;"/><g class="node-entered" transform="translate(0 1.0409232424614174)"><path class="node-label-guide" id="a0ac80_0_node_15" d="M-540,0L-4,0" transform="matrix(1 0 0 1 0 0)"/><text class="node-label" transform="scale(1 1)" style="user-select: none; cursor: default; fill: rgb(42, 63, 95); text-shadow: rgb(255, 255, 255) -1px 1px 1px, rgb(255, 255, 255) 1px 1px 1px, rgb(255, 255, 255) 1px -1px 1px, rgb(255, 255, 255) -1px -1px 1px; font-family: 'Open Sans', verdana, arial, sans-serif; font-size: 8px; fill-opacity: 1;"><textPath class="node-label-text-path" alignment-baseline="middle" xlink:href="#a0ac80_0_node_15" startOffset="100%" text-anchor="end" style="fill: rgb(0, 0, 0);">Building K (1.74KW)</textPath></text></g></g><g class="sankey-node" transform="translate(520.000, 180.666)" style="opacity: 1;"><rect class="node-rect" width="20" height="4.599396146982656" style="stroke-width: 0.5; stroke: rgb(0, 0, 0); stroke-opacity: 1; fill: rgb(255, 0, 0); fill-opacity: 1;"/><rect class="node-capture" x="-10" y="-7.5" width="40" height="19.599396146982656" style="fill-opacity: 0;"/><g class="node-entered" transform="translate(0 3.299698073491328)"><path class="node-label-guide" id="a0ac80_0_node_16" d="M-540,0L-4,0" transform="matrix(1 0 0 1 0 0)"/><text class="node-label" transform="scale(1 1)" style="user-select: none; cursor: default; fill: rgb(42, 63, 95); text-shadow: rgb(255, 255, 255) -1px 1px 1px, rgb(255, 255, 255) 1px 1px 1px, rgb(255, 255, 255) 1px -1px 1px, rgb(255, 255, 255) -1px -1px 1px; font-family: 'Open Sans', verdana, arial, sans-serif; font-size: 8px; fill-opacity: 1;"><textPath class="node-label-text-path" alignment-baseline="middle" xlink:href="#a0ac80_0_node_16" startOffset="100%" text-anchor="end" style="fill: rgb(0, 0, 0);">Building M (97.78KW)</textPath></text></g></g><g class="sankey-node" transform="translate(520.000, 212.534)" style="opacity: 1;"><rect class="node-rect" width="20" height="4.4479331116658045" style="stroke-width: 0.5; stroke: rgb(0, 0, 0); stroke-opacity: 1; fill: rgb(255, 0, 0); fill-opacity: 1;"/><rect class="node-capture" x="-10" y="-7.5" width="40" height="19.447933111665805" style="fill-opacity: 0;"/><g class="node-entered" transform="translate(0 3.2239665558329023)"><path class="node-label-guide" id="a0ac80_0_node_17" d="M-540,0L-4,0" transform="matrix(1 0 0 1 0 0)"/><text class="node-label" transform="scale(1 1)" style="user-select: none; cursor: default; fill: rgb(42, 63, 95); text-shadow: rgb(255, 255, 255) -1px 1px 1px, rgb(255, 255, 255) 1px 1px 1px, rgb(255, 255, 255) 1px -1px 1px, rgb(255, 255, 255) -1px -1px 1px; font-family: 'Open Sans', verdana, arial, sans-serif; font-size: 8px; fill-opacity: 1;"><textPath class="node-label-text-path" alignment-baseline="middle" xlink:href="#a0ac80_0_node_17" startOffset="100%" text-anchor="end" style="fill: rgb(0, 0, 0);">Building N (94.56KW)</textPath></text></g></g><g class="sankey-node" transform="translate(520.000, 196.494)" style="opacity: 1;"><rect class="node-rect" width="20" height="4.812479237040236" style="stroke-width: 0.5; stroke: rgb(0, 0, 0); stroke-opacity: 1; fill: rgb(255, 0, 0); fill-opacity: 1;"/><rect class="node-capture" x="-10" y="-7.5" width="40" height="19.812479237040236" style="fill-opacity: 0;"/><g class="node-entered" transform="translate(0 3.406239618520118)"><path class="node-label-guide" id="a0ac80_0_node_18" d="M-540,0L-4,0" transform="matrix(1 0 0 1 0 0)"/><text class="node-label" transform="scale(1 1)" style="user-select: none; cursor: default; fill: rgb(42, 63, 95); text-shadow: rgb(255, 255, 255) -1px 1px 1px, rgb(255, 255, 255) 1px 1px 1px, rgb(255, 255, 255) 1px -1px 1px, rgb(255, 255, 255) -1px -1px 1px; font-family: 'Open Sans', verdana, arial, sans-serif; font-size: 8px; fill-opacity: 1;"><textPath class="node-label-text-path" alignment-baseline="middle" xlink:href="#a0ac80_0_node_18" startOffset="100%" text-anchor="end" style="fill: rgb(0, 0, 0);">Building P (102.31KW)</textPath></text></g></g><g class="sankey-node" transform="translate(520.000, 256.631)" style="opacity: 1;"><rect class="node-rect" width="20" height="1.938915004894909" style="stroke-width: 0.5; stroke: rgb(0, 0, 0); stroke-opacity: 1; fill: rgb(255, 0, 0); fill-opacity: 1;"/><rect class="node-capture" x="-10" y="-7.5" width="40" height="16.93891500489491" style="fill-opacity: 0;"/><g class="node-entered" transform="translate(0 1.9694575024474545)"><path class="node-label-guide" id="a0ac80_0_node_19" d="M-540,0L-4,0" transform="matrix(1 0 0 1 0 0)"/><text class="node-label" transform="scale(1 1)" style="user-select: none; cursor: default; fill: rgb(42, 63, 95); text-shadow: rgb(255, 255, 255) -1px 1px 1px, rgb(255, 255, 255) 1px 1px 1px, rgb(255, 255, 255) 1px -1px 1px, rgb(255, 255, 255) -1px -1px 1px; font-family: 'Open Sans', verdana, arial, sans-serif; font-size: 8px; fill-opacity: 1;"><textPath class="node-label-text-path" alignment-baseline="middle" xlink:href="#a0ac80_0_node_19" startOffset="100%" text-anchor="end" style="fill: rgb(0, 0, 0);">Building S (41.22KW)</textPath></text></g></g><g class="sankey-node" transform="translate(520.000, 52.451)" style="opacity: 1;"><rect class="node-rect" width="20" height="8.492748765981958" style="stroke-width: 0.5; stroke: rgb(0, 0, 0); stroke-opacity: 1; fill: rgb(255, 0, 0); fill-opacity: 1;"/><rect class="node-capture" x="-10" y="-7.5" width="40" height="23.492748765981958" style="fill-opacity: 0;"/><g class="node-entered" transform="translate(0 5.246374382990979)"><path class="node-label-guide" id="a0ac80_0_node_20" d="M-540,0L-4,0" transform="matrix(1 0 0 1 0 0)"/><text class="node-label" transform="scale(1 1)" style="user-select: none; cursor: default; fill: rgb(42, 63, 95); text-shadow: rgb(255, 255, 255) -1px 1px 1px, rgb(255, 255, 255) 1px 1px 1px, rgb(255, 255, 255) 1px -1px 1px, rgb(255, 255, 255) -1px -1px 1px; font-family: 'Open Sans', verdana, arial, sans-serif; font-size: 8px; fill-opacity: 1;"><textPath class="node-label-text-path" alignment-baseline="middle" xlink:href="#a0ac80_0_node_20" startOffset="100%" text-anchor="end" style="fill: rgb(0, 0, 0);">Building T (180.55KW)</textPath></text></g></g><g class="sankey-node" transform="translate(520.000, 307.689)" style="opacity: 1;"><rect class="node-rect" width="20" height="1.0014434850610314" style="stroke-width: 0.5; stroke: rgb(0, 0, 0); stroke-opacity: 1; fill: rgb(255, 0, 0); fill-opacity: 1;"/><rect class="node-capture" x="-10" y="-7.5" width="40" height="16.00144348506103" style="fill-opacity: 0;"/><g class="node-entered" transform="translate(0 1.5007217425305157)"><path class="node-label-guide" id="a0ac80_0_node_21" d="M-540,0L-4,0" transform="matrix(1 0 0 1 0 0)"/><text class="node-label" transform="scale(1 1)" style="user-select: none; cursor: default; fill: rgb(42, 63, 95); text-shadow: rgb(255, 255, 255) -1px 1px 1px, rgb(255, 255, 255) 1px 1px 1px, rgb(255, 255, 255) 1px -1px 1px, rgb(255, 255, 255) -1px -1px 1px; font-family: 'Open Sans', verdana, arial, sans-serif; font-size: 8px; fill-opacity: 1;"><textPath class="node-label-text-path" alignment-baseline="middle" xlink:href="#a0ac80_0_node_21" startOffset="100%" text-anchor="end" style="fill: rgb(0, 0, 0);">Building V (21.29KW)</textPath></text></g></g><g class="sankey-node" transform="translate(520.000, 269.798)" style="opacity: 1;"><rect class="node-rect" width="20" height="2.1900990448303332" style="stroke-width: 0.5; stroke: rgb(0, 0, 0); stroke-opacity: 1; fill: rgb(255, 0, 0); fill-opacity: 1;"/><rect class="node-capture" x="-10" y="-7.5" width="40" height="17.190099044830333" style="fill-opacity: 0;"/><g class="node-entered" transform="translate(0 2.0950495224151666)"><path class="node-label-guide" id="a0ac80_0_node_22" d="M-540,0L-4,0" transform="matrix(1 0 0 1 0 0)"/><text class="node-label" transform="scale(1 1)" style="user-select: none; cursor: default; fill: rgb(42, 63, 95); text-shadow: rgb(255, 255, 255) -1px 1px 1px, rgb(255, 255, 255) 1px 1px 1px, rgb(255, 255, 255) 1px -1px 1px, rgb(255, 255, 255) -1px -1px 1px; font-family: 'Open Sans', verdana, arial, sans-serif; font-size: 8px; fill-opacity: 1;"><textPath class="node-label-text-path" alignment-baseline="middle" xlink:href="#a0ac80_0_node_22" startOffset="100%" text-anchor="end" style="fill: rgb(0, 0, 0);">Building Z (46.56KW)</textPath></text></g></g><g class="sankey-node" transform="translate(520.000, 108.586)" style="opacity: 1;"><rect class="node-rect" width="20" height="7.496479483990868" style="stroke-width: 0.5; stroke: rgb(0, 0, 0); stroke-opacity: 1; fill: rgb(255, 0, 0); fill-opacity: 1;"/><rect class="node-capture" x="-10" y="-7.5" width="40" height="22.496479483990868" style="fill-opacity: 0;"/><g class="node-entered" transform="translate(0 4.748239741995434)"><path class="node-label-guide" id="a0ac80_0_node_23" d="M-540,0L-4,0" transform="matrix(1 0 0 1 0 0)"/><text class="node-label" transform="scale(1 1)" style="user-select: none; cursor: default; fill: rgb(42, 63, 95); text-shadow: rgb(255, 255, 255) -1px 1px 1px, rgb(255, 255, 255) 1px 1px 1px, rgb(255, 255, 255) 1px -1px 1px, rgb(255, 255, 255) -1px -1px 1px; font-family: 'Open Sans', verdana, arial, sans-serif; font-size: 8px; fill-opacity: 1;"><textPath class="node-label-text-path" alignment-baseline="middle" xlink:href="#a0ac80_0_node_23" startOffset="100%" text-anchor="end" style="fill: rgb(0, 0, 0);">Residence 1&amp;2 (159.37KW)</textPath></text></g></g><g class="sankey-node" transform="translate(520.000, 127.310)" style="opacity: 1;"><rect class="node-rect" width="20" height="7.045853434818298" style="stroke-width: 0.5; stroke: rgb(0, 0, 0); stroke-opacity: 1; fill: rgb(255, 0, 0); fill-opacity: 1;"/><rect class="node-capture" x="-10" y="-7.5" width="40" height="22.045853434818298" style="fill-opacity: 0;"/><g class="node-entered" transform="translate(0 4.522926717409149)"><path class="node-label-guide" id="a0ac80_0_node_24" d="M-540,0L-4,0" transform="matrix(1 0 0 1 0 0)"/><text class="node-label" transform="scale(1 1)" style="user-select: none; cursor: default; fill: rgb(42, 63, 95); text-shadow: rgb(255, 255, 255) -1px 1px 1px, rgb(255, 255, 255) 1px 1px 1px, rgb(255, 255, 255) 1px -1px 1px, rgb(255, 255, 255) -1px -1px 1px; font-family: 'Open Sans', verdana, arial, sans-serif; font-size: 8px; fill-opacity: 1;"><textPath class="node-label-text-path" alignment-baseline="middle" xlink:href="#a0ac80_0_node_24" startOffset="100%" text-anchor="end" style="fill: rgb(0, 0, 0);">Residence 3 (149.79KW)</textPath></text></g></g><g class="sankey-node" transform="translate(520.000, 162.697)" style="opacity: 1;"><rect class="node-rect" width="20" height="6.7415162178928085" style="stroke-width: 0.5; stroke: rgb(0, 0, 0); stroke-opacity: 1; fill: rgb(255, 0, 0); fill-opacity: 1;"/><rect class="node-capture" x="-10" y="-7.5" width="40" height="21.74151621789281" style="fill-opacity: 0;"/><g class="node-entered" transform="translate(0 4.370758108946404)"><path class="node-label-guide" id="a0ac80_0_node_25" d="M-540,0L-4,0" transform="matrix(1 0 0 1 0 0)"/><text class="node-label" transform="scale(1 1)" style="user-select: none; cursor: default; fill: rgb(42, 63, 95); text-shadow: rgb(255, 255, 255) -1px 1px 1px, rgb(255, 255, 255) 1px 1px 1px, rgb(255, 255, 255) 1px -1px 1px, rgb(255, 255, 255) -1px -1px 1px; font-family: 'Open Sans', verdana, arial, sans-serif; font-size: 8px; fill-opacity: 1;"><textPath class="node-label-text-path" alignment-baseline="middle" xlink:href="#a0ac80_0_node_25" startOffset="100%" text-anchor="end" style="fill: rgb(0, 0, 0);">Plant Chillers (143.32KW)</textPath></text></g></g></g></g><defs id="topdefs-340524"><g class="clips"/></defs><g class="layer-above"><g class="imagelayer"/><g class="shapelayer"/></g><g class="infolayer"><g class="g-gtitle"><text class="gtitle" x="350" y="50" text-anchor="middle" dy="0em" style="font-family: 'Open Sans', verdana, arial, sans-serif; font-size: 11px; fill: rgb(42, 63, 95); opacity: 1; font-weight: normal; white-space: pre;">Algonquin College Power Usage at 5:00 Jan, 09 2020 (In KW)</text></g><g class="first-render"/></g></svg>