<svg class="main-svg" xmlns="http://www.w3.org/2000/svg" xmlns:xlink="http://www.w3.org/1999/xlink" width="700" height="500" viewBox="0 0 700 500"><rect x="0" y="0" width="700" height="500" style="fill: rgb(255, 255, 255); fill-opacity: 1;"/><defs id="defs-b8b871"><g class="clips"/><g class="gradients"/></defs><g class="bglayer"/><g class="layer-below"><g class="imagelayer"/><g class="shapelayer"/></g><g class="cartesianlayer"/><g class="polarlayer"/><g class="ternarylayer"/><g class="geolayer"/><g class="funnelarealayer"/><g class="pielayer"/><g class="treemaplayer"/><g class="sunburstlayer"/><g class="glimages"/><g class="sankey" transform="translate(80,100)matrix(1 0 0 1 0 0)" style="box-sizing: content-box; position: absolute; left: 0px; shape-rendering: geometricPrecision; pointer-events: auto;"><g class="sankey-links" style="fill: none;"><path class="sankey-link" d="M20,169.28799693401908C140,169.28799693401908 140,152.96716936808565 260,152.96716936808565L260,182.1807978300718C140,182.1807978300718 140,198.50162539600524 20,198.50162539600524Z" style="stroke: rgb(68, 68, 68); stroke-opacity: 1; fill: rgb(0, 0, 0); fill-opacity: 0.2; stroke-width: 0; opacity: 1;"/><path class="sankey-link" d="M20,83.11885485679099C140,83.11885485679099 140,78.02609746629618 260,78.02609746629618L260,152.96716936808565C140,152.96716936808565 140,158.05992675858047 20,158.05992675858047Z" style="stroke: rgb(68, 68, 68); stroke-opacity: 1; fill: rgb(0, 0, 0); fill-opacity: 0.2; stroke-width: 0; opacity: 1;"/><path class="sankey-link" d="M280,78.02609746629618C400,78.02609746629618 400,3.552713678800501e-13 520,3.552713678800501e-13L520,19.158054098467026C400,19.158054098467026 400,97.18415156476284 280,97.18415156476284Z" style="stroke: rgb(68, 68, 68); stroke-opacity: 1; fill: rgb(0, 0, 0); fill-opacity: 0.2; stroke-width: 0; opacity: 1;"/><path class="sankey-link" d="M280,176.7072999418469C400,176.7072999418469 400,255.8741849316912 520,255.8741849316912L520,257.4890493938954C400,257.4890493938954 400,178.32216440405116 280,178.32216440405116Z" style="stroke: rgb(68, 68, 68); stroke-opacity: 1; fill: rgb(0, 0, 0); fill-opacity: 0.2; stroke-width: 0; opacity: 1;"/><path class="sankey-link" d="M280,97.18415156476286C400,97.18415156476286 400,30.386124273905605 520,30.386124273905605L520,39.051211071602495C400,39.051211071602495 400,105.84923836245974 280,105.84923836245974Z" style="stroke: rgb(68, 68, 68); stroke-opacity: 1; fill: rgb(0, 0, 0); fill-opacity: 0.2; stroke-width: 0; opacity: 1;"/><path class="sankey-link" d="M280,132.15043036472179C400,132.15043036472179 400,110.26468377561906 520,110.26468377561906L520,117.71578201278453C400,117.71578201278453 400,139.60152860188725 280,139.60152860188725Z" style="stroke: rgb(68, 68, 68); stroke-opacity: 1; fill: rgb(0, 0, 0); fill-opacity: 0.2; stroke-width: 0; opacity: 1;"/><path class="sankey-link" d="M280,167.9939295082198C400,167.9939295082198 400,213.47660397174843 520,213.47660397174843L520,216.0920352087757C400,216.0920352087757 400,170.60936074524707 280,170.60936074524707Z" style="stroke: rgb(68, 68, 68); stroke-opacity: 1; fill: rgb(0, 0, 0); fill-opacity: 0.2; stroke-width: 0; opacity: 1;"/><path class="sankey-link" d="M280,105.84923836245974C400,105.84923836245974 400,50.2792812470411 520,50.2792812470411L520,58.59705046191216C400,58.59705046191216 400,114.16700757733079 280,114.16700757733079Z" style="stroke: rgb(68, 68, 68); stroke-opacity: 1; fill: rgb(0, 0, 0); fill-opacity: 0.2; stroke-width: 0; opacity: 1;"/><path class="sankey-link" d="M280,182.6465929061046C400,182.6465929061046 400,295.4976884222647 520,295.4976884222647L520,296.2300578580131C400,296.2300578580131 400,183.378962341853 280,183.378962341853Z" style="stroke: rgb(0, 0, 0); stroke-opacity: 0.2; fill: rgb(0, 0, 0); fill-opacity: 0.2; stroke-width: 1; opacity: 1;"/><path class="sankey-link" d="M280,148.11243236047923C400,148.11243236047923 400,148.68282612225357 520,148.68282612225357L520,154.52839202852903C400,154.52839202852903 400,153.9579982667547 280,153.9579982667547Z" style="stroke: rgb(68, 68, 68); stroke-opacity: 1; fill: rgb(0, 0, 0); fill-opacity: 0.2; stroke-width: 0; opacity: 1;"/><path class="sankey-link" d="M280,170.60936074524705C400,170.60936074524705 400,227.32010538421423 520,227.32010538421423L520,230.13881478595613C400,230.13881478595613 400,173.42807014698894 280,173.42807014698894Z" style="stroke: rgb(68, 68, 68); stroke-opacity: 1; fill: rgb(0, 0, 0); fill-opacity: 0.2; stroke-width: 0; opacity: 1;"/><path class="sankey-link" d="M280,184.3004088729248C400,184.3004088729248 400,319.607644739962 520,319.607644739962L520,320C400,320 400,184.69276413296288 280,184.69276413296288Z" style="stroke: rgb(0, 0, 0); stroke-opacity: 0.2; fill: rgb(0, 0, 0); fill-opacity: 0.2; stroke-width: 1; opacity: 1;"/><path class="sankey-link" d="M280,173.42807014698897C400,173.42807014698897 400,241.3668849613947 520,241.3668849613947L520,244.64611475625264C400,244.64611475625264 400,176.7072999418469 280,176.7072999418469Z" style="stroke: rgb(68, 68, 68); stroke-opacity: 1; fill: rgb(0, 0, 0); fill-opacity: 0.2; stroke-width: 0; opacity: 1;"/><path class="sankey-link" d="M280,164.13286161316063C400,164.13286161316063 400,198.38746590125066 520,198.38746590125066L520,202.24853379630986C400,202.24853379630986 400,167.99392950821982 280,167.99392950821982Z" style="stroke: rgb(68, 68, 68); stroke-opacity: 1; fill: rgb(0, 0, 0); fill-opacity: 0.2; stroke-width: 0; opacity: 1;"/><path class="sankey-link" d="M280,159.7009107285735C400,159.7009107285735 400,182.72744484122495 520,182.72744484122495L520,187.1593957258121C400,187.1593957258121 400,164.13286161316063 280,164.13286161316063Z" style="stroke: rgb(68, 68, 68); stroke-opacity: 1; fill: rgb(0, 0, 0); fill-opacity: 0.2; stroke-width: 0; opacity: 1;"/><path class="sankey-link" d="M280,180.92826350976415C400,180.92826350976415 400,282.55128885048566 520,282.55128885048566L520,284.2696182468261C400,284.2696182468261 400,182.6465929061046 280,182.6465929061046Z" style="stroke: rgb(68, 68, 68); stroke-opacity: 1; fill: rgb(0, 0, 0); fill-opacity: 0.2; stroke-width: 0; opacity: 1;"/><path class="sankey-link" d="M280,114.1670075773308C400,114.1670075773308 400,69.82512063735075 520,69.82512063735075L520,78.42934570908517C400,78.42934570908517 400,122.77123264906523 280,122.77123264906523Z" style="stroke: rgb(68, 68, 68); stroke-opacity: 1; fill: rgb(0, 0, 0); fill-opacity: 0.2; stroke-width: 0; opacity: 1;"/><path class="sankey-link" d="M280,183.378962341853C400,183.378962341853 400,307.45812803345166 520,307.45812803345166L520,308.3795745645235C400,308.3795745645235 400,184.3004088729248 280,184.3004088729248Z" style="stroke: rgb(0, 0, 0); stroke-opacity: 0.2; fill: rgb(0, 0, 0); fill-opacity: 0.2; stroke-width: 1; opacity: 1;"/><path class="sankey-link" d="M280,178.32216440405114C400,178.32216440405114 400,268.71711956933416 520,268.71711956933416L520,271.3232186750472C400,271.3232186750472 400,180.92826350976418 280,180.92826350976418Z" style="stroke: rgb(68, 68, 68); stroke-opacity: 1; fill: rgb(0, 0, 0); fill-opacity: 0.2; stroke-width: 0; opacity: 1;"/><path class="sankey-link" d="M280,122.77123264906523C400,122.77123264906523 400,89.6574158845238 520,89.6574158845238L520,99.03661360018035C400,99.03661360018035 400,132.15043036472179 280,132.15043036472179Z" style="stroke: rgb(68, 68, 68); stroke-opacity: 1; fill: rgb(0, 0, 0); fill-opacity: 0.2; stroke-width: 0; opacity: 1;"/><path class="sankey-link" d="M280,139.60152860188725C400,139.60152860188725 400,128.9438521882231 520,128.9438521882231L520,137.45475594681506C400,137.45475594681506 400,148.1124323604792 280,148.1124323604792Z" style="stroke: rgb(68, 68, 68); stroke-opacity: 1; fill: rgb(0, 0, 0); fill-opacity: 0.2; stroke-width: 0; opacity: 1;"/><path class="sankey-link" d="M280,153.95799826675471C400,153.95799826675471 400,165.75646220396757 520,165.75646220396757L520,171.49937466578635C400,171.49937466578635 400,159.7009107285735 280,159.7009107285735Z" style="stroke: rgb(68, 68, 68); stroke-opacity: 1; fill: rgb(0, 0, 0); fill-opacity: 0.2; stroke-width: 0; opacity: 1;"/></g><g class="sankey-node-set" style="cursor: move;"><g class="sankey-node" transform="translate(0.000, 169.288)" style="opacity: 1;"><rect class="node-rect" width="20" height="29.213628461986218" style="stroke-width: 0.5; stroke: rgb(0, 0, 0); stroke-opacity: 1; fill: rgb(0, 128, 0); fill-opacity: 1;"/><rect class="node-capture" x="-10" y="-7.5" width="40" height="44.21362846198622" style="fill-opacity: 0;"/><g class="node-entered" transform="translate(0 15.606814230993109)"><path class="node-label-guide" id="e2db1b_0_node_0" d="M24,0L540,0" transform="matrix(1 0 0 1 0 0)"/><text class="node-label" transform="scale(1 1)" style="user-select: none; cursor: default; fill: rgb(42, 63, 95); text-shadow: rgb(255, 255, 255) -1px 1px 1px, rgb(255, 255, 255) 1px 1px 1px, rgb(255, 255, 255) 1px -1px 1px, rgb(255, 255, 255) -1px -1px 1px; font-family: 'Open Sans', verdana, arial, sans-serif; font-size: 8px; fill-opacity: 1;"><textPath class="node-label-text-path" alignment-baseline="middle" xlink:href="#e2db1b_0_node_0" startOffset="0%" text-anchor="start" style="fill: rgb(0, 0, 0);">Hydro Power (720.00KW )</textPath></text></g></g><g class="sankey-node" transform="translate(0.000, 83.119)" style="opacity: 1;"><rect class="node-rect" width="20" height="74.94107190178948" style="stroke-width: 0.5; stroke: rgb(0, 0, 0); stroke-opacity: 1; fill: rgb(0, 128, 0); fill-opacity: 1;"/><rect class="node-capture" x="-10" y="-7.5" width="40" height="89.94107190178948" style="fill-opacity: 0;"/><g class="node-entered" transform="translate(0 38.47053595089474)"><path class="node-label-guide" id="e2db1b_0_node_2" d="M24,0L540,0" transform="matrix(1 0 0 1 0 0)"/><text class="node-label" transform="scale(1 1)" style="user-select: none; cursor: default; fill: rgb(42, 63, 95); text-shadow: rgb(255, 255, 255) -1px 1px 1px, rgb(255, 255, 255) 1px 1px 1px, rgb(255, 255, 255) 1px -1px 1px, rgb(255, 255, 255) -1px -1px 1px; font-family: 'Open Sans', verdana, arial, sans-serif; font-size: 8px; fill-opacity: 1;"><textPath class="node-label-text-path" alignment-baseline="middle" xlink:href="#e2db1b_0_node_2" startOffset="0%" text-anchor="start" style="fill: rgb(0, 0, 0);">COGEN 2 (1847.00KW)</textPath></text></g></g><g class="sankey-node" transform="translate(260.000, 78.026)" style="opacity: 1;"><rect class="node-rect" width="20" height="106.66666666666673" style="stroke-width: 0.5; stroke: rgb(0, 0, 0); stroke-opacity: 1; fill: rgb(255, 255, 0); fill-opacity: 1;"/><rect class="node-capture" x="-10" y="-7.5" width="40" height="121.66666666666673" style="fill-opacity: 0;"/><g class="node-entered" transform="translate(0 54.333333333333364)"><path class="node-label-guide" id="e2db1b_0_node_5" d="M24,0L540,0" transform="matrix(1 0 0 1 0 0)"/><text class="node-label" transform="scale(1 1)" style="user-select: none; cursor: default; fill: rgb(42, 63, 95); text-shadow: rgb(255, 255, 255) -1px 1px 1px, rgb(255, 255, 255) 1px 1px 1px, rgb(255, 255, 255) 1px -1px 1px, rgb(255, 255, 255) -1px -1px 1px; font-family: 'Open Sans', verdana, arial, sans-serif; font-size: 8px; fill-opacity: 1;"><textPath class="node-label-text-path" alignment-baseline="middle" xlink:href="#e2db1b_0_node_5" startOffset="0%" text-anchor="start" style="fill: rgb(0, 0, 0);">Total Power (2567.00KW)</textPath></text></g></g><g class="sankey-node" transform="translate(520.000, 0.000)" style="opacity: 1;"><rect class="node-rect" width="20" height="19.15805409846665" style="stroke-width: 0.5; stroke: rgb(0, 0, 0); stroke-opacity: 1; fill: rgb(255, 0, 0); fill-opacity: 1;"/><rect class="node-capture" x="-10" y="-7.5" width="40" height="34.15805409846665" style="fill-opacity: 0;"/><g class="node-entered" transform="translate(0 10.579027049233325)"><path class="node-label-guide" id="e2db1b_0_node_6" d="M-540,0L-4,0" transform="matrix(1 0 0 1 0 0)"/><text class="node-label" transform="scale(1 1)" style="user-select: none; cursor: default; fill: rgb(42, 63, 95); text-shadow: rgb(255, 255, 255) -1px 1px 1px, rgb(255, 255, 255) 1px 1px 1px, rgb(255, 255, 255) 1px -1px 1px, rgb(255, 255, 255) -1px -1px 1px; font-family: 'Open Sans', verdana, arial, sans-serif; font-size: 8px; fill-opacity: 1;"><textPath class="node-label-text-path" alignment-baseline="middle" xlink:href="#e2db1b_0_node_6" startOffset="100%" text-anchor="end" style="fill: rgb(0, 0, 0);">Building A (472.17KW)</textPath></text></g></g><g class="sankey-node" transform="translate(520.000, 255.874)" style="opacity: 1;"><rect class="node-rect" width="20" height="1.6148644622043662" style="stroke-width: 0.5; stroke: rgb(0, 0, 0); stroke-opacity: 1; fill: rgb(255, 0, 0); fill-opacity: 1;"/><rect class="node-capture" x="-10" y="-7.5" width="40" height="16.614864462204366" style="fill-opacity: 0;"/><g class="node-entered" transform="translate(0 1.807432231102183)"><path class="node-label-guide" id="e2db1b_0_node_7" d="M-540,0L-4,0" transform="matrix(1 0 0 1 0 0)"/><text class="node-label" transform="scale(1 1)" style="user-select: none; cursor: default; fill: rgb(42, 63, 95); text-shadow: rgb(255, 255, 255) -1px 1px 1px, rgb(255, 255, 255) 1px 1px 1px, rgb(255, 255, 255) 1px -1px 1px, rgb(255, 255, 255) -1px -1px 1px; font-family: 'Open Sans', verdana, arial, sans-serif; font-size: 8px; fill-opacity: 1;"><textPath class="node-label-text-path" alignment-baseline="middle" xlink:href="#e2db1b_0_node_7" startOffset="100%" text-anchor="end" style="fill: rgb(0, 0, 0);">Building A Fitness Zone (39.80KW)</textPath></text></g></g><g class="sankey-node" transform="translate(520.000, 30.386)" style="opacity: 1;"><rect class="node-rect" width="20" height="8.665086797696887" style="stroke-width: 0.5; stroke: rgb(0, 0, 0); stroke-opacity: 1; fill: rgb(255, 0, 0); fill-opacity: 1;"/><rect class="node-capture" x="-10" y="-7.5" width="40" height="23.665086797696887" style="fill-opacity: 0;"/><g class="node-entered" transform="translate(0 5.332543398848443)"><path class="node-label-guide" id="e2db1b_0_node_8" d="M-540,0L-4,0" transform="matrix(1 0 0 1 0 0)"/><text class="node-label" transform="scale(1 1)" style="user-select: none; cursor: default; fill: rgb(42, 63, 95); text-shadow: rgb(255, 255, 255) -1px 1px 1px, rgb(255, 255, 255) 1px 1px 1px, rgb(255, 255, 255) 1px -1px 1px, rgb(255, 255, 255) -1px -1px 1px; font-family: 'Open Sans', verdana, arial, sans-serif; font-size: 8px; fill-opacity: 1;"><textPath class="node-label-text-path" alignment-baseline="middle" xlink:href="#e2db1b_0_node_8" startOffset="100%" text-anchor="end" style="fill: rgb(0, 0, 0);">Building B (213.56KW)</textPath></text></g></g><g class="sankey-node" transform="translate(520.000, 110.265)" style="opacity: 1;"><rect class="node-rect" width="20" height="7.451098237165439" style="stroke-width: 0.5; stroke: rgb(0, 0, 0); stroke-opacity: 1; fill: rgb(255, 0, 0); fill-opacity: 1;"/><rect class="node-capture" x="-10" y="-7.5" width="40" height="22.45109823716544" style="fill-opacity: 0;"/><g class="node-entered" transform="translate(0 4.72554911858272)"><path class="node-label-guide" id="e2db1b_0_node_9" d="M-540,0L-4,0" transform="matrix(1 0 0 1 0 0)"/><text class="node-label" transform="scale(1 1)" style="user-select: none; cursor: default; fill: rgb(42, 63, 95); text-shadow: rgb(255, 255, 255) -1px 1px 1px, rgb(255, 255, 255) 1px 1px 1px, rgb(255, 255, 255) 1px -1px 1px, rgb(255, 255, 255) -1px -1px 1px; font-family: 'Open Sans', verdana, arial, sans-serif; font-size: 8px; fill-opacity: 1;"><textPath class="node-label-text-path" alignment-baseline="middle" xlink:href="#e2db1b_0_node_9" startOffset="100%" text-anchor="end" style="fill: rgb(0, 0, 0);">Building C (183.64KW)</textPath></text></g></g><g class="sankey-node" transform="translate(520.000, 213.477)" style="opacity: 1;"><rect class="node-rect" width="20" height="2.6154312370272237" style="stroke-width: 0.5; stroke: rgb(0, 0, 0); stroke-opacity: 1; fill: rgb(255, 0, 0); fill-opacity: 1;"/><rect class="node-capture" x="-10" y="-7.5" width="40" height="17.615431237027224" style="fill-opacity: 0;"/><g class="node-entered" transform="translate(0 2.307715618513612)"><path class="node-label-guide" id="e2db1b_0_node_10" d="M-540,0L-4,0" transform="matrix(1 0 0 1 0 0)"/><text class="node-label" transform="scale(1 1)" style="user-select: none; cursor: default; fill: rgb(42, 63, 95); text-shadow: rgb(255, 255, 255) -1px 1px 1px, rgb(255, 255, 255) 1px 1px 1px, rgb(255, 255, 255) 1px -1px 1px, rgb(255, 255, 255) -1px -1px 1px; font-family: 'Open Sans', verdana, arial, sans-serif; font-size: 8px; fill-opacity: 1;"><textPath class="node-label-text-path" alignment-baseline="middle" xlink:href="#e2db1b_0_node_10" startOffset="100%" text-anchor="end" style="fill: rgb(0, 0, 0);">Building D (64.46KW)</textPath></text></g></g><g class="sankey-node" transform="translate(520.000, 50.279)" style="opacity: 1;"><rect class="node-rect" width="20" height="8.31776921487105" style="stroke-width: 0.5; stroke: rgb(0, 0, 0); stroke-opacity: 1; fill: rgb(255, 0, 0); fill-opacity: 1;"/><rect class="node-capture" x="-10" y="-7.5" width="40" height="23.31776921487105" style="fill-opacity: 0;"/><g class="node-entered" transform="translate(0 5.158884607435525)"><path class="node-label-guide" id="e2db1b_0_node_11" d="M-540,0L-4,0" transform="matrix(1 0 0 1 0 0)"/><text class="node-label" transform="scale(1 1)" style="user-select: none; cursor: default; fill: rgb(42, 63, 95); text-shadow: rgb(255, 255, 255) -1px 1px 1px, rgb(255, 255, 255) 1px 1px 1px, rgb(255, 255, 255) 1px -1px 1px, rgb(255, 255, 255) -1px -1px 1px; font-family: 'Open Sans', verdana, arial, sans-serif; font-size: 8px; fill-opacity: 1;"><textPath class="node-label-text-path" alignment-baseline="middle" xlink:href="#e2db1b_0_node_11" startOffset="100%" text-anchor="end" style="fill: rgb(0, 0, 0);">Building E (205.00KW)</textPath></text></g></g><g class="sankey-node" transform="translate(520.000, 295.498)" style="opacity: 1;"><rect class="node-rect" width="20" height="0.7323694357484101" style="stroke-width: 0.5; stroke: rgb(0, 0, 0); stroke-opacity: 1; fill: rgb(255, 0, 0); fill-opacity: 1;"/><rect class="node-capture" x="-10" y="-7.5" width="40" height="15.73236943574841" style="fill-opacity: 0;"/><g class="node-entered" transform="translate(0 1.366184717874205)"><path class="node-label-guide" id="e2db1b_0_node_12" d="M-540,0L-4,0" transform="matrix(1 0 0 1 0 0)"/><text class="node-label" transform="scale(1 1)" style="user-select: none; cursor: default; fill: rgb(42, 63, 95); text-shadow: rgb(255, 255, 255) -1px 1px 1px, rgb(255, 255, 255) 1px 1px 1px, rgb(255, 255, 255) 1px -1px 1px, rgb(255, 255, 255) -1px -1px 1px; font-family: 'Open Sans', verdana, arial, sans-serif; font-size: 8px; fill-opacity: 1;"><textPath class="node-label-text-path" alignment-baseline="middle" xlink:href="#e2db1b_0_node_12" startOffset="100%" text-anchor="end" style="fill: rgb(0, 0, 0);">Building G (18.05KW)</textPath></text></g></g><g class="sankey-node" transform="translate(520.000, 148.683)" style="opacity: 1;"><rect class="node-rect" width="20" height="5.845565906275397" style="stroke-width: 0.5; stroke: rgb(0, 0, 0); stroke-opacity: 1; fill: rgb(255, 0, 0); fill-opacity: 1;"/><rect class="node-capture" x="-10" y="-7.5" width="40" height="20.845565906275397" style="fill-opacity: 0;"/><g class="node-entered" transform="translate(0 3.9227829531376983)"><path class="node-label-guide" id="e2db1b_0_node_13" d="M-540,0L-4,0" transform="matrix(1 0 0 1 0 0)"/><text class="node-label" transform="scale(1 1)" style="user-select: none; cursor: default; fill: rgb(42, 63, 95); text-shadow: rgb(255, 255, 255) -1px 1px 1px, rgb(255, 255, 255) 1px 1px 1px, rgb(255, 255, 255) 1px -1px 1px, rgb(255, 255, 255) -1px -1px 1px; font-family: 'Open Sans', verdana, arial, sans-serif; font-size: 8px; fill-opacity: 1;"><textPath class="node-label-text-path" alignment-baseline="middle" xlink:href="#e2db1b_0_node_13" startOffset="100%" text-anchor="end" style="fill: rgb(0, 0, 0);">Building H (144.07KW)</textPath></text></g></g><g class="sankey-node" transform="translate(520.000, 227.320)" style="opacity: 1;"><rect class="node-rect" width="20" height="2.8187094017418985" style="stroke-width: 0.5; stroke: rgb(0, 0, 0); stroke-opacity: 1; fill: rgb(255, 0, 0); fill-opacity: 1;"/><rect class="node-capture" x="-10" y="-7.5" width="40" height="17.8187094017419" style="fill-opacity: 0;"/><g class="node-entered" transform="translate(0 2.4093547008709493)"><path class="node-label-guide" id="e2db1b_0_node_14" d="M-540,0L-4,0" transform="matrix(1 0 0 1 0 0)"/><text class="node-label" transform="scale(1 1)" style="user-select: none; cursor: default; fill: rgb(42, 63, 95); text-shadow: rgb(255, 255, 255) -1px 1px 1px, rgb(255, 255, 255) 1px 1px 1px, rgb(255, 255, 255) 1px -1px 1px, rgb(255, 255, 255) -1px -1px 1px; font-family: 'Open Sans', verdana, arial, sans-serif; font-size: 8px; fill-opacity: 1;"><textPath class="node-label-text-path" alignment-baseline="middle" xlink:href="#e2db1b_0_node_14" startOffset="100%" text-anchor="end" style="fill: rgb(0, 0, 0);">Building J (69.47KW)</textPath></text></g></g><g class="sankey-node" transform="translate(520.000, 319.608)" style="opacity: 1;"><rect class="node-rect" width="20" height="0.5" style="stroke-width: 0.5; stroke: rgb(0, 0, 0); stroke-opacity: 1; fill: rgb(255, 0, 0); fill-opacity: 1;"/><rect class="node-capture" x="-10" y="-7.5" width="40" height="15.5" style="fill-opacity: 0;"/><g class="node-entered" transform="translate(0 1.1961776300190081)"><path class="node-label-guide" id="e2db1b_0_node_15" d="M-540,0L-4,0" transform="matrix(1 0 0 1 0 0)"/><text class="node-label" transform="scale(1 1)" style="user-select: none; cursor: default; fill: rgb(42, 63, 95); text-shadow: rgb(255, 255, 255) -1px 1px 1px, rgb(255, 255, 255) 1px 1px 1px, rgb(255, 255, 255) 1px -1px 1px, rgb(255, 255, 255) -1px -1px 1px; font-family: 'Open Sans', verdana, arial, sans-serif; font-size: 8px; fill-opacity: 1;"><textPath class="node-label-text-path" alignment-baseline="middle" xlink:href="#e2db1b_0_node_15" startOffset="100%" text-anchor="end" style="fill: rgb(0, 0, 0);">Building K (9.67KW)</textPath></text></g></g><g class="sankey-node" transform="translate(520.000, 241.367)" style="opacity: 1;"><rect class="node-rect" width="20" height="3.2792297948579403" style="stroke-width: 0.5; stroke: rgb(0, 0, 0); stroke-opacity: 1; fill: rgb(255, 0, 0); fill-opacity: 1;"/><rect class="node-capture" x="-10" y="-7.5" width="40" height="18.27922979485794" style="fill-opacity: 0;"/><g class="node-entered" transform="translate(0 2.63961489742897)"><path class="node-label-guide" id="e2db1b_0_node_16" d="M-540,0L-4,0" transform="matrix(1 0 0 1 0 0)"/><text class="node-label" transform="scale(1 1)" style="user-select: none; cursor: default; fill: rgb(42, 63, 95); text-shadow: rgb(255, 255, 255) -1px 1px 1px, rgb(255, 255, 255) 1px 1px 1px, rgb(255, 255, 255) 1px -1px 1px, rgb(255, 255, 255) -1px -1px 1px; font-family: 'Open Sans', verdana, arial, sans-serif; font-size: 8px; fill-opacity: 1;"><textPath class="node-label-text-path" alignment-baseline="middle" xlink:href="#e2db1b_0_node_16" startOffset="100%" text-anchor="end" style="fill: rgb(0, 0, 0);">Building M (80.82KW)</textPath></text></g></g><g class="sankey-node" transform="translate(520.000, 198.387)" style="opacity: 1;"><rect class="node-rect" width="20" height="3.8610678950591932" style="stroke-width: 0.5; stroke: rgb(0, 0, 0); stroke-opacity: 1; fill: rgb(255, 0, 0); fill-opacity: 1;"/><rect class="node-capture" x="-10" y="-7.5" width="40" height="18.861067895059193" style="fill-opacity: 0;"/><g class="node-entered" transform="translate(0 2.9305339475295966)"><path class="node-label-guide" id="e2db1b_0_node_17" d="M-540,0L-4,0" transform="matrix(1 0 0 1 0 0)"/><text class="node-label" transform="scale(1 1)" style="user-select: none; cursor: default; fill: rgb(42, 63, 95); text-shadow: rgb(255, 255, 255) -1px 1px 1px, rgb(255, 255, 255) 1px 1px 1px, rgb(255, 255, 255) 1px -1px 1px, rgb(255, 255, 255) -1px -1px 1px; font-family: 'Open Sans', verdana, arial, sans-serif; font-size: 8px; fill-opacity: 1;"><textPath class="node-label-text-path" alignment-baseline="middle" xlink:href="#e2db1b_0_node_17" startOffset="100%" text-anchor="end" style="fill: rgb(0, 0, 0);">Building N (95.16KW)</textPath></text></g></g><g class="sankey-node" transform="translate(520.000, 182.727)" style="opacity: 1;"><rect class="node-rect" width="20" height="4.431950884587138" style="stroke-width: 0.5; stroke: rgb(0, 0, 0); stroke-opacity: 1; fill: rgb(255, 0, 0); fill-opacity: 1;"/><rect class="node-capture" x="-10" y="-7.5" width="40" height="19.43195088458714" style="fill-opacity: 0;"/><g class="node-entered" transform="translate(0 3.215975442293569)"><path class="node-label-guide" id="e2db1b_0_node_18" d="M-540,0L-4,0" transform="matrix(1 0 0 1 0 0)"/><text class="node-label" transform="scale(1 1)" style="user-select: none; cursor: default; fill: rgb(42, 63, 95); text-shadow: rgb(255, 255, 255) -1px 1px 1px, rgb(255, 255, 255) 1px 1px 1px, rgb(255, 255, 255) 1px -1px 1px, rgb(255, 255, 255) -1px -1px 1px; font-family: 'Open Sans', verdana, arial, sans-serif; font-size: 8px; fill-opacity: 1;"><textPath class="node-label-text-path" alignment-baseline="middle" xlink:href="#e2db1b_0_node_18" startOffset="100%" text-anchor="end" style="fill: rgb(0, 0, 0);">Building P (109.23KW)</textPath></text></g></g><g class="sankey-node" transform="translate(520.000, 282.551)" style="opacity: 1;"><rect class="node-rect" width="20" height="1.7183293963404367" style="stroke-width: 0.5; stroke: rgb(0, 0, 0); stroke-opacity: 1; fill: rgb(255, 0, 0); fill-opacity: 1;"/><rect class="node-capture" x="-10" y="-7.5" width="40" height="16.718329396340437" style="fill-opacity: 0;"/><g class="node-entered" transform="translate(0 1.8591646981702183)"><path class="node-label-guide" id="e2db1b_0_node_19" d="M-540,0L-4,0" transform="matrix(1 0 0 1 0 0)"/><text class="node-label" transform="scale(1 1)" style="user-select: none; cursor: default; fill: rgb(42, 63, 95); text-shadow: rgb(255, 255, 255) -1px 1px 1px, rgb(255, 255, 255) 1px 1px 1px, rgb(255, 255, 255) 1px -1px 1px, rgb(255, 255, 255) -1px -1px 1px; font-family: 'Open Sans', verdana, arial, sans-serif; font-size: 8px; fill-opacity: 1;"><textPath class="node-label-text-path" alignment-baseline="middle" xlink:href="#e2db1b_0_node_19" startOffset="100%" text-anchor="end" style="fill: rgb(0, 0, 0);">Building S (42.35KW)</textPath></text></g></g><g class="sankey-node" transform="translate(520.000, 69.825)" style="opacity: 1;"><rect class="node-rect" width="20" height="8.604225071734447" style="stroke-width: 0.5; stroke: rgb(0, 0, 0); stroke-opacity: 1; fill: rgb(255, 0, 0); fill-opacity: 1;"/><rect class="node-capture" x="-10" y="-7.5" width="40" height="23.604225071734447" style="fill-opacity: 0;"/><g class="node-entered" transform="translate(0 5.302112535867224)"><path class="node-label-guide" id="e2db1b_0_node_20" d="M-540,0L-4,0" transform="matrix(1 0 0 1 0 0)"/><text class="node-label" transform="scale(1 1)" style="user-select: none; cursor: default; fill: rgb(42, 63, 95); text-shadow: rgb(255, 255, 255) -1px 1px 1px, rgb(255, 255, 255) 1px 1px 1px, rgb(255, 255, 255) 1px -1px 1px, rgb(255, 255, 255) -1px -1px 1px; font-family: 'Open Sans', verdana, arial, sans-serif; font-size: 8px; fill-opacity: 1;"><textPath class="node-label-text-path" alignment-baseline="middle" xlink:href="#e2db1b_0_node_20" startOffset="100%" text-anchor="end" style="fill: rgb(0, 0, 0);">Building T (212.06KW)</textPath></text></g></g><g class="sankey-node" transform="translate(520.000, 307.458)" style="opacity: 1;"><rect class="node-rect" width="20" height="0.9214465310717515" style="stroke-width: 0.5; stroke: rgb(0, 0, 0); stroke-opacity: 1; fill: rgb(255, 0, 0); fill-opacity: 1;"/><rect class="node-capture" x="-10" y="-7.5" width="40" height="15.921446531071751" style="fill-opacity: 0;"/><g class="node-entered" transform="translate(0 1.4607232655358757)"><path class="node-label-guide" id="e2db1b_0_node_21" d="M-540,0L-4,0" transform="matrix(1 0 0 1 0 0)"/><text class="node-label" transform="scale(1 1)" style="user-select: none; cursor: default; fill: rgb(42, 63, 95); text-shadow: rgb(255, 255, 255) -1px 1px 1px, rgb(255, 255, 255) 1px 1px 1px, rgb(255, 255, 255) 1px -1px 1px, rgb(255, 255, 255) -1px -1px 1px; font-family: 'Open Sans', verdana, arial, sans-serif; font-size: 8px; fill-opacity: 1;"><textPath class="node-label-text-path" alignment-baseline="middle" xlink:href="#e2db1b_0_node_21" startOffset="100%" text-anchor="end" style="fill: rgb(0, 0, 0);">Building V (22.71KW)</textPath></text></g></g><g class="sankey-node" transform="translate(520.000, 268.717)" style="opacity: 1;"><rect class="node-rect" width="20" height="2.6060991057129286" style="stroke-width: 0.5; stroke: rgb(0, 0, 0); stroke-opacity: 1; fill: rgb(255, 0, 0); fill-opacity: 1;"/><rect class="node-capture" x="-10" y="-7.5" width="40" height="17.60609910571293" style="fill-opacity: 0;"/><g class="node-entered" transform="translate(0 2.3030495528564643)"><path class="node-label-guide" id="e2db1b_0_node_22" d="M-540,0L-4,0" transform="matrix(1 0 0 1 0 0)"/><text class="node-label" transform="scale(1 1)" style="user-select: none; cursor: default; fill: rgb(42, 63, 95); text-shadow: rgb(255, 255, 255) -1px 1px 1px, rgb(255, 255, 255) 1px 1px 1px, rgb(255, 255, 255) 1px -1px 1px, rgb(255, 255, 255) -1px -1px 1px; font-family: 'Open Sans', verdana, arial, sans-serif; font-size: 8px; fill-opacity: 1;"><textPath class="node-label-text-path" alignment-baseline="middle" xlink:href="#e2db1b_0_node_22" startOffset="100%" text-anchor="end" style="fill: rgb(0, 0, 0);">Building Z (64.23KW)</textPath></text></g></g><g class="sankey-node" transform="translate(520.000, 89.657)" style="opacity: 1;"><rect class="node-rect" width="20" height="9.379197715656659" style="stroke-width: 0.5; stroke: rgb(0, 0, 0); stroke-opacity: 1; fill: rgb(255, 0, 0); fill-opacity: 1;"/><rect class="node-capture" x="-10" y="-7.5" width="40" height="24.37919771565666" style="fill-opacity: 0;"/><g class="node-entered" transform="translate(0 5.689598857828329)"><path class="node-label-guide" id="e2db1b_0_node_23" d="M-540,0L-4,0" transform="matrix(1 0 0 1 0 0)"/><text class="node-label" transform="scale(1 1)" style="user-select: none; cursor: default; fill: rgb(42, 63, 95); text-shadow: rgb(255, 255, 255) -1px 1px 1px, rgb(255, 255, 255) 1px 1px 1px, rgb(255, 255, 255) 1px -1px 1px, rgb(255, 255, 255) -1px -1px 1px; font-family: 'Open Sans', verdana, arial, sans-serif; font-size: 8px; fill-opacity: 1;"><textPath class="node-label-text-path" alignment-baseline="middle" xlink:href="#e2db1b_0_node_23" startOffset="100%" text-anchor="end" style="fill: rgb(0, 0, 0);">Residence 1&amp;2 (231.16KW)</textPath></text></g></g><g class="sankey-node" transform="translate(520.000, 128.944)" style="opacity: 1;"><rect class="node-rect" width="20" height="8.510903758591866" style="stroke-width: 0.5; stroke: rgb(0, 0, 0); stroke-opacity: 1; fill: rgb(255, 0, 0); fill-opacity: 1;"/><rect class="node-capture" x="-10" y="-7.5" width="40" height="23.510903758591866" style="fill-opacity: 0;"/><g class="node-entered" transform="translate(0 5.255451879295933)"><path class="node-label-guide" id="e2db1b_0_node_24" d="M-540,0L-4,0" transform="matrix(1 0 0 1 0 0)"/><text class="node-label" transform="scale(1 1)" style="user-select: none; cursor: default; fill: rgb(42, 63, 95); text-shadow: rgb(255, 255, 255) -1px 1px 1px, rgb(255, 255, 255) 1px 1px 1px, rgb(255, 255, 255) 1px -1px 1px, rgb(255, 255, 255) -1px -1px 1px; font-family: 'Open Sans', verdana, arial, sans-serif; font-size: 8px; fill-opacity: 1;"><textPath class="node-label-text-path" alignment-baseline="middle" xlink:href="#e2db1b_0_node_24" startOffset="100%" text-anchor="end" style="fill: rgb(0, 0, 0);">Residence 3 (209.76KW)</textPath></text></g></g><g class="sankey-node" transform="translate(520.000, 165.756)" style="opacity: 1;"><rect class="node-rect" width="20" height="5.742912461818804" style="stroke-width: 0.5; stroke: rgb(0, 0, 0); stroke-opacity: 1; fill: rgb(255, 0, 0); fill-opacity: 1;"/><rect class="node-capture" x="-10" y="-7.5" width="40" height="20.742912461818804" style="fill-opacity: 0;"/><g class="node-entered" transform="translate(0 3.871456230909402)"><path class="node-label-guide" id="e2db1b_0_node_25" d="M-540,0L-4,0" transform="matrix(1 0 0 1 0 0)"/><text class="node-label" transform="scale(1 1)" style="user-select: none; cursor: default; fill: rgb(42, 63, 95); text-shadow: rgb(255, 255, 255) -1px 1px 1px, rgb(255, 255, 255) 1px 1px 1px, rgb(255, 255, 255) 1px -1px 1px, rgb(255, 255, 255) -1px -1px 1px; font-family: 'Open Sans', verdana, arial, sans-serif; font-size: 8px; fill-opacity: 1;"><textPath class="node-label-text-path" alignment-baseline="middle" xlink:href="#e2db1b_0_node_25" startOffset="100%" text-anchor="end" style="fill: rgb(0, 0, 0);">Plant Chillers (141.54KW)</textPath></text></g></g></g></g><defs id="topdefs-b8b871"><g class="clips"/></defs><g class="layer-above"><g class="imagelayer"/><g class="shapelayer"/></g><g class="infolayer"><g class="g-gtitle"><text class="gtitle" x="350" y="50" text-anchor="middle" dy="0em" style="font-family: 'Open Sans', verdana, arial, sans-serif; font-size: 11px; fill: rgb(42, 63, 95); opacity: 1; font-weight: normal; white-space: pre;">Algonquin College Power Usage at 21:00 Jan, 08 2020 (In KW)</text></g><g class="first-render"/></g></svg>