<svg class="main-svg" xmlns="http://www.w3.org/2000/svg" xmlns:xlink="http://www.w3.org/1999/xlink" width="700" height="500" viewBox="0 0 700 500"><rect x="0" y="0" width="700" height="500" style="fill: rgb(255, 255, 255); fill-opacity: 1;"/><defs id="defs-61e509"><g class="clips"/><g class="gradients"/></defs><g class="bglayer"/><g class="layer-below"><g class="imagelayer"/><g class="shapelayer"/></g><g class="cartesianlayer"/><g class="polarlayer"/><g class="ternarylayer"/><g class="geolayer"/><g class="funnelarealayer"/><g class="pielayer"/><g class="treemaplayer"/><g class="sunburstlayer"/><g class="glimages"/><g class="sankey" transform="translate(80,100)matrix(1 0 0 1 0 0)" style="box-sizing: content-box; position: absolute; left: 0px; shape-rendering: geometricPrecision; pointer-events: auto;"><g class="sankey-links" style="fill: none;"><path class="sankey-link" d="M20,168.14183387667083C140,168.14183387667083 140,152.1989078138475 260,152.1989078138475L260,167.03544485631508C140,167.03544485631508 140,182.9783709191384 20,182.9783709191384Z" style="stroke: rgb(68, 68, 68); stroke-opacity: 1; fill: rgb(0, 0, 0); fill-opacity: 0.2; stroke-width: 0; opacity: 1;"/><path class="sankey-link" d="M20,61.9195886544429C140,61.9195886544429 140,60.19888481384174 260,60.19888481384174L260,152.1989078138475C140,152.1989078138475 140,153.9196116544487 20,153.9196116544487Z" style="stroke: rgb(68, 68, 68); stroke-opacity: 1; fill: rgb(0, 0, 0); fill-opacity: 0.2; stroke-width: 0; opacity: 1;"/><path class="sankey-link" d="M280,60.19888481384173C400,60.19888481384173 400,1.0658141036401503e-13 520,1.0658141036401503e-13L520,26.75606002234845C400,26.75606002234845 400,86.95494483619008 280,86.95494483619008Z" style="stroke: rgb(68, 68, 68); stroke-opacity: 1; fill: rgb(0, 0, 0); fill-opacity: 0.2; stroke-width: 0; opacity: 1;"/><path class="sankey-link" d="M280,86.95494483619008C400,86.95494483619008 400,40.97828224457069 520,40.97828224457069L520,51.7398316016247C400,51.7398316016247 400,97.71649419324409 280,97.71649419324409Z" style="stroke: rgb(68, 68, 68); stroke-opacity: 1; fill: rgb(0, 0, 0); fill-opacity: 0.2; stroke-width: 0; opacity: 1;"/><path class="sankey-link" d="M280,145.9637595883938C400,145.9637595883938 400,185.32043033010765 520,185.32043033010765L520,188.9286712321679C400,188.9286712321679 400,149.57200049045403 280,149.57200049045403Z" style="stroke: rgb(68, 68, 68); stroke-opacity: 1; fill: rgb(0, 0, 0); fill-opacity: 0.2; stroke-width: 0; opacity: 1;"/><path class="sankey-link" d="M280,131.50258263976622C400,131.50258263976622 400,142.41480893703576 520,142.41480893703576L520,150.75614435570296C400,150.75614435570296 400,139.84391805843342 280,139.84391805843342Z" style="stroke: rgb(68, 68, 68); stroke-opacity: 1; fill: rgb(0, 0, 0); fill-opacity: 0.2; stroke-width: 0; opacity: 1;"/><path class="sankey-link" d="M280,165.06909769806168C400,165.06909769806168 400,275.5368795508867 520,275.5368795508867L520,276.65866649800006C400,276.65866649800006 400,166.19088464517506 280,166.19088464517506Z" style="stroke: rgb(68, 68, 68); stroke-opacity: 1; fill: rgb(0, 0, 0); fill-opacity: 0.2; stroke-width: 0; opacity: 1;"/><path class="sankey-link" d="M280,110.27817733366487C400,110.27817733366487 400,92.74595918648993 520,92.74595918648993L520,102.54764163691056C400,102.54764163691056 400,120.0798597840855 280,120.0798597840855Z" style="stroke: rgb(68, 68, 68); stroke-opacity: 1; fill: rgb(0, 0, 0); fill-opacity: 0.2; stroke-width: 0; opacity: 1;"/><path class="sankey-link" d="M280,149.57200049045403C400,149.57200049045403 400,203.15089345439014 520,203.15089345439014L520,207.64908124560378C400,207.64908124560378 400,154.07018828166767 280,154.07018828166767Z" style="stroke: rgb(68, 68, 68); stroke-opacity: 1; fill: rgb(0, 0, 0); fill-opacity: 0.2; stroke-width: 0; opacity: 1;"/><path class="sankey-link" d="M280,166.1908846451751C400,166.1908846451751 400,290.8808887202223 520,290.8808887202223L520,291.2120888030223C400,291.2120888030223 400,166.5220847279751 280,166.5220847279751Z" style="stroke: rgb(0, 0, 0); stroke-opacity: 0.2; fill: rgb(0, 0, 0); fill-opacity: 0.2; stroke-width: 1; opacity: 1;"/><path class="sankey-link" d="M280,166.5220847279751C400,166.5220847279751 400,305.43431102524454 520,305.43431102524454L520,305.55636438909124C400,305.55636438909124 400,166.64413809182176 280,166.64413809182176Z" style="stroke: rgb(0, 0, 0); stroke-opacity: 0.2; fill: rgb(0, 0, 0); fill-opacity: 0.2; stroke-width: 1; opacity: 1;"/><path class="sankey-link" d="M280,154.07018828166764C400,154.07018828166764 400,221.871303467826 520,221.871303467826L520,226.61421132021962C400,226.61421132021962 400,158.81309613406125 280,158.81309613406125Z" style="stroke: rgb(68, 68, 68); stroke-opacity: 1; fill: rgb(0, 0, 0); fill-opacity: 0.2; stroke-width: 0; opacity: 1;"/><path class="sankey-link" d="M280,139.84391805843342C400,139.84391805843342 400,164.97836657792513 520,164.97836657792513L520,171.09820810788554C400,171.09820810788554 400,145.96375958839383 280,145.96375958839383Z" style="stroke: rgb(68, 68, 68); stroke-opacity: 1; fill: rgb(0, 0, 0); fill-opacity: 0.2; stroke-width: 0; opacity: 1;"/><path class="sankey-link" d="M280,166.6441380918218C400,166.6441380918218 400,319.77858661131336 520,319.77858661131336L520,320C400,320 400,166.8655514805085 280,166.8655514805085Z" style="stroke: rgb(0, 0, 0); stroke-opacity: 0.2; fill: rgb(0, 0, 0); fill-opacity: 0.2; stroke-width: 1; opacity: 1;"/><path class="sankey-link" d="M280,120.07985978408549C400,120.07985978408549 400,116.76986385913278 520,116.76986385913278L520,128.1925867148135C400,128.1925867148135 400,131.50258263976622 280,131.50258263976622Z" style="stroke: rgb(68, 68, 68); stroke-opacity: 1; fill: rgb(0, 0, 0); fill-opacity: 0.2; stroke-width: 0; opacity: 1;"/><path class="sankey-link" d="M280,158.81309613406128C400,158.81309613406128 400,240.83643354244185 520,240.83643354244185L520,243.83318095829537C400,243.83318095829537 400,161.8098435499148 280,161.8098435499148Z" style="stroke: rgb(68, 68, 68); stroke-opacity: 1; fill: rgb(0, 0, 0); fill-opacity: 0.2; stroke-width: 0; opacity: 1;"/><path class="sankey-link" d="M280,161.8098435499148C400,161.8098435499148 400,258.0554031805176 520,258.0554031805176L520,261.31465732866445C400,261.31465732866445 400,165.06909769806165 280,165.06909769806165Z" style="stroke: rgb(68, 68, 68); stroke-opacity: 1; fill: rgb(0, 0, 0); fill-opacity: 0.2; stroke-width: 0; opacity: 1;"/><path class="sankey-link" d="M280,97.71649419324409C400,97.71649419324409 400,65.96205382384693 520,65.96205382384693L520,78.52373696426773C400,78.52373696426773 400,110.27817733366489 280,110.27817733366489Z" style="stroke: rgb(68, 68, 68); stroke-opacity: 1; fill: rgb(0, 0, 0); fill-opacity: 0.2; stroke-width: 0; opacity: 1;"/></g><g class="sankey-node-set" style="cursor: move;"><g class="sankey-node" transform="translate(0.000, 168.142)" style="opacity: 1;"><rect class="node-rect" width="20" height="14.836537042467569" style="stroke-width: 0.5; stroke: rgb(0, 0, 0); stroke-opacity: 1; fill: rgb(46, 139, 87); fill-opacity: 1;"/><rect class="node-capture" x="-10" y="-7.5" width="40" height="29.83653704246757" style="fill-opacity: 0;"/><g class="node-entered" transform="translate(0 8.418268521233784)"><path class="node-label-guide" id="ce17a9_0_node_0" d="M24,0L540,0" transform="matrix(1 0 0 1 0 0)"/><text class="node-label" transform="scale(1 1)" style="user-select: none; cursor: default; fill: rgb(42, 63, 95); text-shadow: rgb(255, 255, 255) -1px 1px 1px, rgb(255, 255, 255) 1px 1px 1px, rgb(255, 255, 255) 1px -1px 1px, rgb(255, 255, 255) -1px -1px 1px; font-family: 'Open Sans', verdana, arial, sans-serif; font-size: 9px; fill-opacity: 1;"><textPath class="node-label-text-path" alignment-baseline="middle" xlink:href="#ce17a9_0_node_0" startOffset="0%" text-anchor="start" style="fill: rgb(0, 0, 0);">Hydro Power (241.90KW )</textPath></text></g></g><g class="sankey-node" transform="translate(0.000, 61.920)" style="opacity: 1;"><rect class="node-rect" width="20" height="92.00002300000571" style="stroke-width: 0.5; stroke: rgb(0, 0, 0); stroke-opacity: 1; fill: rgb(0, 128, 128); fill-opacity: 1;"/><rect class="node-capture" x="-10" y="-7.5" width="40" height="107.00002300000571" style="fill-opacity: 0;"/><g class="node-entered" transform="translate(0 47.000011500002856)"><path class="node-label-guide" id="ce17a9_0_node_2" d="M24,0L540,0" transform="matrix(1 0 0 1 0 0)"/><text class="node-label" transform="scale(1 1)" style="user-select: none; cursor: default; fill: rgb(42, 63, 95); text-shadow: rgb(255, 255, 255) -1px 1px 1px, rgb(255, 255, 255) 1px 1px 1px, rgb(255, 255, 255) 1px -1px 1px, rgb(255, 255, 255) -1px -1px 1px; font-family: 'Open Sans', verdana, arial, sans-serif; font-size: 9px; fill-opacity: 1;"><textPath class="node-label-text-path" alignment-baseline="middle" xlink:href="#ce17a9_0_node_2" startOffset="0%" text-anchor="start" style="fill: rgb(0, 0, 0);">COGEN 2 (1500.00KW)</textPath></text></g></g><g class="sankey-node" transform="translate(260.000, 60.199)" style="opacity: 1;"><rect class="node-rect" width="20" height="106.83656004247337" style="stroke-width: 0.5; stroke: rgb(0, 0, 0); stroke-opacity: 1; fill: rgb(255, 255, 0); fill-opacity: 1;"/><rect class="node-capture" x="-10" y="-7.5" width="40" height="121.83656004247337" style="fill-opacity: 0;"/><g class="node-entered" transform="translate(0 54.41828002123668)"><path class="node-label-guide" id="ce17a9_0_node_5" d="M24,0L540,0" transform="matrix(1 0 0 1 0 0)"/><text class="node-label" transform="scale(1 1)" style="user-select: none; cursor: default; fill: rgb(42, 63, 95); text-shadow: rgb(255, 255, 255) -1px 1px 1px, rgb(255, 255, 255) 1px 1px 1px, rgb(255, 255, 255) 1px -1px 1px, rgb(255, 255, 255) -1px -1px 1px; font-family: 'Open Sans', verdana, arial, sans-serif; font-size: 9px; fill-opacity: 1;"><textPath class="node-label-text-path" alignment-baseline="middle" xlink:href="#ce17a9_0_node_5" startOffset="0%" text-anchor="start" style="fill: rgb(0, 0, 0);">Total Power (1741.90KW)</textPath></text></g></g><g class="sankey-node" transform="translate(520.000, 0.000)" style="opacity: 1;"><rect class="node-rect" width="20" height="26.756060022348358" style="stroke-width: 0.5; stroke: rgb(0, 0, 0); stroke-opacity: 1; fill: rgb(0, 0, 0); fill-opacity: 1;"/><rect class="node-capture" x="-10" y="-7.5" width="40" height="41.75606002234836" style="fill-opacity: 0;"/><g class="node-entered" transform="translate(0 14.378030011174179)"><path class="node-label-guide" id="ce17a9_0_node_6" d="M-540,0L-4,0" transform="matrix(1 0 0 1 0 0)"/><text class="node-label" transform="scale(1 1)" style="user-select: none; cursor: default; fill: rgb(42, 63, 95); text-shadow: rgb(255, 255, 255) -1px 1px 1px, rgb(255, 255, 255) 1px 1px 1px, rgb(255, 255, 255) 1px -1px 1px, rgb(255, 255, 255) -1px -1px 1px; font-family: 'Open Sans', verdana, arial, sans-serif; font-size: 9px; fill-opacity: 1;"><textPath class="node-label-text-path" alignment-baseline="middle" xlink:href="#ce17a9_0_node_6" startOffset="100%" text-anchor="end" style="fill: rgb(0, 0, 0);">Building A (429.34KW)</textPath></text></g></g><g class="sankey-node" transform="translate(520.000, 40.978)" style="opacity: 1;"><rect class="node-rect" width="20" height="10.761549357054008" style="stroke-width: 0.5; stroke: rgb(0, 0, 0); stroke-opacity: 1; fill: rgb(0, 0, 0); fill-opacity: 1;"/><rect class="node-capture" x="-10" y="-7.5" width="40" height="25.761549357054008" style="fill-opacity: 0;"/><g class="node-entered" transform="translate(0 6.380774678527004)"><path class="node-label-guide" id="ce17a9_0_node_7" d="M-540,0L-4,0" transform="matrix(1 0 0 1 0 0)"/><text class="node-label" transform="scale(1 1)" style="user-select: none; cursor: default; fill: rgb(42, 63, 95); text-shadow: rgb(255, 255, 255) -1px 1px 1px, rgb(255, 255, 255) 1px 1px 1px, rgb(255, 255, 255) 1px -1px 1px, rgb(255, 255, 255) -1px -1px 1px; font-family: 'Open Sans', verdana, arial, sans-serif; font-size: 9px; fill-opacity: 1;"><textPath class="node-label-text-path" alignment-baseline="middle" xlink:href="#ce17a9_0_node_7" startOffset="100%" text-anchor="end" style="fill: rgb(0, 0, 0);">Building B (175.46KW)</textPath></text></g></g><g class="sankey-node" transform="translate(520.000, 185.320)" style="opacity: 1;"><rect class="node-rect" width="20" height="3.608240902060288" style="stroke-width: 0.5; stroke: rgb(0, 0, 0); stroke-opacity: 1; fill: rgb(0, 0, 0); fill-opacity: 1;"/><rect class="node-capture" x="-10" y="-7.5" width="40" height="18.608240902060288" style="fill-opacity: 0;"/><g class="node-entered" transform="translate(0 2.804120451030144)"><path class="node-label-guide" id="ce17a9_0_node_9" d="M-540,0L-4,0" transform="matrix(1 0 0 1 0 0)"/><text class="node-label" transform="scale(1 1)" style="user-select: none; cursor: default; fill: rgb(42, 63, 95); text-shadow: rgb(255, 255, 255) -1px 1px 1px, rgb(255, 255, 255) 1px 1px 1px, rgb(255, 255, 255) 1px -1px 1px, rgb(255, 255, 255) -1px -1px 1px; font-family: 'Open Sans', verdana, arial, sans-serif; font-size: 9px; fill-opacity: 1;"><textPath class="node-label-text-path" alignment-baseline="middle" xlink:href="#ce17a9_0_node_9" startOffset="100%" text-anchor="end" style="fill: rgb(0, 0, 0);">Building D (58.83KW)</textPath></text></g></g><g class="sankey-node" transform="translate(520.000, 142.415)" style="opacity: 1;"><rect class="node-rect" width="20" height="8.341335418667143" style="stroke-width: 0.5; stroke: rgb(0, 0, 0); stroke-opacity: 1; fill: rgb(0, 0, 0); fill-opacity: 1;"/><rect class="node-capture" x="-10" y="-7.5" width="40" height="23.341335418667143" style="fill-opacity: 0;"/><g class="node-entered" transform="translate(0 5.170667709333571)"><path class="node-label-guide" id="ce17a9_0_node_10" d="M-540,0L-4,0" transform="matrix(1 0 0 1 0 0)"/><text class="node-label" transform="scale(1 1)" style="user-select: none; cursor: default; fill: rgb(42, 63, 95); text-shadow: rgb(255, 255, 255) -1px 1px 1px, rgb(255, 255, 255) 1px 1px 1px, rgb(255, 255, 255) 1px -1px 1px, rgb(255, 255, 255) -1px -1px 1px; font-family: 'Open Sans', verdana, arial, sans-serif; font-size: 9px; fill-opacity: 1;"><textPath class="node-label-text-path" alignment-baseline="middle" xlink:href="#ce17a9_0_node_10" startOffset="100%" text-anchor="end" style="fill: rgb(0, 0, 0);">Building E (136.00KW)</textPath></text></g></g><g class="sankey-node" transform="translate(520.000, 275.537)" style="opacity: 1;"><rect class="node-rect" width="20" height="1.1217869471133781" style="stroke-width: 0.5; stroke: rgb(0, 0, 0); stroke-opacity: 1; fill: rgb(0, 0, 0); fill-opacity: 1;"/><rect class="node-capture" x="-10" y="-7.5" width="40" height="16.121786947113378" style="fill-opacity: 0;"/><g class="node-entered" transform="translate(0 1.560893473556689)"><path class="node-label-guide" id="ce17a9_0_node_11" d="M-540,0L-4,0" transform="matrix(1 0 0 1 0 0)"/><text class="node-label" transform="scale(1 1)" style="user-select: none; cursor: default; fill: rgb(42, 63, 95); text-shadow: rgb(255, 255, 255) -1px 1px 1px, rgb(255, 255, 255) 1px 1px 1px, rgb(255, 255, 255) 1px -1px 1px, rgb(255, 255, 255) -1px -1px 1px; font-family: 'Open Sans', verdana, arial, sans-serif; font-size: 9px; fill-opacity: 1;"><textPath class="node-label-text-path" alignment-baseline="middle" xlink:href="#ce17a9_0_node_11" startOffset="100%" text-anchor="end" style="fill: rgb(0, 0, 0);">Building G (18.29KW)</textPath></text></g></g><g class="sankey-node" transform="translate(520.000, 92.746)" style="opacity: 1;"><rect class="node-rect" width="20" height="9.801682450420628" style="stroke-width: 0.5; stroke: rgb(0, 0, 0); stroke-opacity: 1; fill: rgb(0, 0, 0); fill-opacity: 1;"/><rect class="node-capture" x="-10" y="-7.5" width="40" height="24.80168245042063" style="fill-opacity: 0;"/><g class="node-entered" transform="translate(0 5.900841225210314)"><path class="node-label-guide" id="ce17a9_0_node_12" d="M-540,0L-4,0" transform="matrix(1 0 0 1 0 0)"/><text class="node-label" transform="scale(1 1)" style="user-select: none; cursor: default; fill: rgb(42, 63, 95); text-shadow: rgb(255, 255, 255) -1px 1px 1px, rgb(255, 255, 255) 1px 1px 1px, rgb(255, 255, 255) 1px -1px 1px, rgb(255, 255, 255) -1px -1px 1px; font-family: 'Open Sans', verdana, arial, sans-serif; font-size: 9px; fill-opacity: 1;"><textPath class="node-label-text-path" alignment-baseline="middle" xlink:href="#ce17a9_0_node_12" startOffset="100%" text-anchor="end" style="fill: rgb(0, 0, 0);">Building H (159.81KW)</textPath></text></g></g><g class="sankey-node" transform="translate(520.000, 203.151)" style="opacity: 1;"><rect class="node-rect" width="20" height="4.498187791213638" style="stroke-width: 0.5; stroke: rgb(0, 0, 0); stroke-opacity: 1; fill: rgb(0, 0, 0); fill-opacity: 1;"/><rect class="node-capture" x="-10" y="-7.5" width="40" height="19.49818779121364" style="fill-opacity: 0;"/><g class="node-entered" transform="translate(0 3.249093895606819)"><path class="node-label-guide" id="ce17a9_0_node_13" d="M-540,0L-4,0" transform="matrix(1 0 0 1 0 0)"/><text class="node-label" transform="scale(1 1)" style="user-select: none; cursor: default; fill: rgb(42, 63, 95); text-shadow: rgb(255, 255, 255) -1px 1px 1px, rgb(255, 255, 255) 1px 1px 1px, rgb(255, 255, 255) 1px -1px 1px, rgb(255, 255, 255) -1px -1px 1px; font-family: 'Open Sans', verdana, arial, sans-serif; font-size: 9px; fill-opacity: 1;"><textPath class="node-label-text-path" alignment-baseline="middle" xlink:href="#ce17a9_0_node_13" startOffset="100%" text-anchor="end" style="fill: rgb(0, 0, 0);">Building J (73.34KW)</textPath></text></g></g><g class="sankey-node" transform="translate(520.000, 290.881)" style="opacity: 1;"><rect class="node-rect" width="20" height="0.5" style="stroke-width: 0.5; stroke: rgb(0, 0, 0); stroke-opacity: 1; fill: rgb(0, 0, 0); fill-opacity: 1;"/><rect class="node-capture" x="-10" y="-7.5" width="40" height="15.5" style="fill-opacity: 0;"/><g class="node-entered" transform="translate(0 1.1656000414000118)"><path class="node-label-guide" id="ce17a9_0_node_14" d="M-540,0L-4,0" transform="matrix(1 0 0 1 0 0)"/><text class="node-label" transform="scale(1 1)" style="user-select: none; cursor: default; fill: rgb(42, 63, 95); text-shadow: rgb(255, 255, 255) -1px 1px 1px, rgb(255, 255, 255) 1px 1px 1px, rgb(255, 255, 255) 1px -1px 1px, rgb(255, 255, 255) -1px -1px 1px; font-family: 'Open Sans', verdana, arial, sans-serif; font-size: 9px; fill-opacity: 1;"><textPath class="node-label-text-path" alignment-baseline="middle" xlink:href="#ce17a9_0_node_14" startOffset="100%" text-anchor="end" style="fill: rgb(0, 0, 0);">Building K (5.40KW)</textPath></text></g></g><g class="sankey-node" transform="translate(520.000, 305.434)" style="opacity: 1;"><rect class="node-rect" width="20" height="0.5" style="stroke-width: 0.5; stroke: rgb(0, 0, 0); stroke-opacity: 1; fill: rgb(0, 0, 0); fill-opacity: 1;"/><rect class="node-capture" x="-10" y="-7.5" width="40" height="15.5" style="fill-opacity: 0;"/><g class="node-entered" transform="translate(0 1.0610266819232947)"><path class="node-label-guide" id="ce17a9_0_node_15" d="M-540,0L-4,0" transform="matrix(1 0 0 1 0 0)"/><text class="node-label" transform="scale(1 1)" style="user-select: none; cursor: default; fill: rgb(42, 63, 95); text-shadow: rgb(255, 255, 255) -1px 1px 1px, rgb(255, 255, 255) 1px 1px 1px, rgb(255, 255, 255) 1px -1px 1px, rgb(255, 255, 255) -1px -1px 1px; font-family: 'Open Sans', verdana, arial, sans-serif; font-size: 9px; fill-opacity: 1;"><textPath class="node-label-text-path" alignment-baseline="middle" xlink:href="#ce17a9_0_node_15" startOffset="100%" text-anchor="end" style="fill: rgb(0, 0, 0);">Building M (1.99KW)</textPath></text></g></g><g class="sankey-node" transform="translate(520.000, 221.871)" style="opacity: 1;"><rect class="node-rect" width="20" height="4.742907852393614" style="stroke-width: 0.5; stroke: rgb(0, 0, 0); stroke-opacity: 1; fill: rgb(0, 0, 0); fill-opacity: 1;"/><rect class="node-capture" x="-10" y="-7.5" width="40" height="19.742907852393614" style="fill-opacity: 0;"/><g class="node-entered" transform="translate(0 3.371453926196807)"><path class="node-label-guide" id="ce17a9_0_node_16" d="M-540,0L-4,0" transform="matrix(1 0 0 1 0 0)"/><text class="node-label" transform="scale(1 1)" style="user-select: none; cursor: default; fill: rgb(42, 63, 95); text-shadow: rgb(255, 255, 255) -1px 1px 1px, rgb(255, 255, 255) 1px 1px 1px, rgb(255, 255, 255) 1px -1px 1px, rgb(255, 255, 255) -1px -1px 1px; font-family: 'Open Sans', verdana, arial, sans-serif; font-size: 9px; fill-opacity: 1;"><textPath class="node-label-text-path" alignment-baseline="middle" xlink:href="#ce17a9_0_node_16" startOffset="100%" text-anchor="end" style="fill: rgb(0, 0, 0);">Building N (77.33KW)</textPath></text></g></g><g class="sankey-node" transform="translate(520.000, 164.978)" style="opacity: 1;"><rect class="node-rect" width="20" height="6.119841529960297" style="stroke-width: 0.5; stroke: rgb(0, 0, 0); stroke-opacity: 1; fill: rgb(0, 0, 0); fill-opacity: 1;"/><rect class="node-capture" x="-10" y="-7.5" width="40" height="21.119841529960297" style="fill-opacity: 0;"/><g class="node-entered" transform="translate(0 4.0599207649801485)"><path class="node-label-guide" id="ce17a9_0_node_17" d="M-540,0L-4,0" transform="matrix(1 0 0 1 0 0)"/><text class="node-label" transform="scale(1 1)" style="user-select: none; cursor: default; fill: rgb(42, 63, 95); text-shadow: rgb(255, 255, 255) -1px 1px 1px, rgb(255, 255, 255) 1px 1px 1px, rgb(255, 255, 255) 1px -1px 1px, rgb(255, 255, 255) -1px -1px 1px; font-family: 'Open Sans', verdana, arial, sans-serif; font-size: 9px; fill-opacity: 1;"><textPath class="node-label-text-path" alignment-baseline="middle" xlink:href="#ce17a9_0_node_17" startOffset="100%" text-anchor="end" style="fill: rgb(0, 0, 0);">Building P (99.78KW)</textPath></text></g></g><g class="sankey-node" transform="translate(520.000, 319.779)" style="opacity: 1;"><rect class="node-rect" width="20" height="0.5" style="stroke-width: 0.5; stroke: rgb(0, 0, 0); stroke-opacity: 1; fill: rgb(0, 0, 0); fill-opacity: 1;"/><rect class="node-capture" x="-10" y="-7.5" width="40" height="15.5" style="fill-opacity: 0;"/><g class="node-entered" transform="translate(0 1.110706694343321)"><path class="node-label-guide" id="ce17a9_0_node_18" d="M-540,0L-4,0" transform="matrix(1 0 0 1 0 0)"/><text class="node-label" transform="scale(1 1)" style="user-select: none; cursor: default; fill: rgb(42, 63, 95); text-shadow: rgb(255, 255, 255) -1px 1px 1px, rgb(255, 255, 255) 1px 1px 1px, rgb(255, 255, 255) 1px -1px 1px, rgb(255, 255, 255) -1px -1px 1px; font-family: 'Open Sans', verdana, arial, sans-serif; font-size: 9px; fill-opacity: 1;"><textPath class="node-label-text-path" alignment-baseline="middle" xlink:href="#ce17a9_0_node_18" startOffset="100%" text-anchor="end" style="fill: rgb(0, 0, 0);">Building S (3.61KW)</textPath></text></g></g><g class="sankey-node" transform="translate(520.000, 116.770)" style="opacity: 1;"><rect class="node-rect" width="20" height="11.422722855680746" style="stroke-width: 0.5; stroke: rgb(0, 0, 0); stroke-opacity: 1; fill: rgb(0, 0, 0); fill-opacity: 1;"/><rect class="node-capture" x="-10" y="-7.5" width="40" height="26.422722855680746" style="fill-opacity: 0;"/><g class="node-entered" transform="translate(0 6.711361427840373)"><path class="node-label-guide" id="ce17a9_0_node_19" d="M-540,0L-4,0" transform="matrix(1 0 0 1 0 0)"/><text class="node-label" transform="scale(1 1)" style="user-select: none; cursor: default; fill: rgb(42, 63, 95); text-shadow: rgb(255, 255, 255) -1px 1px 1px, rgb(255, 255, 255) 1px 1px 1px, rgb(255, 255, 255) 1px -1px 1px, rgb(255, 255, 255) -1px -1px 1px; font-family: 'Open Sans', verdana, arial, sans-serif; font-size: 9px; fill-opacity: 1;"><textPath class="node-label-text-path" alignment-baseline="middle" xlink:href="#ce17a9_0_node_19" startOffset="100%" text-anchor="end" style="fill: rgb(0, 0, 0);">Building T (186.24KW)</textPath></text></g></g><g class="sankey-node" transform="translate(520.000, 240.836)" style="opacity: 1;"><rect class="node-rect" width="20" height="2.9967474158535197" style="stroke-width: 0.5; stroke: rgb(0, 0, 0); stroke-opacity: 1; fill: rgb(0, 0, 0); fill-opacity: 1;"/><rect class="node-capture" x="-10" y="-7.5" width="40" height="17.99674741585352" style="fill-opacity: 0;"/><g class="node-entered" transform="translate(0 2.49837370792676)"><path class="node-label-guide" id="ce17a9_0_node_20" d="M-540,0L-4,0" transform="matrix(1 0 0 1 0 0)"/><text class="node-label" transform="scale(1 1)" style="user-select: none; cursor: default; fill: rgb(42, 63, 95); text-shadow: rgb(255, 255, 255) -1px 1px 1px, rgb(255, 255, 255) 1px 1px 1px, rgb(255, 255, 255) 1px -1px 1px, rgb(255, 255, 255) -1px -1px 1px; font-family: 'Open Sans', verdana, arial, sans-serif; font-size: 9px; fill-opacity: 1;"><textPath class="node-label-text-path" alignment-baseline="middle" xlink:href="#ce17a9_0_node_20" startOffset="100%" text-anchor="end" style="fill: rgb(0, 0, 0);">Building V (48.86KW)</textPath></text></g></g><g class="sankey-node" transform="translate(520.000, 258.055)" style="opacity: 1;"><rect class="node-rect" width="20" height="3.2592541481468515" style="stroke-width: 0.5; stroke: rgb(0, 0, 0); stroke-opacity: 1; fill: rgb(0, 0, 0); fill-opacity: 1;"/><rect class="node-capture" x="-10" y="-7.5" width="40" height="18.25925414814685" style="fill-opacity: 0;"/><g class="node-entered" transform="translate(0 2.6296270740734258)"><path class="node-label-guide" id="ce17a9_0_node_21" d="M-540,0L-4,0" transform="matrix(1 0 0 1 0 0)"/><text class="node-label" transform="scale(1 1)" style="user-select: none; cursor: default; fill: rgb(42, 63, 95); text-shadow: rgb(255, 255, 255) -1px 1px 1px, rgb(255, 255, 255) 1px 1px 1px, rgb(255, 255, 255) 1px -1px 1px, rgb(255, 255, 255) -1px -1px 1px; font-family: 'Open Sans', verdana, arial, sans-serif; font-size: 9px; fill-opacity: 1;"><textPath class="node-label-text-path" alignment-baseline="middle" xlink:href="#ce17a9_0_node_21" startOffset="100%" text-anchor="end" style="fill: rgb(0, 0, 0);">Building Z (53.14KW)</textPath></text></g></g><g class="sankey-node" transform="translate(520.000, 65.962)" style="opacity: 1;"><rect class="node-rect" width="20" height="12.561683140420769" style="stroke-width: 0.5; stroke: rgb(0, 0, 0); stroke-opacity: 1; fill: rgb(0, 0, 0); fill-opacity: 1;"/><rect class="node-capture" x="-10" y="-7.5" width="40" height="27.56168314042077" style="fill-opacity: 0;"/><g class="node-entered" transform="translate(0 7.280841570210384)"><path class="node-label-guide" id="ce17a9_0_node_22" d="M-540,0L-4,0" transform="matrix(1 0 0 1 0 0)"/><text class="node-label" transform="scale(1 1)" style="user-select: none; cursor: default; fill: rgb(42, 63, 95); text-shadow: rgb(255, 255, 255) -1px 1px 1px, rgb(255, 255, 255) 1px 1px 1px, rgb(255, 255, 255) 1px -1px 1px, rgb(255, 255, 255) -1px -1px 1px; font-family: 'Open Sans', verdana, arial, sans-serif; font-size: 9px; fill-opacity: 1;"><textPath class="node-label-text-path" alignment-baseline="middle" xlink:href="#ce17a9_0_node_22" startOffset="100%" text-anchor="end" style="fill: rgb(0, 0, 0);">Residence 1&amp;2 (204.81KW)</textPath></text></g></g></g></g><defs id="topdefs-61e509"><g class="clips"/></defs><g class="layer-above"><g class="imagelayer"/><g class="shapelayer"/></g><g class="infolayer"><g class="g-gtitle"/><g class="first-render"/></g></svg>