<svg class="main-svg" xmlns="http://www.w3.org/2000/svg" xmlns:xlink="http://www.w3.org/1999/xlink" width="700" height="500" viewBox="0 0 700 500"><rect x="0" y="0" width="700" height="500" style="fill: rgb(255, 255, 255); fill-opacity: 1;"/><defs id="defs-dcc32c"><g class="clips"/><g class="gradients"/></defs><g class="bglayer"/><g class="layer-below"><g class="imagelayer"/><g class="shapelayer"/></g><g class="cartesianlayer"/><g class="polarlayer"/><g class="ternarylayer"/><g class="geolayer"/><g class="funnelarealayer"/><g class="pielayer"/><g class="treemaplayer"/><g class="sunburstlayer"/><g class="glimages"/><g class="sankey" transform="translate(80,100)matrix(1 0 0 1 0 0)" style="box-sizing: content-box; position: absolute; left: 0px; shape-rendering: geometricPrecision; pointer-events: auto;"><g class="sankey-links" style="fill: none;"><path class="sankey-link" d="M20,166.2404851922609C140,166.2404851922609 140,148.310050301193 260,148.310050301193L260,188.29070621228774C140,188.29070621228774 140,206.22114110335565 20,206.22114110335565Z" style="stroke: rgb(68, 68, 68); stroke-opacity: 1; fill: rgb(0, 0, 0); fill-opacity: 0.2; stroke-width: 0; opacity: 1;"/><path class="sankey-link" d="M20,91.25016205516248C140,91.25016205516248 140,84.54779733953329 260,84.54779733953329L260,148.310050301193C140,148.310050301193 140,155.0124150168222 20,155.0124150168222Z" style="stroke: rgb(68, 68, 68); stroke-opacity: 1; fill: rgb(0, 0, 0); fill-opacity: 0.2; stroke-width: 0; opacity: 1;"/><path class="sankey-link" d="M280,84.54779733953329C400,84.54779733953329 400,-1.1368683772161603e-13 520,-1.1368683772161603e-13L520,18.411781368712656C400,18.411781368712656 400,102.95957870824607 280,102.95957870824607Z" style="stroke: rgb(68, 68, 68); stroke-opacity: 1; fill: rgb(0, 0, 0); fill-opacity: 0.2; stroke-width: 0; opacity: 1;"/><path class="sankey-link" d="M280,186.379561927572C400,186.379561927572 400,270.2528172196178 520,270.2528172196178L520,271.67316448694214C400,271.67316448694214 400,187.79990919489632 280,187.79990919489632Z" style="stroke: rgb(68, 68, 68); stroke-opacity: 1; fill: rgb(0, 0, 0); fill-opacity: 0.2; stroke-width: 0; opacity: 1;"/><path class="sankey-link" d="M280,114.23515765765524C400,114.23515765765524 400,52.143500668999025 520,52.143500668999025L520,61.677853121314655C400,61.677853121314655 400,123.76951010997087 280,123.76951010997087Z" style="stroke: rgb(68, 68, 68); stroke-opacity: 1; fill: rgb(0, 0, 0); fill-opacity: 0.2; stroke-width: 0; opacity: 1;"/><path class="sankey-link" d="M280,123.76951010997087C400,123.76951010997087 400,72.90592329675331 520,72.90592329675331L520,81.06955964080669C400,81.06955964080669 400,131.93314645402424 280,131.93314645402424Z" style="stroke: rgb(68, 68, 68); stroke-opacity: 1; fill: rgb(0, 0, 0); fill-opacity: 0.2; stroke-width: 0; opacity: 1;"/><path class="sankey-link" d="M280,159.36539098226436C400,159.36539098226436 400,164.64215504624 520,164.64215504624L520,168.64987114050044C400,168.64987114050044 400,163.3731070765248 280,163.3731070765248Z" style="stroke: rgb(68, 68, 68); stroke-opacity: 1; fill: rgb(0, 0, 0); fill-opacity: 0.2; stroke-width: 0; opacity: 1;"/><path class="sankey-link" d="M280,131.93314645402424C400,131.93314645402424 400,92.29762981624535 520,92.29762981624535L520,100.08696450237244C400,100.08696450237244 400,139.7224811401513 280,139.7224811401513Z" style="stroke: rgb(68, 68, 68); stroke-opacity: 1; fill: rgb(0, 0, 0); fill-opacity: 0.2; stroke-width: 0; opacity: 1;"/><path class="sankey-link" d="M280,189.36225672287043C400,189.36225672287043 400,295.6916523657934 520,295.6916523657934L520,296.3230710005272C400,296.3230710005272 400,189.99367535760427 280,189.99367535760427Z" style="stroke: rgb(0, 0, 0); stroke-opacity: 0.2; fill: rgb(0, 0, 0); fill-opacity: 0.2; stroke-width: 1; opacity: 1;"/><path class="sankey-link" d="M280,146.6560229932849C400,146.6560229932849 400,129.47664670638332 520,129.47664670638332L520,135.34311863968284C400,135.34311863968284 400,152.52249492658441 280,152.52249492658441Z" style="stroke: rgb(68, 68, 68); stroke-opacity: 1; fill: rgb(0, 0, 0); fill-opacity: 0.2; stroke-width: 0; opacity: 1;"/><path class="sankey-link" d="M280,176.8731270022288C400,176.8731270022288 400,227.06217176795877 520,227.06217176795877L520,230.2871631245115C400,230.2871631245115 400,180.09811835878153 280,180.09811835878153Z" style="stroke: rgb(68, 68, 68); stroke-opacity: 1; fill: rgb(0, 0, 0); fill-opacity: 0.2; stroke-width: 0; opacity: 1;"/><path class="sankey-link" d="M280,189.99367535760427C400,189.99367535760427 400,307.55114117596577 520,307.55114117596577L520,307.97817594039543C400,307.97817594039543 400,190.420710122034 280,190.420710122034Z" style="stroke: rgb(0, 0, 0); stroke-opacity: 0.2; fill: rgb(0, 0, 0); fill-opacity: 0.2; stroke-width: 1; opacity: 1;"/><path class="sankey-link" d="M280,172.98707617983578C400,172.98707617983578 400,211.94805077012717 520,211.94805077012717L520,215.8341015925202C400,215.8341015925202 400,176.8731270022288 280,176.8731270022288Z" style="stroke: rgb(68, 68, 68); stroke-opacity: 1; fill: rgb(0, 0, 0); fill-opacity: 0.2; stroke-width: 0; opacity: 1;"/><path class="sankey-link" d="M280,180.0981183587815C400,180.0981183587815 400,241.51523329995007 520,241.51523329995007L520,244.9825212177571C400,244.9825212177571 400,183.56540627658853 280,183.56540627658853Z" style="stroke: rgb(68, 68, 68); stroke-opacity: 1; fill: rgb(0, 0, 0); fill-opacity: 0.2; stroke-width: 0; opacity: 1;"/><path class="sankey-link" d="M280,163.37310707652478C400,163.37310707652478 400,179.87794131593904 520,179.87794131593904L520,184.47778471067585C400,184.47778471067585 400,167.97295047126158 280,167.97295047126158Z" style="stroke: rgb(68, 68, 68); stroke-opacity: 1; fill: rgb(0, 0, 0); fill-opacity: 0.2; stroke-width: 0; opacity: 1;"/><path class="sankey-link" d="M280,183.5654062765885C400,183.5654062765885 400,256.21059139319567 520,256.21059139319567L520,259.02474704417915C400,259.02474704417915 400,186.37956192757204 280,186.37956192757204Z" style="stroke: rgb(68, 68, 68); stroke-opacity: 1; fill: rgb(0, 0, 0); fill-opacity: 0.2; stroke-width: 0; opacity: 1;"/><path class="sankey-link" d="M280,102.95957870824606C400,102.95957870824606 400,29.63985154415124 520,29.63985154415124L520,40.91543049356042C400,40.91543049356042 400,114.23515765765524 280,114.23515765765524Z" style="stroke: rgb(68, 68, 68); stroke-opacity: 1; fill: rgb(0, 0, 0); fill-opacity: 0.2; stroke-width: 0; opacity: 1;"/><path class="sankey-link" d="M280,190.420710122034C400,190.420710122034 400,319.206246115834 520,319.206246115834L520,320C400,320 400,191.21446400619993 280,191.21446400619993Z" style="stroke: rgb(0, 0, 0); stroke-opacity: 0.2; fill: rgb(0, 0, 0); fill-opacity: 0.2; stroke-width: 1; opacity: 1;"/><path class="sankey-link" d="M280,187.79990919489634C400,187.79990919489634 400,282.9012346623807 520,282.9012346623807L520,284.4635821903548C400,284.4635821903548 400,189.3622567228704 280,189.3622567228704Z" style="stroke: rgb(68, 68, 68); stroke-opacity: 1; fill: rgb(0, 0, 0); fill-opacity: 0.2; stroke-width: 0; opacity: 1;"/><path class="sankey-link" d="M280,139.72248114015133C400,139.72248114015133 400,111.31503467781107 520,111.31503467781107L520,118.24857653094463C400,118.24857653094463 400,146.65602299328486 280,146.65602299328486Z" style="stroke: rgb(68, 68, 68); stroke-opacity: 1; fill: rgb(0, 0, 0); fill-opacity: 0.2; stroke-width: 0; opacity: 1;"/><path class="sankey-link" d="M280,152.52249492658441C400,152.52249492658441 400,146.5711888151214 520,146.5711888151214L520,153.41408487080133C400,153.41408487080133 400,159.36539098226436 280,159.36539098226436Z" style="stroke: rgb(68, 68, 68); stroke-opacity: 1; fill: rgb(0, 0, 0); fill-opacity: 0.2; stroke-width: 0; opacity: 1;"/><path class="sankey-link" d="M280,167.97295047126158C400,167.97295047126158 400,195.70585488611442 520,195.70585488611442L520,200.7199805946886C400,200.7199805946886 400,172.98707617983575 280,172.98707617983575Z" style="stroke: rgb(68, 68, 68); stroke-opacity: 1; fill: rgb(0, 0, 0); fill-opacity: 0.2; stroke-width: 0; opacity: 1;"/></g><g class="sankey-node-set" style="cursor: move;"><g class="sankey-node" transform="translate(0.000, 166.240)" style="opacity: 1;"><rect class="node-rect" width="20" height="39.98065591109477" style="stroke-width: 0.5; stroke: rgb(0, 0, 0); stroke-opacity: 1; fill: rgb(0, 128, 0); fill-opacity: 1;"/><rect class="node-capture" x="-10" y="-7.5" width="40" height="54.98065591109477" style="fill-opacity: 0;"/><g class="node-entered" transform="translate(0 20.990327955547386)"><path class="node-label-guide" id="2e148b_0_node_0" d="M24,0L540,0" transform="matrix(1 0 0 1 0 0)"/><text class="node-label" transform="scale(1 1)" style="user-select: none; cursor: default; fill: rgb(42, 63, 95); text-shadow: rgb(255, 255, 255) -1px 1px 1px, rgb(255, 255, 255) 1px 1px 1px, rgb(255, 255, 255) 1px -1px 1px, rgb(255, 255, 255) -1px -1px 1px; font-family: 'Open Sans', verdana, arial, sans-serif; font-size: 8px; fill-opacity: 1;"><textPath class="node-label-text-path" alignment-baseline="middle" xlink:href="#2e148b_0_node_0" startOffset="0%" text-anchor="start" style="fill: rgb(0, 0, 0);">Hydro Power (1160.00KW )</textPath></text></g></g><g class="sankey-node" transform="translate(0.000, 91.250)" style="opacity: 1;"><rect class="node-rect" width="20" height="63.762252961659826" style="stroke-width: 0.5; stroke: rgb(0, 0, 0); stroke-opacity: 1; fill: rgb(0, 128, 0); fill-opacity: 1;"/><rect class="node-capture" x="-10" y="-7.5" width="40" height="78.76225296165983" style="fill-opacity: 0;"/><g class="node-entered" transform="translate(0 32.88112648082991)"><path class="node-label-guide" id="2e148b_0_node_2" d="M24,0L540,0" transform="matrix(1 0 0 1 0 0)"/><text class="node-label" transform="scale(1 1)" style="user-select: none; cursor: default; fill: rgb(42, 63, 95); text-shadow: rgb(255, 255, 255) -1px 1px 1px, rgb(255, 255, 255) 1px 1px 1px, rgb(255, 255, 255) 1px -1px 1px, rgb(255, 255, 255) -1px -1px 1px; font-family: 'Open Sans', verdana, arial, sans-serif; font-size: 8px; fill-opacity: 1;"><textPath class="node-label-text-path" alignment-baseline="middle" xlink:href="#2e148b_0_node_2" startOffset="0%" text-anchor="start" style="fill: rgb(0, 0, 0);">COGEN 2 (1850.00KW)</textPath></text></g></g><g class="sankey-node" transform="translate(260.000, 84.548)" style="opacity: 1;"><rect class="node-rect" width="20" height="106.66666666666659" style="stroke-width: 0.5; stroke: rgb(0, 0, 0); stroke-opacity: 1; fill: rgb(255, 255, 0); fill-opacity: 1;"/><rect class="node-capture" x="-10" y="-7.5" width="40" height="121.66666666666659" style="fill-opacity: 0;"/><g class="node-entered" transform="translate(0 54.33333333333329)"><path class="node-label-guide" id="2e148b_0_node_5" d="M24,0L540,0" transform="matrix(1 0 0 1 0 0)"/><text class="node-label" transform="scale(1 1)" style="user-select: none; cursor: default; fill: rgb(42, 63, 95); text-shadow: rgb(255, 255, 255) -1px 1px 1px, rgb(255, 255, 255) 1px 1px 1px, rgb(255, 255, 255) 1px -1px 1px, rgb(255, 255, 255) -1px -1px 1px; font-family: 'Open Sans', verdana, arial, sans-serif; font-size: 8px; fill-opacity: 1;"><textPath class="node-label-text-path" alignment-baseline="middle" xlink:href="#2e148b_0_node_5" startOffset="0%" text-anchor="start" style="fill: rgb(0, 0, 0);">Total Power (3010.00KW)</textPath></text></g></g><g class="sankey-node" transform="translate(520.000, -0.000)" style="opacity: 1;"><rect class="node-rect" width="20" height="18.411781368712752" style="stroke-width: 0.5; stroke: rgb(0, 0, 0); stroke-opacity: 1; fill: rgb(255, 0, 0); fill-opacity: 1;"/><rect class="node-capture" x="-10" y="-7.5" width="40" height="33.41178136871275" style="fill-opacity: 0;"/><g class="node-entered" transform="translate(0 10.205890684356376)"><path class="node-label-guide" id="2e148b_0_node_6" d="M-540,0L-4,0" transform="matrix(1 0 0 1 0 0)"/><text class="node-label" transform="scale(1 1)" style="user-select: none; cursor: default; fill: rgb(42, 63, 95); text-shadow: rgb(255, 255, 255) -1px 1px 1px, rgb(255, 255, 255) 1px 1px 1px, rgb(255, 255, 255) 1px -1px 1px, rgb(255, 255, 255) -1px -1px 1px; font-family: 'Open Sans', verdana, arial, sans-serif; font-size: 8px; fill-opacity: 1;"><textPath class="node-label-text-path" alignment-baseline="middle" xlink:href="#2e148b_0_node_6" startOffset="100%" text-anchor="end" style="fill: rgb(0, 0, 0);">Building A (534.20KW)</textPath></text></g></g><g class="sankey-node" transform="translate(520.000, 270.253)" style="opacity: 1;"><rect class="node-rect" width="20" height="1.4203472673243596" style="stroke-width: 0.5; stroke: rgb(0, 0, 0); stroke-opacity: 1; fill: rgb(255, 0, 0); fill-opacity: 1;"/><rect class="node-capture" x="-10" y="-7.5" width="40" height="16.42034726732436" style="fill-opacity: 0;"/><g class="node-entered" transform="translate(0 1.7101736336621798)"><path class="node-label-guide" id="2e148b_0_node_7" d="M-540,0L-4,0" transform="matrix(1 0 0 1 0 0)"/><text class="node-label" transform="scale(1 1)" style="user-select: none; cursor: default; fill: rgb(42, 63, 95); text-shadow: rgb(255, 255, 255) -1px 1px 1px, rgb(255, 255, 255) 1px 1px 1px, rgb(255, 255, 255) 1px -1px 1px, rgb(255, 255, 255) -1px -1px 1px; font-family: 'Open Sans', verdana, arial, sans-serif; font-size: 8px; fill-opacity: 1;"><textPath class="node-label-text-path" alignment-baseline="middle" xlink:href="#2e148b_0_node_7" startOffset="100%" text-anchor="end" style="fill: rgb(0, 0, 0);">Building A Fitness Zone (41.21KW)</textPath></text></g></g><g class="sankey-node" transform="translate(520.000, 52.144)" style="opacity: 1;"><rect class="node-rect" width="20" height="9.534352452315687" style="stroke-width: 0.5; stroke: rgb(0, 0, 0); stroke-opacity: 1; fill: rgb(255, 0, 0); fill-opacity: 1;"/><rect class="node-capture" x="-10" y="-7.5" width="40" height="24.534352452315687" style="fill-opacity: 0;"/><g class="node-entered" transform="translate(0 5.767176226157844)"><path class="node-label-guide" id="2e148b_0_node_8" d="M-540,0L-4,0" transform="matrix(1 0 0 1 0 0)"/><text class="node-label" transform="scale(1 1)" style="user-select: none; cursor: default; fill: rgb(42, 63, 95); text-shadow: rgb(255, 255, 255) -1px 1px 1px, rgb(255, 255, 255) 1px 1px 1px, rgb(255, 255, 255) 1px -1px 1px, rgb(255, 255, 255) -1px -1px 1px; font-family: 'Open Sans', verdana, arial, sans-serif; font-size: 8px; fill-opacity: 1;"><textPath class="node-label-text-path" alignment-baseline="middle" xlink:href="#2e148b_0_node_8" startOffset="100%" text-anchor="end" style="fill: rgb(0, 0, 0);">Building B (276.63KW)</textPath></text></g></g><g class="sankey-node" transform="translate(520.000, 72.906)" style="opacity: 1;"><rect class="node-rect" width="20" height="8.16363634405343" style="stroke-width: 0.5; stroke: rgb(0, 0, 0); stroke-opacity: 1; fill: rgb(255, 0, 0); fill-opacity: 1;"/><rect class="node-capture" x="-10" y="-7.5" width="40" height="23.16363634405343" style="fill-opacity: 0;"/><g class="node-entered" transform="translate(0 5.081818172026715)"><path class="node-label-guide" id="2e148b_0_node_9" d="M-540,0L-4,0" transform="matrix(1 0 0 1 0 0)"/><text class="node-label" transform="scale(1 1)" style="user-select: none; cursor: default; fill: rgb(42, 63, 95); text-shadow: rgb(255, 255, 255) -1px 1px 1px, rgb(255, 255, 255) 1px 1px 1px, rgb(255, 255, 255) 1px -1px 1px, rgb(255, 255, 255) -1px -1px 1px; font-family: 'Open Sans', verdana, arial, sans-serif; font-size: 8px; fill-opacity: 1;"><textPath class="node-label-text-path" alignment-baseline="middle" xlink:href="#2e148b_0_node_9" startOffset="100%" text-anchor="end" style="fill: rgb(0, 0, 0);">Building C (236.86KW)</textPath></text></g></g><g class="sankey-node" transform="translate(520.000, 164.642)" style="opacity: 1;"><rect class="node-rect" width="20" height="4.007716094260445" style="stroke-width: 0.5; stroke: rgb(0, 0, 0); stroke-opacity: 1; fill: rgb(255, 0, 0); fill-opacity: 1;"/><rect class="node-capture" x="-10" y="-7.5" width="40" height="19.007716094260445" style="fill-opacity: 0;"/><g class="node-entered" transform="translate(0 3.0038580471302225)"><path class="node-label-guide" id="2e148b_0_node_10" d="M-540,0L-4,0" transform="matrix(1 0 0 1 0 0)"/><text class="node-label" transform="scale(1 1)" style="user-select: none; cursor: default; fill: rgb(42, 63, 95); text-shadow: rgb(255, 255, 255) -1px 1px 1px, rgb(255, 255, 255) 1px 1px 1px, rgb(255, 255, 255) 1px -1px 1px, rgb(255, 255, 255) -1px -1px 1px; font-family: 'Open Sans', verdana, arial, sans-serif; font-size: 8px; fill-opacity: 1;"><textPath class="node-label-text-path" alignment-baseline="middle" xlink:href="#2e148b_0_node_10" startOffset="100%" text-anchor="end" style="fill: rgb(0, 0, 0);">Building D (116.28KW)</textPath></text></g></g><g class="sankey-node" transform="translate(520.000, 92.298)" style="opacity: 1;"><rect class="node-rect" width="20" height="7.78933468612712" style="stroke-width: 0.5; stroke: rgb(0, 0, 0); stroke-opacity: 1; fill: rgb(255, 0, 0); fill-opacity: 1;"/><rect class="node-capture" x="-10" y="-7.5" width="40" height="22.78933468612712" style="fill-opacity: 0;"/><g class="node-entered" transform="translate(0 4.89466734306356)"><path class="node-label-guide" id="2e148b_0_node_11" d="M-540,0L-4,0" transform="matrix(1 0 0 1 0 0)"/><text class="node-label" transform="scale(1 1)" style="user-select: none; cursor: default; fill: rgb(42, 63, 95); text-shadow: rgb(255, 255, 255) -1px 1px 1px, rgb(255, 255, 255) 1px 1px 1px, rgb(255, 255, 255) 1px -1px 1px, rgb(255, 255, 255) -1px -1px 1px; font-family: 'Open Sans', verdana, arial, sans-serif; font-size: 8px; fill-opacity: 1;"><textPath class="node-label-text-path" alignment-baseline="middle" xlink:href="#2e148b_0_node_11" startOffset="100%" text-anchor="end" style="fill: rgb(0, 0, 0);">Building E (226.00KW)</textPath></text></g></g><g class="sankey-node" transform="translate(520.000, 295.692)" style="opacity: 1;"><rect class="node-rect" width="20" height="0.6314186347337909" style="stroke-width: 0.5; stroke: rgb(0, 0, 0); stroke-opacity: 1; fill: rgb(255, 0, 0); fill-opacity: 1;"/><rect class="node-capture" x="-10" y="-7.5" width="40" height="15.631418634733791" style="fill-opacity: 0;"/><g class="node-entered" transform="translate(0 1.3157093173668954)"><path class="node-label-guide" id="2e148b_0_node_12" d="M-540,0L-4,0" transform="matrix(1 0 0 1 0 0)"/><text class="node-label" transform="scale(1 1)" style="user-select: none; cursor: default; fill: rgb(42, 63, 95); text-shadow: rgb(255, 255, 255) -1px 1px 1px, rgb(255, 255, 255) 1px 1px 1px, rgb(255, 255, 255) 1px -1px 1px, rgb(255, 255, 255) -1px -1px 1px; font-family: 'Open Sans', verdana, arial, sans-serif; font-size: 8px; fill-opacity: 1;"><textPath class="node-label-text-path" alignment-baseline="middle" xlink:href="#2e148b_0_node_12" startOffset="100%" text-anchor="end" style="fill: rgb(0, 0, 0);">Building G (18.32KW)</textPath></text></g></g><g class="sankey-node" transform="translate(520.000, 129.477)" style="opacity: 1;"><rect class="node-rect" width="20" height="5.866471933299465" style="stroke-width: 0.5; stroke: rgb(0, 0, 0); stroke-opacity: 1; fill: rgb(255, 0, 0); fill-opacity: 1;"/><rect class="node-capture" x="-10" y="-7.5" width="40" height="20.866471933299465" style="fill-opacity: 0;"/><g class="node-entered" transform="translate(0 3.9332359666497325)"><path class="node-label-guide" id="2e148b_0_node_13" d="M-540,0L-4,0" transform="matrix(1 0 0 1 0 0)"/><text class="node-label" transform="scale(1 1)" style="user-select: none; cursor: default; fill: rgb(42, 63, 95); text-shadow: rgb(255, 255, 255) -1px 1px 1px, rgb(255, 255, 255) 1px 1px 1px, rgb(255, 255, 255) 1px -1px 1px, rgb(255, 255, 255) -1px -1px 1px; font-family: 'Open Sans', verdana, arial, sans-serif; font-size: 8px; fill-opacity: 1;"><textPath class="node-label-text-path" alignment-baseline="middle" xlink:href="#2e148b_0_node_13" startOffset="100%" text-anchor="end" style="fill: rgb(0, 0, 0);">Building H (170.21KW)</textPath></text></g></g><g class="sankey-node" transform="translate(520.000, 227.062)" style="opacity: 1;"><rect class="node-rect" width="20" height="3.224991356552721" style="stroke-width: 0.5; stroke: rgb(0, 0, 0); stroke-opacity: 1; fill: rgb(255, 0, 0); fill-opacity: 1;"/><rect class="node-capture" x="-10" y="-7.5" width="40" height="18.22499135655272" style="fill-opacity: 0;"/><g class="node-entered" transform="translate(0 2.6124956782763604)"><path class="node-label-guide" id="2e148b_0_node_14" d="M-540,0L-4,0" transform="matrix(1 0 0 1 0 0)"/><text class="node-label" transform="scale(1 1)" style="user-select: none; cursor: default; fill: rgb(42, 63, 95); text-shadow: rgb(255, 255, 255) -1px 1px 1px, rgb(255, 255, 255) 1px 1px 1px, rgb(255, 255, 255) 1px -1px 1px, rgb(255, 255, 255) -1px -1px 1px; font-family: 'Open Sans', verdana, arial, sans-serif; font-size: 8px; fill-opacity: 1;"><textPath class="node-label-text-path" alignment-baseline="middle" xlink:href="#2e148b_0_node_14" startOffset="100%" text-anchor="end" style="fill: rgb(0, 0, 0);">Building J (93.57KW)</textPath></text></g></g><g class="sankey-node" transform="translate(520.000, 307.551)" style="opacity: 1;"><rect class="node-rect" width="20" height="0.5" style="stroke-width: 0.5; stroke: rgb(0, 0, 0); stroke-opacity: 1; fill: rgb(255, 0, 0); fill-opacity: 1;"/><rect class="node-capture" x="-10" y="-7.5" width="40" height="15.5" style="fill-opacity: 0;"/><g class="node-entered" transform="translate(0 1.2135173822148317)"><path class="node-label-guide" id="2e148b_0_node_15" d="M-540,0L-4,0" transform="matrix(1 0 0 1 0 0)"/><text class="node-label" transform="scale(1 1)" style="user-select: none; cursor: default; fill: rgb(42, 63, 95); text-shadow: rgb(255, 255, 255) -1px 1px 1px, rgb(255, 255, 255) 1px 1px 1px, rgb(255, 255, 255) 1px -1px 1px, rgb(255, 255, 255) -1px -1px 1px; font-family: 'Open Sans', verdana, arial, sans-serif; font-size: 8px; fill-opacity: 1;"><textPath class="node-label-text-path" alignment-baseline="middle" xlink:href="#2e148b_0_node_15" startOffset="100%" text-anchor="end" style="fill: rgb(0, 0, 0);">Building K (12.39KW)</textPath></text></g></g><g class="sankey-node" transform="translate(520.000, 211.948)" style="opacity: 1;"><rect class="node-rect" width="20" height="3.886050822393031" style="stroke-width: 0.5; stroke: rgb(0, 0, 0); stroke-opacity: 1; fill: rgb(255, 0, 0); fill-opacity: 1;"/><rect class="node-capture" x="-10" y="-7.5" width="40" height="18.88605082239303" style="fill-opacity: 0;"/><g class="node-entered" transform="translate(0 2.9430254111965155)"><path class="node-label-guide" id="2e148b_0_node_16" d="M-540,0L-4,0" transform="matrix(1 0 0 1 0 0)"/><text class="node-label" transform="scale(1 1)" style="user-select: none; cursor: default; fill: rgb(42, 63, 95); text-shadow: rgb(255, 255, 255) -1px 1px 1px, rgb(255, 255, 255) 1px 1px 1px, rgb(255, 255, 255) 1px -1px 1px, rgb(255, 255, 255) -1px -1px 1px; font-family: 'Open Sans', verdana, arial, sans-serif; font-size: 8px; fill-opacity: 1;"><textPath class="node-label-text-path" alignment-baseline="middle" xlink:href="#2e148b_0_node_16" startOffset="100%" text-anchor="end" style="fill: rgb(0, 0, 0);">Building M (112.75KW)</textPath></text></g></g><g class="sankey-node" transform="translate(520.000, 241.515)" style="opacity: 1;"><rect class="node-rect" width="20" height="3.4672879178070275" style="stroke-width: 0.5; stroke: rgb(0, 0, 0); stroke-opacity: 1; fill: rgb(255, 0, 0); fill-opacity: 1;"/><rect class="node-capture" x="-10" y="-7.5" width="40" height="18.467287917807027" style="fill-opacity: 0;"/><g class="node-entered" transform="translate(0 2.7336439589035137)"><path class="node-label-guide" id="2e148b_0_node_17" d="M-540,0L-4,0" transform="matrix(1 0 0 1 0 0)"/><text class="node-label" transform="scale(1 1)" style="user-select: none; cursor: default; fill: rgb(42, 63, 95); text-shadow: rgb(255, 255, 255) -1px 1px 1px, rgb(255, 255, 255) 1px 1px 1px, rgb(255, 255, 255) 1px -1px 1px, rgb(255, 255, 255) -1px -1px 1px; font-family: 'Open Sans', verdana, arial, sans-serif; font-size: 8px; fill-opacity: 1;"><textPath class="node-label-text-path" alignment-baseline="middle" xlink:href="#2e148b_0_node_17" startOffset="100%" text-anchor="end" style="fill: rgb(0, 0, 0);">Building N (100.60KW)</textPath></text></g></g><g class="sankey-node" transform="translate(520.000, 179.878)" style="opacity: 1;"><rect class="node-rect" width="20" height="4.5998433947368085" style="stroke-width: 0.5; stroke: rgb(0, 0, 0); stroke-opacity: 1; fill: rgb(255, 0, 0); fill-opacity: 1;"/><rect class="node-capture" x="-10" y="-7.5" width="40" height="19.59984339473681" style="fill-opacity: 0;"/><g class="node-entered" transform="translate(0 3.2999216973684042)"><path class="node-label-guide" id="2e148b_0_node_18" d="M-540,0L-4,0" transform="matrix(1 0 0 1 0 0)"/><text class="node-label" transform="scale(1 1)" style="user-select: none; cursor: default; fill: rgb(42, 63, 95); text-shadow: rgb(255, 255, 255) -1px 1px 1px, rgb(255, 255, 255) 1px 1px 1px, rgb(255, 255, 255) 1px -1px 1px, rgb(255, 255, 255) -1px -1px 1px; font-family: 'Open Sans', verdana, arial, sans-serif; font-size: 8px; fill-opacity: 1;"><textPath class="node-label-text-path" alignment-baseline="middle" xlink:href="#2e148b_0_node_18" startOffset="100%" text-anchor="end" style="fill: rgb(0, 0, 0);">Building P (133.46KW)</textPath></text></g></g><g class="sankey-node" transform="translate(520.000, 256.211)" style="opacity: 1;"><rect class="node-rect" width="20" height="2.814155650983537" style="stroke-width: 0.5; stroke: rgb(0, 0, 0); stroke-opacity: 1; fill: rgb(255, 0, 0); fill-opacity: 1;"/><rect class="node-capture" x="-10" y="-7.5" width="40" height="17.814155650983537" style="fill-opacity: 0;"/><g class="node-entered" transform="translate(0 2.4070778254917684)"><path class="node-label-guide" id="2e148b_0_node_19" d="M-540,0L-4,0" transform="matrix(1 0 0 1 0 0)"/><text class="node-label" transform="scale(1 1)" style="user-select: none; cursor: default; fill: rgb(42, 63, 95); text-shadow: rgb(255, 255, 255) -1px 1px 1px, rgb(255, 255, 255) 1px 1px 1px, rgb(255, 255, 255) 1px -1px 1px, rgb(255, 255, 255) -1px -1px 1px; font-family: 'Open Sans', verdana, arial, sans-serif; font-size: 8px; fill-opacity: 1;"><textPath class="node-label-text-path" alignment-baseline="middle" xlink:href="#2e148b_0_node_19" startOffset="100%" text-anchor="end" style="fill: rgb(0, 0, 0);">Building S (81.65KW)</textPath></text></g></g><g class="sankey-node" transform="translate(520.000, 29.640)" style="opacity: 1;"><rect class="node-rect" width="20" height="11.27557894940918" style="stroke-width: 0.5; stroke: rgb(0, 0, 0); stroke-opacity: 1; fill: rgb(255, 0, 0); fill-opacity: 1;"/><rect class="node-capture" x="-10" y="-7.5" width="40" height="26.27557894940918" style="fill-opacity: 0;"/><g class="node-entered" transform="translate(0 6.63778947470459)"><path class="node-label-guide" id="2e148b_0_node_20" d="M-540,0L-4,0" transform="matrix(1 0 0 1 0 0)"/><text class="node-label" transform="scale(1 1)" style="user-select: none; cursor: default; fill: rgb(42, 63, 95); text-shadow: rgb(255, 255, 255) -1px 1px 1px, rgb(255, 255, 255) 1px 1px 1px, rgb(255, 255, 255) 1px -1px 1px, rgb(255, 255, 255) -1px -1px 1px; font-family: 'Open Sans', verdana, arial, sans-serif; font-size: 8px; fill-opacity: 1;"><textPath class="node-label-text-path" alignment-baseline="middle" xlink:href="#2e148b_0_node_20" startOffset="100%" text-anchor="end" style="fill: rgb(0, 0, 0);">Building T (327.15KW)</textPath></text></g></g><g class="sankey-node" transform="translate(520.000, 319.206)" style="opacity: 1;"><rect class="node-rect" width="20" height="0.7937538841659944" style="stroke-width: 0.5; stroke: rgb(0, 0, 0); stroke-opacity: 1; fill: rgb(255, 0, 0); fill-opacity: 1;"/><rect class="node-capture" x="-10" y="-7.5" width="40" height="15.793753884165994" style="fill-opacity: 0;"/><g class="node-entered" transform="translate(0 1.3968769420829972)"><path class="node-label-guide" id="2e148b_0_node_21" d="M-540,0L-4,0" transform="matrix(1 0 0 1 0 0)"/><text class="node-label" transform="scale(1 1)" style="user-select: none; cursor: default; fill: rgb(42, 63, 95); text-shadow: rgb(255, 255, 255) -1px 1px 1px, rgb(255, 255, 255) 1px 1px 1px, rgb(255, 255, 255) 1px -1px 1px, rgb(255, 255, 255) -1px -1px 1px; font-family: 'Open Sans', verdana, arial, sans-serif; font-size: 8px; fill-opacity: 1;"><textPath class="node-label-text-path" alignment-baseline="middle" xlink:href="#2e148b_0_node_21" startOffset="100%" text-anchor="end" style="fill: rgb(0, 0, 0);">Building V (23.03KW)</textPath></text></g></g><g class="sankey-node" transform="translate(520.000, 282.901)" style="opacity: 1;"><rect class="node-rect" width="20" height="1.5623475279741115" style="stroke-width: 0.5; stroke: rgb(0, 0, 0); stroke-opacity: 1; fill: rgb(255, 0, 0); fill-opacity: 1;"/><rect class="node-capture" x="-10" y="-7.5" width="40" height="16.56234752797411" style="fill-opacity: 0;"/><g class="node-entered" transform="translate(0 1.7811737639870557)"><path class="node-label-guide" id="2e148b_0_node_22" d="M-540,0L-4,0" transform="matrix(1 0 0 1 0 0)"/><text class="node-label" transform="scale(1 1)" style="user-select: none; cursor: default; fill: rgb(42, 63, 95); text-shadow: rgb(255, 255, 255) -1px 1px 1px, rgb(255, 255, 255) 1px 1px 1px, rgb(255, 255, 255) 1px -1px 1px, rgb(255, 255, 255) -1px -1px 1px; font-family: 'Open Sans', verdana, arial, sans-serif; font-size: 8px; fill-opacity: 1;"><textPath class="node-label-text-path" alignment-baseline="middle" xlink:href="#2e148b_0_node_22" startOffset="100%" text-anchor="end" style="fill: rgb(0, 0, 0);">Building Z (45.33KW)</textPath></text></g></g><g class="sankey-node" transform="translate(520.000, 111.315)" style="opacity: 1;"><rect class="node-rect" width="20" height="6.933541853133647" style="stroke-width: 0.5; stroke: rgb(0, 0, 0); stroke-opacity: 1; fill: rgb(255, 0, 0); fill-opacity: 1;"/><rect class="node-capture" x="-10" y="-7.5" width="40" height="21.933541853133647" style="fill-opacity: 0;"/><g class="node-entered" transform="translate(0 4.466770926566824)"><path class="node-label-guide" id="2e148b_0_node_23" d="M-540,0L-4,0" transform="matrix(1 0 0 1 0 0)"/><text class="node-label" transform="scale(1 1)" style="user-select: none; cursor: default; fill: rgb(42, 63, 95); text-shadow: rgb(255, 255, 255) -1px 1px 1px, rgb(255, 255, 255) 1px 1px 1px, rgb(255, 255, 255) 1px -1px 1px, rgb(255, 255, 255) -1px -1px 1px; font-family: 'Open Sans', verdana, arial, sans-serif; font-size: 8px; fill-opacity: 1;"><textPath class="node-label-text-path" alignment-baseline="middle" xlink:href="#2e148b_0_node_23" startOffset="100%" text-anchor="end" style="fill: rgb(0, 0, 0);">Residence 1&amp;2 (201.17KW)</textPath></text></g></g><g class="sankey-node" transform="translate(520.000, 146.571)" style="opacity: 1;"><rect class="node-rect" width="20" height="6.842896055680001" style="stroke-width: 0.5; stroke: rgb(0, 0, 0); stroke-opacity: 1; fill: rgb(255, 0, 0); fill-opacity: 1;"/><rect class="node-capture" x="-10" y="-7.5" width="40" height="21.84289605568" style="fill-opacity: 0;"/><g class="node-entered" transform="translate(0 4.42144802784)"><path class="node-label-guide" id="2e148b_0_node_24" d="M-540,0L-4,0" transform="matrix(1 0 0 1 0 0)"/><text class="node-label" transform="scale(1 1)" style="user-select: none; cursor: default; fill: rgb(42, 63, 95); text-shadow: rgb(255, 255, 255) -1px 1px 1px, rgb(255, 255, 255) 1px 1px 1px, rgb(255, 255, 255) 1px -1px 1px, rgb(255, 255, 255) -1px -1px 1px; font-family: 'Open Sans', verdana, arial, sans-serif; font-size: 8px; fill-opacity: 1;"><textPath class="node-label-text-path" alignment-baseline="middle" xlink:href="#2e148b_0_node_24" startOffset="100%" text-anchor="end" style="fill: rgb(0, 0, 0);">Residence 3 (198.54KW)</textPath></text></g></g><g class="sankey-node" transform="translate(520.000, 195.706)" style="opacity: 1;"><rect class="node-rect" width="20" height="5.01412570857417" style="stroke-width: 0.5; stroke: rgb(0, 0, 0); stroke-opacity: 1; fill: rgb(255, 0, 0); fill-opacity: 1;"/><rect class="node-capture" x="-10" y="-7.5" width="40" height="20.01412570857417" style="fill-opacity: 0;"/><g class="node-entered" transform="translate(0 3.507062854287085)"><path class="node-label-guide" id="2e148b_0_node_25" d="M-540,0L-4,0" transform="matrix(1 0 0 1 0 0)"/><text class="node-label" transform="scale(1 1)" style="user-select: none; cursor: default; fill: rgb(42, 63, 95); text-shadow: rgb(255, 255, 255) -1px 1px 1px, rgb(255, 255, 255) 1px 1px 1px, rgb(255, 255, 255) 1px -1px 1px, rgb(255, 255, 255) -1px -1px 1px; font-family: 'Open Sans', verdana, arial, sans-serif; font-size: 8px; fill-opacity: 1;"><textPath class="node-label-text-path" alignment-baseline="middle" xlink:href="#2e148b_0_node_25" startOffset="100%" text-anchor="end" style="fill: rgb(0, 0, 0);">Plant Chillers (145.48KW)</textPath></text></g></g></g></g><defs id="topdefs-dcc32c"><g class="clips"/></defs><g class="layer-above"><g class="imagelayer"/><g class="shapelayer"/></g><g class="infolayer"><g class="g-gtitle"><text class="gtitle" x="350" y="50" text-anchor="middle" dy="0em" style="font-family: 'Open Sans', verdana, arial, sans-serif; font-size: 11px; fill: rgb(42, 63, 95); opacity: 1; font-weight: normal; white-space: pre;">Algonquin College Power Usage at 16:00 Jan, 08 2020 (In KW)</text></g><g class="first-render"/></g></svg>