<svg class="main-svg" xmlns="http://www.w3.org/2000/svg" xmlns:xlink="http://www.w3.org/1999/xlink" width="700" height="500" viewBox="0 0 700 500"><rect x="0" y="0" width="700" height="500" style="fill: rgb(255, 255, 255); fill-opacity: 1;"/><defs id="defs-4d6727"><g class="clips"/><g class="gradients"/></defs><g class="bglayer"/><g class="layer-below"><g class="imagelayer"/><g class="shapelayer"/></g><g class="cartesianlayer"/><g class="polarlayer"/><g class="ternarylayer"/><g class="geolayer"/><g class="funnelarealayer"/><g class="pielayer"/><g class="treemaplayer"/><g class="sunburstlayer"/><g class="glimages"/><g class="sankey" transform="translate(80,100)matrix(1 0 0 1 0 0)" style="box-sizing: content-box; position: absolute; left: 0px; shape-rendering: geometricPrecision; pointer-events: auto;"><g class="sankey-links" style="fill: none;"><path class="sankey-link" d="M20,162.53259757614552C140,162.53259757614552 140,145.00784484154826 260,145.00784484154826L260,173.49037447549864C140,173.49037447549864 140,191.0151272100959 20,191.0151272100959Z" style="stroke: rgb(68, 68, 68); stroke-opacity: 1; fill: rgb(0, 0, 0); fill-opacity: 0.2; stroke-width: 0; opacity: 1;"/><path class="sankey-link" d="M20,69.99353478579985C140,69.99353478579985 140,66.69100427342482 260,66.69100427342482L260,145.00784484154826C140,145.00784484154826 140,148.3103753539233 20,148.3103753539233Z" style="stroke: rgb(68, 68, 68); stroke-opacity: 1; fill: rgb(0, 0, 0); fill-opacity: 0.2; stroke-width: 0; opacity: 1;"/><path class="sankey-link" d="M280,66.69100427342482C400,66.69100427342482 400,-2.1316282072803006e-13 520,-2.1316282072803006e-13L520,27.751572455314317C400,27.751572455314317 400,94.44257672873937 280,94.44257672873937Z" style="stroke: rgb(68, 68, 68); stroke-opacity: 1; fill: rgb(0, 0, 0); fill-opacity: 0.2; stroke-width: 0; opacity: 1;"/><path class="sankey-link" d="M280,94.44257672873935C400,94.44257672873935 400,41.973794677536546 520,41.973794677536546L520,53.765700305743664C400,53.765700305743664 400,106.23448235694646 280,106.23448235694646Z" style="stroke: rgb(68, 68, 68); stroke-opacity: 1; fill: rgb(0, 0, 0); fill-opacity: 0.2; stroke-width: 0; opacity: 1;"/><path class="sankey-link" d="M280,152.41705305285143C400,152.41705305285143 400,185.28160433498198 520,185.28160433498198L520,189.89055040241607C400,189.89055040241607 400,157.02599912028552 280,157.02599912028552Z" style="stroke: rgb(68, 68, 68); stroke-opacity: 1; fill: rgb(0, 0, 0); fill-opacity: 0.2; stroke-width: 0; opacity: 1;"/><path class="sankey-link" d="M280,130.72720405750965C400,130.72720405750965 400,120.92508867297352 520,120.92508867297352L520,128.2781698152029C400,128.2781698152029 400,138.08028519973902 280,138.08028519973902Z" style="stroke: rgb(68, 68, 68); stroke-opacity: 1; fill: rgb(0, 0, 0); fill-opacity: 0.2; stroke-width: 0; opacity: 1;"/><path class="sankey-link" d="M280,170.10969752430793C400,170.10969752430793 400,259.8631376953275 520,259.8631376953275L520,260.66458003047467C400,260.66458003047467 400,170.9111398594551 280,170.9111398594551Z" style="stroke: rgb(0, 0, 0); stroke-opacity: 0.2; fill: rgb(0, 0, 0); fill-opacity: 0.2; stroke-width: 1; opacity: 1;"/><path class="sankey-link" d="M280,119.33863015822837C400,119.33863015822837 400,95.31429255147 520,95.31429255147L520,106.70286645075129C400,106.70286645075129 400,130.72720405750965 280,130.72720405750965Z" style="stroke: rgb(68, 68, 68); stroke-opacity: 1; fill: rgb(0, 0, 0); fill-opacity: 0.2; stroke-width: 0; opacity: 1;"/><path class="sankey-link" d="M280,157.0259991202855C400,157.0259991202855 400,204.11277262463835 520,204.11277262463835L520,209.28647013128034C400,209.28647013128034 400,162.19969662692748 280,162.19969662692748Z" style="stroke: rgb(68, 68, 68); stroke-opacity: 1; fill: rgb(0, 0, 0); fill-opacity: 0.2; stroke-width: 0; opacity: 1;"/><path class="sankey-link" d="M280,172.7494101450124C400,172.7494101450124 400,290.94729476047644 520,290.94729476047644L520,291.251425158016C400,291.251425158016 400,173.05354054255196 280,173.05354054255196Z" style="stroke: rgb(0, 0, 0); stroke-opacity: 0.2; fill: rgb(0, 0, 0); fill-opacity: 0.2; stroke-width: 1; opacity: 1;"/><path class="sankey-link" d="M280,173.05354054255196C400,173.05354054255196 400,305.4736473802382 520,305.4736473802382L520,305.57850492788776C400,305.57850492788776 400,173.1583980902015 280,173.1583980902015Z" style="stroke: rgb(0, 0, 0); stroke-opacity: 0.2; fill: rgb(0, 0, 0); fill-opacity: 0.2; stroke-width: 1; opacity: 1;"/><path class="sankey-link" d="M280,146.25569316793369C400,146.25569316793369 400,164.89802222784203 520,164.89802222784203L520,171.0593821127598C400,171.0593821127598 400,152.41705305285146 280,152.41705305285146Z" style="stroke: rgb(68, 68, 68); stroke-opacity: 1; fill: rgb(0, 0, 0); fill-opacity: 0.2; stroke-width: 0; opacity: 1;"/><path class="sankey-link" d="M280,162.19969662692748C400,162.19969662692748 400,223.50869235350257 520,223.50869235350257L520,229.02176283593974C400,229.02176283593974 400,167.71276710936465 280,167.71276710936465Z" style="stroke: rgb(68, 68, 68); stroke-opacity: 1; fill: rgb(0, 0, 0); fill-opacity: 0.2; stroke-width: 0; opacity: 1;"/><path class="sankey-link" d="M280,173.1583980902015C400,173.1583980902015 400,319.80072715011 520,319.80072715011L520,320C400,320 400,173.3576709400915 280,173.3576709400915Z" style="stroke: rgb(0, 0, 0); stroke-opacity: 0.2; fill: rgb(0, 0, 0); fill-opacity: 0.2; stroke-width: 1; opacity: 1;"/><path class="sankey-link" d="M280,106.23448235694647C400,106.23448235694647 400,67.98792252796588 520,67.98792252796588L520,81.09207032924778C400,81.09207032924778 400,119.33863015822837 280,119.33863015822837Z" style="stroke: rgb(68, 68, 68); stroke-opacity: 1; fill: rgb(0, 0, 0); fill-opacity: 0.2; stroke-width: 0; opacity: 1;"/><path class="sankey-link" d="M280,167.71276710936465C400,167.71276710936465 400,243.24398505816197 520,243.24398505816197L520,245.64091547310528C400,245.64091547310528 400,170.10969752430796 280,170.10969752430796Z" style="stroke: rgb(68, 68, 68); stroke-opacity: 1; fill: rgb(0, 0, 0); fill-opacity: 0.2; stroke-width: 0; opacity: 1;"/><path class="sankey-link" d="M280,170.91113985945506C400,170.91113985945506 400,274.8868022526969 520,274.8868022526969L520,276.7250725382542C400,276.7250725382542 400,172.74941014501238 280,172.74941014501238Z" style="stroke: rgb(68, 68, 68); stroke-opacity: 1; fill: rgb(0, 0, 0); fill-opacity: 0.2; stroke-width: 0; opacity: 1;"/><path class="sankey-link" d="M280,138.08028519973902C400,138.08028519973902 400,142.50039203742512 520,142.50039203742512L520,150.6758000056198C400,150.6758000056198 400,146.2556931679337 280,146.2556931679337Z" style="stroke: rgb(68, 68, 68); stroke-opacity: 1; fill: rgb(0, 0, 0); fill-opacity: 0.2; stroke-width: 0; opacity: 1;"/></g><g class="sankey-node-set" style="cursor: move;"><g class="sankey-node" transform="translate(0.000, 162.533)" style="opacity: 1;"><rect class="node-rect" width="20" height="28.482529633950293" style="stroke-width: 0.5; stroke: rgb(0, 0, 0); stroke-opacity: 1; fill: rgb(0, 128, 128); fill-opacity: 1;"/><rect class="node-capture" x="-10" y="-7.5" width="40" height="43.48252963395029" style="fill-opacity: 0;"/><g class="node-entered" transform="translate(0 15.241264816975146)"><path class="node-label-guide" id="971d13_0_node_0" d="M24,0L540,0" transform="matrix(1 0 0 1 0 0)"/><text class="node-label" transform="scale(1 1)" style="user-select: none; cursor: default; fill: rgb(42, 63, 95); text-shadow: rgb(255, 255, 255) -1px 1px 1px, rgb(255, 255, 255) 1px 1px 1px, rgb(255, 255, 255) 1px -1px 1px, rgb(255, 255, 255) -1px -1px 1px; font-family: 'Open Sans', verdana, arial, sans-serif; font-size: 9px; fill-opacity: 1;"><textPath class="node-label-text-path" alignment-baseline="middle" xlink:href="#971d13_0_node_0" startOffset="0%" text-anchor="start" style="fill: rgb(0, 0, 0);">Hydro Power (654.63KW )</textPath></text></g></g><g class="sankey-node" transform="translate(0.000, 69.994)" style="opacity: 1;"><rect class="node-rect" width="20" height="78.31684056812342" style="stroke-width: 0.5; stroke: rgb(0, 0, 0); stroke-opacity: 1; fill: rgb(175, 238, 238); fill-opacity: 1;"/><rect class="node-capture" x="-10" y="-7.5" width="40" height="93.31684056812342" style="fill-opacity: 0;"/><g class="node-entered" transform="translate(0 40.15842028406171)"><path class="node-label-guide" id="971d13_0_node_2" d="M24,0L540,0" transform="matrix(1 0 0 1 0 0)"/><text class="node-label" transform="scale(1 1)" style="user-select: none; cursor: default; fill: rgb(42, 63, 95); text-shadow: rgb(255, 255, 255) -1px 1px 1px, rgb(255, 255, 255) 1px 1px 1px, rgb(255, 255, 255) 1px -1px 1px, rgb(255, 255, 255) -1px -1px 1px; font-family: 'Open Sans', verdana, arial, sans-serif; font-size: 9px; fill-opacity: 1;"><textPath class="node-label-text-path" alignment-baseline="middle" xlink:href="#971d13_0_node_2" startOffset="0%" text-anchor="start" style="fill: rgb(0, 0, 0);">COGEN 2 (1800.00KW)</textPath></text></g></g><g class="sankey-node" transform="translate(260.000, 66.691)" style="opacity: 1;"><rect class="node-rect" width="20" height="106.79937020207367" style="stroke-width: 0.5; stroke: rgb(0, 0, 0); stroke-opacity: 1; fill: rgb(138, 43, 226); fill-opacity: 1;"/><rect class="node-capture" x="-10" y="-7.5" width="40" height="121.79937020207367" style="fill-opacity: 0;"/><g class="node-entered" transform="translate(0 54.39968510103684)"><path class="node-label-guide" id="971d13_0_node_5" d="M24,0L540,0" transform="matrix(1 0 0 1 0 0)"/><text class="node-label" transform="scale(1 1)" style="user-select: none; cursor: default; fill: rgb(42, 63, 95); text-shadow: rgb(255, 255, 255) -1px 1px 1px, rgb(255, 255, 255) 1px 1px 1px, rgb(255, 255, 255) 1px -1px 1px, rgb(255, 255, 255) -1px -1px 1px; font-family: 'Open Sans', verdana, arial, sans-serif; font-size: 9px; fill-opacity: 1;"><textPath class="node-label-text-path" alignment-baseline="middle" xlink:href="#971d13_0_node_5" startOffset="0%" text-anchor="start" style="fill: rgb(0, 0, 0);">Total Power (2454.63KW)</textPath></text></g></g><g class="sankey-node" transform="translate(520.000, -0.000)" style="opacity: 1;"><rect class="node-rect" width="20" height="27.751572455314545" style="stroke-width: 0.5; stroke: rgb(0, 0, 0); stroke-opacity: 1; fill: rgb(250, 128, 114); fill-opacity: 1;"/><rect class="node-capture" x="-10" y="-7.5" width="40" height="42.751572455314545" style="fill-opacity: 0;"/><g class="node-entered" transform="translate(0 14.875786227657272)"><path class="node-label-guide" id="971d13_0_node_6" d="M-540,0L-4,0" transform="matrix(1 0 0 1 0 0)"/><text class="node-label" transform="scale(1 1)" style="user-select: none; cursor: default; fill: rgb(42, 63, 95); text-shadow: rgb(255, 255, 255) -1px 1px 1px, rgb(255, 255, 255) 1px 1px 1px, rgb(255, 255, 255) 1px -1px 1px, rgb(255, 255, 255) -1px -1px 1px; font-family: 'Open Sans', verdana, arial, sans-serif; font-size: 9px; fill-opacity: 1;"><textPath class="node-label-text-path" alignment-baseline="middle" xlink:href="#971d13_0_node_6" startOffset="100%" text-anchor="end" style="fill: rgb(0, 0, 0);">Building A (606.28KW)</textPath></text></g></g><g class="sankey-node" transform="translate(520.000, 41.974)" style="opacity: 1;"><rect class="node-rect" width="20" height="11.791905628207104" style="stroke-width: 0.5; stroke: rgb(0, 0, 0); stroke-opacity: 1; fill: rgb(255, 160, 122); fill-opacity: 1;"/><rect class="node-capture" x="-10" y="-7.5" width="40" height="26.791905628207104" style="fill-opacity: 0;"/><g class="node-entered" transform="translate(0 6.895952814103552)"><path class="node-label-guide" id="971d13_0_node_7" d="M-540,0L-4,0" transform="matrix(1 0 0 1 0 0)"/><text class="node-label" transform="scale(1 1)" style="user-select: none; cursor: default; fill: rgb(42, 63, 95); text-shadow: rgb(255, 255, 255) -1px 1px 1px, rgb(255, 255, 255) 1px 1px 1px, rgb(255, 255, 255) 1px -1px 1px, rgb(255, 255, 255) -1px -1px 1px; font-family: 'Open Sans', verdana, arial, sans-serif; font-size: 9px; fill-opacity: 1;"><textPath class="node-label-text-path" alignment-baseline="middle" xlink:href="#971d13_0_node_7" startOffset="100%" text-anchor="end" style="fill: rgb(0, 0, 0);">Building B (271.02KW)</textPath></text></g></g><g class="sankey-node" transform="translate(520.000, 185.282)" style="opacity: 1;"><rect class="node-rect" width="20" height="4.608946067434147" style="stroke-width: 0.5; stroke: rgb(0, 0, 0); stroke-opacity: 1; fill: rgb(102, 205, 170); fill-opacity: 1;"/><rect class="node-capture" x="-10" y="-7.5" width="40" height="19.608946067434147" style="fill-opacity: 0;"/><g class="node-entered" transform="translate(0 3.3044730337170733)"><path class="node-label-guide" id="971d13_0_node_9" d="M-540,0L-4,0" transform="matrix(1 0 0 1 0 0)"/><text class="node-label" transform="scale(1 1)" style="user-select: none; cursor: default; fill: rgb(42, 63, 95); text-shadow: rgb(255, 255, 255) -1px 1px 1px, rgb(255, 255, 255) 1px 1px 1px, rgb(255, 255, 255) 1px -1px 1px, rgb(255, 255, 255) -1px -1px 1px; font-family: 'Open Sans', verdana, arial, sans-serif; font-size: 9px; fill-opacity: 1;"><textPath class="node-label-text-path" alignment-baseline="middle" xlink:href="#971d13_0_node_9" startOffset="100%" text-anchor="end" style="fill: rgb(0, 0, 0);">Building D (105.93KW)</textPath></text></g></g><g class="sankey-node" transform="translate(520.000, 120.925)" style="opacity: 1;"><rect class="node-rect" width="20" height="7.353081142229371" style="stroke-width: 0.5; stroke: rgb(0, 0, 0); stroke-opacity: 1; fill: rgb(135, 206, 250); fill-opacity: 1;"/><rect class="node-capture" x="-10" y="-7.5" width="40" height="22.35308114222937" style="fill-opacity: 0;"/><g class="node-entered" transform="translate(0 4.6765405711146855)"><path class="node-label-guide" id="971d13_0_node_10" d="M-540,0L-4,0" transform="matrix(1 0 0 1 0 0)"/><text class="node-label" transform="scale(1 1)" style="user-select: none; cursor: default; fill: rgb(42, 63, 95); text-shadow: rgb(255, 255, 255) -1px 1px 1px, rgb(255, 255, 255) 1px 1px 1px, rgb(255, 255, 255) 1px -1px 1px, rgb(255, 255, 255) -1px -1px 1px; font-family: 'Open Sans', verdana, arial, sans-serif; font-size: 9px; fill-opacity: 1;"><textPath class="node-label-text-path" alignment-baseline="middle" xlink:href="#971d13_0_node_10" startOffset="100%" text-anchor="end" style="fill: rgb(0, 0, 0);">Building E (169.00KW)</textPath></text></g></g><g class="sankey-node" transform="translate(520.000, 259.863)" style="opacity: 1;"><rect class="node-rect" width="20" height="0.8014423351471578" style="stroke-width: 0.5; stroke: rgb(0, 0, 0); stroke-opacity: 1; fill: rgb(0, 191, 255); fill-opacity: 1;"/><rect class="node-capture" x="-10" y="-7.5" width="40" height="15.801442335147158" style="fill-opacity: 0;"/><g class="node-entered" transform="translate(0 1.400721167573579)"><path class="node-label-guide" id="971d13_0_node_11" d="M-540,0L-4,0" transform="matrix(1 0 0 1 0 0)"/><text class="node-label" transform="scale(1 1)" style="user-select: none; cursor: default; fill: rgb(42, 63, 95); text-shadow: rgb(255, 255, 255) -1px 1px 1px, rgb(255, 255, 255) 1px 1px 1px, rgb(255, 255, 255) 1px -1px 1px, rgb(255, 255, 255) -1px -1px 1px; font-family: 'Open Sans', verdana, arial, sans-serif; font-size: 9px; fill-opacity: 1;"><textPath class="node-label-text-path" alignment-baseline="middle" xlink:href="#971d13_0_node_11" startOffset="100%" text-anchor="end" style="fill: rgb(0, 0, 0);">Building G (18.42KW)</textPath></text></g></g><g class="sankey-node" transform="translate(520.000, 95.314)" style="opacity: 1;"><rect class="node-rect" width="20" height="11.388573899281283" style="stroke-width: 0.5; stroke: rgb(0, 0, 0); stroke-opacity: 1; fill: rgb(255, 228, 181); fill-opacity: 1;"/><rect class="node-capture" x="-10" y="-7.5" width="40" height="26.388573899281283" style="fill-opacity: 0;"/><g class="node-entered" transform="translate(0 6.694286949640642)"><path class="node-label-guide" id="971d13_0_node_12" d="M-540,0L-4,0" transform="matrix(1 0 0 1 0 0)"/><text class="node-label" transform="scale(1 1)" style="user-select: none; cursor: default; fill: rgb(42, 63, 95); text-shadow: rgb(255, 255, 255) -1px 1px 1px, rgb(255, 255, 255) 1px 1px 1px, rgb(255, 255, 255) 1px -1px 1px, rgb(255, 255, 255) -1px -1px 1px; font-family: 'Open Sans', verdana, arial, sans-serif; font-size: 9px; fill-opacity: 1;"><textPath class="node-label-text-path" alignment-baseline="middle" xlink:href="#971d13_0_node_12" startOffset="100%" text-anchor="end" style="fill: rgb(0, 0, 0);">Building H (261.75KW)</textPath></text></g></g><g class="sankey-node" transform="translate(520.000, 204.113)" style="opacity: 1;"><rect class="node-rect" width="20" height="5.173697506641986" style="stroke-width: 0.5; stroke: rgb(0, 0, 0); stroke-opacity: 1; fill: rgb(175, 238, 238); fill-opacity: 1;"/><rect class="node-capture" x="-10" y="-7.5" width="40" height="20.173697506641986" style="fill-opacity: 0;"/><g class="node-entered" transform="translate(0 3.586848753320993)"><path class="node-label-guide" id="971d13_0_node_13" d="M-540,0L-4,0" transform="matrix(1 0 0 1 0 0)"/><text class="node-label" transform="scale(1 1)" style="user-select: none; cursor: default; fill: rgb(42, 63, 95); text-shadow: rgb(255, 255, 255) -1px 1px 1px, rgb(255, 255, 255) 1px 1px 1px, rgb(255, 255, 255) 1px -1px 1px, rgb(255, 255, 255) -1px -1px 1px; font-family: 'Open Sans', verdana, arial, sans-serif; font-size: 9px; fill-opacity: 1;"><textPath class="node-label-text-path" alignment-baseline="middle" xlink:href="#971d13_0_node_13" startOffset="100%" text-anchor="end" style="fill: rgb(0, 0, 0);">Building J (118.91KW)</textPath></text></g></g><g class="sankey-node" transform="translate(520.000, 290.947)" style="opacity: 1;"><rect class="node-rect" width="20" height="0.5" style="stroke-width: 0.5; stroke: rgb(0, 0, 0); stroke-opacity: 1; fill: rgb(255, 165, 0); fill-opacity: 1;"/><rect class="node-capture" x="-10" y="-7.5" width="40" height="15.5" style="fill-opacity: 0;"/><g class="node-entered" transform="translate(0 1.152065198769776)"><path class="node-label-guide" id="971d13_0_node_14" d="M-540,0L-4,0" transform="matrix(1 0 0 1 0 0)"/><text class="node-label" transform="scale(1 1)" style="user-select: none; cursor: default; fill: rgb(42, 63, 95); text-shadow: rgb(255, 255, 255) -1px 1px 1px, rgb(255, 255, 255) 1px 1px 1px, rgb(255, 255, 255) 1px -1px 1px, rgb(255, 255, 255) -1px -1px 1px; font-family: 'Open Sans', verdana, arial, sans-serif; font-size: 9px; fill-opacity: 1;"><textPath class="node-label-text-path" alignment-baseline="middle" xlink:href="#971d13_0_node_14" startOffset="100%" text-anchor="end" style="fill: rgb(0, 0, 0);">Building K (6.99KW)</textPath></text></g></g><g class="sankey-node" transform="translate(520.000, 305.474)" style="opacity: 1;"><rect class="node-rect" width="20" height="0.5" style="stroke-width: 0.5; stroke: rgb(0, 0, 0); stroke-opacity: 1; fill: rgb(255, 140, 0); fill-opacity: 1;"/><rect class="node-capture" x="-10" y="-7.5" width="40" height="15.5" style="fill-opacity: 0;"/><g class="node-entered" transform="translate(0 1.0524287738247722)"><path class="node-label-guide" id="971d13_0_node_15" d="M-540,0L-4,0" transform="matrix(1 0 0 1 0 0)"/><text class="node-label" transform="scale(1 1)" style="user-select: none; cursor: default; fill: rgb(42, 63, 95); text-shadow: rgb(255, 255, 255) -1px 1px 1px, rgb(255, 255, 255) 1px 1px 1px, rgb(255, 255, 255) 1px -1px 1px, rgb(255, 255, 255) -1px -1px 1px; font-family: 'Open Sans', verdana, arial, sans-serif; font-size: 9px; fill-opacity: 1;"><textPath class="node-label-text-path" alignment-baseline="middle" xlink:href="#971d13_0_node_15" startOffset="100%" text-anchor="end" style="fill: rgb(0, 0, 0);">Building M (2.41KW)</textPath></text></g></g><g class="sankey-node" transform="translate(520.000, 164.898)" style="opacity: 1;"><rect class="node-rect" width="20" height="6.161359884917715" style="stroke-width: 0.5; stroke: rgb(0, 0, 0); stroke-opacity: 1; fill: rgb(240, 230, 140); fill-opacity: 1;"/><rect class="node-capture" x="-10" y="-7.5" width="40" height="21.161359884917715" style="fill-opacity: 0;"/><g class="node-entered" transform="translate(0 4.080679942458858)"><path class="node-label-guide" id="971d13_0_node_16" d="M-540,0L-4,0" transform="matrix(1 0 0 1 0 0)"/><text class="node-label" transform="scale(1 1)" style="user-select: none; cursor: default; fill: rgb(42, 63, 95); text-shadow: rgb(255, 255, 255) -1px 1px 1px, rgb(255, 255, 255) 1px 1px 1px, rgb(255, 255, 255) 1px -1px 1px, rgb(255, 255, 255) -1px -1px 1px; font-family: 'Open Sans', verdana, arial, sans-serif; font-size: 9px; fill-opacity: 1;"><textPath class="node-label-text-path" alignment-baseline="middle" xlink:href="#971d13_0_node_16" startOffset="100%" text-anchor="end" style="fill: rgb(0, 0, 0);">Building N (141.61KW)</textPath></text></g></g><g class="sankey-node" transform="translate(520.000, 223.509)" style="opacity: 1;"><rect class="node-rect" width="20" height="5.513070482437172" style="stroke-width: 0.5; stroke: rgb(0, 0, 0); stroke-opacity: 1; fill: rgb(189, 183, 107); fill-opacity: 1;"/><rect class="node-capture" x="-10" y="-7.5" width="40" height="20.513070482437172" style="fill-opacity: 0;"/><g class="node-entered" transform="translate(0 3.756535241218586)"><path class="node-label-guide" id="971d13_0_node_17" d="M-540,0L-4,0" transform="matrix(1 0 0 1 0 0)"/><text class="node-label" transform="scale(1 1)" style="user-select: none; cursor: default; fill: rgb(42, 63, 95); text-shadow: rgb(255, 255, 255) -1px 1px 1px, rgb(255, 255, 255) 1px 1px 1px, rgb(255, 255, 255) 1px -1px 1px, rgb(255, 255, 255) -1px -1px 1px; font-family: 'Open Sans', verdana, arial, sans-serif; font-size: 9px; fill-opacity: 1;"><textPath class="node-label-text-path" alignment-baseline="middle" xlink:href="#971d13_0_node_17" startOffset="100%" text-anchor="end" style="fill: rgb(0, 0, 0);">Building P (126.71KW)</textPath></text></g></g><g class="sankey-node" transform="translate(520.000, 319.801)" style="opacity: 1;"><rect class="node-rect" width="20" height="0.5" style="stroke-width: 0.5; stroke: rgb(0, 0, 0); stroke-opacity: 1; fill: rgb(152, 251, 152); fill-opacity: 1;"/><rect class="node-capture" x="-10" y="-7.5" width="40" height="15.5" style="fill-opacity: 0;"/><g class="node-entered" transform="translate(0 1.099636424945004)"><path class="node-label-guide" id="971d13_0_node_18" d="M-540,0L-4,0" transform="matrix(1 0 0 1 0 0)"/><text class="node-label" transform="scale(1 1)" style="user-select: none; cursor: default; fill: rgb(42, 63, 95); text-shadow: rgb(255, 255, 255) -1px 1px 1px, rgb(255, 255, 255) 1px 1px 1px, rgb(255, 255, 255) 1px -1px 1px, rgb(255, 255, 255) -1px -1px 1px; font-family: 'Open Sans', verdana, arial, sans-serif; font-size: 9px; fill-opacity: 1;"><textPath class="node-label-text-path" alignment-baseline="middle" xlink:href="#971d13_0_node_18" startOffset="100%" text-anchor="end" style="fill: rgb(0, 0, 0);">Building S (4.58KW)</textPath></text></g></g><g class="sankey-node" transform="translate(520.000, 67.988)" style="opacity: 1;"><rect class="node-rect" width="20" height="13.104147801281897" style="stroke-width: 0.5; stroke: rgb(0, 0, 0); stroke-opacity: 1; fill: rgb(0, 255, 127); fill-opacity: 1;"/><rect class="node-capture" x="-10" y="-7.5" width="40" height="28.104147801281897" style="fill-opacity: 0;"/><g class="node-entered" transform="translate(0 7.5520739006409485)"><path class="node-label-guide" id="971d13_0_node_19" d="M-540,0L-4,0" transform="matrix(1 0 0 1 0 0)"/><text class="node-label" transform="scale(1 1)" style="user-select: none; cursor: default; fill: rgb(42, 63, 95); text-shadow: rgb(255, 255, 255) -1px 1px 1px, rgb(255, 255, 255) 1px 1px 1px, rgb(255, 255, 255) 1px -1px 1px, rgb(255, 255, 255) -1px -1px 1px; font-family: 'Open Sans', verdana, arial, sans-serif; font-size: 9px; fill-opacity: 1;"><textPath class="node-label-text-path" alignment-baseline="middle" xlink:href="#971d13_0_node_19" startOffset="100%" text-anchor="end" style="fill: rgb(0, 0, 0);">Building T (301.18KW)</textPath></text></g></g><g class="sankey-node" transform="translate(520.000, 243.244)" style="opacity: 1;"><rect class="node-rect" width="20" height="2.396930414943313" style="stroke-width: 0.5; stroke: rgb(0, 0, 0); stroke-opacity: 1; fill: rgb(144, 238, 144); fill-opacity: 1;"/><rect class="node-capture" x="-10" y="-7.5" width="40" height="17.396930414943313" style="fill-opacity: 0;"/><g class="node-entered" transform="translate(0 2.1984652074716564)"><path class="node-label-guide" id="971d13_0_node_20" d="M-540,0L-4,0" transform="matrix(1 0 0 1 0 0)"/><text class="node-label" transform="scale(1 1)" style="user-select: none; cursor: default; fill: rgb(42, 63, 95); text-shadow: rgb(255, 255, 255) -1px 1px 1px, rgb(255, 255, 255) 1px 1px 1px, rgb(255, 255, 255) 1px -1px 1px, rgb(255, 255, 255) -1px -1px 1px; font-family: 'Open Sans', verdana, arial, sans-serif; font-size: 9px; fill-opacity: 1;"><textPath class="node-label-text-path" alignment-baseline="middle" xlink:href="#971d13_0_node_20" startOffset="100%" text-anchor="end" style="fill: rgb(0, 0, 0);">Building V (55.09KW)</textPath></text></g></g><g class="sankey-node" transform="translate(520.000, 274.887)" style="opacity: 1;"><rect class="node-rect" width="20" height="1.8382702855573143" style="stroke-width: 0.5; stroke: rgb(0, 0, 0); stroke-opacity: 1; fill: rgb(100, 149, 237); fill-opacity: 1;"/><rect class="node-capture" x="-10" y="-7.5" width="40" height="16.838270285557314" style="fill-opacity: 0;"/><g class="node-entered" transform="translate(0 1.9191351427786572)"><path class="node-label-guide" id="971d13_0_node_21" d="M-540,0L-4,0" transform="matrix(1 0 0 1 0 0)"/><text class="node-label" transform="scale(1 1)" style="user-select: none; cursor: default; fill: rgb(42, 63, 95); text-shadow: rgb(255, 255, 255) -1px 1px 1px, rgb(255, 255, 255) 1px 1px 1px, rgb(255, 255, 255) 1px -1px 1px, rgb(255, 255, 255) -1px -1px 1px; font-family: 'Open Sans', verdana, arial, sans-serif; font-size: 9px; fill-opacity: 1;"><textPath class="node-label-text-path" alignment-baseline="middle" xlink:href="#971d13_0_node_21" startOffset="100%" text-anchor="end" style="fill: rgb(0, 0, 0);">Building Z (42.25KW)</textPath></text></g></g><g class="sankey-node" transform="translate(520.000, 142.500)" style="opacity: 1;"><rect class="node-rect" width="20" height="8.17540796819469" style="stroke-width: 0.5; stroke: rgb(0, 0, 0); stroke-opacity: 1; fill: rgb(221, 160, 221); fill-opacity: 1;"/><rect class="node-capture" x="-10" y="-7.5" width="40" height="23.17540796819469" style="fill-opacity: 0;"/><g class="node-entered" transform="translate(0 5.087703984097345)"><path class="node-label-guide" id="971d13_0_node_22" d="M-540,0L-4,0" transform="matrix(1 0 0 1 0 0)"/><text class="node-label" transform="scale(1 1)" style="user-select: none; cursor: default; fill: rgb(42, 63, 95); text-shadow: rgb(255, 255, 255) -1px 1px 1px, rgb(255, 255, 255) 1px 1px 1px, rgb(255, 255, 255) 1px -1px 1px, rgb(255, 255, 255) -1px -1px 1px; font-family: 'Open Sans', verdana, arial, sans-serif; font-size: 9px; fill-opacity: 1;"><textPath class="node-label-text-path" alignment-baseline="middle" xlink:href="#971d13_0_node_22" startOffset="100%" text-anchor="end" style="fill: rgb(0, 0, 0);">Residence 1&amp;2 (187.90KW)</textPath></text></g></g></g></g><defs id="topdefs-4d6727"><g class="clips"/></defs><g class="layer-above"><g class="imagelayer"/><g class="shapelayer"/></g><g class="infolayer"><g class="g-gtitle"/><g class="first-render"/></g></svg>