<svg class="main-svg" xmlns="http://www.w3.org/2000/svg" xmlns:xlink="http://www.w3.org/1999/xlink" width="700" height="500" viewBox="0 0 700 500"><rect x="0" y="0" width="700" height="500" style="fill: rgb(255, 255, 255); fill-opacity: 1;"/><defs id="defs-c1753a"><g class="clips"/><g class="gradients"/></defs><g class="bglayer"/><g class="layer-below"><g class="imagelayer"/><g class="shapelayer"/></g><g class="cartesianlayer"/><g class="polarlayer"/><g class="ternarylayer"/><g class="geolayer"/><g class="funnelarealayer"/><g class="pielayer"/><g class="treemaplayer"/><g class="sunburstlayer"/><g class="glimages"/><g class="sankey" transform="translate(80,100)matrix(1 0 0 1 0 0)" style="box-sizing: content-box; position: absolute; left: 0px; shape-rendering: geometricPrecision; pointer-events: auto;"><g class="sankey-links" style="fill: none;"><path class="sankey-link" d="M20,159.55494629552527C140,159.55494629552527 140,140.78543856188566 260,140.78543856188566L260,180.00345859040124C140,180.00345859040124 140,198.77296632404085 20,198.77296632404085Z" style="stroke: rgb(68, 68, 68); stroke-opacity: 1; fill: rgb(0, 0, 0); fill-opacity: 0.2; stroke-width: 0; opacity: 1;"/><path class="sankey-link" d="M20,77.75198165443997C140,77.75198165443997 140,73.20469614302253 260,73.20469614302253L260,140.78543856188566C140,140.78543856188566 140,145.3327240733031 20,145.3327240733031Z" style="stroke: rgb(68, 68, 68); stroke-opacity: 1; fill: rgb(0, 0, 0); fill-opacity: 0.2; stroke-width: 0; opacity: 1;"/><path class="sankey-link" d="M280,73.20469614302253C400,73.20469614302253 400,-4.405364961712621e-13 520,-4.405364961712621e-13L520,27.882128184753324C400,27.882128184753324 400,101.08682432777628 280,101.08682432777628Z" style="stroke: rgb(68, 68, 68); stroke-opacity: 1; fill: rgb(0, 0, 0); fill-opacity: 0.2; stroke-width: 0; opacity: 1;"/><path class="sankey-link" d="M280,114.37439751864456C400,114.37439751864456 400,69.614145820066 520,69.614145820066L520,81.4928476296204C400,81.4928476296204 400,126.25309932819896 280,126.25309932819896Z" style="stroke: rgb(68, 68, 68); stroke-opacity: 1; fill: rgb(0, 0, 0); fill-opacity: 0.2; stroke-width: 0; opacity: 1;"/><path class="sankey-link" d="M280,159.38028660101844C400,159.38028660101844 400,185.73114601355138 520,185.73114601355138L520,190.0799374836805C400,190.0799374836805 400,163.72907807114757 280,163.72907807114757Z" style="stroke: rgb(68, 68, 68); stroke-opacity: 1; fill: rgb(0, 0, 0); fill-opacity: 0.2; stroke-width: 0; opacity: 1;"/><path class="sankey-link" d="M280,136.65395141361037C400,136.65395141361037 400,120.33814415947629 520,120.33814415947629L520,128.40815943164205C400,128.40815943164205 400,144.72396668577616 280,144.72396668577616Z" style="stroke: rgb(68, 68, 68); stroke-opacity: 1; fill: rgb(0, 0, 0); fill-opacity: 0.2; stroke-width: 0; opacity: 1;"/><path class="sankey-link" d="M280,178.45617968458706C400,178.45617968458706 400,275.91815020823117 520,275.91815020823117L520,276.63588564472775C400,276.63588564472775 400,179.17391512108358 280,179.17391512108358Z" style="stroke: rgb(0, 0, 0); stroke-opacity: 0.2; fill: rgb(0, 0, 0); fill-opacity: 0.2; stroke-width: 1; opacity: 1;"/><path class="sankey-link" d="M280,126.25309932819894C400,126.25309932819894 400,95.7150698518426 520,95.7150698518426L520,106.11592193725403C400,106.11592193725403 400,136.65395141361037 280,136.65395141361037Z" style="stroke: rgb(68, 68, 68); stroke-opacity: 1; fill: rgb(0, 0, 0); fill-opacity: 0.2; stroke-width: 0; opacity: 1;"/><path class="sankey-link" d="M280,163.72907807114754C400,163.72907807114754 400,204.30215970590274 520,204.30215970590274L520,208.84120516736448C400,208.84120516736448 400,168.26812353260928 280,168.26812353260928Z" style="stroke: rgb(68, 68, 68); stroke-opacity: 1; fill: rgb(0, 0, 0); fill-opacity: 0.2; stroke-width: 0; opacity: 1;"/><path class="sankey-link" d="M280,179.17391512108358C400,179.17391512108358 400,290.8581078669499 520,290.8581078669499L520,291.2241890066705C400,291.2241890066705 400,179.5399962608042 280,179.5399962608042Z" style="stroke: rgb(0, 0, 0); stroke-opacity: 0.2; fill: rgb(0, 0, 0); fill-opacity: 0.2; stroke-width: 1; opacity: 1;"/><path class="sankey-link" d="M280,179.53999626080417C400,179.53999626080417 400,305.4464112288927 520,305.4464112288927L520,305.58166288149886C400,305.58166288149886 400,179.67524791341032 280,179.67524791341032Z" style="stroke: rgb(0, 0, 0); stroke-opacity: 0.2; fill: rgb(0, 0, 0); fill-opacity: 0.2; stroke-width: 1; opacity: 1;"/><path class="sankey-link" d="M280,168.26812353260928C400,168.26812353260928 400,223.0634273895867 520,223.0634273895867L520,228.01814626339126C400,228.01814626339126 400,173.22284240641383 280,173.22284240641383Z" style="stroke: rgb(68, 68, 68); stroke-opacity: 1; fill: rgb(0, 0, 0); fill-opacity: 0.2; stroke-width: 0; opacity: 1;"/><path class="sankey-link" d="M280,153.6456165305185C400,153.6456165305185 400,165.77425372082917 520,165.77425372082917L520,171.5089237913291C400,171.5089237913291 400,159.38028660101844 280,159.38028660101844Z" style="stroke: rgb(68, 68, 68); stroke-opacity: 1; fill: rgb(0, 0, 0); fill-opacity: 0.2; stroke-width: 0; opacity: 1;"/><path class="sankey-link" d="M280,179.67524791341032C400,179.67524791341032 400,319.8038851037211 520,319.8038851037211L520,320C400,320 400,179.87136280968923 280,179.87136280968923Z" style="stroke: rgb(0, 0, 0); stroke-opacity: 0.2; fill: rgb(0, 0, 0); fill-opacity: 0.2; stroke-width: 1; opacity: 1;"/><path class="sankey-link" d="M280,101.0868243277763C400,101.0868243277763 400,42.10435040697553 520,42.10435040697553L520,55.391923597843785C400,55.391923597843785 400,114.37439751864457 280,114.37439751864457Z" style="stroke: rgb(68, 68, 68); stroke-opacity: 1; fill: rgb(0, 0, 0); fill-opacity: 0.2; stroke-width: 0; opacity: 1;"/><path class="sankey-link" d="M280,173.22284240641386C400,173.22284240641386 400,242.24036848561354 520,242.24036848561354L520,244.88814500479958C400,244.88814500479958 400,175.8706189255999 280,175.8706189255999Z" style="stroke: rgb(68, 68, 68); stroke-opacity: 1; fill: rgb(0, 0, 0); fill-opacity: 0.2; stroke-width: 0; opacity: 1;"/><path class="sankey-link" d="M280,175.87061892559987C400,175.87061892559987 400,259.11036722702175 520,259.11036722702175L520,261.69592798600894C400,261.69592798600894 400,178.45617968458706 280,178.45617968458706Z" style="stroke: rgb(68, 68, 68); stroke-opacity: 1; fill: rgb(0, 0, 0); fill-opacity: 0.2; stroke-width: 0; opacity: 1;"/><path class="sankey-link" d="M280,144.72396668577613C400,144.72396668577613 400,142.6303816538645 520,142.6303816538645L520,151.55203149860688C400,151.55203149860688 400,153.6456165305185 280,153.6456165305185Z" style="stroke: rgb(68, 68, 68); stroke-opacity: 1; fill: rgb(0, 0, 0); fill-opacity: 0.2; stroke-width: 0; opacity: 1;"/></g><g class="sankey-node-set" style="cursor: move;"><g class="sankey-node" transform="translate(0.000, 159.555)" style="opacity: 1;"><rect class="node-rect" width="20" height="39.21802002851558" style="stroke-width: 0.5; stroke: rgb(0, 0, 0); stroke-opacity: 1; fill: rgb(46, 139, 87); fill-opacity: 1;"/><rect class="node-capture" x="-10" y="-7.5" width="40" height="54.21802002851558" style="fill-opacity: 0;"/><g class="node-entered" transform="translate(0 20.60901001425779)"><path class="node-label-guide" id="99846d_0_node_0" d="M24,0L540,0" transform="matrix(1 0 0 1 0 0)"/><text class="node-label" transform="scale(1 1)" style="user-select: none; cursor: default; fill: rgb(42, 63, 95); text-shadow: rgb(255, 255, 255) -1px 1px 1px, rgb(255, 255, 255) 1px 1px 1px, rgb(255, 255, 255) 1px -1px 1px, rgb(255, 255, 255) -1px -1px 1px; font-family: 'Open Sans', verdana, arial, sans-serif; font-size: 9px; fill-opacity: 1;"><textPath class="node-label-text-path" alignment-baseline="middle" xlink:href="#99846d_0_node_0" startOffset="0%" text-anchor="start" style="fill: rgb(0, 0, 0);">Hydro Power (869.89KW )</textPath></text></g></g><g class="sankey-node" transform="translate(0.000, 77.752)" style="opacity: 1;"><rect class="node-rect" width="20" height="67.58074241886307" style="stroke-width: 0.5; stroke: rgb(0, 0, 0); stroke-opacity: 1; fill: rgb(0, 128, 128); fill-opacity: 1;"/><rect class="node-capture" x="-10" y="-7.5" width="40" height="82.58074241886307" style="fill-opacity: 0;"/><g class="node-entered" transform="translate(0 34.790371209431534)"><path class="node-label-guide" id="99846d_0_node_2" d="M24,0L540,0" transform="matrix(1 0 0 1 0 0)"/><text class="node-label" transform="scale(1 1)" style="user-select: none; cursor: default; fill: rgb(42, 63, 95); text-shadow: rgb(255, 255, 255) -1px 1px 1px, rgb(255, 255, 255) 1px 1px 1px, rgb(255, 255, 255) 1px -1px 1px, rgb(255, 255, 255) -1px -1px 1px; font-family: 'Open Sans', verdana, arial, sans-serif; font-size: 9px; fill-opacity: 1;"><textPath class="node-label-text-path" alignment-baseline="middle" xlink:href="#99846d_0_node_2" startOffset="0%" text-anchor="start" style="fill: rgb(0, 0, 0);">COGEN 2 (1499.00KW)</textPath></text></g></g><g class="sankey-node" transform="translate(260.000, 73.205)" style="opacity: 1;"><rect class="node-rect" width="20" height="106.79876244737859" style="stroke-width: 0.5; stroke: rgb(0, 0, 0); stroke-opacity: 1; fill: rgb(255, 255, 0); fill-opacity: 1;"/><rect class="node-capture" x="-10" y="-7.5" width="40" height="121.79876244737859" style="fill-opacity: 0;"/><g class="node-entered" transform="translate(0 54.399381223689296)"><path class="node-label-guide" id="99846d_0_node_5" d="M24,0L540,0" transform="matrix(1 0 0 1 0 0)"/><text class="node-label" transform="scale(1 1)" style="user-select: none; cursor: default; fill: rgb(42, 63, 95); text-shadow: rgb(255, 255, 255) -1px 1px 1px, rgb(255, 255, 255) 1px 1px 1px, rgb(255, 255, 255) 1px -1px 1px, rgb(255, 255, 255) -1px -1px 1px; font-family: 'Open Sans', verdana, arial, sans-serif; font-size: 9px; fill-opacity: 1;"><textPath class="node-label-text-path" alignment-baseline="middle" xlink:href="#99846d_0_node_5" startOffset="0%" text-anchor="start" style="fill: rgb(0, 0, 0);">Total Power (2368.89KW)</textPath></text></g></g><g class="sankey-node" transform="translate(520.000, -0.000)" style="opacity: 1;"><rect class="node-rect" width="20" height="27.88212818475374" style="stroke-width: 0.5; stroke: rgb(0, 0, 0); stroke-opacity: 1; fill: rgb(0, 0, 0); fill-opacity: 1;"/><rect class="node-capture" x="-10" y="-7.5" width="40" height="42.88212818475374" style="fill-opacity: 0;"/><g class="node-entered" transform="translate(0 14.94106409237687)"><path class="node-label-guide" id="99846d_0_node_6" d="M-540,0L-4,0" transform="matrix(1 0 0 1 0 0)"/><text class="node-label" transform="scale(1 1)" style="user-select: none; cursor: default; fill: rgb(42, 63, 95); text-shadow: rgb(255, 255, 255) -1px 1px 1px, rgb(255, 255, 255) 1px 1px 1px, rgb(255, 255, 255) 1px -1px 1px, rgb(255, 255, 255) -1px -1px 1px; font-family: 'Open Sans', verdana, arial, sans-serif; font-size: 9px; fill-opacity: 1;"><textPath class="node-label-text-path" alignment-baseline="middle" xlink:href="#99846d_0_node_6" startOffset="100%" text-anchor="end" style="fill: rgb(0, 0, 0);">Building A (589.88KW)</textPath></text></g></g><g class="sankey-node" transform="translate(520.000, 69.614)" style="opacity: 1;"><rect class="node-rect" width="20" height="11.878701809554371" style="stroke-width: 0.5; stroke: rgb(0, 0, 0); stroke-opacity: 1; fill: rgb(0, 0, 0); fill-opacity: 1;"/><rect class="node-capture" x="-10" y="-7.5" width="40" height="26.87870180955437" style="fill-opacity: 0;"/><g class="node-entered" transform="translate(0 6.939350904777186)"><path class="node-label-guide" id="99846d_0_node_7" d="M-540,0L-4,0" transform="matrix(1 0 0 1 0 0)"/><text class="node-label" transform="scale(1 1)" style="user-select: none; cursor: default; fill: rgb(42, 63, 95); text-shadow: rgb(255, 255, 255) -1px 1px 1px, rgb(255, 255, 255) 1px 1px 1px, rgb(255, 255, 255) 1px -1px 1px, rgb(255, 255, 255) -1px -1px 1px; font-family: 'Open Sans', verdana, arial, sans-serif; font-size: 9px; fill-opacity: 1;"><textPath class="node-label-text-path" alignment-baseline="middle" xlink:href="#99846d_0_node_7" startOffset="100%" text-anchor="end" style="fill: rgb(0, 0, 0);">Building B (263.48KW)</textPath></text></g></g><g class="sankey-node" transform="translate(520.000, 185.731)" style="opacity: 1;"><rect class="node-rect" width="20" height="4.348791470129129" style="stroke-width: 0.5; stroke: rgb(0, 0, 0); stroke-opacity: 1; fill: rgb(0, 0, 0); fill-opacity: 1;"/><rect class="node-capture" x="-10" y="-7.5" width="40" height="19.34879147012913" style="fill-opacity: 0;"/><g class="node-entered" transform="translate(0 3.1743957350645644)"><path class="node-label-guide" id="99846d_0_node_9" d="M-540,0L-4,0" transform="matrix(1 0 0 1 0 0)"/><text class="node-label" transform="scale(1 1)" style="user-select: none; cursor: default; fill: rgb(42, 63, 95); text-shadow: rgb(255, 255, 255) -1px 1px 1px, rgb(255, 255, 255) 1px 1px 1px, rgb(255, 255, 255) 1px -1px 1px, rgb(255, 255, 255) -1px -1px 1px; font-family: 'Open Sans', verdana, arial, sans-serif; font-size: 9px; fill-opacity: 1;"><textPath class="node-label-text-path" alignment-baseline="middle" xlink:href="#99846d_0_node_9" startOffset="100%" text-anchor="end" style="fill: rgb(0, 0, 0);">Building D (96.46KW)</textPath></text></g></g><g class="sankey-node" transform="translate(520.000, 120.338)" style="opacity: 1;"><rect class="node-rect" width="20" height="8.070015272165989" style="stroke-width: 0.5; stroke: rgb(0, 0, 0); stroke-opacity: 1; fill: rgb(0, 0, 0); fill-opacity: 1;"/><rect class="node-capture" x="-10" y="-7.5" width="40" height="23.07001527216599" style="fill-opacity: 0;"/><g class="node-entered" transform="translate(0 5.0350076360829945)"><path class="node-label-guide" id="99846d_0_node_10" d="M-540,0L-4,0" transform="matrix(1 0 0 1 0 0)"/><text class="node-label" transform="scale(1 1)" style="user-select: none; cursor: default; fill: rgb(42, 63, 95); text-shadow: rgb(255, 255, 255) -1px 1px 1px, rgb(255, 255, 255) 1px 1px 1px, rgb(255, 255, 255) 1px -1px 1px, rgb(255, 255, 255) -1px -1px 1px; font-family: 'Open Sans', verdana, arial, sans-serif; font-size: 9px; fill-opacity: 1;"><textPath class="node-label-text-path" alignment-baseline="middle" xlink:href="#99846d_0_node_10" startOffset="100%" text-anchor="end" style="fill: rgb(0, 0, 0);">Building E (179.00KW)</textPath></text></g></g><g class="sankey-node" transform="translate(520.000, 275.918)" style="opacity: 1;"><rect class="node-rect" width="20" height="0.7177354364965254" style="stroke-width: 0.5; stroke: rgb(0, 0, 0); stroke-opacity: 1; fill: rgb(0, 0, 0); fill-opacity: 1;"/><rect class="node-capture" x="-10" y="-7.5" width="40" height="15.717735436496525" style="fill-opacity: 0;"/><g class="node-entered" transform="translate(0 1.3588677182482627)"><path class="node-label-guide" id="99846d_0_node_11" d="M-540,0L-4,0" transform="matrix(1 0 0 1 0 0)"/><text class="node-label" transform="scale(1 1)" style="user-select: none; cursor: default; fill: rgb(42, 63, 95); text-shadow: rgb(255, 255, 255) -1px 1px 1px, rgb(255, 255, 255) 1px 1px 1px, rgb(255, 255, 255) 1px -1px 1px, rgb(255, 255, 255) -1px -1px 1px; font-family: 'Open Sans', verdana, arial, sans-serif; font-size: 9px; fill-opacity: 1;"><textPath class="node-label-text-path" alignment-baseline="middle" xlink:href="#99846d_0_node_11" startOffset="100%" text-anchor="end" style="fill: rgb(0, 0, 0);">Building G (15.92KW)</textPath></text></g></g><g class="sankey-node" transform="translate(520.000, 95.715)" style="opacity: 1;"><rect class="node-rect" width="20" height="10.400852085411458" style="stroke-width: 0.5; stroke: rgb(0, 0, 0); stroke-opacity: 1; fill: rgb(0, 0, 0); fill-opacity: 1;"/><rect class="node-capture" x="-10" y="-7.5" width="40" height="25.400852085411458" style="fill-opacity: 0;"/><g class="node-entered" transform="translate(0 6.200426042705729)"><path class="node-label-guide" id="99846d_0_node_12" d="M-540,0L-4,0" transform="matrix(1 0 0 1 0 0)"/><text class="node-label" transform="scale(1 1)" style="user-select: none; cursor: default; fill: rgb(42, 63, 95); text-shadow: rgb(255, 255, 255) -1px 1px 1px, rgb(255, 255, 255) 1px 1px 1px, rgb(255, 255, 255) 1px -1px 1px, rgb(255, 255, 255) -1px -1px 1px; font-family: 'Open Sans', verdana, arial, sans-serif; font-size: 9px; fill-opacity: 1;"><textPath class="node-label-text-path" alignment-baseline="middle" xlink:href="#99846d_0_node_12" startOffset="100%" text-anchor="end" style="fill: rgb(0, 0, 0);">Building H (230.70KW)</textPath></text></g></g><g class="sankey-node" transform="translate(520.000, 204.302)" style="opacity: 1;"><rect class="node-rect" width="20" height="4.53904546146174" style="stroke-width: 0.5; stroke: rgb(0, 0, 0); stroke-opacity: 1; fill: rgb(0, 0, 0); fill-opacity: 1;"/><rect class="node-capture" x="-10" y="-7.5" width="40" height="19.53904546146174" style="fill-opacity: 0;"/><g class="node-entered" transform="translate(0 3.26952273073087)"><path class="node-label-guide" id="99846d_0_node_13" d="M-540,0L-4,0" transform="matrix(1 0 0 1 0 0)"/><text class="node-label" transform="scale(1 1)" style="user-select: none; cursor: default; fill: rgb(42, 63, 95); text-shadow: rgb(255, 255, 255) -1px 1px 1px, rgb(255, 255, 255) 1px 1px 1px, rgb(255, 255, 255) 1px -1px 1px, rgb(255, 255, 255) -1px -1px 1px; font-family: 'Open Sans', verdana, arial, sans-serif; font-size: 9px; fill-opacity: 1;"><textPath class="node-label-text-path" alignment-baseline="middle" xlink:href="#99846d_0_node_13" startOffset="100%" text-anchor="end" style="fill: rgb(0, 0, 0);">Building J (100.68KW)</textPath></text></g></g><g class="sankey-node" transform="translate(520.000, 290.858)" style="opacity: 1;"><rect class="node-rect" width="20" height="0.5" style="stroke-width: 0.5; stroke: rgb(0, 0, 0); stroke-opacity: 1; fill: rgb(0, 0, 0); fill-opacity: 1;"/><rect class="node-capture" x="-10" y="-7.5" width="40" height="15.5" style="fill-opacity: 0;"/><g class="node-entered" transform="translate(0 1.1830405698602817)"><path class="node-label-guide" id="99846d_0_node_14" d="M-540,0L-4,0" transform="matrix(1 0 0 1 0 0)"/><text class="node-label" transform="scale(1 1)" style="user-select: none; cursor: default; fill: rgb(42, 63, 95); text-shadow: rgb(255, 255, 255) -1px 1px 1px, rgb(255, 255, 255) 1px 1px 1px, rgb(255, 255, 255) 1px -1px 1px, rgb(255, 255, 255) -1px -1px 1px; font-family: 'Open Sans', verdana, arial, sans-serif; font-size: 9px; fill-opacity: 1;"><textPath class="node-label-text-path" alignment-baseline="middle" xlink:href="#99846d_0_node_14" startOffset="100%" text-anchor="end" style="fill: rgb(0, 0, 0);">Building K (8.12KW)</textPath></text></g></g><g class="sankey-node" transform="translate(520.000, 305.446)" style="opacity: 1;"><rect class="node-rect" width="20" height="0.5" style="stroke-width: 0.5; stroke: rgb(0, 0, 0); stroke-opacity: 1; fill: rgb(0, 0, 0); fill-opacity: 1;"/><rect class="node-capture" x="-10" y="-7.5" width="40" height="15.5" style="fill-opacity: 0;"/><g class="node-entered" transform="translate(0 1.0676258263030718)"><path class="node-label-guide" id="99846d_0_node_15" d="M-540,0L-4,0" transform="matrix(1 0 0 1 0 0)"/><text class="node-label" transform="scale(1 1)" style="user-select: none; cursor: default; fill: rgb(42, 63, 95); text-shadow: rgb(255, 255, 255) -1px 1px 1px, rgb(255, 255, 255) 1px 1px 1px, rgb(255, 255, 255) 1px -1px 1px, rgb(255, 255, 255) -1px -1px 1px; font-family: 'Open Sans', verdana, arial, sans-serif; font-size: 9px; fill-opacity: 1;"><textPath class="node-label-text-path" alignment-baseline="middle" xlink:href="#99846d_0_node_15" startOffset="100%" text-anchor="end" style="fill: rgb(0, 0, 0);">Building M (3.00KW)</textPath></text></g></g><g class="sankey-node" transform="translate(520.000, 223.063)" style="opacity: 1;"><rect class="node-rect" width="20" height="4.954718873804609" style="stroke-width: 0.5; stroke: rgb(0, 0, 0); stroke-opacity: 1; fill: rgb(0, 0, 0); fill-opacity: 1;"/><rect class="node-capture" x="-10" y="-7.5" width="40" height="19.95471887380461" style="fill-opacity: 0;"/><g class="node-entered" transform="translate(0 3.4773594369023044)"><path class="node-label-guide" id="99846d_0_node_16" d="M-540,0L-4,0" transform="matrix(1 0 0 1 0 0)"/><text class="node-label" transform="scale(1 1)" style="user-select: none; cursor: default; fill: rgb(42, 63, 95); text-shadow: rgb(255, 255, 255) -1px 1px 1px, rgb(255, 255, 255) 1px 1px 1px, rgb(255, 255, 255) 1px -1px 1px, rgb(255, 255, 255) -1px -1px 1px; font-family: 'Open Sans', verdana, arial, sans-serif; font-size: 9px; fill-opacity: 1;"><textPath class="node-label-text-path" alignment-baseline="middle" xlink:href="#99846d_0_node_16" startOffset="100%" text-anchor="end" style="fill: rgb(0, 0, 0);">Building N (109.90KW)</textPath></text></g></g><g class="sankey-node" transform="translate(520.000, 165.774)" style="opacity: 1;"><rect class="node-rect" width="20" height="5.734670070499988" style="stroke-width: 0.5; stroke: rgb(0, 0, 0); stroke-opacity: 1; fill: rgb(0, 0, 0); fill-opacity: 1;"/><rect class="node-capture" x="-10" y="-7.5" width="40" height="20.734670070499988" style="fill-opacity: 0;"/><g class="node-entered" transform="translate(0 3.867335035249994)"><path class="node-label-guide" id="99846d_0_node_17" d="M-540,0L-4,0" transform="matrix(1 0 0 1 0 0)"/><text class="node-label" transform="scale(1 1)" style="user-select: none; cursor: default; fill: rgb(42, 63, 95); text-shadow: rgb(255, 255, 255) -1px 1px 1px, rgb(255, 255, 255) 1px 1px 1px, rgb(255, 255, 255) 1px -1px 1px, rgb(255, 255, 255) -1px -1px 1px; font-family: 'Open Sans', verdana, arial, sans-serif; font-size: 9px; fill-opacity: 1;"><textPath class="node-label-text-path" alignment-baseline="middle" xlink:href="#99846d_0_node_17" startOffset="100%" text-anchor="end" style="fill: rgb(0, 0, 0);">Building P (127.20KW)</textPath></text></g></g><g class="sankey-node" transform="translate(520.000, 319.804)" style="opacity: 1;"><rect class="node-rect" width="20" height="0.5" style="stroke-width: 0.5; stroke: rgb(0, 0, 0); stroke-opacity: 1; fill: rgb(0, 0, 0); fill-opacity: 1;"/><rect class="node-capture" x="-10" y="-7.5" width="40" height="15.5" style="fill-opacity: 0;"/><g class="node-entered" transform="translate(0 1.098057448139457)"><path class="node-label-guide" id="99846d_0_node_18" d="M-540,0L-4,0" transform="matrix(1 0 0 1 0 0)"/><text class="node-label" transform="scale(1 1)" style="user-select: none; cursor: default; fill: rgb(42, 63, 95); text-shadow: rgb(255, 255, 255) -1px 1px 1px, rgb(255, 255, 255) 1px 1px 1px, rgb(255, 255, 255) 1px -1px 1px, rgb(255, 255, 255) -1px -1px 1px; font-family: 'Open Sans', verdana, arial, sans-serif; font-size: 9px; fill-opacity: 1;"><textPath class="node-label-text-path" alignment-baseline="middle" xlink:href="#99846d_0_node_18" startOffset="100%" text-anchor="end" style="fill: rgb(0, 0, 0);">Building S (4.35KW)</textPath></text></g></g><g class="sankey-node" transform="translate(520.000, 42.104)" style="opacity: 1;"><rect class="node-rect" width="20" height="13.287573190868244" style="stroke-width: 0.5; stroke: rgb(0, 0, 0); stroke-opacity: 1; fill: rgb(0, 0, 0); fill-opacity: 1;"/><rect class="node-capture" x="-10" y="-7.5" width="40" height="28.287573190868244" style="fill-opacity: 0;"/><g class="node-entered" transform="translate(0 7.643786595434122)"><path class="node-label-guide" id="99846d_0_node_19" d="M-540,0L-4,0" transform="matrix(1 0 0 1 0 0)"/><text class="node-label" transform="scale(1 1)" style="user-select: none; cursor: default; fill: rgb(42, 63, 95); text-shadow: rgb(255, 255, 255) -1px 1px 1px, rgb(255, 255, 255) 1px 1px 1px, rgb(255, 255, 255) 1px -1px 1px, rgb(255, 255, 255) -1px -1px 1px; font-family: 'Open Sans', verdana, arial, sans-serif; font-size: 9px; fill-opacity: 1;"><textPath class="node-label-text-path" alignment-baseline="middle" xlink:href="#99846d_0_node_19" startOffset="100%" text-anchor="end" style="fill: rgb(0, 0, 0);">Building T (294.73KW)</textPath></text></g></g><g class="sankey-node" transform="translate(520.000, 242.240)" style="opacity: 1;"><rect class="node-rect" width="20" height="2.6477765191859817" style="stroke-width: 0.5; stroke: rgb(0, 0, 0); stroke-opacity: 1; fill: rgb(0, 0, 0); fill-opacity: 1;"/><rect class="node-capture" x="-10" y="-7.5" width="40" height="17.64777651918598" style="fill-opacity: 0;"/><g class="node-entered" transform="translate(0 2.323888259592991)"><path class="node-label-guide" id="99846d_0_node_20" d="M-540,0L-4,0" transform="matrix(1 0 0 1 0 0)"/><text class="node-label" transform="scale(1 1)" style="user-select: none; cursor: default; fill: rgb(42, 63, 95); text-shadow: rgb(255, 255, 255) -1px 1px 1px, rgb(255, 255, 255) 1px 1px 1px, rgb(255, 255, 255) 1px -1px 1px, rgb(255, 255, 255) -1px -1px 1px; font-family: 'Open Sans', verdana, arial, sans-serif; font-size: 9px; fill-opacity: 1;"><textPath class="node-label-text-path" alignment-baseline="middle" xlink:href="#99846d_0_node_20" startOffset="100%" text-anchor="end" style="fill: rgb(0, 0, 0);">Building V (58.73KW)</textPath></text></g></g><g class="sankey-node" transform="translate(520.000, 259.110)" style="opacity: 1;"><rect class="node-rect" width="20" height="2.585560758987185" style="stroke-width: 0.5; stroke: rgb(0, 0, 0); stroke-opacity: 1; fill: rgb(0, 0, 0); fill-opacity: 1;"/><rect class="node-capture" x="-10" y="-7.5" width="40" height="17.585560758987185" style="fill-opacity: 0;"/><g class="node-entered" transform="translate(0 2.2927803794935926)"><path class="node-label-guide" id="99846d_0_node_21" d="M-540,0L-4,0" transform="matrix(1 0 0 1 0 0)"/><text class="node-label" transform="scale(1 1)" style="user-select: none; cursor: default; fill: rgb(42, 63, 95); text-shadow: rgb(255, 255, 255) -1px 1px 1px, rgb(255, 255, 255) 1px 1px 1px, rgb(255, 255, 255) 1px -1px 1px, rgb(255, 255, 255) -1px -1px 1px; font-family: 'Open Sans', verdana, arial, sans-serif; font-size: 9px; fill-opacity: 1;"><textPath class="node-label-text-path" alignment-baseline="middle" xlink:href="#99846d_0_node_21" startOffset="100%" text-anchor="end" style="fill: rgb(0, 0, 0);">Building Z (57.35KW)</textPath></text></g></g><g class="sankey-node" transform="translate(520.000, 142.630)" style="opacity: 1;"><rect class="node-rect" width="20" height="8.921649844742433" style="stroke-width: 0.5; stroke: rgb(0, 0, 0); stroke-opacity: 1; fill: rgb(0, 0, 0); fill-opacity: 1;"/><rect class="node-capture" x="-10" y="-7.5" width="40" height="23.921649844742433" style="fill-opacity: 0;"/><g class="node-entered" transform="translate(0 5.460824922371216)"><path class="node-label-guide" id="99846d_0_node_22" d="M-540,0L-4,0" transform="matrix(1 0 0 1 0 0)"/><text class="node-label" transform="scale(1 1)" style="user-select: none; cursor: default; fill: rgb(42, 63, 95); text-shadow: rgb(255, 255, 255) -1px 1px 1px, rgb(255, 255, 255) 1px 1px 1px, rgb(255, 255, 255) 1px -1px 1px, rgb(255, 255, 255) -1px -1px 1px; font-family: 'Open Sans', verdana, arial, sans-serif; font-size: 9px; fill-opacity: 1;"><textPath class="node-label-text-path" alignment-baseline="middle" xlink:href="#99846d_0_node_22" startOffset="100%" text-anchor="end" style="fill: rgb(0, 0, 0);">Residence 1&amp;2 (197.89KW)</textPath></text></g></g></g></g><defs id="topdefs-c1753a"><g class="clips"/></defs><g class="layer-above"><g class="imagelayer"/><g class="shapelayer"/></g><g class="infolayer"><g class="g-gtitle"/><g class="first-render"/></g></svg>