<svg class="main-svg" xmlns="http://www.w3.org/2000/svg" xmlns:xlink="http://www.w3.org/1999/xlink" width="700" height="500" viewBox="0 0 700 500"><rect x="0" y="0" width="700" height="500" style="fill: rgb(255, 255, 255); fill-opacity: 1;"/><defs id="defs-2b44cf"><g class="clips"/><g class="gradients"/></defs><g class="bglayer"/><g class="layer-below"><g class="imagelayer"/><g class="shapelayer"/></g><g class="cartesianlayer"/><g class="polarlayer"/><g class="ternarylayer"/><g class="geolayer"/><g class="funnelarealayer"/><g class="pielayer"/><g class="treemaplayer"/><g class="sunburstlayer"/><g class="glimages"/><g class="sankey" transform="translate(80,100)matrix(1 0 0 1 0 0)" style="box-sizing: content-box; position: absolute; left: 0px; shape-rendering: geometricPrecision; pointer-events: auto;"><g class="sankey-links" style="fill: none;"><path class="sankey-link" d="M20,162.37774652665283C140,162.37774652665283 140,145.0906591281897 260,145.0906591281897L260,171.52220593935994C140,171.52220593935994 140,188.80929333782305 20,188.80929333782305Z" style="stroke: rgb(68, 68, 68); stroke-opacity: 1; fill: rgb(0, 0, 0); fill-opacity: 0.2; stroke-width: 0; opacity: 1;"/><path class="sankey-link" d="M20,67.78045853722469C140,67.78045853722469 140,64.71559336098382 260,64.71559336098382L260,145.0906591281897C140,145.0906591281897 140,148.15552430443057 20,148.15552430443057Z" style="stroke: rgb(68, 68, 68); stroke-opacity: 1; fill: rgb(0, 0, 0); fill-opacity: 0.2; stroke-width: 0; opacity: 1;"/><path class="sankey-link" d="M280,64.7155933609838C400,64.7155933609838 400,-1.4921397450962104e-13 520,-1.4921397450962104e-13L520,28.4218886665928C400,28.4218886665928 400,93.13748202757677 280,93.13748202757677Z" style="stroke: rgb(68, 68, 68); stroke-opacity: 1; fill: rgb(0, 0, 0); fill-opacity: 0.2; stroke-width: 0; opacity: 1;"/><path class="sankey-link" d="M280,106.11223747410679C400,106.11223747410679 400,69.8410885575673 520,69.8410885575673L520,80.94346421984724C400,80.94346421984724 400,117.21461313638673 280,117.21461313638673Z" style="stroke: rgb(68, 68, 68); stroke-opacity: 1; fill: rgb(0, 0, 0); fill-opacity: 0.2; stroke-width: 0; opacity: 1;"/><path class="sankey-link" d="M280,156.73566031786402C400,156.73566031786402 400,205.79784473465782 520,205.79784473465782L520,209.0922036677713C400,209.0922036677713 400,160.0300192509775 280,160.0300192509775Z" style="stroke: rgb(68, 68, 68); stroke-opacity: 1; fill: rgb(0, 0, 0); fill-opacity: 0.2; stroke-width: 0; opacity: 1;"/><path class="sankey-link" d="M280,129.17757572699466C400,129.17757572699466 400,121.35087125489966 520,121.35087125489966L520,129.28650149742566C400,129.28650149742566 400,137.11320596952064 280,137.11320596952064Z" style="stroke: rgb(68, 68, 68); stroke-opacity: 1; fill: rgb(0, 0, 0); fill-opacity: 0.2; stroke-width: 0; opacity: 1;"/><path class="sankey-link" d="M280,169.77904824216722C400,169.77904824216722 400,275.73012154785 520,275.73012154785L520,276.585346563852C400,276.585346563852 400,170.63427325816917 280,170.63427325816917Z" style="stroke: rgb(0, 0, 0); stroke-opacity: 0.2; fill: rgb(0, 0, 0); fill-opacity: 0.2; stroke-width: 1; opacity: 1;"/><path class="sankey-link" d="M280,137.11320596952066C400,137.11320596952066 400,143.5087237196479 520,143.5087237196479L520,151.985907107103C400,151.985907107103 400,145.59038935697578 280,145.59038935697578Z" style="stroke: rgb(68, 68, 68); stroke-opacity: 1; fill: rgb(0, 0, 0); fill-opacity: 0.2; stroke-width: 0; opacity: 1;"/><path class="sankey-link" d="M280,160.03001925097752C400,160.03001925097752 400,223.31442588999357 520,223.31442588999357L520,227.22754950553104C400,227.22754950553104 400,163.943142866515 280,163.943142866515Z" style="stroke: rgb(68, 68, 68); stroke-opacity: 1; fill: rgb(0, 0, 0); fill-opacity: 0.2; stroke-width: 0; opacity: 1;"/><path class="sankey-link" d="M280,170.63427325816917C400,170.63427325816917 400,290.80756878607417 520,290.80756878607417L520,291.199524577107C400,291.199524577107 400,171.02622904920207 280,171.02622904920207Z" style="stroke: rgb(0, 0, 0); stroke-opacity: 0.2; fill: rgb(0, 0, 0); fill-opacity: 0.2; stroke-width: 1; opacity: 1;"/><path class="sankey-link" d="M280,171.02622904920204C400,171.02622904920204 400,305.42174679932924 520,305.42174679932924L520,305.5665184321321C400,305.5665184321321 400,171.17100068200486 280,171.17100068200486Z" style="stroke: rgb(0, 0, 0); stroke-opacity: 0.2; fill: rgb(0, 0, 0); fill-opacity: 0.2; stroke-width: 1; opacity: 1;"/><path class="sankey-link" d="M280,151.4027023183935C400,151.4027023183935 400,186.24266451296512 520,186.24266451296512L520,191.57562251243564C400,191.57562251243564 400,156.73566031786402 280,156.73566031786402Z" style="stroke: rgb(68, 68, 68); stroke-opacity: 1; fill: rgb(0, 0, 0); fill-opacity: 0.2; stroke-width: 0; opacity: 1;"/><path class="sankey-link" d="M280,145.5903893569758C400,145.5903893569758 400,166.20812932932523 520,166.20812932932523L520,172.02044229074295C400,172.02044229074295 400,151.40270231839352 280,151.40270231839352Z" style="stroke: rgb(68, 68, 68); stroke-opacity: 1; fill: rgb(0, 0, 0); fill-opacity: 0.2; stroke-width: 0; opacity: 1;"/><path class="sankey-link" d="M280,171.1710006820049C400,171.1710006820049 400,319.78874065435434 520,319.78874065435434L520,320C400,320 400,171.3822600276505 280,171.3822600276505Z" style="stroke: rgb(0, 0, 0); stroke-opacity: 0.2; fill: rgb(0, 0, 0); fill-opacity: 0.2; stroke-width: 1; opacity: 1;"/><path class="sankey-link" d="M280,93.13748202757677C400,93.13748202757677 400,42.64411088881505 520,42.64411088881505L520,55.61886633534506C400,55.61886633534506 400,106.11223747410676 280,106.11223747410676Z" style="stroke: rgb(68, 68, 68); stroke-opacity: 1; fill: rgb(0, 0, 0); fill-opacity: 0.2; stroke-width: 0; opacity: 1;"/><path class="sankey-link" d="M280,163.943142866515C400,163.943142866515 400,241.44977172775327 520,241.44977172775327L520,244.30927957122566C400,244.30927957122566 400,166.80265070998738 280,166.80265070998738Z" style="stroke: rgb(68, 68, 68); stroke-opacity: 1; fill: rgb(0, 0, 0); fill-opacity: 0.2; stroke-width: 0; opacity: 1;"/><path class="sankey-link" d="M280,166.80265070998738C400,166.80265070998738 400,258.5315017934479 520,258.5315017934479L520,261.5078993256277C400,261.5078993256277 400,169.77904824216725 280,169.77904824216725Z" style="stroke: rgb(68, 68, 68); stroke-opacity: 1; fill: rgb(0, 0, 0); fill-opacity: 0.2; stroke-width: 0; opacity: 1;"/><path class="sankey-link" d="M280,117.21461313638673C400,117.21461313638673 400,95.16568644206947 520,95.16568644206947L520,107.1286490326774C400,107.1286490326774 400,129.17757572699466 280,129.17757572699466Z" style="stroke: rgb(68, 68, 68); stroke-opacity: 1; fill: rgb(0, 0, 0); fill-opacity: 0.2; stroke-width: 0; opacity: 1;"/></g><g class="sankey-node-set" style="cursor: move;"><g class="sankey-node" transform="translate(0.000, 162.378)" style="opacity: 1;"><rect class="node-rect" width="20" height="26.431546811170136" style="stroke-width: 0.5; stroke: rgb(0, 0, 0); stroke-opacity: 1; fill: rgb(46, 139, 87); fill-opacity: 1;"/><rect class="node-capture" x="-10" y="-7.5" width="40" height="41.431546811170136" style="fill-opacity: 0;"/><g class="node-entered" transform="translate(0 14.215773405585068)"><path class="node-label-guide" id="a59efb_0_node_0" d="M24,0L540,0" transform="matrix(1 0 0 1 0 0)"/><text class="node-label" transform="scale(1 1)" style="user-select: none; cursor: default; fill: rgb(42, 63, 95); text-shadow: rgb(255, 255, 255) -1px 1px 1px, rgb(255, 255, 255) 1px 1px 1px, rgb(255, 255, 255) 1px -1px 1px, rgb(255, 255, 255) -1px -1px 1px; font-family: 'Open Sans', verdana, arial, sans-serif; font-size: 9px; fill-opacity: 1;"><textPath class="node-label-text-path" alignment-baseline="middle" xlink:href="#a59efb_0_node_0" startOffset="0%" text-anchor="start" style="fill: rgb(0, 0, 0);">Hydro Power (492.95KW )</textPath></text></g></g><g class="sankey-node" transform="translate(0.000, 67.780)" style="opacity: 1;"><rect class="node-rect" width="20" height="80.37506576720591" style="stroke-width: 0.5; stroke: rgb(0, 0, 0); stroke-opacity: 1; fill: rgb(0, 128, 128); fill-opacity: 1;"/><rect class="node-capture" x="-10" y="-7.5" width="40" height="95.37506576720591" style="fill-opacity: 0;"/><g class="node-entered" transform="translate(0 41.187532883602955)"><path class="node-label-guide" id="a59efb_0_node_2" d="M24,0L540,0" transform="matrix(1 0 0 1 0 0)"/><text class="node-label" transform="scale(1 1)" style="user-select: none; cursor: default; fill: rgb(42, 63, 95); text-shadow: rgb(255, 255, 255) -1px 1px 1px, rgb(255, 255, 255) 1px 1px 1px, rgb(255, 255, 255) 1px -1px 1px, rgb(255, 255, 255) -1px -1px 1px; font-family: 'Open Sans', verdana, arial, sans-serif; font-size: 9px; fill-opacity: 1;"><textPath class="node-label-text-path" alignment-baseline="middle" xlink:href="#a59efb_0_node_2" startOffset="0%" text-anchor="start" style="fill: rgb(0, 0, 0);">COGEN 2 (1499.00KW)</textPath></text></g></g><g class="sankey-node" transform="translate(260.000, 64.716)" style="opacity: 1;"><rect class="node-rect" width="20" height="106.80661257837615" style="stroke-width: 0.5; stroke: rgb(0, 0, 0); stroke-opacity: 1; fill: rgb(255, 255, 0); fill-opacity: 1;"/><rect class="node-capture" x="-10" y="-7.5" width="40" height="121.80661257837615" style="fill-opacity: 0;"/><g class="node-entered" transform="translate(0 54.40330628918807)"><path class="node-label-guide" id="a59efb_0_node_5" d="M24,0L540,0" transform="matrix(1 0 0 1 0 0)"/><text class="node-label" transform="scale(1 1)" style="user-select: none; cursor: default; fill: rgb(42, 63, 95); text-shadow: rgb(255, 255, 255) -1px 1px 1px, rgb(255, 255, 255) 1px 1px 1px, rgb(255, 255, 255) 1px -1px 1px, rgb(255, 255, 255) -1px -1px 1px; font-family: 'Open Sans', verdana, arial, sans-serif; font-size: 9px; fill-opacity: 1;"><textPath class="node-label-text-path" alignment-baseline="middle" xlink:href="#a59efb_0_node_5" startOffset="0%" text-anchor="start" style="fill: rgb(0, 0, 0);">Total Power (1991.95KW)</textPath></text></g></g><g class="sankey-node" transform="translate(520.000, -0.000)" style="opacity: 1;"><rect class="node-rect" width="20" height="28.42188866659297" style="stroke-width: 0.5; stroke: rgb(0, 0, 0); stroke-opacity: 1; fill: rgb(0, 0, 0); fill-opacity: 1;"/><rect class="node-capture" x="-10" y="-7.5" width="40" height="43.42188866659297" style="fill-opacity: 0;"/><g class="node-entered" transform="translate(0 15.210944333296485)"><path class="node-label-guide" id="a59efb_0_node_6" d="M-540,0L-4,0" transform="matrix(1 0 0 1 0 0)"/><text class="node-label" transform="scale(1 1)" style="user-select: none; cursor: default; fill: rgb(42, 63, 95); text-shadow: rgb(255, 255, 255) -1px 1px 1px, rgb(255, 255, 255) 1px 1px 1px, rgb(255, 255, 255) 1px -1px 1px, rgb(255, 255, 255) -1px -1px 1px; font-family: 'Open Sans', verdana, arial, sans-serif; font-size: 9px; fill-opacity: 1;"><textPath class="node-label-text-path" alignment-baseline="middle" xlink:href="#a59efb_0_node_6" startOffset="100%" text-anchor="end" style="fill: rgb(0, 0, 0);">Building A (496.10KW)</textPath></text></g></g><g class="sankey-node" transform="translate(520.000, 69.841)" style="opacity: 1;"><rect class="node-rect" width="20" height="11.10237566227994" style="stroke-width: 0.5; stroke: rgb(0, 0, 0); stroke-opacity: 1; fill: rgb(0, 0, 0); fill-opacity: 1;"/><rect class="node-capture" x="-10" y="-7.5" width="40" height="26.10237566227994" style="fill-opacity: 0;"/><g class="node-entered" transform="translate(0 6.55118783113997)"><path class="node-label-guide" id="a59efb_0_node_7" d="M-540,0L-4,0" transform="matrix(1 0 0 1 0 0)"/><text class="node-label" transform="scale(1 1)" style="user-select: none; cursor: default; fill: rgb(42, 63, 95); text-shadow: rgb(255, 255, 255) -1px 1px 1px, rgb(255, 255, 255) 1px 1px 1px, rgb(255, 255, 255) 1px -1px 1px, rgb(255, 255, 255) -1px -1px 1px; font-family: 'Open Sans', verdana, arial, sans-serif; font-size: 9px; fill-opacity: 1;"><textPath class="node-label-text-path" alignment-baseline="middle" xlink:href="#a59efb_0_node_7" startOffset="100%" text-anchor="end" style="fill: rgb(0, 0, 0);">Building B (207.06KW)</textPath></text></g></g><g class="sankey-node" transform="translate(520.000, 205.798)" style="opacity: 1;"><rect class="node-rect" width="20" height="3.2943589331135286" style="stroke-width: 0.5; stroke: rgb(0, 0, 0); stroke-opacity: 1; fill: rgb(0, 0, 0); fill-opacity: 1;"/><rect class="node-capture" x="-10" y="-7.5" width="40" height="18.29435893311353" style="fill-opacity: 0;"/><g class="node-entered" transform="translate(0 2.6471794665567643)"><path class="node-label-guide" id="a59efb_0_node_9" d="M-540,0L-4,0" transform="matrix(1 0 0 1 0 0)"/><text class="node-label" transform="scale(1 1)" style="user-select: none; cursor: default; fill: rgb(42, 63, 95); text-shadow: rgb(255, 255, 255) -1px 1px 1px, rgb(255, 255, 255) 1px 1px 1px, rgb(255, 255, 255) 1px -1px 1px, rgb(255, 255, 255) -1px -1px 1px; font-family: 'Open Sans', verdana, arial, sans-serif; font-size: 9px; fill-opacity: 1;"><textPath class="node-label-text-path" alignment-baseline="middle" xlink:href="#a59efb_0_node_9" startOffset="100%" text-anchor="end" style="fill: rgb(0, 0, 0);">Building D (61.44KW)</textPath></text></g></g><g class="sankey-node" transform="translate(520.000, 121.351)" style="opacity: 1;"><rect class="node-rect" width="20" height="7.935630242526003" style="stroke-width: 0.5; stroke: rgb(0, 0, 0); stroke-opacity: 1; fill: rgb(0, 0, 0); fill-opacity: 1;"/><rect class="node-capture" x="-10" y="-7.5" width="40" height="22.935630242526003" style="fill-opacity: 0;"/><g class="node-entered" transform="translate(0 4.967815121263001)"><path class="node-label-guide" id="a59efb_0_node_10" d="M-540,0L-4,0" transform="matrix(1 0 0 1 0 0)"/><text class="node-label" transform="scale(1 1)" style="user-select: none; cursor: default; fill: rgb(42, 63, 95); text-shadow: rgb(255, 255, 255) -1px 1px 1px, rgb(255, 255, 255) 1px 1px 1px, rgb(255, 255, 255) 1px -1px 1px, rgb(255, 255, 255) -1px -1px 1px; font-family: 'Open Sans', verdana, arial, sans-serif; font-size: 9px; fill-opacity: 1;"><textPath class="node-label-text-path" alignment-baseline="middle" xlink:href="#a59efb_0_node_10" startOffset="100%" text-anchor="end" style="fill: rgb(0, 0, 0);">Building E (148.00KW)</textPath></text></g></g><g class="sankey-node" transform="translate(520.000, 275.730)" style="opacity: 1;"><rect class="node-rect" width="20" height="0.8552250160019526" style="stroke-width: 0.5; stroke: rgb(0, 0, 0); stroke-opacity: 1; fill: rgb(0, 0, 0); fill-opacity: 1;"/><rect class="node-capture" x="-10" y="-7.5" width="40" height="15.855225016001953" style="fill-opacity: 0;"/><g class="node-entered" transform="translate(0 1.4276125080009763)"><path class="node-label-guide" id="a59efb_0_node_11" d="M-540,0L-4,0" transform="matrix(1 0 0 1 0 0)"/><text class="node-label" transform="scale(1 1)" style="user-select: none; cursor: default; fill: rgb(42, 63, 95); text-shadow: rgb(255, 255, 255) -1px 1px 1px, rgb(255, 255, 255) 1px 1px 1px, rgb(255, 255, 255) 1px -1px 1px, rgb(255, 255, 255) -1px -1px 1px; font-family: 'Open Sans', verdana, arial, sans-serif; font-size: 9px; fill-opacity: 1;"><textPath class="node-label-text-path" alignment-baseline="middle" xlink:href="#a59efb_0_node_11" startOffset="100%" text-anchor="end" style="fill: rgb(0, 0, 0);">Building G (15.95KW)</textPath></text></g></g><g class="sankey-node" transform="translate(520.000, 143.509)" style="opacity: 1;"><rect class="node-rect" width="20" height="8.477183387455113" style="stroke-width: 0.5; stroke: rgb(0, 0, 0); stroke-opacity: 1; fill: rgb(0, 0, 0); fill-opacity: 1;"/><rect class="node-capture" x="-10" y="-7.5" width="40" height="23.477183387455113" style="fill-opacity: 0;"/><g class="node-entered" transform="translate(0 5.238591693727557)"><path class="node-label-guide" id="a59efb_0_node_12" d="M-540,0L-4,0" transform="matrix(1 0 0 1 0 0)"/><text class="node-label" transform="scale(1 1)" style="user-select: none; cursor: default; fill: rgb(42, 63, 95); text-shadow: rgb(255, 255, 255) -1px 1px 1px, rgb(255, 255, 255) 1px 1px 1px, rgb(255, 255, 255) 1px -1px 1px, rgb(255, 255, 255) -1px -1px 1px; font-family: 'Open Sans', verdana, arial, sans-serif; font-size: 9px; fill-opacity: 1;"><textPath class="node-label-text-path" alignment-baseline="middle" xlink:href="#a59efb_0_node_12" startOffset="100%" text-anchor="end" style="fill: rgb(0, 0, 0);">Building H (158.10KW)</textPath></text></g></g><g class="sankey-node" transform="translate(520.000, 223.314)" style="opacity: 1;"><rect class="node-rect" width="20" height="3.9131236155374722" style="stroke-width: 0.5; stroke: rgb(0, 0, 0); stroke-opacity: 1; fill: rgb(0, 0, 0); fill-opacity: 1;"/><rect class="node-capture" x="-10" y="-7.5" width="40" height="18.913123615537472" style="fill-opacity: 0;"/><g class="node-entered" transform="translate(0 2.956561807768736)"><path class="node-label-guide" id="a59efb_0_node_13" d="M-540,0L-4,0" transform="matrix(1 0 0 1 0 0)"/><text class="node-label" transform="scale(1 1)" style="user-select: none; cursor: default; fill: rgb(42, 63, 95); text-shadow: rgb(255, 255, 255) -1px 1px 1px, rgb(255, 255, 255) 1px 1px 1px, rgb(255, 255, 255) 1px -1px 1px, rgb(255, 255, 255) -1px -1px 1px; font-family: 'Open Sans', verdana, arial, sans-serif; font-size: 9px; fill-opacity: 1;"><textPath class="node-label-text-path" alignment-baseline="middle" xlink:href="#a59efb_0_node_13" startOffset="100%" text-anchor="end" style="fill: rgb(0, 0, 0);">Building J (72.98KW)</textPath></text></g></g><g class="sankey-node" transform="translate(520.000, 290.808)" style="opacity: 1;"><rect class="node-rect" width="20" height="0.5" style="stroke-width: 0.5; stroke: rgb(0, 0, 0); stroke-opacity: 1; fill: rgb(0, 0, 0); fill-opacity: 1;"/><rect class="node-capture" x="-10" y="-7.5" width="40" height="15.5" style="fill-opacity: 0;"/><g class="node-entered" transform="translate(0 1.195977895516421)"><path class="node-label-guide" id="a59efb_0_node_14" d="M-540,0L-4,0" transform="matrix(1 0 0 1 0 0)"/><text class="node-label" transform="scale(1 1)" style="user-select: none; cursor: default; fill: rgb(42, 63, 95); text-shadow: rgb(255, 255, 255) -1px 1px 1px, rgb(255, 255, 255) 1px 1px 1px, rgb(255, 255, 255) 1px -1px 1px, rgb(255, 255, 255) -1px -1px 1px; font-family: 'Open Sans', verdana, arial, sans-serif; font-size: 9px; fill-opacity: 1;"><textPath class="node-label-text-path" alignment-baseline="middle" xlink:href="#a59efb_0_node_14" startOffset="100%" text-anchor="end" style="fill: rgb(0, 0, 0);">Building K (7.31KW)</textPath></text></g></g><g class="sankey-node" transform="translate(520.000, 305.422)" style="opacity: 1;"><rect class="node-rect" width="20" height="0.5" style="stroke-width: 0.5; stroke: rgb(0, 0, 0); stroke-opacity: 1; fill: rgb(0, 0, 0); fill-opacity: 1;"/><rect class="node-capture" x="-10" y="-7.5" width="40" height="15.5" style="fill-opacity: 0;"/><g class="node-entered" transform="translate(0 1.072385816401436)"><path class="node-label-guide" id="a59efb_0_node_15" d="M-540,0L-4,0" transform="matrix(1 0 0 1 0 0)"/><text class="node-label" transform="scale(1 1)" style="user-select: none; cursor: default; fill: rgb(42, 63, 95); text-shadow: rgb(255, 255, 255) -1px 1px 1px, rgb(255, 255, 255) 1px 1px 1px, rgb(255, 255, 255) 1px -1px 1px, rgb(255, 255, 255) -1px -1px 1px; font-family: 'Open Sans', verdana, arial, sans-serif; font-size: 9px; fill-opacity: 1;"><textPath class="node-label-text-path" alignment-baseline="middle" xlink:href="#a59efb_0_node_15" startOffset="100%" text-anchor="end" style="fill: rgb(0, 0, 0);">Building M (2.70KW)</textPath></text></g></g><g class="sankey-node" transform="translate(520.000, 186.243)" style="opacity: 1;"><rect class="node-rect" width="20" height="5.332957999470466" style="stroke-width: 0.5; stroke: rgb(0, 0, 0); stroke-opacity: 1; fill: rgb(0, 0, 0); fill-opacity: 1;"/><rect class="node-capture" x="-10" y="-7.5" width="40" height="20.332957999470466" style="fill-opacity: 0;"/><g class="node-entered" transform="translate(0 3.666478999735233)"><path class="node-label-guide" id="a59efb_0_node_16" d="M-540,0L-4,0" transform="matrix(1 0 0 1 0 0)"/><text class="node-label" transform="scale(1 1)" style="user-select: none; cursor: default; fill: rgb(42, 63, 95); text-shadow: rgb(255, 255, 255) -1px 1px 1px, rgb(255, 255, 255) 1px 1px 1px, rgb(255, 255, 255) 1px -1px 1px, rgb(255, 255, 255) -1px -1px 1px; font-family: 'Open Sans', verdana, arial, sans-serif; font-size: 9px; fill-opacity: 1;"><textPath class="node-label-text-path" alignment-baseline="middle" xlink:href="#a59efb_0_node_16" startOffset="100%" text-anchor="end" style="fill: rgb(0, 0, 0);">Building N (99.46KW)</textPath></text></g></g><g class="sankey-node" transform="translate(520.000, 166.208)" style="opacity: 1;"><rect class="node-rect" width="20" height="5.8123129614176605" style="stroke-width: 0.5; stroke: rgb(0, 0, 0); stroke-opacity: 1; fill: rgb(0, 0, 0); fill-opacity: 1;"/><rect class="node-capture" x="-10" y="-7.5" width="40" height="20.81231296141766" style="fill-opacity: 0;"/><g class="node-entered" transform="translate(0 3.9061564807088303)"><path class="node-label-guide" id="a59efb_0_node_17" d="M-540,0L-4,0" transform="matrix(1 0 0 1 0 0)"/><text class="node-label" transform="scale(1 1)" style="user-select: none; cursor: default; fill: rgb(42, 63, 95); text-shadow: rgb(255, 255, 255) -1px 1px 1px, rgb(255, 255, 255) 1px 1px 1px, rgb(255, 255, 255) 1px -1px 1px, rgb(255, 255, 255) -1px -1px 1px; font-family: 'Open Sans', verdana, arial, sans-serif; font-size: 9px; fill-opacity: 1;"><textPath class="node-label-text-path" alignment-baseline="middle" xlink:href="#a59efb_0_node_17" startOffset="100%" text-anchor="end" style="fill: rgb(0, 0, 0);">Building P (108.40KW)</textPath></text></g></g><g class="sankey-node" transform="translate(520.000, 319.789)" style="opacity: 1;"><rect class="node-rect" width="20" height="0.5" style="stroke-width: 0.5; stroke: rgb(0, 0, 0); stroke-opacity: 1; fill: rgb(0, 0, 0); fill-opacity: 1;"/><rect class="node-capture" x="-10" y="-7.5" width="40" height="15.5" style="fill-opacity: 0;"/><g class="node-entered" transform="translate(0 1.105629672822829)"><path class="node-label-guide" id="a59efb_0_node_18" d="M-540,0L-4,0" transform="matrix(1 0 0 1 0 0)"/><text class="node-label" transform="scale(1 1)" style="user-select: none; cursor: default; fill: rgb(42, 63, 95); text-shadow: rgb(255, 255, 255) -1px 1px 1px, rgb(255, 255, 255) 1px 1px 1px, rgb(255, 255, 255) 1px -1px 1px, rgb(255, 255, 255) -1px -1px 1px; font-family: 'Open Sans', verdana, arial, sans-serif; font-size: 9px; fill-opacity: 1;"><textPath class="node-label-text-path" alignment-baseline="middle" xlink:href="#a59efb_0_node_18" startOffset="100%" text-anchor="end" style="fill: rgb(0, 0, 0);">Building S (3.94KW)</textPath></text></g></g><g class="sankey-node" transform="translate(520.000, 42.644)" style="opacity: 1;"><rect class="node-rect" width="20" height="12.974755446530025" style="stroke-width: 0.5; stroke: rgb(0, 0, 0); stroke-opacity: 1; fill: rgb(0, 0, 0); fill-opacity: 1;"/><rect class="node-capture" x="-10" y="-7.5" width="40" height="27.974755446530025" style="fill-opacity: 0;"/><g class="node-entered" transform="translate(0 7.487377723265013)"><path class="node-label-guide" id="a59efb_0_node_19" d="M-540,0L-4,0" transform="matrix(1 0 0 1 0 0)"/><text class="node-label" transform="scale(1 1)" style="user-select: none; cursor: default; fill: rgb(42, 63, 95); text-shadow: rgb(255, 255, 255) -1px 1px 1px, rgb(255, 255, 255) 1px 1px 1px, rgb(255, 255, 255) 1px -1px 1px, rgb(255, 255, 255) -1px -1px 1px; font-family: 'Open Sans', verdana, arial, sans-serif; font-size: 9px; fill-opacity: 1;"><textPath class="node-label-text-path" alignment-baseline="middle" xlink:href="#a59efb_0_node_19" startOffset="100%" text-anchor="end" style="fill: rgb(0, 0, 0);">Building T (241.98KW)</textPath></text></g></g><g class="sankey-node" transform="translate(520.000, 241.450)" style="opacity: 1;"><rect class="node-rect" width="20" height="2.859507843472386" style="stroke-width: 0.5; stroke: rgb(0, 0, 0); stroke-opacity: 1; fill: rgb(0, 0, 0); fill-opacity: 1;"/><rect class="node-capture" x="-10" y="-7.5" width="40" height="17.859507843472386" style="fill-opacity: 0;"/><g class="node-entered" transform="translate(0 2.429753921736193)"><path class="node-label-guide" id="a59efb_0_node_20" d="M-540,0L-4,0" transform="matrix(1 0 0 1 0 0)"/><text class="node-label" transform="scale(1 1)" style="user-select: none; cursor: default; fill: rgb(42, 63, 95); text-shadow: rgb(255, 255, 255) -1px 1px 1px, rgb(255, 255, 255) 1px 1px 1px, rgb(255, 255, 255) 1px -1px 1px, rgb(255, 255, 255) -1px -1px 1px; font-family: 'Open Sans', verdana, arial, sans-serif; font-size: 9px; fill-opacity: 1;"><textPath class="node-label-text-path" alignment-baseline="middle" xlink:href="#a59efb_0_node_20" startOffset="100%" text-anchor="end" style="fill: rgb(0, 0, 0);">Building V (53.33KW)</textPath></text></g></g><g class="sankey-node" transform="translate(520.000, 258.532)" style="opacity: 1;"><rect class="node-rect" width="20" height="2.976397532179874" style="stroke-width: 0.5; stroke: rgb(0, 0, 0); stroke-opacity: 1; fill: rgb(0, 0, 0); fill-opacity: 1;"/><rect class="node-capture" x="-10" y="-7.5" width="40" height="17.976397532179874" style="fill-opacity: 0;"/><g class="node-entered" transform="translate(0 2.488198766089937)"><path class="node-label-guide" id="a59efb_0_node_21" d="M-540,0L-4,0" transform="matrix(1 0 0 1 0 0)"/><text class="node-label" transform="scale(1 1)" style="user-select: none; cursor: default; fill: rgb(42, 63, 95); text-shadow: rgb(255, 255, 255) -1px 1px 1px, rgb(255, 255, 255) 1px 1px 1px, rgb(255, 255, 255) 1px -1px 1px, rgb(255, 255, 255) -1px -1px 1px; font-family: 'Open Sans', verdana, arial, sans-serif; font-size: 9px; fill-opacity: 1;"><textPath class="node-label-text-path" alignment-baseline="middle" xlink:href="#a59efb_0_node_21" startOffset="100%" text-anchor="end" style="fill: rgb(0, 0, 0);">Building Z (55.51KW)</textPath></text></g></g><g class="sankey-node" transform="translate(520.000, 95.166)" style="opacity: 1;"><rect class="node-rect" width="20" height="11.962962590607958" style="stroke-width: 0.5; stroke: rgb(0, 0, 0); stroke-opacity: 1; fill: rgb(0, 0, 0); fill-opacity: 1;"/><rect class="node-capture" x="-10" y="-7.5" width="40" height="26.962962590607958" style="fill-opacity: 0;"/><g class="node-entered" transform="translate(0 6.981481295303979)"><path class="node-label-guide" id="a59efb_0_node_22" d="M-540,0L-4,0" transform="matrix(1 0 0 1 0 0)"/><text class="node-label" transform="scale(1 1)" style="user-select: none; cursor: default; fill: rgb(42, 63, 95); text-shadow: rgb(255, 255, 255) -1px 1px 1px, rgb(255, 255, 255) 1px 1px 1px, rgb(255, 255, 255) 1px -1px 1px, rgb(255, 255, 255) -1px -1px 1px; font-family: 'Open Sans', verdana, arial, sans-serif; font-size: 9px; fill-opacity: 1;"><textPath class="node-label-text-path" alignment-baseline="middle" xlink:href="#a59efb_0_node_22" startOffset="100%" text-anchor="end" style="fill: rgb(0, 0, 0);">Residence 1&amp;2 (223.11KW)</textPath></text></g></g></g></g><defs id="topdefs-2b44cf"><g class="clips"/></defs><g class="layer-above"><g class="imagelayer"/><g class="shapelayer"/></g><g class="infolayer"><g class="g-gtitle"/><g class="first-render"/></g></svg>