<svg class="main-svg" xmlns="http://www.w3.org/2000/svg" xmlns:xlink="http://www.w3.org/1999/xlink" width="700" height="500" viewBox="0 0 700 500"><rect x="0" y="0" width="700" height="500" style="fill: rgb(255, 255, 255); fill-opacity: 1;"/><defs id="defs-d6e0b3"><g class="clips"/><g class="gradients"/></defs><g class="bglayer"/><g class="layer-below"><g class="imagelayer"/><g class="shapelayer"/></g><g class="cartesianlayer"/><g class="polarlayer"/><g class="ternarylayer"/><g class="geolayer"/><g class="funnelarealayer"/><g class="pielayer"/><g class="treemaplayer"/><g class="sunburstlayer"/><g class="glimages"/><g class="sankey" transform="translate(80,100)matrix(1 0 0 1 0 0)" style="box-sizing: content-box; position: absolute; left: 0px; shape-rendering: geometricPrecision; pointer-events: auto;"><g class="sankey-links" style="fill: none;"><path class="sankey-link" d="M20,174.27492296219248C140,174.27492296219248 140,159.6272820763696 260,159.6272820763696L260,163.14423690816156C140,163.14423690816156 140,177.79187779398444 20,177.79187779398444Z" style="stroke: rgb(68, 68, 68); stroke-opacity: 1; fill: rgb(0, 0, 0); fill-opacity: 0.2; stroke-width: 0; opacity: 1;"/><path class="sankey-link" d="M20,49.703647568239184C140,49.703647568239184 140,49.27822890463849 260,49.27822890463849L260,159.6272820763696C140,159.6272820763696 140,160.0527007399703 20,160.0527007399703Z" style="stroke: rgb(68, 68, 68); stroke-opacity: 1; fill: rgb(0, 0, 0); fill-opacity: 0.2; stroke-width: 0; opacity: 1;"/><path class="sankey-link" d="M280,49.27822890463849C400,49.27822890463849 400,1.4921397450962104e-13 520,1.4921397450962104e-13L520,26.167001742393932C400,26.167001742393932 400,75.44523064703228 280,75.44523064703228Z" style="stroke: rgb(68, 68, 68); stroke-opacity: 1; fill: rgb(0, 0, 0); fill-opacity: 0.2; stroke-width: 0; opacity: 1;"/><path class="sankey-link" d="M280,75.44523064703228C400,75.44523064703228 400,40.38922396461615 520,40.38922396461615L520,50.904551285733575C400,50.904551285733575 400,85.96055796814971 280,85.96055796814971Z" style="stroke: rgb(68, 68, 68); stroke-opacity: 1; fill: rgb(0, 0, 0); fill-opacity: 0.2; stroke-width: 0; opacity: 1;"/><path class="sankey-link" d="M280,145.10054303334587C400,145.10054303334587 400,223.8223141287075 520,223.8223141287075L520,227.80983016447442C400,227.80983016447442 400,149.0880590691128 280,149.0880590691128Z" style="stroke: rgb(68, 68, 68); stroke-opacity: 1; fill: rgb(0, 0, 0); fill-opacity: 0.2; stroke-width: 0; opacity: 1;"/><path class="sankey-link" d="M280,110.06395276394498C400,110.06395276394498 400,117.67461274819556 520,117.67461274819556L520,127.53924215444138C400,127.53924215444138 400,119.92858217019081 280,119.92858217019081Z" style="stroke: rgb(68, 68, 68); stroke-opacity: 1; fill: rgb(0, 0, 0); fill-opacity: 0.2; stroke-width: 0; opacity: 1;"/><path class="sankey-link" d="M280,152.40710860287885C400,152.40710860287885 400,259.573324142685 520,259.573324142685L520,260.6204453635095C400,260.6204453635095 400,153.45422982370332 280,153.45422982370332Z" style="stroke: rgb(68, 68, 68); stroke-opacity: 1; fill: rgb(0, 0, 0); fill-opacity: 0.2; stroke-width: 0; opacity: 1;"/><path class="sankey-link" d="M280,119.9285821701908C400,119.9285821701908 400,141.76146437666358 520,141.76146437666358L520,150.0967698699908C400,150.0967698699908 400,128.263887663518 280,128.263887663518Z" style="stroke: rgb(68, 68, 68); stroke-opacity: 1; fill: rgb(0, 0, 0); fill-opacity: 0.2; stroke-width: 0; opacity: 1;"/><path class="sankey-link" d="M280,135.25061866472427C400,135.25061866472427 400,185.52794531564143 520,185.52794531564143L520,190.25745304153037C400,190.25745304153037 400,139.9801263906132 280,139.9801263906132Z" style="stroke: rgb(68, 68, 68); stroke-opacity: 1; fill: rgb(0, 0, 0); fill-opacity: 0.2; stroke-width: 0; opacity: 1;"/><path class="sankey-link" d="M280,155.12754056335905C400,155.12754056335905 400,290.7382005476096 520,290.7382005476096L520,291.1934440040593C400,291.1934440040593 400,155.5827840198088 280,155.5827840198088Z" style="stroke: rgb(0, 0, 0); stroke-opacity: 0.2; fill: rgb(0, 0, 0); fill-opacity: 0.2; stroke-width: 1; opacity: 1;"/><path class="sankey-link" d="M280,155.58278401980877C400,155.58278401980877 400,305.41566622628153 520,305.41566622628153L520,305.55046240450355C400,305.55046240450355 400,155.7175801980308 280,155.7175801980308Z" style="stroke: rgb(0, 0, 0); stroke-opacity: 0.2; fill: rgb(0, 0, 0); fill-opacity: 0.2; stroke-width: 1; opacity: 1;"/><path class="sankey-link" d="M280,139.98012639061318C400,139.98012639061318 400,204.4796752637526 520,204.4796752637526L520,209.60009190648526C400,209.60009190648526 400,145.10054303334584 280,145.10054303334584Z" style="stroke: rgb(68, 68, 68); stroke-opacity: 1; fill: rgb(0, 0, 0); fill-opacity: 0.2; stroke-width: 0; opacity: 1;"/><path class="sankey-link" d="M280,128.263887663518C400,128.263887663518 400,164.31899209221302 520,164.31899209221302L520,171.30572309341932C400,171.30572309341932 400,135.2506186647243 280,135.2506186647243Z" style="stroke: rgb(68, 68, 68); stroke-opacity: 1; fill: rgb(0, 0, 0); fill-opacity: 0.2; stroke-width: 0; opacity: 1;"/><path class="sankey-link" d="M280,155.71758019803076C400,155.71758019803076 400,319.77268462672566 520,319.77268462672566L520,320C400,320 400,155.9448955713051 280,155.9448955713051Z" style="stroke: rgb(0, 0, 0); stroke-opacity: 0.2; fill: rgb(0, 0, 0); fill-opacity: 0.2; stroke-width: 1; opacity: 1;"/><path class="sankey-link" d="M280,85.9605579681497C400,85.9605579681497 400,65.12677350795582 520,65.12677350795582L520,76.80379880138642C400,76.80379880138642 400,97.6375832615803 280,97.6375832615803Z" style="stroke: rgb(68, 68, 68); stroke-opacity: 1; fill: rgb(0, 0, 0); fill-opacity: 0.2; stroke-width: 0; opacity: 1;"/><path class="sankey-link" d="M280,153.45422982370332C400,153.45422982370332 400,274.8426675857317 520,274.8426675857317L520,276.5159783253875C400,276.5159783253875 400,155.12754056335905 280,155.12754056335905Z" style="stroke: rgb(68, 68, 68); stroke-opacity: 1; fill: rgb(0, 0, 0); fill-opacity: 0.2; stroke-width: 0; opacity: 1;"/><path class="sankey-link" d="M280,149.0880590691128C400,149.0880590691128 400,242.0320523866967 520,242.0320523866967L520,245.35110192046278C400,245.35110192046278 400,152.40710860287888 280,152.40710860287888Z" style="stroke: rgb(68, 68, 68); stroke-opacity: 1; fill: rgb(0, 0, 0); fill-opacity: 0.2; stroke-width: 0; opacity: 1;"/><path class="sankey-link" d="M280,97.6375832615803C400,97.6375832615803 400,91.02602102360862 520,91.02602102360862L520,103.4523905259733C400,103.4523905259733 400,110.06395276394498 280,110.06395276394498Z" style="stroke: rgb(68, 68, 68); stroke-opacity: 1; fill: rgb(0, 0, 0); fill-opacity: 0.2; stroke-width: 0; opacity: 1;"/></g><g class="sankey-node-set" style="cursor: move;"><g class="sankey-node" transform="translate(0.000, 174.275)" style="opacity: 1;"><rect class="node-rect" width="20" height="3.5169548317919634" style="stroke-width: 0.5; stroke: rgb(0, 0, 0); stroke-opacity: 1; fill: rgb(0, 128, 128); fill-opacity: 1;"/><rect class="node-capture" x="-10" y="-7.5" width="40" height="18.516954831791963" style="fill-opacity: 0;"/><g class="node-entered" transform="translate(0 2.7584774158959817)"><path class="node-label-guide" id="a27730_0_node_0" d="M24,0L540,0" transform="matrix(1 0 0 1 0 0)"/><text class="node-label" transform="scale(1 1)" style="user-select: none; cursor: default; fill: rgb(42, 63, 95); text-shadow: rgb(255, 255, 255) -1px 1px 1px, rgb(255, 255, 255) 1px 1px 1px, rgb(255, 255, 255) 1px -1px 1px, rgb(255, 255, 255) -1px -1px 1px; font-family: 'Open Sans', verdana, arial, sans-serif; font-size: 9px; fill-opacity: 1;"><textPath class="node-label-text-path" alignment-baseline="middle" xlink:href="#a27730_0_node_0" startOffset="0%" text-anchor="start" style="fill: rgb(0, 0, 0);">Hydro Power (57.40KW )</textPath></text></g></g><g class="sankey-node" transform="translate(0.000, 49.704)" style="opacity: 1;"><rect class="node-rect" width="20" height="110.34905317173107" style="stroke-width: 0.5; stroke: rgb(0, 0, 0); stroke-opacity: 1; fill: rgb(175, 238, 238); fill-opacity: 1;"/><rect class="node-capture" x="-10" y="-7.5" width="40" height="125.34905317173107" style="fill-opacity: 0;"/><g class="node-entered" transform="translate(0 56.174526585865536)"><path class="node-label-guide" id="a27730_0_node_2" d="M24,0L540,0" transform="matrix(1 0 0 1 0 0)"/><text class="node-label" transform="scale(1 1)" style="user-select: none; cursor: default; fill: rgb(42, 63, 95); text-shadow: rgb(255, 255, 255) -1px 1px 1px, rgb(255, 255, 255) 1px 1px 1px, rgb(255, 255, 255) 1px -1px 1px, rgb(255, 255, 255) -1px -1px 1px; font-family: 'Open Sans', verdana, arial, sans-serif; font-size: 9px; fill-opacity: 1;"><textPath class="node-label-text-path" alignment-baseline="middle" xlink:href="#a27730_0_node_2" startOffset="0%" text-anchor="start" style="fill: rgb(0, 0, 0);">COGEN 2 (1801.00KW)</textPath></text></g></g><g class="sankey-node" transform="translate(260.000, 49.278)" style="opacity: 1;"><rect class="node-rect" width="20" height="113.866008003523" style="stroke-width: 0.5; stroke: rgb(0, 0, 0); stroke-opacity: 1; fill: rgb(138, 43, 226); fill-opacity: 1;"/><rect class="node-capture" x="-10" y="-7.5" width="40" height="128.866008003523" style="fill-opacity: 0;"/><g class="node-entered" transform="translate(0 57.9330040017615)"><path class="node-label-guide" id="a27730_0_node_5" d="M24,0L540,0" transform="matrix(1 0 0 1 0 0)"/><text class="node-label" transform="scale(1 1)" style="user-select: none; cursor: default; fill: rgb(42, 63, 95); text-shadow: rgb(255, 255, 255) -1px 1px 1px, rgb(255, 255, 255) 1px 1px 1px, rgb(255, 255, 255) 1px -1px 1px, rgb(255, 255, 255) -1px -1px 1px; font-family: 'Open Sans', verdana, arial, sans-serif; font-size: 9px; fill-opacity: 1;"><textPath class="node-label-text-path" alignment-baseline="middle" xlink:href="#a27730_0_node_5" startOffset="0%" text-anchor="start" style="fill: rgb(0, 0, 0);">Total Power (1801.00KW)</textPath></text></g></g><g class="sankey-node" transform="translate(520.000, 0.000)" style="opacity: 1;"><rect class="node-rect" width="20" height="26.167001742393786" style="stroke-width: 0.5; stroke: rgb(0, 0, 0); stroke-opacity: 1; fill: rgb(250, 128, 114); fill-opacity: 1;"/><rect class="node-capture" x="-10" y="-7.5" width="40" height="41.167001742393786" style="fill-opacity: 0;"/><g class="node-entered" transform="translate(0 14.083500871196893)"><path class="node-label-guide" id="a27730_0_node_6" d="M-540,0L-4,0" transform="matrix(1 0 0 1 0 0)"/><text class="node-label" transform="scale(1 1)" style="user-select: none; cursor: default; fill: rgb(42, 63, 95); text-shadow: rgb(255, 255, 255) -1px 1px 1px, rgb(255, 255, 255) 1px 1px 1px, rgb(255, 255, 255) 1px -1px 1px, rgb(255, 255, 255) -1px -1px 1px; font-family: 'Open Sans', verdana, arial, sans-serif; font-size: 9px; fill-opacity: 1;"><textPath class="node-label-text-path" alignment-baseline="middle" xlink:href="#a27730_0_node_6" startOffset="100%" text-anchor="end" style="fill: rgb(0, 0, 0);">Building A (416.49KW)</textPath></text></g></g><g class="sankey-node" transform="translate(520.000, 40.389)" style="opacity: 1;"><rect class="node-rect" width="20" height="10.51532732111744" style="stroke-width: 0.5; stroke: rgb(0, 0, 0); stroke-opacity: 1; fill: rgb(255, 160, 122); fill-opacity: 1;"/><rect class="node-capture" x="-10" y="-7.5" width="40" height="25.51532732111744" style="fill-opacity: 0;"/><g class="node-entered" transform="translate(0 6.25766366055872)"><path class="node-label-guide" id="a27730_0_node_7" d="M-540,0L-4,0" transform="matrix(1 0 0 1 0 0)"/><text class="node-label" transform="scale(1 1)" style="user-select: none; cursor: default; fill: rgb(42, 63, 95); text-shadow: rgb(255, 255, 255) -1px 1px 1px, rgb(255, 255, 255) 1px 1px 1px, rgb(255, 255, 255) 1px -1px 1px, rgb(255, 255, 255) -1px -1px 1px; font-family: 'Open Sans', verdana, arial, sans-serif; font-size: 9px; fill-opacity: 1;"><textPath class="node-label-text-path" alignment-baseline="middle" xlink:href="#a27730_0_node_7" startOffset="100%" text-anchor="end" style="fill: rgb(0, 0, 0);">Building B (171.62KW)</textPath></text></g></g><g class="sankey-node" transform="translate(520.000, 223.822)" style="opacity: 1;"><rect class="node-rect" width="20" height="3.987516035766987" style="stroke-width: 0.5; stroke: rgb(0, 0, 0); stroke-opacity: 1; fill: rgb(102, 205, 170); fill-opacity: 1;"/><rect class="node-capture" x="-10" y="-7.5" width="40" height="18.987516035766987" style="fill-opacity: 0;"/><g class="node-entered" transform="translate(0 2.9937580178834935)"><path class="node-label-guide" id="a27730_0_node_9" d="M-540,0L-4,0" transform="matrix(1 0 0 1 0 0)"/><text class="node-label" transform="scale(1 1)" style="user-select: none; cursor: default; fill: rgb(42, 63, 95); text-shadow: rgb(255, 255, 255) -1px 1px 1px, rgb(255, 255, 255) 1px 1px 1px, rgb(255, 255, 255) 1px -1px 1px, rgb(255, 255, 255) -1px -1px 1px; font-family: 'Open Sans', verdana, arial, sans-serif; font-size: 9px; fill-opacity: 1;"><textPath class="node-label-text-path" alignment-baseline="middle" xlink:href="#a27730_0_node_9" startOffset="100%" text-anchor="end" style="fill: rgb(0, 0, 0);">Building D (65.08KW)</textPath></text></g></g><g class="sankey-node" transform="translate(520.000, 117.675)" style="opacity: 1;"><rect class="node-rect" width="20" height="9.864629406245797" style="stroke-width: 0.5; stroke: rgb(0, 0, 0); stroke-opacity: 1; fill: rgb(135, 206, 250); fill-opacity: 1;"/><rect class="node-capture" x="-10" y="-7.5" width="40" height="24.864629406245797" style="fill-opacity: 0;"/><g class="node-entered" transform="translate(0 5.932314703122898)"><path class="node-label-guide" id="a27730_0_node_10" d="M-540,0L-4,0" transform="matrix(1 0 0 1 0 0)"/><text class="node-label" transform="scale(1 1)" style="user-select: none; cursor: default; fill: rgb(42, 63, 95); text-shadow: rgb(255, 255, 255) -1px 1px 1px, rgb(255, 255, 255) 1px 1px 1px, rgb(255, 255, 255) 1px -1px 1px, rgb(255, 255, 255) -1px -1px 1px; font-family: 'Open Sans', verdana, arial, sans-serif; font-size: 9px; fill-opacity: 1;"><textPath class="node-label-text-path" alignment-baseline="middle" xlink:href="#a27730_0_node_10" startOffset="100%" text-anchor="end" style="fill: rgb(0, 0, 0);">Building E (161.00KW)</textPath></text></g></g><g class="sankey-node" transform="translate(520.000, 259.573)" style="opacity: 1;"><rect class="node-rect" width="20" height="1.0471212208244651" style="stroke-width: 0.5; stroke: rgb(0, 0, 0); stroke-opacity: 1; fill: rgb(0, 191, 255); fill-opacity: 1;"/><rect class="node-capture" x="-10" y="-7.5" width="40" height="16.047121220824465" style="fill-opacity: 0;"/><g class="node-entered" transform="translate(0 1.5235606104122326)"><path class="node-label-guide" id="a27730_0_node_11" d="M-540,0L-4,0" transform="matrix(1 0 0 1 0 0)"/><text class="node-label" transform="scale(1 1)" style="user-select: none; cursor: default; fill: rgb(42, 63, 95); text-shadow: rgb(255, 255, 255) -1px 1px 1px, rgb(255, 255, 255) 1px 1px 1px, rgb(255, 255, 255) 1px -1px 1px, rgb(255, 255, 255) -1px -1px 1px; font-family: 'Open Sans', verdana, arial, sans-serif; font-size: 9px; fill-opacity: 1;"><textPath class="node-label-text-path" alignment-baseline="middle" xlink:href="#a27730_0_node_11" startOffset="100%" text-anchor="end" style="fill: rgb(0, 0, 0);">Building G (17.09KW)</textPath></text></g></g><g class="sankey-node" transform="translate(520.000, 141.761)" style="opacity: 1;"><rect class="node-rect" width="20" height="8.335305493327212" style="stroke-width: 0.5; stroke: rgb(0, 0, 0); stroke-opacity: 1; fill: rgb(255, 228, 181); fill-opacity: 1;"/><rect class="node-capture" x="-10" y="-7.5" width="40" height="23.335305493327212" style="fill-opacity: 0;"/><g class="node-entered" transform="translate(0 5.167652746663606)"><path class="node-label-guide" id="a27730_0_node_12" d="M-540,0L-4,0" transform="matrix(1 0 0 1 0 0)"/><text class="node-label" transform="scale(1 1)" style="user-select: none; cursor: default; fill: rgb(42, 63, 95); text-shadow: rgb(255, 255, 255) -1px 1px 1px, rgb(255, 255, 255) 1px 1px 1px, rgb(255, 255, 255) 1px -1px 1px, rgb(255, 255, 255) -1px -1px 1px; font-family: 'Open Sans', verdana, arial, sans-serif; font-size: 9px; fill-opacity: 1;"><textPath class="node-label-text-path" alignment-baseline="middle" xlink:href="#a27730_0_node_12" startOffset="100%" text-anchor="end" style="fill: rgb(0, 0, 0);">Building H (136.04KW)</textPath></text></g></g><g class="sankey-node" transform="translate(520.000, 185.528)" style="opacity: 1;"><rect class="node-rect" width="20" height="4.729507725888936" style="stroke-width: 0.5; stroke: rgb(0, 0, 0); stroke-opacity: 1; fill: rgb(175, 238, 238); fill-opacity: 1;"/><rect class="node-capture" x="-10" y="-7.5" width="40" height="19.729507725888936" style="fill-opacity: 0;"/><g class="node-entered" transform="translate(0 3.364753862944468)"><path class="node-label-guide" id="a27730_0_node_13" d="M-540,0L-4,0" transform="matrix(1 0 0 1 0 0)"/><text class="node-label" transform="scale(1 1)" style="user-select: none; cursor: default; fill: rgb(42, 63, 95); text-shadow: rgb(255, 255, 255) -1px 1px 1px, rgb(255, 255, 255) 1px 1px 1px, rgb(255, 255, 255) 1px -1px 1px, rgb(255, 255, 255) -1px -1px 1px; font-family: 'Open Sans', verdana, arial, sans-serif; font-size: 9px; fill-opacity: 1;"><textPath class="node-label-text-path" alignment-baseline="middle" xlink:href="#a27730_0_node_13" startOffset="100%" text-anchor="end" style="fill: rgb(0, 0, 0);">Building J (77.19KW)</textPath></text></g></g><g class="sankey-node" transform="translate(520.000, 290.738)" style="opacity: 1;"><rect class="node-rect" width="20" height="0.5" style="stroke-width: 0.5; stroke: rgb(0, 0, 0); stroke-opacity: 1; fill: rgb(255, 165, 0); fill-opacity: 1;"/><rect class="node-capture" x="-10" y="-7.5" width="40" height="15.5" style="fill-opacity: 0;"/><g class="node-entered" transform="translate(0 1.2276217282248467)"><path class="node-label-guide" id="a27730_0_node_14" d="M-540,0L-4,0" transform="matrix(1 0 0 1 0 0)"/><text class="node-label" transform="scale(1 1)" style="user-select: none; cursor: default; fill: rgb(42, 63, 95); text-shadow: rgb(255, 255, 255) -1px 1px 1px, rgb(255, 255, 255) 1px 1px 1px, rgb(255, 255, 255) 1px -1px 1px, rgb(255, 255, 255) -1px -1px 1px; font-family: 'Open Sans', verdana, arial, sans-serif; font-size: 9px; fill-opacity: 1;"><textPath class="node-label-text-path" alignment-baseline="middle" xlink:href="#a27730_0_node_14" startOffset="100%" text-anchor="end" style="fill: rgb(0, 0, 0);">Building K (7.43KW)</textPath></text></g></g><g class="sankey-node" transform="translate(520.000, 305.416)" style="opacity: 1;"><rect class="node-rect" width="20" height="0.5" style="stroke-width: 0.5; stroke: rgb(0, 0, 0); stroke-opacity: 1; fill: rgb(255, 140, 0); fill-opacity: 1;"/><rect class="node-capture" x="-10" y="-7.5" width="40" height="15.5" style="fill-opacity: 0;"/><g class="node-entered" transform="translate(0 1.0673980891109522)"><path class="node-label-guide" id="a27730_0_node_15" d="M-540,0L-4,0" transform="matrix(1 0 0 1 0 0)"/><text class="node-label" transform="scale(1 1)" style="user-select: none; cursor: default; fill: rgb(42, 63, 95); text-shadow: rgb(255, 255, 255) -1px 1px 1px, rgb(255, 255, 255) 1px 1px 1px, rgb(255, 255, 255) 1px -1px 1px, rgb(255, 255, 255) -1px -1px 1px; font-family: 'Open Sans', verdana, arial, sans-serif; font-size: 9px; fill-opacity: 1;"><textPath class="node-label-text-path" alignment-baseline="middle" xlink:href="#a27730_0_node_15" startOffset="100%" text-anchor="end" style="fill: rgb(0, 0, 0);">Building M (2.20KW)</textPath></text></g></g><g class="sankey-node" transform="translate(520.000, 204.480)" style="opacity: 1;"><rect class="node-rect" width="20" height="5.120416642732664" style="stroke-width: 0.5; stroke: rgb(0, 0, 0); stroke-opacity: 1; fill: rgb(240, 230, 140); fill-opacity: 1;"/><rect class="node-capture" x="-10" y="-7.5" width="40" height="20.120416642732664" style="fill-opacity: 0;"/><g class="node-entered" transform="translate(0 3.560208321366332)"><path class="node-label-guide" id="a27730_0_node_16" d="M-540,0L-4,0" transform="matrix(1 0 0 1 0 0)"/><text class="node-label" transform="scale(1 1)" style="user-select: none; cursor: default; fill: rgb(42, 63, 95); text-shadow: rgb(255, 255, 255) -1px 1px 1px, rgb(255, 255, 255) 1px 1px 1px, rgb(255, 255, 255) 1px -1px 1px, rgb(255, 255, 255) -1px -1px 1px; font-family: 'Open Sans', verdana, arial, sans-serif; font-size: 9px; fill-opacity: 1;"><textPath class="node-label-text-path" alignment-baseline="middle" xlink:href="#a27730_0_node_16" startOffset="100%" text-anchor="end" style="fill: rgb(0, 0, 0);">Building N (83.57KW)</textPath></text></g></g><g class="sankey-node" transform="translate(520.000, 164.319)" style="opacity: 1;"><rect class="node-rect" width="20" height="6.986731001206181" style="stroke-width: 0.5; stroke: rgb(0, 0, 0); stroke-opacity: 1; fill: rgb(189, 183, 107); fill-opacity: 1;"/><rect class="node-capture" x="-10" y="-7.5" width="40" height="21.98673100120618" style="fill-opacity: 0;"/><g class="node-entered" transform="translate(0 4.49336550060309)"><path class="node-label-guide" id="a27730_0_node_17" d="M-540,0L-4,0" transform="matrix(1 0 0 1 0 0)"/><text class="node-label" transform="scale(1 1)" style="user-select: none; cursor: default; fill: rgb(42, 63, 95); text-shadow: rgb(255, 255, 255) -1px 1px 1px, rgb(255, 255, 255) 1px 1px 1px, rgb(255, 255, 255) 1px -1px 1px, rgb(255, 255, 255) -1px -1px 1px; font-family: 'Open Sans', verdana, arial, sans-serif; font-size: 9px; fill-opacity: 1;"><textPath class="node-label-text-path" alignment-baseline="middle" xlink:href="#a27730_0_node_17" startOffset="100%" text-anchor="end" style="fill: rgb(0, 0, 0);">Building P (114.03KW)</textPath></text></g></g><g class="sankey-node" transform="translate(520.000, 319.773)" style="opacity: 1;"><rect class="node-rect" width="20" height="0.5" style="stroke-width: 0.5; stroke: rgb(0, 0, 0); stroke-opacity: 1; fill: rgb(152, 251, 152); fill-opacity: 1;"/><rect class="node-capture" x="-10" y="-7.5" width="40" height="15.5" style="fill-opacity: 0;"/><g class="node-entered" transform="translate(0 1.1136576866371684)"><path class="node-label-guide" id="a27730_0_node_18" d="M-540,0L-4,0" transform="matrix(1 0 0 1 0 0)"/><text class="node-label" transform="scale(1 1)" style="user-select: none; cursor: default; fill: rgb(42, 63, 95); text-shadow: rgb(255, 255, 255) -1px 1px 1px, rgb(255, 255, 255) 1px 1px 1px, rgb(255, 255, 255) 1px -1px 1px, rgb(255, 255, 255) -1px -1px 1px; font-family: 'Open Sans', verdana, arial, sans-serif; font-size: 9px; fill-opacity: 1;"><textPath class="node-label-text-path" alignment-baseline="middle" xlink:href="#a27730_0_node_18" startOffset="100%" text-anchor="end" style="fill: rgb(0, 0, 0);">Building S (3.71KW)</textPath></text></g></g><g class="sankey-node" transform="translate(520.000, 65.127)" style="opacity: 1;"><rect class="node-rect" width="20" height="11.677025293430574" style="stroke-width: 0.5; stroke: rgb(0, 0, 0); stroke-opacity: 1; fill: rgb(0, 255, 127); fill-opacity: 1;"/><rect class="node-capture" x="-10" y="-7.5" width="40" height="26.677025293430574" style="fill-opacity: 0;"/><g class="node-entered" transform="translate(0 6.838512646715287)"><path class="node-label-guide" id="a27730_0_node_19" d="M-540,0L-4,0" transform="matrix(1 0 0 1 0 0)"/><text class="node-label" transform="scale(1 1)" style="user-select: none; cursor: default; fill: rgb(42, 63, 95); text-shadow: rgb(255, 255, 255) -1px 1px 1px, rgb(255, 255, 255) 1px 1px 1px, rgb(255, 255, 255) 1px -1px 1px, rgb(255, 255, 255) -1px -1px 1px; font-family: 'Open Sans', verdana, arial, sans-serif; font-size: 9px; fill-opacity: 1;"><textPath class="node-label-text-path" alignment-baseline="middle" xlink:href="#a27730_0_node_19" startOffset="100%" text-anchor="end" style="fill: rgb(0, 0, 0);">Building T (190.58KW)</textPath></text></g></g><g class="sankey-node" transform="translate(520.000, 274.843)" style="opacity: 1;"><rect class="node-rect" width="20" height="1.6733107396556761" style="stroke-width: 0.5; stroke: rgb(0, 0, 0); stroke-opacity: 1; fill: rgb(144, 238, 144); fill-opacity: 1;"/><rect class="node-capture" x="-10" y="-7.5" width="40" height="16.673310739655676" style="fill-opacity: 0;"/><g class="node-entered" transform="translate(0 1.836655369827838)"><path class="node-label-guide" id="a27730_0_node_20" d="M-540,0L-4,0" transform="matrix(1 0 0 1 0 0)"/><text class="node-label" transform="scale(1 1)" style="user-select: none; cursor: default; fill: rgb(42, 63, 95); text-shadow: rgb(255, 255, 255) -1px 1px 1px, rgb(255, 255, 255) 1px 1px 1px, rgb(255, 255, 255) 1px -1px 1px, rgb(255, 255, 255) -1px -1px 1px; font-family: 'Open Sans', verdana, arial, sans-serif; font-size: 9px; fill-opacity: 1;"><textPath class="node-label-text-path" alignment-baseline="middle" xlink:href="#a27730_0_node_20" startOffset="100%" text-anchor="end" style="fill: rgb(0, 0, 0);">Building V (27.31KW)</textPath></text></g></g><g class="sankey-node" transform="translate(520.000, 242.032)" style="opacity: 1;"><rect class="node-rect" width="20" height="3.3190495337660764" style="stroke-width: 0.5; stroke: rgb(0, 0, 0); stroke-opacity: 1; fill: rgb(100, 149, 237); fill-opacity: 1;"/><rect class="node-capture" x="-10" y="-7.5" width="40" height="18.319049533766076" style="fill-opacity: 0;"/><g class="node-entered" transform="translate(0 2.659524766883038)"><path class="node-label-guide" id="a27730_0_node_21" d="M-540,0L-4,0" transform="matrix(1 0 0 1 0 0)"/><text class="node-label" transform="scale(1 1)" style="user-select: none; cursor: default; fill: rgb(42, 63, 95); text-shadow: rgb(255, 255, 255) -1px 1px 1px, rgb(255, 255, 255) 1px 1px 1px, rgb(255, 255, 255) 1px -1px 1px, rgb(255, 255, 255) -1px -1px 1px; font-family: 'Open Sans', verdana, arial, sans-serif; font-size: 9px; fill-opacity: 1;"><textPath class="node-label-text-path" alignment-baseline="middle" xlink:href="#a27730_0_node_21" startOffset="100%" text-anchor="end" style="fill: rgb(0, 0, 0);">Building Z (54.17KW)</textPath></text></g></g><g class="sankey-node" transform="translate(520.000, 91.026)" style="opacity: 1;"><rect class="node-rect" width="20" height="12.426369502364707" style="stroke-width: 0.5; stroke: rgb(0, 0, 0); stroke-opacity: 1; fill: rgb(221, 160, 221); fill-opacity: 1;"/><rect class="node-capture" x="-10" y="-7.5" width="40" height="27.426369502364707" style="fill-opacity: 0;"/><g class="node-entered" transform="translate(0 7.213184751182354)"><path class="node-label-guide" id="a27730_0_node_22" d="M-540,0L-4,0" transform="matrix(1 0 0 1 0 0)"/><text class="node-label" transform="scale(1 1)" style="user-select: none; cursor: default; fill: rgb(42, 63, 95); text-shadow: rgb(255, 255, 255) -1px 1px 1px, rgb(255, 255, 255) 1px 1px 1px, rgb(255, 255, 255) 1px -1px 1px, rgb(255, 255, 255) -1px -1px 1px; font-family: 'Open Sans', verdana, arial, sans-serif; font-size: 9px; fill-opacity: 1;"><textPath class="node-label-text-path" alignment-baseline="middle" xlink:href="#a27730_0_node_22" startOffset="100%" text-anchor="end" style="fill: rgb(0, 0, 0);">Residence 1&amp;2 (202.81KW)</textPath></text></g></g></g></g><defs id="topdefs-d6e0b3"><g class="clips"/></defs><g class="layer-above"><g class="imagelayer"/><g class="shapelayer"/></g><g class="infolayer"><g class="g-gtitle"/><g class="first-render"/></g></svg>