<svg class="main-svg" xmlns="http://www.w3.org/2000/svg" xmlns:xlink="http://www.w3.org/1999/xlink" width="700" height="500" viewBox="0 0 700 500"><rect x="0" y="0" width="700" height="500" style="fill: rgb(255, 255, 255); fill-opacity: 1;"/><defs id="defs-dde0b2"><g class="clips"/><g class="gradients"/></defs><g class="bglayer"/><g class="layer-below"><g class="imagelayer"/><g class="shapelayer"/></g><g class="cartesianlayer"/><g class="polarlayer"/><g class="ternarylayer"/><g class="geolayer"/><g class="funnelarealayer"/><g class="pielayer"/><g class="treemaplayer"/><g class="sunburstlayer"/><g class="glimages"/><g class="sankey" transform="translate(80,100)matrix(1 0 0 1 0 0)" style="box-sizing: content-box; position: absolute; left: 0px; shape-rendering: geometricPrecision; pointer-events: auto;"><g class="sankey-links" style="fill: none;"><path class="sankey-link" d="M20,162.12235550597796C140,162.12235550597796 140,145.26713757885483 260,145.26713757885483L260,167.97430364094419C140,167.97430364094419 140,184.82952156806732 20,184.82952156806732Z" style="stroke: rgb(68, 68, 68); stroke-opacity: 1; fill: rgb(0, 0, 0); fill-opacity: 0.2; stroke-width: 0; opacity: 1;"/><path class="sankey-link" d="M20,63.80124483191066C140,63.80124483191066 140,61.16824912700978 260,61.16824912700978L260,145.26713757885486C140,145.26713757885486 140,147.90013328375574 20,147.90013328375574Z" style="stroke: rgb(68, 68, 68); stroke-opacity: 1; fill: rgb(0, 0, 0); fill-opacity: 0.2; stroke-width: 0; opacity: 1;"/><path class="sankey-link" d="M280,61.16824912700977C400,61.16824912700977 400,-2.3447910280083306e-13 520,-2.3447910280083306e-13L520,29.18567078944662C400,29.18567078944662 400,90.35391991645662 280,90.35391991645662Z" style="stroke: rgb(68, 68, 68); stroke-opacity: 1; fill: rgb(0, 0, 0); fill-opacity: 0.2; stroke-width: 0; opacity: 1;"/><path class="sankey-link" d="M280,103.83864523440602C400,103.83864523440602 400,71.11484055184047 520,71.11484055184047L520,82.59219439709781C400,82.59219439709781 400,115.31599907966336 280,115.31599907966336Z" style="stroke: rgb(68, 68, 68); stroke-opacity: 1; fill: rgb(0, 0, 0); fill-opacity: 0.2; stroke-width: 0; opacity: 1;"/><path class="sankey-link" d="M280,148.44835052117963C400,148.44835052117963 400,186.8356569497253 520,186.8356569497253L520,191.11285928645302C400,191.11285928645302 400,152.72555285790736 280,152.72555285790736Z" style="stroke: rgb(68, 68, 68); stroke-opacity: 1; fill: rgb(0, 0, 0); fill-opacity: 0.2; stroke-width: 0; opacity: 1;"/><path class="sankey-link" d="M280,134.1328922807181C400,134.1328922807181 400,144.07575426481927 520,144.07575426481927L520,152.42037789723625C400,152.42037789723625 400,142.47751591313508 280,142.47751591313508Z" style="stroke: rgb(68, 68, 68); stroke-opacity: 1; fill: rgb(0, 0, 0); fill-opacity: 0.2; stroke-width: 0; opacity: 1;"/><path class="sankey-link" d="M280,164.97909655500683C400,164.97909655500683 400,260.2552918724414 520,260.2552918724414L520,260.97647247352234C400,260.97647247352234 400,165.7002771560878 280,165.7002771560878Z" style="stroke: rgb(0, 0, 0); stroke-opacity: 0.2; fill: rgb(0, 0, 0); fill-opacity: 0.2; stroke-width: 1; opacity: 1;"/><path class="sankey-link" d="M280,115.31599907966336C400,115.31599907966336 400,96.81441661932007 520,96.81441661932007L520,106.21307343793231C400,106.21307343793231 400,124.7146558982756 280,124.7146558982756Z" style="stroke: rgb(68, 68, 68); stroke-opacity: 1; fill: rgb(0, 0, 0); fill-opacity: 0.2; stroke-width: 0; opacity: 1;"/><path class="sankey-link" d="M280,152.72555285790733C400,152.72555285790733 400,205.33508150867522 520,205.33508150867522L520,210.234168087059C400,210.234168087059 400,157.62463943629112 280,157.62463943629112Z" style="stroke: rgb(68, 68, 68); stroke-opacity: 1; fill: rgb(0, 0, 0); fill-opacity: 0.2; stroke-width: 0; opacity: 1;"/><path class="sankey-link" d="M280,167.11373519259553C400,167.11373519259553 400,290.83437495447447 520,290.83437495447447L520,291.2231691505324C400,291.2231691505324 400,167.5025293886534 280,167.5025293886534Z" style="stroke: rgb(0, 0, 0); stroke-opacity: 0.2; fill: rgb(0, 0, 0); fill-opacity: 0.2; stroke-width: 1; opacity: 1;"/><path class="sankey-link" d="M280,167.5025293886534C400,167.5025293886534 400,305.4453913727546 520,305.4453913727546L520,305.59037338111676C400,305.59037338111676 400,167.64751139701548 280,167.64751139701548Z" style="stroke: rgb(0, 0, 0); stroke-opacity: 0.2; fill: rgb(0, 0, 0); fill-opacity: 0.2; stroke-width: 1; opacity: 1;"/><path class="sankey-link" d="M280,157.62463943629115C400,157.62463943629115 400,224.4563903092813 520,224.4563903092813L520,229.90650175545932C400,229.90650175545932 400,163.07475088246917 280,163.07475088246917Z" style="stroke: rgb(68, 68, 68); stroke-opacity: 1; fill: rgb(0, 0, 0); fill-opacity: 0.2; stroke-width: 0; opacity: 1;"/><path class="sankey-link" d="M280,142.4775159131351C400,142.4775159131351 400,166.64260011945854 520,166.64260011945854L520,172.61343472750306C400,172.61343472750306 400,148.44835052117963 280,148.44835052117963Z" style="stroke: rgb(68, 68, 68); stroke-opacity: 1; fill: rgb(0, 0, 0); fill-opacity: 0.2; stroke-width: 0; opacity: 1;"/><path class="sankey-link" d="M280,167.64751139701548C400,167.64751139701548 400,319.812595603339 520,319.812595603339L520,320C400,320 400,167.8349157936765 280,167.8349157936765Z" style="stroke: rgb(0, 0, 0); stroke-opacity: 0.2; fill: rgb(0, 0, 0); fill-opacity: 0.2; stroke-width: 1; opacity: 1;"/><path class="sankey-link" d="M280,90.35391991645662C400,90.35391991645662 400,43.407893011668875 520,43.407893011668875L520,56.89261832961827C400,56.89261832961827 400,103.83864523440602 280,103.83864523440602Z" style="stroke: rgb(68, 68, 68); stroke-opacity: 1; fill: rgb(0, 0, 0); fill-opacity: 0.2; stroke-width: 0; opacity: 1;"/><path class="sankey-link" d="M280,165.7002771560878C400,165.7002771560878 400,275.19869469574456 520,275.19869469574456L520,276.61215273225224C400,276.61215273225224 400,167.11373519259553 280,167.11373519259553Z" style="stroke: rgb(68, 68, 68); stroke-opacity: 1; fill: rgb(0, 0, 0); fill-opacity: 0.2; stroke-width: 0; opacity: 1;"/><path class="sankey-link" d="M280,163.0747508824692C400,163.0747508824692 400,244.12872397768155 520,244.12872397768155L520,246.03306965021915C400,246.03306965021915 400,164.9790965550068 280,164.9790965550068Z" style="stroke: rgb(68, 68, 68); stroke-opacity: 1; fill: rgb(0, 0, 0); fill-opacity: 0.2; stroke-width: 0; opacity: 1;"/><path class="sankey-link" d="M280,124.7146558982756C400,124.7146558982756 400,120.43529566015454 520,120.43529566015454L520,129.85353204259704C400,129.85353204259704 400,134.1328922807181 280,134.1328922807181Z" style="stroke: rgb(68, 68, 68); stroke-opacity: 1; fill: rgb(0, 0, 0); fill-opacity: 0.2; stroke-width: 0; opacity: 1;"/></g><g class="sankey-node-set" style="cursor: move;"><g class="sankey-node" transform="translate(0.000, 162.122)" style="opacity: 1;"><rect class="node-rect" width="20" height="22.707166062089414" style="stroke-width: 0.5; stroke: rgb(0, 0, 0); stroke-opacity: 1; fill: rgb(0, 128, 128); fill-opacity: 1;"/><rect class="node-capture" x="-10" y="-7.5" width="40" height="37.707166062089414" style="fill-opacity: 0;"/><g class="node-entered" transform="translate(0 12.353583031044707)"><path class="node-label-guide" id="d6887b_0_node_0" d="M24,0L540,0" transform="matrix(1 0 0 1 0 0)"/><text class="node-label" transform="scale(1 1)" style="user-select: none; cursor: default; fill: rgb(42, 63, 95); text-shadow: rgb(255, 255, 255) -1px 1px 1px, rgb(255, 255, 255) 1px 1px 1px, rgb(255, 255, 255) 1px -1px 1px, rgb(255, 255, 255) -1px -1px 1px; font-family: 'Open Sans', verdana, arial, sans-serif; font-size: 9px; fill-opacity: 1;"><textPath class="node-label-text-path" alignment-baseline="middle" xlink:href="#d6887b_0_node_0" startOffset="0%" text-anchor="start" style="fill: rgb(0, 0, 0);">Hydro Power (487.09KW )</textPath></text></g></g><g class="sankey-node" transform="translate(0.000, 63.801)" style="opacity: 1;"><rect class="node-rect" width="20" height="84.09888845184508" style="stroke-width: 0.5; stroke: rgb(0, 0, 0); stroke-opacity: 1; fill: rgb(175, 238, 238); fill-opacity: 1;"/><rect class="node-capture" x="-10" y="-7.5" width="40" height="99.09888845184508" style="fill-opacity: 0;"/><g class="node-entered" transform="translate(0 43.04944422592254)"><path class="node-label-guide" id="d6887b_0_node_2" d="M24,0L540,0" transform="matrix(1 0 0 1 0 0)"/><text class="node-label" transform="scale(1 1)" style="user-select: none; cursor: default; fill: rgb(42, 63, 95); text-shadow: rgb(255, 255, 255) -1px 1px 1px, rgb(255, 255, 255) 1px 1px 1px, rgb(255, 255, 255) 1px -1px 1px, rgb(255, 255, 255) -1px -1px 1px; font-family: 'Open Sans', verdana, arial, sans-serif; font-size: 9px; fill-opacity: 1;"><textPath class="node-label-text-path" alignment-baseline="middle" xlink:href="#d6887b_0_node_2" startOffset="0%" text-anchor="start" style="fill: rgb(0, 0, 0);">COGEN 2 (1804.00KW)</textPath></text></g></g><g class="sankey-node" transform="translate(260.000, 61.168)" style="opacity: 1;"><rect class="node-rect" width="20" height="106.80605451393455" style="stroke-width: 0.5; stroke: rgb(0, 0, 0); stroke-opacity: 1; fill: rgb(138, 43, 226); fill-opacity: 1;"/><rect class="node-capture" x="-10" y="-7.5" width="40" height="121.80605451393455" style="fill-opacity: 0;"/><g class="node-entered" transform="translate(0 54.40302725696728)"><path class="node-label-guide" id="d6887b_0_node_5" d="M24,0L540,0" transform="matrix(1 0 0 1 0 0)"/><text class="node-label" transform="scale(1 1)" style="user-select: none; cursor: default; fill: rgb(42, 63, 95); text-shadow: rgb(255, 255, 255) -1px 1px 1px, rgb(255, 255, 255) 1px 1px 1px, rgb(255, 255, 255) 1px -1px 1px, rgb(255, 255, 255) -1px -1px 1px; font-family: 'Open Sans', verdana, arial, sans-serif; font-size: 9px; fill-opacity: 1;"><textPath class="node-label-text-path" alignment-baseline="middle" xlink:href="#d6887b_0_node_5" startOffset="0%" text-anchor="start" style="fill: rgb(0, 0, 0);">Total Power (2291.09KW)</textPath></text></g></g><g class="sankey-node" transform="translate(520.000, -0.000)" style="opacity: 1;"><rect class="node-rect" width="20" height="29.18567078944688" style="stroke-width: 0.5; stroke: rgb(0, 0, 0); stroke-opacity: 1; fill: rgb(250, 128, 114); fill-opacity: 1;"/><rect class="node-capture" x="-10" y="-7.5" width="40" height="44.18567078944688" style="fill-opacity: 0;"/><g class="node-entered" transform="translate(0 15.59283539472344)"><path class="node-label-guide" id="d6887b_0_node_6" d="M-540,0L-4,0" transform="matrix(1 0 0 1 0 0)"/><text class="node-label" transform="scale(1 1)" style="user-select: none; cursor: default; fill: rgb(42, 63, 95); text-shadow: rgb(255, 255, 255) -1px 1px 1px, rgb(255, 255, 255) 1px 1px 1px, rgb(255, 255, 255) 1px -1px 1px, rgb(255, 255, 255) -1px -1px 1px; font-family: 'Open Sans', verdana, arial, sans-serif; font-size: 9px; fill-opacity: 1;"><textPath class="node-label-text-path" alignment-baseline="middle" xlink:href="#d6887b_0_node_6" startOffset="100%" text-anchor="end" style="fill: rgb(0, 0, 0);">Building A (593.28KW)</textPath></text></g></g><g class="sankey-node" transform="translate(520.000, 71.115)" style="opacity: 1;"><rect class="node-rect" width="20" height="11.477353845257369" style="stroke-width: 0.5; stroke: rgb(0, 0, 0); stroke-opacity: 1; fill: rgb(255, 160, 122); fill-opacity: 1;"/><rect class="node-capture" x="-10" y="-7.5" width="40" height="26.47735384525737" style="fill-opacity: 0;"/><g class="node-entered" transform="translate(0 6.7386769226286845)"><path class="node-label-guide" id="d6887b_0_node_7" d="M-540,0L-4,0" transform="matrix(1 0 0 1 0 0)"/><text class="node-label" transform="scale(1 1)" style="user-select: none; cursor: default; fill: rgb(42, 63, 95); text-shadow: rgb(255, 255, 255) -1px 1px 1px, rgb(255, 255, 255) 1px 1px 1px, rgb(255, 255, 255) 1px -1px 1px, rgb(255, 255, 255) -1px -1px 1px; font-family: 'Open Sans', verdana, arial, sans-serif; font-size: 9px; fill-opacity: 1;"><textPath class="node-label-text-path" alignment-baseline="middle" xlink:href="#d6887b_0_node_7" startOffset="100%" text-anchor="end" style="fill: rgb(0, 0, 0);">Building B (246.20KW)</textPath></text></g></g><g class="sankey-node" transform="translate(520.000, 186.836)" style="opacity: 1;"><rect class="node-rect" width="20" height="4.277202336727726" style="stroke-width: 0.5; stroke: rgb(0, 0, 0); stroke-opacity: 1; fill: rgb(102, 205, 170); fill-opacity: 1;"/><rect class="node-capture" x="-10" y="-7.5" width="40" height="19.277202336727726" style="fill-opacity: 0;"/><g class="node-entered" transform="translate(0 3.138601168363863)"><path class="node-label-guide" id="d6887b_0_node_9" d="M-540,0L-4,0" transform="matrix(1 0 0 1 0 0)"/><text class="node-label" transform="scale(1 1)" style="user-select: none; cursor: default; fill: rgb(42, 63, 95); text-shadow: rgb(255, 255, 255) -1px 1px 1px, rgb(255, 255, 255) 1px 1px 1px, rgb(255, 255, 255) 1px -1px 1px, rgb(255, 255, 255) -1px -1px 1px; font-family: 'Open Sans', verdana, arial, sans-serif; font-size: 9px; fill-opacity: 1;"><textPath class="node-label-text-path" alignment-baseline="middle" xlink:href="#d6887b_0_node_9" startOffset="100%" text-anchor="end" style="fill: rgb(0, 0, 0);">Building D (91.75KW)</textPath></text></g></g><g class="sankey-node" transform="translate(520.000, 144.076)" style="opacity: 1;"><rect class="node-rect" width="20" height="8.34462363241704" style="stroke-width: 0.5; stroke: rgb(0, 0, 0); stroke-opacity: 1; fill: rgb(135, 206, 250); fill-opacity: 1;"/><rect class="node-capture" x="-10" y="-7.5" width="40" height="23.34462363241704" style="fill-opacity: 0;"/><g class="node-entered" transform="translate(0 5.17231181620852)"><path class="node-label-guide" id="d6887b_0_node_10" d="M-540,0L-4,0" transform="matrix(1 0 0 1 0 0)"/><text class="node-label" transform="scale(1 1)" style="user-select: none; cursor: default; fill: rgb(42, 63, 95); text-shadow: rgb(255, 255, 255) -1px 1px 1px, rgb(255, 255, 255) 1px 1px 1px, rgb(255, 255, 255) 1px -1px 1px, rgb(255, 255, 255) -1px -1px 1px; font-family: 'Open Sans', verdana, arial, sans-serif; font-size: 9px; fill-opacity: 1;"><textPath class="node-label-text-path" alignment-baseline="middle" xlink:href="#d6887b_0_node_10" startOffset="100%" text-anchor="end" style="fill: rgb(0, 0, 0);">Building E (179.00KW)</textPath></text></g></g><g class="sankey-node" transform="translate(520.000, 260.255)" style="opacity: 1;"><rect class="node-rect" width="20" height="0.7211806010809596" style="stroke-width: 0.5; stroke: rgb(0, 0, 0); stroke-opacity: 1; fill: rgb(0, 191, 255); fill-opacity: 1;"/><rect class="node-capture" x="-10" y="-7.5" width="40" height="15.72118060108096" style="fill-opacity: 0;"/><g class="node-entered" transform="translate(0 1.3605903005404798)"><path class="node-label-guide" id="d6887b_0_node_11" d="M-540,0L-4,0" transform="matrix(1 0 0 1 0 0)"/><text class="node-label" transform="scale(1 1)" style="user-select: none; cursor: default; fill: rgb(42, 63, 95); text-shadow: rgb(255, 255, 255) -1px 1px 1px, rgb(255, 255, 255) 1px 1px 1px, rgb(255, 255, 255) 1px -1px 1px, rgb(255, 255, 255) -1px -1px 1px; font-family: 'Open Sans', verdana, arial, sans-serif; font-size: 9px; fill-opacity: 1;"><textPath class="node-label-text-path" alignment-baseline="middle" xlink:href="#d6887b_0_node_11" startOffset="100%" text-anchor="end" style="fill: rgb(0, 0, 0);">Building G (15.47KW)</textPath></text></g></g><g class="sankey-node" transform="translate(520.000, 96.814)" style="opacity: 1;"><rect class="node-rect" width="20" height="9.398656818612238" style="stroke-width: 0.5; stroke: rgb(0, 0, 0); stroke-opacity: 1; fill: rgb(255, 228, 181); fill-opacity: 1;"/><rect class="node-capture" x="-10" y="-7.5" width="40" height="24.39865681861224" style="fill-opacity: 0;"/><g class="node-entered" transform="translate(0 5.699328409306119)"><path class="node-label-guide" id="d6887b_0_node_12" d="M-540,0L-4,0" transform="matrix(1 0 0 1 0 0)"/><text class="node-label" transform="scale(1 1)" style="user-select: none; cursor: default; fill: rgb(42, 63, 95); text-shadow: rgb(255, 255, 255) -1px 1px 1px, rgb(255, 255, 255) 1px 1px 1px, rgb(255, 255, 255) 1px -1px 1px, rgb(255, 255, 255) -1px -1px 1px; font-family: 'Open Sans', verdana, arial, sans-serif; font-size: 9px; fill-opacity: 1;"><textPath class="node-label-text-path" alignment-baseline="middle" xlink:href="#d6887b_0_node_12" startOffset="100%" text-anchor="end" style="fill: rgb(0, 0, 0);">Building H (201.61KW)</textPath></text></g></g><g class="sankey-node" transform="translate(520.000, 205.335)" style="opacity: 1;"><rect class="node-rect" width="20" height="4.899086578383844" style="stroke-width: 0.5; stroke: rgb(0, 0, 0); stroke-opacity: 1; fill: rgb(175, 238, 238); fill-opacity: 1;"/><rect class="node-capture" x="-10" y="-7.5" width="40" height="19.899086578383844" style="fill-opacity: 0;"/><g class="node-entered" transform="translate(0 3.449543289191922)"><path class="node-label-guide" id="d6887b_0_node_13" d="M-540,0L-4,0" transform="matrix(1 0 0 1 0 0)"/><text class="node-label" transform="scale(1 1)" style="user-select: none; cursor: default; fill: rgb(42, 63, 95); text-shadow: rgb(255, 255, 255) -1px 1px 1px, rgb(255, 255, 255) 1px 1px 1px, rgb(255, 255, 255) 1px -1px 1px, rgb(255, 255, 255) -1px -1px 1px; font-family: 'Open Sans', verdana, arial, sans-serif; font-size: 9px; fill-opacity: 1;"><textPath class="node-label-text-path" alignment-baseline="middle" xlink:href="#d6887b_0_node_13" startOffset="100%" text-anchor="end" style="fill: rgb(0, 0, 0);">Building J (105.09KW)</textPath></text></g></g><g class="sankey-node" transform="translate(520.000, 290.834)" style="opacity: 1;"><rect class="node-rect" width="20" height="0.5" style="stroke-width: 0.5; stroke: rgb(0, 0, 0); stroke-opacity: 1; fill: rgb(255, 165, 0); fill-opacity: 1;"/><rect class="node-capture" x="-10" y="-7.5" width="40" height="15.5" style="fill-opacity: 0;"/><g class="node-entered" transform="translate(0 1.1943970980289578)"><path class="node-label-guide" id="d6887b_0_node_14" d="M-540,0L-4,0" transform="matrix(1 0 0 1 0 0)"/><text class="node-label" transform="scale(1 1)" style="user-select: none; cursor: default; fill: rgb(42, 63, 95); text-shadow: rgb(255, 255, 255) -1px 1px 1px, rgb(255, 255, 255) 1px 1px 1px, rgb(255, 255, 255) 1px -1px 1px, rgb(255, 255, 255) -1px -1px 1px; font-family: 'Open Sans', verdana, arial, sans-serif; font-size: 9px; fill-opacity: 1;"><textPath class="node-label-text-path" alignment-baseline="middle" xlink:href="#d6887b_0_node_14" startOffset="100%" text-anchor="end" style="fill: rgb(0, 0, 0);">Building K (8.34KW)</textPath></text></g></g><g class="sankey-node" transform="translate(520.000, 305.445)" style="opacity: 1;"><rect class="node-rect" width="20" height="0.5" style="stroke-width: 0.5; stroke: rgb(0, 0, 0); stroke-opacity: 1; fill: rgb(255, 140, 0); fill-opacity: 1;"/><rect class="node-capture" x="-10" y="-7.5" width="40" height="15.5" style="fill-opacity: 0;"/><g class="node-entered" transform="translate(0 1.0724910041810745)"><path class="node-label-guide" id="d6887b_0_node_15" d="M-540,0L-4,0" transform="matrix(1 0 0 1 0 0)"/><text class="node-label" transform="scale(1 1)" style="user-select: none; cursor: default; fill: rgb(42, 63, 95); text-shadow: rgb(255, 255, 255) -1px 1px 1px, rgb(255, 255, 255) 1px 1px 1px, rgb(255, 255, 255) 1px -1px 1px, rgb(255, 255, 255) -1px -1px 1px; font-family: 'Open Sans', verdana, arial, sans-serif; font-size: 9px; fill-opacity: 1;"><textPath class="node-label-text-path" alignment-baseline="middle" xlink:href="#d6887b_0_node_15" startOffset="100%" text-anchor="end" style="fill: rgb(0, 0, 0);">Building M (3.11KW)</textPath></text></g></g><g class="sankey-node" transform="translate(520.000, 224.456)" style="opacity: 1;"><rect class="node-rect" width="20" height="5.450111446178028" style="stroke-width: 0.5; stroke: rgb(0, 0, 0); stroke-opacity: 1; fill: rgb(240, 230, 140); fill-opacity: 1;"/><rect class="node-capture" x="-10" y="-7.5" width="40" height="20.450111446178028" style="fill-opacity: 0;"/><g class="node-entered" transform="translate(0 3.725055723089014)"><path class="node-label-guide" id="d6887b_0_node_16" d="M-540,0L-4,0" transform="matrix(1 0 0 1 0 0)"/><text class="node-label" transform="scale(1 1)" style="user-select: none; cursor: default; fill: rgb(42, 63, 95); text-shadow: rgb(255, 255, 255) -1px 1px 1px, rgb(255, 255, 255) 1px 1px 1px, rgb(255, 255, 255) 1px -1px 1px, rgb(255, 255, 255) -1px -1px 1px; font-family: 'Open Sans', verdana, arial, sans-serif; font-size: 9px; fill-opacity: 1;"><textPath class="node-label-text-path" alignment-baseline="middle" xlink:href="#d6887b_0_node_16" startOffset="100%" text-anchor="end" style="fill: rgb(0, 0, 0);">Building N (116.91KW)</textPath></text></g></g><g class="sankey-node" transform="translate(520.000, 166.643)" style="opacity: 1;"><rect class="node-rect" width="20" height="5.970834608044527" style="stroke-width: 0.5; stroke: rgb(0, 0, 0); stroke-opacity: 1; fill: rgb(189, 183, 107); fill-opacity: 1;"/><rect class="node-capture" x="-10" y="-7.5" width="40" height="20.970834608044527" style="fill-opacity: 0;"/><g class="node-entered" transform="translate(0 3.9854173040222634)"><path class="node-label-guide" id="d6887b_0_node_17" d="M-540,0L-4,0" transform="matrix(1 0 0 1 0 0)"/><text class="node-label" transform="scale(1 1)" style="user-select: none; cursor: default; fill: rgb(42, 63, 95); text-shadow: rgb(255, 255, 255) -1px 1px 1px, rgb(255, 255, 255) 1px 1px 1px, rgb(255, 255, 255) 1px -1px 1px, rgb(255, 255, 255) -1px -1px 1px; font-family: 'Open Sans', verdana, arial, sans-serif; font-size: 9px; fill-opacity: 1;"><textPath class="node-label-text-path" alignment-baseline="middle" xlink:href="#d6887b_0_node_17" startOffset="100%" text-anchor="end" style="fill: rgb(0, 0, 0);">Building P (128.08KW)</textPath></text></g></g><g class="sankey-node" transform="translate(520.000, 319.813)" style="opacity: 1;"><rect class="node-rect" width="20" height="0.5" style="stroke-width: 0.5; stroke: rgb(0, 0, 0); stroke-opacity: 1; fill: rgb(152, 251, 152); fill-opacity: 1;"/><rect class="node-capture" x="-10" y="-7.5" width="40" height="15.5" style="fill-opacity: 0;"/><g class="node-entered" transform="translate(0 1.0937021983305044)"><path class="node-label-guide" id="d6887b_0_node_18" d="M-540,0L-4,0" transform="matrix(1 0 0 1 0 0)"/><text class="node-label" transform="scale(1 1)" style="user-select: none; cursor: default; fill: rgb(42, 63, 95); text-shadow: rgb(255, 255, 255) -1px 1px 1px, rgb(255, 255, 255) 1px 1px 1px, rgb(255, 255, 255) 1px -1px 1px, rgb(255, 255, 255) -1px -1px 1px; font-family: 'Open Sans', verdana, arial, sans-serif; font-size: 9px; fill-opacity: 1;"><textPath class="node-label-text-path" alignment-baseline="middle" xlink:href="#d6887b_0_node_18" startOffset="100%" text-anchor="end" style="fill: rgb(0, 0, 0);">Building S (4.02KW)</textPath></text></g></g><g class="sankey-node" transform="translate(520.000, 43.408)" style="opacity: 1;"><rect class="node-rect" width="20" height="13.48472531794937" style="stroke-width: 0.5; stroke: rgb(0, 0, 0); stroke-opacity: 1; fill: rgb(0, 255, 127); fill-opacity: 1;"/><rect class="node-capture" x="-10" y="-7.5" width="40" height="28.48472531794937" style="fill-opacity: 0;"/><g class="node-entered" transform="translate(0 7.742362658974685)"><path class="node-label-guide" id="d6887b_0_node_19" d="M-540,0L-4,0" transform="matrix(1 0 0 1 0 0)"/><text class="node-label" transform="scale(1 1)" style="user-select: none; cursor: default; fill: rgb(42, 63, 95); text-shadow: rgb(255, 255, 255) -1px 1px 1px, rgb(255, 255, 255) 1px 1px 1px, rgb(255, 255, 255) 1px -1px 1px, rgb(255, 255, 255) -1px -1px 1px; font-family: 'Open Sans', verdana, arial, sans-serif; font-size: 9px; fill-opacity: 1;"><textPath class="node-label-text-path" alignment-baseline="middle" xlink:href="#d6887b_0_node_19" startOffset="100%" text-anchor="end" style="fill: rgb(0, 0, 0);">Building T (289.26KW)</textPath></text></g></g><g class="sankey-node" transform="translate(520.000, 275.199)" style="opacity: 1;"><rect class="node-rect" width="20" height="1.4134580365076772" style="stroke-width: 0.5; stroke: rgb(0, 0, 0); stroke-opacity: 1; fill: rgb(144, 238, 144); fill-opacity: 1;"/><rect class="node-capture" x="-10" y="-7.5" width="40" height="16.413458036507677" style="fill-opacity: 0;"/><g class="node-entered" transform="translate(0 1.7067290182538386)"><path class="node-label-guide" id="d6887b_0_node_20" d="M-540,0L-4,0" transform="matrix(1 0 0 1 0 0)"/><text class="node-label" transform="scale(1 1)" style="user-select: none; cursor: default; fill: rgb(42, 63, 95); text-shadow: rgb(255, 255, 255) -1px 1px 1px, rgb(255, 255, 255) 1px 1px 1px, rgb(255, 255, 255) 1px -1px 1px, rgb(255, 255, 255) -1px -1px 1px; font-family: 'Open Sans', verdana, arial, sans-serif; font-size: 9px; fill-opacity: 1;"><textPath class="node-label-text-path" alignment-baseline="middle" xlink:href="#d6887b_0_node_20" startOffset="100%" text-anchor="end" style="fill: rgb(0, 0, 0);">Building V (30.32KW)</textPath></text></g></g><g class="sankey-node" transform="translate(520.000, 244.129)" style="opacity: 1;"><rect class="node-rect" width="20" height="1.9043456725376018" style="stroke-width: 0.5; stroke: rgb(0, 0, 0); stroke-opacity: 1; fill: rgb(100, 149, 237); fill-opacity: 1;"/><rect class="node-capture" x="-10" y="-7.5" width="40" height="16.904345672537602" style="fill-opacity: 0;"/><g class="node-entered" transform="translate(0 1.952172836268801)"><path class="node-label-guide" id="d6887b_0_node_21" d="M-540,0L-4,0" transform="matrix(1 0 0 1 0 0)"/><text class="node-label" transform="scale(1 1)" style="user-select: none; cursor: default; fill: rgb(42, 63, 95); text-shadow: rgb(255, 255, 255) -1px 1px 1px, rgb(255, 255, 255) 1px 1px 1px, rgb(255, 255, 255) 1px -1px 1px, rgb(255, 255, 255) -1px -1px 1px; font-family: 'Open Sans', verdana, arial, sans-serif; font-size: 9px; fill-opacity: 1;"><textPath class="node-label-text-path" alignment-baseline="middle" xlink:href="#d6887b_0_node_21" startOffset="100%" text-anchor="end" style="fill: rgb(0, 0, 0);">Building Z (40.85KW)</textPath></text></g></g><g class="sankey-node" transform="translate(520.000, 120.435)" style="opacity: 1;"><rect class="node-rect" width="20" height="9.418236382442501" style="stroke-width: 0.5; stroke: rgb(0, 0, 0); stroke-opacity: 1; fill: rgb(221, 160, 221); fill-opacity: 1;"/><rect class="node-capture" x="-10" y="-7.5" width="40" height="24.4182363824425" style="fill-opacity: 0;"/><g class="node-entered" transform="translate(0 5.7091181912212505)"><path class="node-label-guide" id="d6887b_0_node_22" d="M-540,0L-4,0" transform="matrix(1 0 0 1 0 0)"/><text class="node-label" transform="scale(1 1)" style="user-select: none; cursor: default; fill: rgb(42, 63, 95); text-shadow: rgb(255, 255, 255) -1px 1px 1px, rgb(255, 255, 255) 1px 1px 1px, rgb(255, 255, 255) 1px -1px 1px, rgb(255, 255, 255) -1px -1px 1px; font-family: 'Open Sans', verdana, arial, sans-serif; font-size: 9px; fill-opacity: 1;"><textPath class="node-label-text-path" alignment-baseline="middle" xlink:href="#d6887b_0_node_22" startOffset="100%" text-anchor="end" style="fill: rgb(0, 0, 0);">Residence 1&amp;2 (202.03KW)</textPath></text></g></g></g></g><defs id="topdefs-dde0b2"><g class="clips"/></defs><g class="layer-above"><g class="imagelayer"/><g class="shapelayer"/></g><g class="infolayer"><g class="g-gtitle"/><g class="first-render"/></g></svg>