<svg class="main-svg" xmlns="http://www.w3.org/2000/svg" xmlns:xlink="http://www.w3.org/1999/xlink" width="700" height="500" viewBox="0 0 700 500"><rect x="0" y="0" width="700" height="500" style="fill: rgb(255, 255, 255); fill-opacity: 1;"/><defs id="defs-9c2854"><g class="clips"/><g class="gradients"/></defs><g class="bglayer"/><g class="layer-below"><g class="imagelayer"/><g class="shapelayer"/></g><g class="cartesianlayer"/><g class="polarlayer"/><g class="ternarylayer"/><g class="geolayer"/><g class="funnelarealayer"/><g class="pielayer"/><g class="treemaplayer"/><g class="sunburstlayer"/><g class="glimages"/><g class="sankey" transform="translate(80,100)matrix(1 0 0 1 0 0)" style="box-sizing: content-box; position: absolute; left: 0px; shape-rendering: geometricPrecision; pointer-events: auto;"><g class="sankey-links" style="fill: none;"><path class="sankey-link" d="M20,239.6491263196555C140,239.6491263196555 140,202.30475957204547 260,202.30475957204547L260,215.9955758440215C140,215.9955758440215 140,253.3399425916315 20,253.3399425916315Z" style="stroke: rgb(68, 68, 68); stroke-opacity: 1; fill: rgb(0, 0, 0); fill-opacity: 0.2; stroke-width: 0; opacity: 1;"/><path class="sankey-link" d="M20,90.70663329278847C140,90.70663329278847 140,81.80671098962281 260,81.80671098962281L260,142.1482126780578C140,142.1482126780578 140,151.04813498122346 20,151.04813498122346Z" style="stroke: rgb(68, 68, 68); stroke-opacity: 1; fill: rgb(0, 0, 0); fill-opacity: 0.2; stroke-width: 0; opacity: 1;"/><path class="sankey-link" d="M20,165.27035720344577C140,165.27035720344577 140,142.1482126780578 260,142.1482126780578L260,202.30475957204544C140,202.30475957204544 140,225.4269040974334 20,225.4269040974334Z" style="stroke: rgb(68, 68, 68); stroke-opacity: 1; fill: rgb(0, 0, 0); fill-opacity: 0.2; stroke-width: 0; opacity: 1;"/><path class="sankey-link" d="M280,81.80671098962281C400,81.80671098962281 400,-8.526512829121202e-14 520,-8.526512829121202e-14L520,27.13379311939257C400,27.13379311939257 400,108.94050410901548 280,108.94050410901548Z" style="stroke: rgb(68, 68, 68); stroke-opacity: 1; fill: rgb(0, 0, 0); fill-opacity: 0.2; stroke-width: 0; opacity: 1;"/><path class="sankey-link" d="M280,108.94050410901548C400,108.94050410901548 400,41.35601534161489 520,41.35601534161489L520,53.593549316221186C400,53.593549316221186 400,121.17803808362177 280,121.17803808362177Z" style="stroke: rgb(68, 68, 68); stroke-opacity: 1; fill: rgb(0, 0, 0); fill-opacity: 0.2; stroke-width: 0; opacity: 1;"/><path class="sankey-link" d="M280,168.10291898284888C400,168.10291898284888 400,185.8517635487815 520,185.8517635487815L520,190.86126415638688C400,190.86126415638688 400,173.11241959045427 280,173.11241959045427Z" style="stroke: rgb(68, 68, 68); stroke-opacity: 1; fill: rgb(0, 0, 0); fill-opacity: 0.2; stroke-width: 0; opacity: 1;"/><path class="sankey-link" d="M280,133.5968277567864C400,133.5968277567864 400,94.45678343383025 520,94.45678343383025L520,103.42709096452481C400,103.42709096452481 400,142.56713528748094 280,142.56713528748094Z" style="stroke: rgb(68, 68, 68); stroke-opacity: 1; fill: rgb(0, 0, 0); fill-opacity: 0.2; stroke-width: 0; opacity: 1;"/><path class="sankey-link" d="M280,183.1402061584013C400,183.1402061584013 400,243.5557173910006 520,243.5557173910006L520,244.66267183576775C400,244.66267183576775 400,184.24716060316845 280,184.24716060316845Z" style="stroke: rgb(68, 68, 68); stroke-opacity: 1; fill: rgb(0, 0, 0); fill-opacity: 0.2; stroke-width: 0; opacity: 1;"/><path class="sankey-link" d="M280,142.56713528748097C400,142.56713528748097 400,117.64931318674695 520,117.64931318674695L520,127.06397461110117C400,127.06397461110117 400,151.9817967118352 280,151.9817967118352Z" style="stroke: rgb(68, 68, 68); stroke-opacity: 1; fill: rgb(0, 0, 0); fill-opacity: 0.2; stroke-width: 0; opacity: 1;"/><path class="sankey-link" d="M280,173.11241959045427C400,173.11241959045427 400,205.0834863786091 520,205.0834863786091L520,210.2968996470927C400,210.2968996470927 400,178.32583285893784 280,178.32583285893784Z" style="stroke: rgb(68, 68, 68); stroke-opacity: 1; fill: rgb(0, 0, 0); fill-opacity: 0.2; stroke-width: 0; opacity: 1;"/><path class="sankey-link" d="M280,187.69379319769408C400,187.69379319769408 400,290.7759710969601 520,290.7759710969601L520,291.1366329461324C400,291.1366329461324 400,188.0544550468663 280,188.0544550468663Z" style="stroke: rgb(0, 0, 0); stroke-opacity: 0.2; fill: rgb(0, 0, 0); fill-opacity: 0.2; stroke-width: 1; opacity: 1;"/><path class="sankey-link" d="M280,188.05445504686634C400,188.05445504686634 400,305.35885516835464 520,305.35885516835464L520,305.46011791831455C400,305.46011791831455 400,188.15571779682625 280,188.15571779682625Z" style="stroke: rgb(0, 0, 0); stroke-opacity: 0.2; fill: rgb(0, 0, 0); fill-opacity: 0.2; stroke-width: 1; opacity: 1;"/><path class="sankey-link" d="M280,178.32583285893782C400,178.32583285893782 400,224.51912186931486 520,224.51912186931486L520,229.33349516877837C400,229.33349516877837 400,183.14020615840133 280,183.14020615840133Z" style="stroke: rgb(68, 68, 68); stroke-opacity: 1; fill: rgb(0, 0, 0); fill-opacity: 0.2; stroke-width: 0; opacity: 1;"/><path class="sankey-link" d="M280,151.9817967118352C400,151.9817967118352 400,141.2861968333234 520,141.2861968333234L520,149.62904522385543C400,149.62904522385543 400,160.3246451023672 280,160.3246451023672Z" style="stroke: rgb(68, 68, 68); stroke-opacity: 1; fill: rgb(0, 0, 0); fill-opacity: 0.2; stroke-width: 0; opacity: 1;"/><path class="sankey-link" d="M280,188.15571779682625C400,188.15571779682625 400,319.6823401405368 520,319.6823401405368L520,320C400,320 400,188.47337765628953 280,188.47337765628953Z" style="stroke: rgb(0, 0, 0); stroke-opacity: 0.2; fill: rgb(0, 0, 0); fill-opacity: 0.2; stroke-width: 1; opacity: 1;"/><path class="sankey-link" d="M280,121.17803808362177C400,121.17803808362177 400,67.81577153844341 520,67.81577153844341L520,80.23456121160805C400,80.23456121160805 400,133.5968277567864 280,133.5968277567864Z" style="stroke: rgb(68, 68, 68); stroke-opacity: 1; fill: rgb(0, 0, 0); fill-opacity: 0.2; stroke-width: 0; opacity: 1;"/><path class="sankey-link" d="M280,184.24716060316845C400,184.24716060316845 400,258.88489405799 520,258.88489405799L520,260.72519426274073C400,260.72519426274073 400,186.0874608079192 280,186.0874608079192Z" style="stroke: rgb(68, 68, 68); stroke-opacity: 1; fill: rgb(0, 0, 0); fill-opacity: 0.2; stroke-width: 0; opacity: 1;"/><path class="sankey-link" d="M280,186.0874608079192C400,186.0874608079192 400,274.94741648496296 520,274.94741648496296L520,276.5537488747379C400,276.5537488747379 400,187.69379319769408 280,187.69379319769408Z" style="stroke: rgb(68, 68, 68); stroke-opacity: 1; fill: rgb(0, 0, 0); fill-opacity: 0.2; stroke-width: 0; opacity: 1;"/><path class="sankey-link" d="M280,160.32464510236724C400,160.32464510236724 400,163.85126744607766 520,163.85126744607766L520,171.62954132655926C400,171.62954132655926 400,168.10291898284885 280,168.10291898284885Z" style="stroke: rgb(68, 68, 68); stroke-opacity: 1; fill: rgb(0, 0, 0); fill-opacity: 0.2; stroke-width: 0; opacity: 1;"/></g><g class="sankey-node-set" style="cursor: move;"><g class="sankey-node" transform="translate(0.000, 239.649)" style="opacity: 1;"><rect class="node-rect" width="20" height="13.690816271976018" style="stroke-width: 0.5; stroke: rgb(0, 0, 0); stroke-opacity: 1; fill: rgb(46, 139, 87); fill-opacity: 1;"/><rect class="node-capture" x="-10" y="-7.5" width="40" height="28.69081627197602" style="fill-opacity: 0;"/><g class="node-entered" transform="translate(0 7.845408135988009)"><path class="node-label-guide" id="193287_0_node_0" d="M24,0L540,0" transform="matrix(1 0 0 1 0 0)"/><text class="node-label" transform="scale(1 1)" style="user-select: none; cursor: default; fill: rgb(42, 63, 95); text-shadow: rgb(255, 255, 255) -1px 1px 1px, rgb(255, 255, 255) 1px 1px 1px, rgb(255, 255, 255) 1px -1px 1px, rgb(255, 255, 255) -1px -1px 1px; font-family: 'Open Sans', verdana, arial, sans-serif; font-size: 9px; fill-opacity: 1;"><textPath class="node-label-text-path" alignment-baseline="middle" xlink:href="#193287_0_node_0" startOffset="0%" text-anchor="start" style="fill: rgb(0, 0, 0);">Hydro Power (296.09KW )</textPath></text></g></g><g class="sankey-node" transform="translate(0.000, 90.707)" style="opacity: 1;"><rect class="node-rect" width="20" height="60.341501688435045" style="stroke-width: 0.5; stroke: rgb(0, 0, 0); stroke-opacity: 1; fill: rgb(64, 224, 208); fill-opacity: 1;"/><rect class="node-capture" x="-10" y="-7.5" width="40" height="75.34150168843505" style="fill-opacity: 0;"/><g class="node-entered" transform="translate(0 31.170750844217523)"><path class="node-label-guide" id="193287_0_node_1" d="M24,0L540,0" transform="matrix(1 0 0 1 0 0)"/><text class="node-label" transform="scale(1 1)" style="user-select: none; cursor: default; fill: rgb(42, 63, 95); text-shadow: rgb(255, 255, 255) -1px 1px 1px, rgb(255, 255, 255) 1px 1px 1px, rgb(255, 255, 255) 1px -1px 1px, rgb(255, 255, 255) -1px -1px 1px; font-family: 'Open Sans', verdana, arial, sans-serif; font-size: 9px; fill-opacity: 1;"><textPath class="node-label-text-path" alignment-baseline="middle" xlink:href="#193287_0_node_1" startOffset="0%" text-anchor="start" style="fill: rgb(0, 0, 0);">COGEN 1 (1305.00KW)</textPath></text></g></g><g class="sankey-node" transform="translate(0.000, 165.270)" style="opacity: 1;"><rect class="node-rect" width="20" height="60.156546893987525" style="stroke-width: 0.5; stroke: rgb(0, 0, 0); stroke-opacity: 1; fill: rgb(0, 128, 128); fill-opacity: 1;"/><rect class="node-capture" x="-10" y="-7.5" width="40" height="75.15654689398752" style="fill-opacity: 0;"/><g class="node-entered" transform="translate(0 31.078273446993762)"><path class="node-label-guide" id="193287_0_node_2" d="M24,0L540,0" transform="matrix(1 0 0 1 0 0)"/><text class="node-label" transform="scale(1 1)" style="user-select: none; cursor: default; fill: rgb(42, 63, 95); text-shadow: rgb(255, 255, 255) -1px 1px 1px, rgb(255, 255, 255) 1px 1px 1px, rgb(255, 255, 255) 1px -1px 1px, rgb(255, 255, 255) -1px -1px 1px; font-family: 'Open Sans', verdana, arial, sans-serif; font-size: 9px; fill-opacity: 1;"><textPath class="node-label-text-path" alignment-baseline="middle" xlink:href="#193287_0_node_2" startOffset="0%" text-anchor="start" style="fill: rgb(0, 0, 0);">COGEN 2 (1301.00KW)</textPath></text></g></g><g class="sankey-node" transform="translate(260.000, 81.807)" style="opacity: 1;"><rect class="node-rect" width="20" height="134.18886485439856" style="stroke-width: 0.5; stroke: rgb(0, 0, 0); stroke-opacity: 1; fill: rgb(255, 255, 0); fill-opacity: 1;"/><rect class="node-capture" x="-10" y="-7.5" width="40" height="149.18886485439856" style="fill-opacity: 0;"/><g class="node-entered" transform="translate(0 68.09443242719928)"><path class="node-label-guide" id="193287_0_node_5" d="M24,0L540,0" transform="matrix(1 0 0 1 0 0)"/><text class="node-label" transform="scale(1 1)" style="user-select: none; cursor: default; fill: rgb(42, 63, 95); text-shadow: rgb(255, 255, 255) -1px 1px 1px, rgb(255, 255, 255) 1px 1px 1px, rgb(255, 255, 255) 1px -1px 1px, rgb(255, 255, 255) -1px -1px 1px; font-family: 'Open Sans', verdana, arial, sans-serif; font-size: 9px; fill-opacity: 1;"><textPath class="node-label-text-path" alignment-baseline="middle" xlink:href="#193287_0_node_5" startOffset="0%" text-anchor="start" style="fill: rgb(0, 0, 0);">Total Power (2606.00KW)</textPath></text></g></g><g class="sankey-node" transform="translate(520.000, -0.000)" style="opacity: 1;"><rect class="node-rect" width="20" height="27.133793119392763" style="stroke-width: 0.5; stroke: rgb(0, 0, 0); stroke-opacity: 1; fill: rgb(0, 0, 0); fill-opacity: 1;"/><rect class="node-capture" x="-10" y="-7.5" width="40" height="42.13379311939276" style="fill-opacity: 0;"/><g class="node-entered" transform="translate(0 14.566896559696382)"><path class="node-label-guide" id="193287_0_node_6" d="M-540,0L-4,0" transform="matrix(1 0 0 1 0 0)"/><text class="node-label" transform="scale(1 1)" style="user-select: none; cursor: default; fill: rgb(42, 63, 95); text-shadow: rgb(255, 255, 255) -1px 1px 1px, rgb(255, 255, 255) 1px 1px 1px, rgb(255, 255, 255) 1px -1px 1px, rgb(255, 255, 255) -1px -1px 1px; font-family: 'Open Sans', verdana, arial, sans-serif; font-size: 9px; fill-opacity: 1;"><textPath class="node-label-text-path" alignment-baseline="middle" xlink:href="#193287_0_node_6" startOffset="100%" text-anchor="end" style="fill: rgb(0, 0, 0);">Building A (563.59KW)</textPath></text></g></g><g class="sankey-node" transform="translate(520.000, 41.356)" style="opacity: 1;"><rect class="node-rect" width="20" height="12.237533974606293" style="stroke-width: 0.5; stroke: rgb(0, 0, 0); stroke-opacity: 1; fill: rgb(0, 0, 0); fill-opacity: 1;"/><rect class="node-capture" x="-10" y="-7.5" width="40" height="27.237533974606293" style="fill-opacity: 0;"/><g class="node-entered" transform="translate(0 7.118766987303147)"><path class="node-label-guide" id="193287_0_node_7" d="M-540,0L-4,0" transform="matrix(1 0 0 1 0 0)"/><text class="node-label" transform="scale(1 1)" style="user-select: none; cursor: default; fill: rgb(42, 63, 95); text-shadow: rgb(255, 255, 255) -1px 1px 1px, rgb(255, 255, 255) 1px 1px 1px, rgb(255, 255, 255) 1px -1px 1px, rgb(255, 255, 255) -1px -1px 1px; font-family: 'Open Sans', verdana, arial, sans-serif; font-size: 9px; fill-opacity: 1;"><textPath class="node-label-text-path" alignment-baseline="middle" xlink:href="#193287_0_node_7" startOffset="100%" text-anchor="end" style="fill: rgb(0, 0, 0);">Building B (264.66KW)</textPath></text></g></g><g class="sankey-node" transform="translate(520.000, 185.852)" style="opacity: 1;"><rect class="node-rect" width="20" height="5.009500607605389" style="stroke-width: 0.5; stroke: rgb(0, 0, 0); stroke-opacity: 1; fill: rgb(0, 0, 0); fill-opacity: 1;"/><rect class="node-capture" x="-10" y="-7.5" width="40" height="20.00950060760539" style="fill-opacity: 0;"/><g class="node-entered" transform="translate(0 3.5047503038026946)"><path class="node-label-guide" id="193287_0_node_9" d="M-540,0L-4,0" transform="matrix(1 0 0 1 0 0)"/><text class="node-label" transform="scale(1 1)" style="user-select: none; cursor: default; fill: rgb(42, 63, 95); text-shadow: rgb(255, 255, 255) -1px 1px 1px, rgb(255, 255, 255) 1px 1px 1px, rgb(255, 255, 255) 1px -1px 1px, rgb(255, 255, 255) -1px -1px 1px; font-family: 'Open Sans', verdana, arial, sans-serif; font-size: 9px; fill-opacity: 1;"><textPath class="node-label-text-path" alignment-baseline="middle" xlink:href="#193287_0_node_9" startOffset="100%" text-anchor="end" style="fill: rgb(0, 0, 0);">Building D (108.34KW)</textPath></text></g></g><g class="sankey-node" transform="translate(520.000, 94.457)" style="opacity: 1;"><rect class="node-rect" width="20" height="8.97030753069447" style="stroke-width: 0.5; stroke: rgb(0, 0, 0); stroke-opacity: 1; fill: rgb(0, 0, 0); fill-opacity: 1;"/><rect class="node-capture" x="-10" y="-7.5" width="40" height="23.97030753069447" style="fill-opacity: 0;"/><g class="node-entered" transform="translate(0 5.485153765347235)"><path class="node-label-guide" id="193287_0_node_10" d="M-540,0L-4,0" transform="matrix(1 0 0 1 0 0)"/><text class="node-label" transform="scale(1 1)" style="user-select: none; cursor: default; fill: rgb(42, 63, 95); text-shadow: rgb(255, 255, 255) -1px 1px 1px, rgb(255, 255, 255) 1px 1px 1px, rgb(255, 255, 255) 1px -1px 1px, rgb(255, 255, 255) -1px -1px 1px; font-family: 'Open Sans', verdana, arial, sans-serif; font-size: 9px; fill-opacity: 1;"><textPath class="node-label-text-path" alignment-baseline="middle" xlink:href="#193287_0_node_10" startOffset="100%" text-anchor="end" style="fill: rgb(0, 0, 0);">Building E (194.00KW)</textPath></text></g></g><g class="sankey-node" transform="translate(520.000, 243.556)" style="opacity: 1;"><rect class="node-rect" width="20" height="1.1069544447671547" style="stroke-width: 0.5; stroke: rgb(0, 0, 0); stroke-opacity: 1; fill: rgb(0, 0, 0); fill-opacity: 1;"/><rect class="node-capture" x="-10" y="-7.5" width="40" height="16.106954444767155" style="fill-opacity: 0;"/><g class="node-entered" transform="translate(0 1.5534772223835773)"><path class="node-label-guide" id="193287_0_node_11" d="M-540,0L-4,0" transform="matrix(1 0 0 1 0 0)"/><text class="node-label" transform="scale(1 1)" style="user-select: none; cursor: default; fill: rgb(42, 63, 95); text-shadow: rgb(255, 255, 255) -1px 1px 1px, rgb(255, 255, 255) 1px 1px 1px, rgb(255, 255, 255) 1px -1px 1px, rgb(255, 255, 255) -1px -1px 1px; font-family: 'Open Sans', verdana, arial, sans-serif; font-size: 9px; fill-opacity: 1;"><textPath class="node-label-text-path" alignment-baseline="middle" xlink:href="#193287_0_node_11" startOffset="100%" text-anchor="end" style="fill: rgb(0, 0, 0);">Building G (23.94KW)</textPath></text></g></g><g class="sankey-node" transform="translate(520.000, 117.649)" style="opacity: 1;"><rect class="node-rect" width="20" height="9.414661424354222" style="stroke-width: 0.5; stroke: rgb(0, 0, 0); stroke-opacity: 1; fill: rgb(0, 0, 0); fill-opacity: 1;"/><rect class="node-capture" x="-10" y="-7.5" width="40" height="24.41466142435422" style="fill-opacity: 0;"/><g class="node-entered" transform="translate(0 5.707330712177111)"><path class="node-label-guide" id="193287_0_node_12" d="M-540,0L-4,0" transform="matrix(1 0 0 1 0 0)"/><text class="node-label" transform="scale(1 1)" style="user-select: none; cursor: default; fill: rgb(42, 63, 95); text-shadow: rgb(255, 255, 255) -1px 1px 1px, rgb(255, 255, 255) 1px 1px 1px, rgb(255, 255, 255) 1px -1px 1px, rgb(255, 255, 255) -1px -1px 1px; font-family: 'Open Sans', verdana, arial, sans-serif; font-size: 9px; fill-opacity: 1;"><textPath class="node-label-text-path" alignment-baseline="middle" xlink:href="#193287_0_node_12" startOffset="100%" text-anchor="end" style="fill: rgb(0, 0, 0);">Building H (203.61KW)</textPath></text></g></g><g class="sankey-node" transform="translate(520.000, 205.083)" style="opacity: 1;"><rect class="node-rect" width="20" height="5.213413268483521" style="stroke-width: 0.5; stroke: rgb(0, 0, 0); stroke-opacity: 1; fill: rgb(0, 0, 0); fill-opacity: 1;"/><rect class="node-capture" x="-10" y="-7.5" width="40" height="20.21341326848352" style="fill-opacity: 0;"/><g class="node-entered" transform="translate(0 3.6067066342417604)"><path class="node-label-guide" id="193287_0_node_13" d="M-540,0L-4,0" transform="matrix(1 0 0 1 0 0)"/><text class="node-label" transform="scale(1 1)" style="user-select: none; cursor: default; fill: rgb(42, 63, 95); text-shadow: rgb(255, 255, 255) -1px 1px 1px, rgb(255, 255, 255) 1px 1px 1px, rgb(255, 255, 255) 1px -1px 1px, rgb(255, 255, 255) -1px -1px 1px; font-family: 'Open Sans', verdana, arial, sans-serif; font-size: 9px; fill-opacity: 1;"><textPath class="node-label-text-path" alignment-baseline="middle" xlink:href="#193287_0_node_13" startOffset="100%" text-anchor="end" style="fill: rgb(0, 0, 0);">Building J (112.75KW)</textPath></text></g></g><g class="sankey-node" transform="translate(520.000, 290.776)" style="opacity: 1;"><rect class="node-rect" width="20" height="0.5" style="stroke-width: 0.5; stroke: rgb(0, 0, 0); stroke-opacity: 1; fill: rgb(0, 0, 0); fill-opacity: 1;"/><rect class="node-capture" x="-10" y="-7.5" width="40" height="15.5" style="fill-opacity: 0;"/><g class="node-entered" transform="translate(0 1.1803309245861442)"><path class="node-label-guide" id="193287_0_node_14" d="M-540,0L-4,0" transform="matrix(1 0 0 1 0 0)"/><text class="node-label" transform="scale(1 1)" style="user-select: none; cursor: default; fill: rgb(42, 63, 95); text-shadow: rgb(255, 255, 255) -1px 1px 1px, rgb(255, 255, 255) 1px 1px 1px, rgb(255, 255, 255) 1px -1px 1px, rgb(255, 255, 255) -1px -1px 1px; font-family: 'Open Sans', verdana, arial, sans-serif; font-size: 9px; fill-opacity: 1;"><textPath class="node-label-text-path" alignment-baseline="middle" xlink:href="#193287_0_node_14" startOffset="100%" text-anchor="end" style="fill: rgb(0, 0, 0);">Building K (7.80KW)</textPath></text></g></g><g class="sankey-node" transform="translate(520.000, 305.359)" style="opacity: 1;"><rect class="node-rect" width="20" height="0.5" style="stroke-width: 0.5; stroke: rgb(0, 0, 0); stroke-opacity: 1; fill: rgb(0, 0, 0); fill-opacity: 1;"/><rect class="node-capture" x="-10" y="-7.5" width="40" height="15.5" style="fill-opacity: 0;"/><g class="node-entered" transform="translate(0 1.0506313749799574)"><path class="node-label-guide" id="193287_0_node_15" d="M-540,0L-4,0" transform="matrix(1 0 0 1 0 0)"/><text class="node-label" transform="scale(1 1)" style="user-select: none; cursor: default; fill: rgb(42, 63, 95); text-shadow: rgb(255, 255, 255) -1px 1px 1px, rgb(255, 255, 255) 1px 1px 1px, rgb(255, 255, 255) 1px -1px 1px, rgb(255, 255, 255) -1px -1px 1px; font-family: 'Open Sans', verdana, arial, sans-serif; font-size: 9px; fill-opacity: 1;"><textPath class="node-label-text-path" alignment-baseline="middle" xlink:href="#193287_0_node_15" startOffset="100%" text-anchor="end" style="fill: rgb(0, 0, 0);">Building M (2.19KW)</textPath></text></g></g><g class="sankey-node" transform="translate(520.000, 224.519)" style="opacity: 1;"><rect class="node-rect" width="20" height="4.814373299463512" style="stroke-width: 0.5; stroke: rgb(0, 0, 0); stroke-opacity: 1; fill: rgb(0, 0, 0); fill-opacity: 1;"/><rect class="node-capture" x="-10" y="-7.5" width="40" height="19.81437329946351" style="fill-opacity: 0;"/><g class="node-entered" transform="translate(0 3.407186649731756)"><path class="node-label-guide" id="193287_0_node_16" d="M-540,0L-4,0" transform="matrix(1 0 0 1 0 0)"/><text class="node-label" transform="scale(1 1)" style="user-select: none; cursor: default; fill: rgb(42, 63, 95); text-shadow: rgb(255, 255, 255) -1px 1px 1px, rgb(255, 255, 255) 1px 1px 1px, rgb(255, 255, 255) 1px -1px 1px, rgb(255, 255, 255) -1px -1px 1px; font-family: 'Open Sans', verdana, arial, sans-serif; font-size: 9px; fill-opacity: 1;"><textPath class="node-label-text-path" alignment-baseline="middle" xlink:href="#193287_0_node_16" startOffset="100%" text-anchor="end" style="fill: rgb(0, 0, 0);">Building N (104.12KW)</textPath></text></g></g><g class="sankey-node" transform="translate(520.000, 141.286)" style="opacity: 1;"><rect class="node-rect" width="20" height="8.342848390532026" style="stroke-width: 0.5; stroke: rgb(0, 0, 0); stroke-opacity: 1; fill: rgb(0, 0, 0); fill-opacity: 1;"/><rect class="node-capture" x="-10" y="-7.5" width="40" height="23.342848390532026" style="fill-opacity: 0;"/><g class="node-entered" transform="translate(0 5.171424195266013)"><path class="node-label-guide" id="193287_0_node_17" d="M-540,0L-4,0" transform="matrix(1 0 0 1 0 0)"/><text class="node-label" transform="scale(1 1)" style="user-select: none; cursor: default; fill: rgb(42, 63, 95); text-shadow: rgb(255, 255, 255) -1px 1px 1px, rgb(255, 255, 255) 1px 1px 1px, rgb(255, 255, 255) 1px -1px 1px, rgb(255, 255, 255) -1px -1px 1px; font-family: 'Open Sans', verdana, arial, sans-serif; font-size: 9px; fill-opacity: 1;"><textPath class="node-label-text-path" alignment-baseline="middle" xlink:href="#193287_0_node_17" startOffset="100%" text-anchor="end" style="fill: rgb(0, 0, 0);">Building P (180.43KW)</textPath></text></g></g><g class="sankey-node" transform="translate(520.000, 319.682)" style="opacity: 1;"><rect class="node-rect" width="20" height="0.5" style="stroke-width: 0.5; stroke: rgb(0, 0, 0); stroke-opacity: 1; fill: rgb(0, 0, 0); fill-opacity: 1;"/><rect class="node-capture" x="-10" y="-7.5" width="40" height="15.5" style="fill-opacity: 0;"/><g class="node-entered" transform="translate(0 1.1588299297316098)"><path class="node-label-guide" id="193287_0_node_18" d="M-540,0L-4,0" transform="matrix(1 0 0 1 0 0)"/><text class="node-label" transform="scale(1 1)" style="user-select: none; cursor: default; fill: rgb(42, 63, 95); text-shadow: rgb(255, 255, 255) -1px 1px 1px, rgb(255, 255, 255) 1px 1px 1px, rgb(255, 255, 255) 1px -1px 1px, rgb(255, 255, 255) -1px -1px 1px; font-family: 'Open Sans', verdana, arial, sans-serif; font-size: 9px; fill-opacity: 1;"><textPath class="node-label-text-path" alignment-baseline="middle" xlink:href="#193287_0_node_18" startOffset="100%" text-anchor="end" style="fill: rgb(0, 0, 0);">Building S (6.87KW)</textPath></text></g></g><g class="sankey-node" transform="translate(520.000, 67.816)" style="opacity: 1;"><rect class="node-rect" width="20" height="12.41878967316461" style="stroke-width: 0.5; stroke: rgb(0, 0, 0); stroke-opacity: 1; fill: rgb(0, 0, 0); fill-opacity: 1;"/><rect class="node-capture" x="-10" y="-7.5" width="40" height="27.41878967316461" style="fill-opacity: 0;"/><g class="node-entered" transform="translate(0 7.209394836582305)"><path class="node-label-guide" id="193287_0_node_19" d="M-540,0L-4,0" transform="matrix(1 0 0 1 0 0)"/><text class="node-label" transform="scale(1 1)" style="user-select: none; cursor: default; fill: rgb(42, 63, 95); text-shadow: rgb(255, 255, 255) -1px 1px 1px, rgb(255, 255, 255) 1px 1px 1px, rgb(255, 255, 255) 1px -1px 1px, rgb(255, 255, 255) -1px -1px 1px; font-family: 'Open Sans', verdana, arial, sans-serif; font-size: 9px; fill-opacity: 1;"><textPath class="node-label-text-path" alignment-baseline="middle" xlink:href="#193287_0_node_19" startOffset="100%" text-anchor="end" style="fill: rgb(0, 0, 0);">Building T (268.58KW)</textPath></text></g></g><g class="sankey-node" transform="translate(520.000, 258.885)" style="opacity: 1;"><rect class="node-rect" width="20" height="1.840300204750747" style="stroke-width: 0.5; stroke: rgb(0, 0, 0); stroke-opacity: 1; fill: rgb(0, 0, 0); fill-opacity: 1;"/><rect class="node-capture" x="-10" y="-7.5" width="40" height="16.840300204750747" style="fill-opacity: 0;"/><g class="node-entered" transform="translate(0 1.9201501023753735)"><path class="node-label-guide" id="193287_0_node_20" d="M-540,0L-4,0" transform="matrix(1 0 0 1 0 0)"/><text class="node-label" transform="scale(1 1)" style="user-select: none; cursor: default; fill: rgb(42, 63, 95); text-shadow: rgb(255, 255, 255) -1px 1px 1px, rgb(255, 255, 255) 1px 1px 1px, rgb(255, 255, 255) 1px -1px 1px, rgb(255, 255, 255) -1px -1px 1px; font-family: 'Open Sans', verdana, arial, sans-serif; font-size: 9px; fill-opacity: 1;"><textPath class="node-label-text-path" alignment-baseline="middle" xlink:href="#193287_0_node_20" startOffset="100%" text-anchor="end" style="fill: rgb(0, 0, 0);">Building V (39.80KW)</textPath></text></g></g><g class="sankey-node" transform="translate(520.000, 274.947)" style="opacity: 1;"><rect class="node-rect" width="20" height="1.6063323897749342" style="stroke-width: 0.5; stroke: rgb(0, 0, 0); stroke-opacity: 1; fill: rgb(0, 0, 0); fill-opacity: 1;"/><rect class="node-capture" x="-10" y="-7.5" width="40" height="16.606332389774934" style="fill-opacity: 0;"/><g class="node-entered" transform="translate(0 1.803166194887467)"><path class="node-label-guide" id="193287_0_node_21" d="M-540,0L-4,0" transform="matrix(1 0 0 1 0 0)"/><text class="node-label" transform="scale(1 1)" style="user-select: none; cursor: default; fill: rgb(42, 63, 95); text-shadow: rgb(255, 255, 255) -1px 1px 1px, rgb(255, 255, 255) 1px 1px 1px, rgb(255, 255, 255) 1px -1px 1px, rgb(255, 255, 255) -1px -1px 1px; font-family: 'Open Sans', verdana, arial, sans-serif; font-size: 9px; fill-opacity: 1;"><textPath class="node-label-text-path" alignment-baseline="middle" xlink:href="#193287_0_node_21" startOffset="100%" text-anchor="end" style="fill: rgb(0, 0, 0);">Building Z (34.74KW)</textPath></text></g></g><g class="sankey-node" transform="translate(520.000, 163.851)" style="opacity: 1;"><rect class="node-rect" width="20" height="7.778273880481606" style="stroke-width: 0.5; stroke: rgb(0, 0, 0); stroke-opacity: 1; fill: rgb(0, 0, 0); fill-opacity: 1;"/><rect class="node-capture" x="-10" y="-7.5" width="40" height="22.778273880481606" style="fill-opacity: 0;"/><g class="node-entered" transform="translate(0 4.889136940240803)"><path class="node-label-guide" id="193287_0_node_22" d="M-540,0L-4,0" transform="matrix(1 0 0 1 0 0)"/><text class="node-label" transform="scale(1 1)" style="user-select: none; cursor: default; fill: rgb(42, 63, 95); text-shadow: rgb(255, 255, 255) -1px 1px 1px, rgb(255, 255, 255) 1px 1px 1px, rgb(255, 255, 255) 1px -1px 1px, rgb(255, 255, 255) -1px -1px 1px; font-family: 'Open Sans', verdana, arial, sans-serif; font-size: 9px; fill-opacity: 1;"><textPath class="node-label-text-path" alignment-baseline="middle" xlink:href="#193287_0_node_22" startOffset="100%" text-anchor="end" style="fill: rgb(0, 0, 0);">Residence 1&amp;2 (168.22KW)</textPath></text></g></g></g></g><defs id="topdefs-9c2854"><g class="clips"/></defs><g class="layer-above"><g class="imagelayer"/><g class="shapelayer"/></g><g class="infolayer"><g class="g-gtitle"/><g class="first-render"/></g></svg>