<svg class="main-svg" xmlns="http://www.w3.org/2000/svg" xmlns:xlink="http://www.w3.org/1999/xlink" width="700" height="500" viewBox="0 0 700 500"><rect x="0" y="0" width="700" height="500" style="fill: rgb(255, 255, 255); fill-opacity: 1;"/><defs id="defs-87e5ca"><g class="clips"/><g class="gradients"/></defs><g class="bglayer"/><g class="layer-below"><g class="imagelayer"/><g class="shapelayer"/></g><g class="cartesianlayer"/><g class="polarlayer"/><g class="ternarylayer"/><g class="geolayer"/><g class="funnelarealayer"/><g class="pielayer"/><g class="treemaplayer"/><g class="sunburstlayer"/><g class="glimages"/><g class="sankey" transform="translate(80,100)matrix(1 0 0 1 0 0)" style="box-sizing: content-box; position: absolute; left: 0px; shape-rendering: geometricPrecision; pointer-events: auto;"><g class="sankey-links" style="fill: none;"><path class="sankey-link" d="M20,162.59905366431263C140,162.59905366431263 140,145.16400366784904 260,145.16400366784904L260,172.8719627867074C140,172.8719627867074 140,190.307012783171 20,190.307012783171Z" style="stroke: rgb(68, 68, 68); stroke-opacity: 1; fill: rgb(0, 0, 0); fill-opacity: 0.2; stroke-width: 0; opacity: 1;"/><path class="sankey-link" d="M20,69.28025677361191C140,69.28025677361191 140,66.06742899937052 260,66.06742899937052L260,145.16400366784904C140,145.16400366784904 140,148.37683144209043 20,148.37683144209043Z" style="stroke: rgb(68, 68, 68); stroke-opacity: 1; fill: rgb(0, 0, 0); fill-opacity: 0.2; stroke-width: 0; opacity: 1;"/><path class="sankey-link" d="M280,66.06742899937052C400,66.06742899937052 400,-4.973799150320701e-14 520,-4.973799150320701e-14L520,27.87206680932368C400,27.87206680932368 400,93.93949580869426 280,93.93949580869426Z" style="stroke: rgb(68, 68, 68); stroke-opacity: 1; fill: rgb(0, 0, 0); fill-opacity: 0.2; stroke-width: 0; opacity: 1;"/><path class="sankey-link" d="M280,93.93949580869425C400,93.93949580869425 400,42.09428903154591 520,42.09428903154591L520,53.800915296065426C400,53.800915296065426 400,105.64612207321376 280,105.64612207321376Z" style="stroke: rgb(68, 68, 68); stroke-opacity: 1; fill: rgb(0, 0, 0); fill-opacity: 0.2; stroke-width: 0; opacity: 1;"/><path class="sankey-link" d="M280,152.30477078799856C400,152.30477078799856 400,185.79289734418364 520,185.79289734418364L520,191.01560376739616C400,191.01560376739616 400,157.52747721121108 280,157.52747721121108Z" style="stroke: rgb(68, 68, 68); stroke-opacity: 1; fill: rgb(0, 0, 0); fill-opacity: 0.2; stroke-width: 0; opacity: 1;"/><path class="sankey-link" d="M280,129.67581973395028C400,129.67581973395028 400,120.49727962346861 520,120.49727962346861L520,128.24449546777456C400,128.24449546777456 400,137.42303557825625 280,137.42303557825625Z" style="stroke: rgb(68, 68, 68); stroke-opacity: 1; fill: rgb(0, 0, 0); fill-opacity: 0.2; stroke-width: 0; opacity: 1;"/><path class="sankey-link" d="M280,167.60343949559842C400,167.60343949559842 400,243.75823271845002 520,243.75823271845002L520,244.55669577079055C400,244.55669577079055 400,168.40190254793896 280,168.40190254793896Z" style="stroke: rgb(0, 0, 0); stroke-opacity: 0.2; fill: rgb(0, 0, 0); fill-opacity: 0.2; stroke-width: 1; opacity: 1;"/><path class="sankey-link" d="M280,118.84013047644386C400,118.84013047644386 400,95.43936814373998 520,95.43936814373998L520,106.27505740124639C400,106.27505740124639 400,129.67581973395028 280,129.67581973395028Z" style="stroke: rgb(68, 68, 68); stroke-opacity: 1; fill: rgb(0, 0, 0); fill-opacity: 0.2; stroke-width: 0; opacity: 1;"/><path class="sankey-link" d="M280,157.52747721121105C400,157.52747721121105 400,205.23782598961822 520,205.23782598961822L520,210.47427747319966C400,210.47427747319966 400,162.7639286947925 280,162.7639286947925Z" style="stroke: rgb(68, 68, 68); stroke-opacity: 1; fill: rgb(0, 0, 0); fill-opacity: 0.2; stroke-width: 0; opacity: 1;"/><path class="sankey-link" d="M280,171.8773202363739C400,171.8773202363739 400,290.6987801258922 520,290.6987801258922L520,291.22817320858644C400,291.22817320858644 400,172.40671331906813 280,172.40671331906813Z" style="stroke: rgb(0, 0, 0); stroke-opacity: 0.2; fill: rgb(0, 0, 0); fill-opacity: 0.2; stroke-width: 1; opacity: 1;"/><path class="sankey-link" d="M280,172.40671331906813C400,172.40671331906813 400,305.45039543080867 520,305.45039543080867L520,305.5287006232135C400,305.5287006232135 400,172.48501851147293 280,172.48501851147293Z" style="stroke: rgb(0, 0, 0); stroke-opacity: 0.2; fill: rgb(0, 0, 0); fill-opacity: 0.2; stroke-width: 1; opacity: 1;"/><path class="sankey-link" d="M280,162.76392869479247C400,162.76392869479247 400,224.69649969542183 520,224.69649969542183L520,229.5360104962278C400,229.5360104962278 400,167.60343949559842 280,167.60343949559842Z" style="stroke: rgb(68, 68, 68); stroke-opacity: 1; fill: rgb(0, 0, 0); fill-opacity: 0.2; stroke-width: 0; opacity: 1;"/><path class="sankey-link" d="M280,137.42303557825622C400,137.42303557825622 400,142.4667176899968 520,142.4667176899968L520,150.15812025886527C400,150.15812025886527 400,145.11443814712467 280,145.11443814712467Z" style="stroke: rgb(68, 68, 68); stroke-opacity: 1; fill: rgb(0, 0, 0); fill-opacity: 0.2; stroke-width: 0; opacity: 1;"/><path class="sankey-link" d="M280,172.48501851147296C400,172.48501851147296 400,319.75092284543575 520,319.75092284543575L520,320C400,320 400,172.7340956660372 280,172.7340956660372Z" style="stroke: rgb(0, 0, 0); stroke-opacity: 0.2; fill: rgb(0, 0, 0); fill-opacity: 0.2; stroke-width: 1; opacity: 1;"/><path class="sankey-link" d="M280,105.64612207321377C400,105.64612207321377 400,68.02313751828765 520,68.02313751828765L520,81.21714592151775C400,81.21714592151775 400,118.84013047644387 280,118.84013047644387Z" style="stroke: rgb(68, 68, 68); stroke-opacity: 1; fill: rgb(0, 0, 0); fill-opacity: 0.2; stroke-width: 0; opacity: 1;"/><path class="sankey-link" d="M280,168.401902547939C400,168.401902547939 400,258.7789179930128 520,258.7789179930128L520,260.4224939995521C400,260.4224939995521 400,170.0454785544783 280,170.0454785544783Z" style="stroke: rgb(68, 68, 68); stroke-opacity: 1; fill: rgb(0, 0, 0); fill-opacity: 0.2; stroke-width: 0; opacity: 1;"/><path class="sankey-link" d="M280,170.0454785544783C400,170.0454785544783 400,274.64471622177433 520,274.64471622177433L520,276.47655790366986C400,276.47655790366986 400,171.8773202363739 280,171.8773202363739Z" style="stroke: rgb(68, 68, 68); stroke-opacity: 1; fill: rgb(0, 0, 0); fill-opacity: 0.2; stroke-width: 0; opacity: 1;"/><path class="sankey-link" d="M280,145.1144381471247C400,145.1144381471247 400,164.3803424810875 520,164.3803424810875L520,171.57067512196136C400,171.57067512196136 400,152.30477078799856 280,152.30477078799856Z" style="stroke: rgb(68, 68, 68); stroke-opacity: 1; fill: rgb(0, 0, 0); fill-opacity: 0.2; stroke-width: 0; opacity: 1;"/></g><g class="sankey-node-set" style="cursor: move;"><g class="sankey-node" transform="translate(0.000, 162.599)" style="opacity: 1;"><rect class="node-rect" width="20" height="27.70795911885844" style="stroke-width: 0.5; stroke: rgb(0, 0, 0); stroke-opacity: 1; fill: rgb(0, 128, 128); fill-opacity: 1;"/><rect class="node-capture" x="-10" y="-7.5" width="40" height="42.70795911885844" style="fill-opacity: 0;"/><g class="node-entered" transform="translate(0 14.85397955942922)"><path class="node-label-guide" id="3670e2_0_node_0" d="M24,0L540,0" transform="matrix(1 0 0 1 0 0)"/><text class="node-label" transform="scale(1 1)" style="user-select: none; cursor: default; fill: rgb(42, 63, 95); text-shadow: rgb(255, 255, 255) -1px 1px 1px, rgb(255, 255, 255) 1px 1px 1px, rgb(255, 255, 255) 1px -1px 1px, rgb(255, 255, 255) -1px -1px 1px; font-family: 'Open Sans', verdana, arial, sans-serif; font-size: 9px; fill-opacity: 1;"><textPath class="node-label-text-path" alignment-baseline="middle" xlink:href="#3670e2_0_node_0" startOffset="0%" text-anchor="start" style="fill: rgb(0, 0, 0);">Hydro Power (665.23KW )</textPath></text></g></g><g class="sankey-node" transform="translate(0.000, 69.280)" style="opacity: 1;"><rect class="node-rect" width="20" height="79.09657466847848" style="stroke-width: 0.5; stroke: rgb(0, 0, 0); stroke-opacity: 1; fill: rgb(175, 238, 238); fill-opacity: 1;"/><rect class="node-capture" x="-10" y="-7.5" width="40" height="94.09657466847848" style="fill-opacity: 0;"/><g class="node-entered" transform="translate(0 40.54828733423924)"><path class="node-label-guide" id="3670e2_0_node_2" d="M24,0L540,0" transform="matrix(1 0 0 1 0 0)"/><text class="node-label" transform="scale(1 1)" style="user-select: none; cursor: default; fill: rgb(42, 63, 95); text-shadow: rgb(255, 255, 255) -1px 1px 1px, rgb(255, 255, 255) 1px 1px 1px, rgb(255, 255, 255) 1px -1px 1px, rgb(255, 255, 255) -1px -1px 1px; font-family: 'Open Sans', verdana, arial, sans-serif; font-size: 9px; fill-opacity: 1;"><textPath class="node-label-text-path" alignment-baseline="middle" xlink:href="#3670e2_0_node_2" startOffset="0%" text-anchor="start" style="fill: rgb(0, 0, 0);">COGEN 2 (1899.00KW)</textPath></text></g></g><g class="sankey-node" transform="translate(260.000, 66.067)" style="opacity: 1;"><rect class="node-rect" width="20" height="106.80453378733694" style="stroke-width: 0.5; stroke: rgb(0, 0, 0); stroke-opacity: 1; fill: rgb(138, 43, 226); fill-opacity: 1;"/><rect class="node-capture" x="-10" y="-7.5" width="40" height="121.80453378733694" style="fill-opacity: 0;"/><g class="node-entered" transform="translate(0 54.40226689366847)"><path class="node-label-guide" id="3670e2_0_node_5" d="M24,0L540,0" transform="matrix(1 0 0 1 0 0)"/><text class="node-label" transform="scale(1 1)" style="user-select: none; cursor: default; fill: rgb(42, 63, 95); text-shadow: rgb(255, 255, 255) -1px 1px 1px, rgb(255, 255, 255) 1px 1px 1px, rgb(255, 255, 255) 1px -1px 1px, rgb(255, 255, 255) -1px -1px 1px; font-family: 'Open Sans', verdana, arial, sans-serif; font-size: 9px; fill-opacity: 1;"><textPath class="node-label-text-path" alignment-baseline="middle" xlink:href="#3670e2_0_node_5" startOffset="0%" text-anchor="start" style="fill: rgb(0, 0, 0);">Total Power (2564.23KW)</textPath></text></g></g><g class="sankey-node" transform="translate(520.000, -0.000)" style="opacity: 1;"><rect class="node-rect" width="20" height="27.872066809323734" style="stroke-width: 0.5; stroke: rgb(0, 0, 0); stroke-opacity: 1; fill: rgb(250, 128, 114); fill-opacity: 1;"/><rect class="node-capture" x="-10" y="-7.5" width="40" height="42.872066809323734" style="fill-opacity: 0;"/><g class="node-entered" transform="translate(0 14.936033404661867)"><path class="node-label-guide" id="3670e2_0_node_6" d="M-540,0L-4,0" transform="matrix(1 0 0 1 0 0)"/><text class="node-label" transform="scale(1 1)" style="user-select: none; cursor: default; fill: rgb(42, 63, 95); text-shadow: rgb(255, 255, 255) -1px 1px 1px, rgb(255, 255, 255) 1px 1px 1px, rgb(255, 255, 255) 1px -1px 1px, rgb(255, 255, 255) -1px -1px 1px; font-family: 'Open Sans', verdana, arial, sans-serif; font-size: 9px; fill-opacity: 1;"><textPath class="node-label-text-path" alignment-baseline="middle" xlink:href="#3670e2_0_node_6" startOffset="100%" text-anchor="end" style="fill: rgb(0, 0, 0);">Building A (631.38KW)</textPath></text></g></g><g class="sankey-node" transform="translate(520.000, 42.094)" style="opacity: 1;"><rect class="node-rect" width="20" height="11.706626264519514" style="stroke-width: 0.5; stroke: rgb(0, 0, 0); stroke-opacity: 1; fill: rgb(255, 160, 122); fill-opacity: 1;"/><rect class="node-capture" x="-10" y="-7.5" width="40" height="26.706626264519514" style="fill-opacity: 0;"/><g class="node-entered" transform="translate(0 6.853313132259757)"><path class="node-label-guide" id="3670e2_0_node_7" d="M-540,0L-4,0" transform="matrix(1 0 0 1 0 0)"/><text class="node-label" transform="scale(1 1)" style="user-select: none; cursor: default; fill: rgb(42, 63, 95); text-shadow: rgb(255, 255, 255) -1px 1px 1px, rgb(255, 255, 255) 1px 1px 1px, rgb(255, 255, 255) 1px -1px 1px, rgb(255, 255, 255) -1px -1px 1px; font-family: 'Open Sans', verdana, arial, sans-serif; font-size: 9px; fill-opacity: 1;"><textPath class="node-label-text-path" alignment-baseline="middle" xlink:href="#3670e2_0_node_7" startOffset="100%" text-anchor="end" style="fill: rgb(0, 0, 0);">Building B (281.06KW)</textPath></text></g></g><g class="sankey-node" transform="translate(520.000, 185.793)" style="opacity: 1;"><rect class="node-rect" width="20" height="5.222706423212344" style="stroke-width: 0.5; stroke: rgb(0, 0, 0); stroke-opacity: 1; fill: rgb(102, 205, 170); fill-opacity: 1;"/><rect class="node-capture" x="-10" y="-7.5" width="40" height="20.222706423212344" style="fill-opacity: 0;"/><g class="node-entered" transform="translate(0 3.611353211606172)"><path class="node-label-guide" id="3670e2_0_node_9" d="M-540,0L-4,0" transform="matrix(1 0 0 1 0 0)"/><text class="node-label" transform="scale(1 1)" style="user-select: none; cursor: default; fill: rgb(42, 63, 95); text-shadow: rgb(255, 255, 255) -1px 1px 1px, rgb(255, 255, 255) 1px 1px 1px, rgb(255, 255, 255) 1px -1px 1px, rgb(255, 255, 255) -1px -1px 1px; font-family: 'Open Sans', verdana, arial, sans-serif; font-size: 9px; fill-opacity: 1;"><textPath class="node-label-text-path" alignment-baseline="middle" xlink:href="#3670e2_0_node_9" startOffset="100%" text-anchor="end" style="fill: rgb(0, 0, 0);">Building D (125.39KW)</textPath></text></g></g><g class="sankey-node" transform="translate(520.000, 120.497)" style="opacity: 1;"><rect class="node-rect" width="20" height="7.74721584430597" style="stroke-width: 0.5; stroke: rgb(0, 0, 0); stroke-opacity: 1; fill: rgb(135, 206, 250); fill-opacity: 1;"/><rect class="node-capture" x="-10" y="-7.5" width="40" height="22.74721584430597" style="fill-opacity: 0;"/><g class="node-entered" transform="translate(0 4.873607922152985)"><path class="node-label-guide" id="3670e2_0_node_10" d="M-540,0L-4,0" transform="matrix(1 0 0 1 0 0)"/><text class="node-label" transform="scale(1 1)" style="user-select: none; cursor: default; fill: rgb(42, 63, 95); text-shadow: rgb(255, 255, 255) -1px 1px 1px, rgb(255, 255, 255) 1px 1px 1px, rgb(255, 255, 255) 1px -1px 1px, rgb(255, 255, 255) -1px -1px 1px; font-family: 'Open Sans', verdana, arial, sans-serif; font-size: 9px; fill-opacity: 1;"><textPath class="node-label-text-path" alignment-baseline="middle" xlink:href="#3670e2_0_node_10" startOffset="100%" text-anchor="end" style="fill: rgb(0, 0, 0);">Building E (186.00KW)</textPath></text></g></g><g class="sankey-node" transform="translate(520.000, 243.758)" style="opacity: 1;"><rect class="node-rect" width="20" height="0.7984630523405372" style="stroke-width: 0.5; stroke: rgb(0, 0, 0); stroke-opacity: 1; fill: rgb(0, 191, 255); fill-opacity: 1;"/><rect class="node-capture" x="-10" y="-7.5" width="40" height="15.798463052340537" style="fill-opacity: 0;"/><g class="node-entered" transform="translate(0 1.3992315261702686)"><path class="node-label-guide" id="3670e2_0_node_11" d="M-540,0L-4,0" transform="matrix(1 0 0 1 0 0)"/><text class="node-label" transform="scale(1 1)" style="user-select: none; cursor: default; fill: rgb(42, 63, 95); text-shadow: rgb(255, 255, 255) -1px 1px 1px, rgb(255, 255, 255) 1px 1px 1px, rgb(255, 255, 255) 1px -1px 1px, rgb(255, 255, 255) -1px -1px 1px; font-family: 'Open Sans', verdana, arial, sans-serif; font-size: 9px; fill-opacity: 1;"><textPath class="node-label-text-path" alignment-baseline="middle" xlink:href="#3670e2_0_node_11" startOffset="100%" text-anchor="end" style="fill: rgb(0, 0, 0);">Building G (19.17KW)</textPath></text></g></g><g class="sankey-node" transform="translate(520.000, 95.439)" style="opacity: 1;"><rect class="node-rect" width="20" height="10.835689257506402" style="stroke-width: 0.5; stroke: rgb(0, 0, 0); stroke-opacity: 1; fill: rgb(255, 228, 181); fill-opacity: 1;"/><rect class="node-capture" x="-10" y="-7.5" width="40" height="25.835689257506402" style="fill-opacity: 0;"/><g class="node-entered" transform="translate(0 6.417844628753201)"><path class="node-label-guide" id="3670e2_0_node_12" d="M-540,0L-4,0" transform="matrix(1 0 0 1 0 0)"/><text class="node-label" transform="scale(1 1)" style="user-select: none; cursor: default; fill: rgb(42, 63, 95); text-shadow: rgb(255, 255, 255) -1px 1px 1px, rgb(255, 255, 255) 1px 1px 1px, rgb(255, 255, 255) 1px -1px 1px, rgb(255, 255, 255) -1px -1px 1px; font-family: 'Open Sans', verdana, arial, sans-serif; font-size: 9px; fill-opacity: 1;"><textPath class="node-label-text-path" alignment-baseline="middle" xlink:href="#3670e2_0_node_12" startOffset="100%" text-anchor="end" style="fill: rgb(0, 0, 0);">Building H (260.15KW)</textPath></text></g></g><g class="sankey-node" transform="translate(520.000, 205.238)" style="opacity: 1;"><rect class="node-rect" width="20" height="5.236451483581391" style="stroke-width: 0.5; stroke: rgb(0, 0, 0); stroke-opacity: 1; fill: rgb(175, 238, 238); fill-opacity: 1;"/><rect class="node-capture" x="-10" y="-7.5" width="40" height="20.23645148358139" style="fill-opacity: 0;"/><g class="node-entered" transform="translate(0 3.6182257417906953)"><path class="node-label-guide" id="3670e2_0_node_13" d="M-540,0L-4,0" transform="matrix(1 0 0 1 0 0)"/><text class="node-label" transform="scale(1 1)" style="user-select: none; cursor: default; fill: rgb(42, 63, 95); text-shadow: rgb(255, 255, 255) -1px 1px 1px, rgb(255, 255, 255) 1px 1px 1px, rgb(255, 255, 255) 1px -1px 1px, rgb(255, 255, 255) -1px -1px 1px; font-family: 'Open Sans', verdana, arial, sans-serif; font-size: 9px; fill-opacity: 1;"><textPath class="node-label-text-path" alignment-baseline="middle" xlink:href="#3670e2_0_node_13" startOffset="100%" text-anchor="end" style="fill: rgb(0, 0, 0);">Building J (125.72KW)</textPath></text></g></g><g class="sankey-node" transform="translate(520.000, 290.699)" style="opacity: 1;"><rect class="node-rect" width="20" height="0.5293930826942415" style="stroke-width: 0.5; stroke: rgb(0, 0, 0); stroke-opacity: 1; fill: rgb(255, 165, 0); fill-opacity: 1;"/><rect class="node-capture" x="-10" y="-7.5" width="40" height="15.529393082694241" style="fill-opacity: 0;"/><g class="node-entered" transform="translate(0 1.2646965413471207)"><path class="node-label-guide" id="3670e2_0_node_14" d="M-540,0L-4,0" transform="matrix(1 0 0 1 0 0)"/><text class="node-label" transform="scale(1 1)" style="user-select: none; cursor: default; fill: rgb(42, 63, 95); text-shadow: rgb(255, 255, 255) -1px 1px 1px, rgb(255, 255, 255) 1px 1px 1px, rgb(255, 255, 255) 1px -1px 1px, rgb(255, 255, 255) -1px -1px 1px; font-family: 'Open Sans', verdana, arial, sans-serif; font-size: 9px; fill-opacity: 1;"><textPath class="node-label-text-path" alignment-baseline="middle" xlink:href="#3670e2_0_node_14" startOffset="100%" text-anchor="end" style="fill: rgb(0, 0, 0);">Building K (12.71KW)</textPath></text></g></g><g class="sankey-node" transform="translate(520.000, 305.450)" style="opacity: 1;"><rect class="node-rect" width="20" height="0.5" style="stroke-width: 0.5; stroke: rgb(0, 0, 0); stroke-opacity: 1; fill: rgb(255, 140, 0); fill-opacity: 1;"/><rect class="node-capture" x="-10" y="-7.5" width="40" height="15.5" style="fill-opacity: 0;"/><g class="node-entered" transform="translate(0 1.0391525962024275)"><path class="node-label-guide" id="3670e2_0_node_15" d="M-540,0L-4,0" transform="matrix(1 0 0 1 0 0)"/><text class="node-label" transform="scale(1 1)" style="user-select: none; cursor: default; fill: rgb(42, 63, 95); text-shadow: rgb(255, 255, 255) -1px 1px 1px, rgb(255, 255, 255) 1px 1px 1px, rgb(255, 255, 255) 1px -1px 1px, rgb(255, 255, 255) -1px -1px 1px; font-family: 'Open Sans', verdana, arial, sans-serif; font-size: 9px; fill-opacity: 1;"><textPath class="node-label-text-path" alignment-baseline="middle" xlink:href="#3670e2_0_node_15" startOffset="100%" text-anchor="end" style="fill: rgb(0, 0, 0);">Building M (1.88KW)</textPath></text></g></g><g class="sankey-node" transform="translate(520.000, 224.696)" style="opacity: 1;"><rect class="node-rect" width="20" height="4.839510800805954" style="stroke-width: 0.5; stroke: rgb(0, 0, 0); stroke-opacity: 1; fill: rgb(240, 230, 140); fill-opacity: 1;"/><rect class="node-capture" x="-10" y="-7.5" width="40" height="19.839510800805954" style="fill-opacity: 0;"/><g class="node-entered" transform="translate(0 3.419755400402977)"><path class="node-label-guide" id="3670e2_0_node_16" d="M-540,0L-4,0" transform="matrix(1 0 0 1 0 0)"/><text class="node-label" transform="scale(1 1)" style="user-select: none; cursor: default; fill: rgb(42, 63, 95); text-shadow: rgb(255, 255, 255) -1px 1px 1px, rgb(255, 255, 255) 1px 1px 1px, rgb(255, 255, 255) 1px -1px 1px, rgb(255, 255, 255) -1px -1px 1px; font-family: 'Open Sans', verdana, arial, sans-serif; font-size: 9px; fill-opacity: 1;"><textPath class="node-label-text-path" alignment-baseline="middle" xlink:href="#3670e2_0_node_16" startOffset="100%" text-anchor="end" style="fill: rgb(0, 0, 0);">Building N (116.19KW)</textPath></text></g></g><g class="sankey-node" transform="translate(520.000, 142.467)" style="opacity: 1;"><rect class="node-rect" width="20" height="7.691402568868455" style="stroke-width: 0.5; stroke: rgb(0, 0, 0); stroke-opacity: 1; fill: rgb(189, 183, 107); fill-opacity: 1;"/><rect class="node-capture" x="-10" y="-7.5" width="40" height="22.691402568868455" style="fill-opacity: 0;"/><g class="node-entered" transform="translate(0 4.845701284434227)"><path class="node-label-guide" id="3670e2_0_node_17" d="M-540,0L-4,0" transform="matrix(1 0 0 1 0 0)"/><text class="node-label" transform="scale(1 1)" style="user-select: none; cursor: default; fill: rgb(42, 63, 95); text-shadow: rgb(255, 255, 255) -1px 1px 1px, rgb(255, 255, 255) 1px 1px 1px, rgb(255, 255, 255) 1px -1px 1px, rgb(255, 255, 255) -1px -1px 1px; font-family: 'Open Sans', verdana, arial, sans-serif; font-size: 9px; fill-opacity: 1;"><textPath class="node-label-text-path" alignment-baseline="middle" xlink:href="#3670e2_0_node_17" startOffset="100%" text-anchor="end" style="fill: rgb(0, 0, 0);">Building P (184.66KW)</textPath></text></g></g><g class="sankey-node" transform="translate(520.000, 319.751)" style="opacity: 1;"><rect class="node-rect" width="20" height="0.5" style="stroke-width: 0.5; stroke: rgb(0, 0, 0); stroke-opacity: 1; fill: rgb(152, 251, 152); fill-opacity: 1;"/><rect class="node-capture" x="-10" y="-7.5" width="40" height="15.5" style="fill-opacity: 0;"/><g class="node-entered" transform="translate(0 1.1245385772821237)"><path class="node-label-guide" id="3670e2_0_node_18" d="M-540,0L-4,0" transform="matrix(1 0 0 1 0 0)"/><text class="node-label" transform="scale(1 1)" style="user-select: none; cursor: default; fill: rgb(42, 63, 95); text-shadow: rgb(255, 255, 255) -1px 1px 1px, rgb(255, 255, 255) 1px 1px 1px, rgb(255, 255, 255) 1px -1px 1px, rgb(255, 255, 255) -1px -1px 1px; font-family: 'Open Sans', verdana, arial, sans-serif; font-size: 9px; fill-opacity: 1;"><textPath class="node-label-text-path" alignment-baseline="middle" xlink:href="#3670e2_0_node_18" startOffset="100%" text-anchor="end" style="fill: rgb(0, 0, 0);">Building S (5.98KW)</textPath></text></g></g><g class="sankey-node" transform="translate(520.000, 68.023)" style="opacity: 1;"><rect class="node-rect" width="20" height="13.1940084032301" style="stroke-width: 0.5; stroke: rgb(0, 0, 0); stroke-opacity: 1; fill: rgb(0, 255, 127); fill-opacity: 1;"/><rect class="node-capture" x="-10" y="-7.5" width="40" height="28.1940084032301" style="fill-opacity: 0;"/><g class="node-entered" transform="translate(0 7.59700420161505)"><path class="node-label-guide" id="3670e2_0_node_19" d="M-540,0L-4,0" transform="matrix(1 0 0 1 0 0)"/><text class="node-label" transform="scale(1 1)" style="user-select: none; cursor: default; fill: rgb(42, 63, 95); text-shadow: rgb(255, 255, 255) -1px 1px 1px, rgb(255, 255, 255) 1px 1px 1px, rgb(255, 255, 255) 1px -1px 1px, rgb(255, 255, 255) -1px -1px 1px; font-family: 'Open Sans', verdana, arial, sans-serif; font-size: 9px; fill-opacity: 1;"><textPath class="node-label-text-path" alignment-baseline="middle" xlink:href="#3670e2_0_node_19" startOffset="100%" text-anchor="end" style="fill: rgb(0, 0, 0);">Building T (316.77KW)</textPath></text></g></g><g class="sankey-node" transform="translate(520.000, 258.779)" style="opacity: 1;"><rect class="node-rect" width="20" height="1.6435760065393197" style="stroke-width: 0.5; stroke: rgb(0, 0, 0); stroke-opacity: 1; fill: rgb(144, 238, 144); fill-opacity: 1;"/><rect class="node-capture" x="-10" y="-7.5" width="40" height="16.64357600653932" style="fill-opacity: 0;"/><g class="node-entered" transform="translate(0 1.8217880032696598)"><path class="node-label-guide" id="3670e2_0_node_20" d="M-540,0L-4,0" transform="matrix(1 0 0 1 0 0)"/><text class="node-label" transform="scale(1 1)" style="user-select: none; cursor: default; fill: rgb(42, 63, 95); text-shadow: rgb(255, 255, 255) -1px 1px 1px, rgb(255, 255, 255) 1px 1px 1px, rgb(255, 255, 255) 1px -1px 1px, rgb(255, 255, 255) -1px -1px 1px; font-family: 'Open Sans', verdana, arial, sans-serif; font-size: 9px; fill-opacity: 1;"><textPath class="node-label-text-path" alignment-baseline="middle" xlink:href="#3670e2_0_node_20" startOffset="100%" text-anchor="end" style="fill: rgb(0, 0, 0);">Building V (39.46KW)</textPath></text></g></g><g class="sankey-node" transform="translate(520.000, 274.645)" style="opacity: 1;"><rect class="node-rect" width="20" height="1.8318416818956393" style="stroke-width: 0.5; stroke: rgb(0, 0, 0); stroke-opacity: 1; fill: rgb(100, 149, 237); fill-opacity: 1;"/><rect class="node-capture" x="-10" y="-7.5" width="40" height="16.83184168189564" style="fill-opacity: 0;"/><g class="node-entered" transform="translate(0 1.9159208409478197)"><path class="node-label-guide" id="3670e2_0_node_21" d="M-540,0L-4,0" transform="matrix(1 0 0 1 0 0)"/><text class="node-label" transform="scale(1 1)" style="user-select: none; cursor: default; fill: rgb(42, 63, 95); text-shadow: rgb(255, 255, 255) -1px 1px 1px, rgb(255, 255, 255) 1px 1px 1px, rgb(255, 255, 255) 1px -1px 1px, rgb(255, 255, 255) -1px -1px 1px; font-family: 'Open Sans', verdana, arial, sans-serif; font-size: 9px; fill-opacity: 1;"><textPath class="node-label-text-path" alignment-baseline="middle" xlink:href="#3670e2_0_node_21" startOffset="100%" text-anchor="end" style="fill: rgb(0, 0, 0);">Building Z (43.98KW)</textPath></text></g></g><g class="sankey-node" transform="translate(520.000, 164.380)" style="opacity: 1;"><rect class="node-rect" width="20" height="7.190332640873919" style="stroke-width: 0.5; stroke: rgb(0, 0, 0); stroke-opacity: 1; fill: rgb(221, 160, 221); fill-opacity: 1;"/><rect class="node-capture" x="-10" y="-7.5" width="40" height="22.19033264087392" style="fill-opacity: 0;"/><g class="node-entered" transform="translate(0 4.5951663204369595)"><path class="node-label-guide" id="3670e2_0_node_22" d="M-540,0L-4,0" transform="matrix(1 0 0 1 0 0)"/><text class="node-label" transform="scale(1 1)" style="user-select: none; cursor: default; fill: rgb(42, 63, 95); text-shadow: rgb(255, 255, 255) -1px 1px 1px, rgb(255, 255, 255) 1px 1px 1px, rgb(255, 255, 255) 1px -1px 1px, rgb(255, 255, 255) -1px -1px 1px; font-family: 'Open Sans', verdana, arial, sans-serif; font-size: 9px; fill-opacity: 1;"><textPath class="node-label-text-path" alignment-baseline="middle" xlink:href="#3670e2_0_node_22" startOffset="100%" text-anchor="end" style="fill: rgb(0, 0, 0);">Residence 1&amp;2 (172.63KW)</textPath></text></g></g></g></g><defs id="topdefs-87e5ca"><g class="clips"/></defs><g class="layer-above"><g class="imagelayer"/><g class="shapelayer"/></g><g class="infolayer"><g class="g-gtitle"/><g class="first-render"/></g></svg>