<svg class="main-svg" xmlns="http://www.w3.org/2000/svg" xmlns:xlink="http://www.w3.org/1999/xlink" width="700" height="500" viewBox="0 0 700 500"><rect x="0" y="0" width="700" height="500" style="fill: rgb(255, 255, 255); fill-opacity: 1;"/><defs id="defs-c4de31"><g class="clips"/><g class="gradients"/></defs><g class="bglayer"/><g class="layer-below"><g class="imagelayer"/><g class="shapelayer"/></g><g class="cartesianlayer"/><g class="polarlayer"/><g class="ternarylayer"/><g class="geolayer"/><g class="funnelarealayer"/><g class="pielayer"/><g class="treemaplayer"/><g class="sunburstlayer"/><g class="glimages"/><g class="sankey" transform="translate(80,100)matrix(1 0 0 1 0 0)" style="box-sizing: content-box; position: absolute; left: 0px; shape-rendering: geometricPrecision; pointer-events: auto;"><g class="sankey-links" style="fill: none;"><path class="sankey-link" d="M20,169.8290007382433C140,169.8290007382433 140,155.13990955648725 260,155.13990955648725L260,159.1652847593064C140,159.1652847593064 140,173.85437594106244 20,173.85437594106244Z" style="stroke: rgb(68, 68, 68); stroke-opacity: 1; fill: rgb(0, 0, 0); fill-opacity: 0.2; stroke-width: 0; opacity: 1;"/><path class="sankey-link" d="M20,52.79027540830079C140,52.79027540830079 140,52.32340644876697 260,52.32340644876697L260,155.13990955648725C140,155.13990955648725 140,155.60677851602108 20,155.60677851602108Z" style="stroke: rgb(68, 68, 68); stroke-opacity: 1; fill: rgb(0, 0, 0); fill-opacity: 0.2; stroke-width: 0; opacity: 1;"/><path class="sankey-link" d="M280,52.32340644876696C400,52.32340644876696 400,-1.2079226507921703e-13 520,-1.2079226507921703e-13L520,27.671887315808043C400,27.671887315808043 400,79.99529376457512 280,79.99529376457512Z" style="stroke: rgb(68, 68, 68); stroke-opacity: 1; fill: rgb(0, 0, 0); fill-opacity: 0.2; stroke-width: 0; opacity: 1;"/><path class="sankey-link" d="M280,79.99529376457512C400,79.99529376457512 400,41.89410953803022 520,41.89410953803022L520,52.88944244215921C400,52.88944244215921 400,90.99062666870411 280,90.99062666870411Z" style="stroke: rgb(68, 68, 68); stroke-opacity: 1; fill: rgb(0, 0, 0); fill-opacity: 0.2; stroke-width: 0; opacity: 1;"/><path class="sankey-link" d="M280,142.6434043629141C400,142.6434043629141 400,204.09777569192477 520,204.09777569192477L520,208.1430467224364C400,208.1430467224364 400,146.68867539342574 280,146.68867539342574Z" style="stroke: rgb(68, 68, 68); stroke-opacity: 1; fill: rgb(0, 0, 0); fill-opacity: 0.2; stroke-width: 0; opacity: 1;"/><path class="sankey-link" d="M280,131.714818751689C400,131.714818751689 400,164.72474563625528 520,164.72474563625528L520,170.82185412266816C400,170.82185412266816 400,137.81192723810187 280,137.81192723810187Z" style="stroke: rgb(68, 68, 68); stroke-opacity: 1; fill: rgb(0, 0, 0); fill-opacity: 0.2; stroke-width: 0; opacity: 1;"/><path class="sankey-link" d="M280,157.07622285159337C400,157.07622285159337 400,275.4194830694929 520,275.4194830694929L520,276.6466063774951C400,276.6466063774951 400,158.30334615959563 280,158.30334615959563Z" style="stroke: rgb(68, 68, 68); stroke-opacity: 1; fill: rgb(0, 0, 0); fill-opacity: 0.2; stroke-width: 0; opacity: 1;"/><path class="sankey-link" d="M280,114.80079800948636C400,114.80079800948636 400,119.36628044960818 520,119.36628044960818L520,128.8110223955084C400,128.8110223955084 400,124.24553995538656 280,124.24553995538656Z" style="stroke: rgb(68, 68, 68); stroke-opacity: 1; fill: rgb(0, 0, 0); fill-opacity: 0.2; stroke-width: 0; opacity: 1;"/><path class="sankey-link" d="M280,137.81192723810187C400,137.81192723810187 400,185.0440763448904 520,185.0440763448904L520,189.87555346970265C400,189.87555346970265 400,142.6434043629141 280,142.6434043629141Z" style="stroke: rgb(68, 68, 68); stroke-opacity: 1; fill: rgb(0, 0, 0); fill-opacity: 0.2; stroke-width: 0; opacity: 1;"/><path class="sankey-link" d="M280,158.30334615959563C400,158.30334615959563 400,290.8688285997174 520,290.8688285997174L520,291.1377431740128C400,291.1377431740128 400,158.5722607338911 280,158.5722607338911Z" style="stroke: rgb(0, 0, 0); stroke-opacity: 0.2; fill: rgb(0, 0, 0); fill-opacity: 0.2; stroke-width: 1; opacity: 1;"/><path class="sankey-link" d="M280,158.5722607338911C400,158.5722607338911 400,305.35996539623517 520,305.35996539623517L520,305.54159504904095C400,305.54159504904095 400,158.7538903866969 280,158.7538903866969Z" style="stroke: rgb(0, 0, 0); stroke-opacity: 0.2; fill: rgb(0, 0, 0); fill-opacity: 0.2; stroke-width: 1; opacity: 1;"/><path class="sankey-link" d="M280,146.68867539342574C400,146.68867539342574 400,222.36526894465862 520,222.36526894465862L520,227.47721305984584C400,227.47721305984584 400,151.80061950861295 280,151.80061950861295Z" style="stroke: rgb(68, 68, 68); stroke-opacity: 1; fill: rgb(0, 0, 0); fill-opacity: 0.2; stroke-width: 0; opacity: 1;"/><path class="sankey-link" d="M280,124.24553995538656C400,124.24553995538656 400,143.03324461773062 520,143.03324461773062L520,150.50252341403305C400,150.50252341403305 400,131.714818751689 280,131.714818751689Z" style="stroke: rgb(68, 68, 68); stroke-opacity: 1; fill: rgb(0, 0, 0); fill-opacity: 0.2; stroke-width: 0; opacity: 1;"/><path class="sankey-link" d="M280,158.7538903866969C400,158.7538903866969 400,319.7638172712632 520,319.7638172712632L520,320C400,320 400,158.99007311543372 280,158.99007311543372Z" style="stroke: rgb(0, 0, 0); stroke-opacity: 0.2; fill: rgb(0, 0, 0); fill-opacity: 0.2; stroke-width: 1; opacity: 1;"/><path class="sankey-link" d="M280,90.99062666870411C400,90.99062666870411 400,67.11166466438144 520,67.11166466438144L520,78.68269296980645C400,78.68269296980645 400,102.56165497412913 280,102.56165497412913Z" style="stroke: rgb(68, 68, 68); stroke-opacity: 1; fill: rgb(0, 0, 0); fill-opacity: 0.2; stroke-width: 0; opacity: 1;"/><path class="sankey-link" d="M280,151.80061950861295C400,151.80061950861295 400,241.69943528206807 520,241.69943528206807L520,244.74798952527448C400,244.74798952527448 400,154.84917375181936 280,154.84917375181936Z" style="stroke: rgb(68, 68, 68); stroke-opacity: 1; fill: rgb(0, 0, 0); fill-opacity: 0.2; stroke-width: 0; opacity: 1;"/><path class="sankey-link" d="M280,154.8491737518194C400,154.8491737518194 400,258.9702117474967 520,258.9702117474967L520,261.1972608472706C400,261.1972608472706 400,157.07622285159337 280,157.07622285159337Z" style="stroke: rgb(68, 68, 68); stroke-opacity: 1; fill: rgb(0, 0, 0); fill-opacity: 0.2; stroke-width: 0; opacity: 1;"/><path class="sankey-link" d="M280,102.56165497412914C400,102.56165497412914 400,92.90491519202871 520,92.90491519202871L520,105.14405822738593C400,105.14405822738593 400,114.80079800948636 280,114.80079800948636Z" style="stroke: rgb(68, 68, 68); stroke-opacity: 1; fill: rgb(0, 0, 0); fill-opacity: 0.2; stroke-width: 0; opacity: 1;"/></g><g class="sankey-node-set" style="cursor: move;"><g class="sankey-node" transform="translate(0.000, 169.829)" style="opacity: 1;"><rect class="node-rect" width="20" height="4.025375202819134" style="stroke-width: 0.5; stroke: rgb(0, 0, 0); stroke-opacity: 1; fill: rgb(0, 128, 128); fill-opacity: 1;"/><rect class="node-capture" x="-10" y="-7.5" width="40" height="19.025375202819134" style="fill-opacity: 0;"/><g class="node-entered" transform="translate(0 3.012687601409567)"><path class="node-label-guide" id="5bf38f_0_node_0" d="M24,0L540,0" transform="matrix(1 0 0 1 0 0)"/><text class="node-label" transform="scale(1 1)" style="user-select: none; cursor: default; fill: rgb(42, 63, 95); text-shadow: rgb(255, 255, 255) -1px 1px 1px, rgb(255, 255, 255) 1px 1px 1px, rgb(255, 255, 255) 1px -1px 1px, rgb(255, 255, 255) -1px -1px 1px; font-family: 'Open Sans', verdana, arial, sans-serif; font-size: 9px; fill-opacity: 1;"><textPath class="node-label-text-path" alignment-baseline="middle" xlink:href="#5bf38f_0_node_0" startOffset="0%" text-anchor="start" style="fill: rgb(0, 0, 0);">Hydro Power (62.72KW )</textPath></text></g></g><g class="sankey-node" transform="translate(0.000, 52.790)" style="opacity: 1;"><rect class="node-rect" width="20" height="102.81650310772028" style="stroke-width: 0.5; stroke: rgb(0, 0, 0); stroke-opacity: 1; fill: rgb(175, 238, 238); fill-opacity: 1;"/><rect class="node-capture" x="-10" y="-7.5" width="40" height="117.81650310772028" style="fill-opacity: 0;"/><g class="node-entered" transform="translate(0 52.40825155386014)"><path class="node-label-guide" id="5bf38f_0_node_2" d="M24,0L540,0" transform="matrix(1 0 0 1 0 0)"/><text class="node-label" transform="scale(1 1)" style="user-select: none; cursor: default; fill: rgb(42, 63, 95); text-shadow: rgb(255, 255, 255) -1px 1px 1px, rgb(255, 255, 255) 1px 1px 1px, rgb(255, 255, 255) 1px -1px 1px, rgb(255, 255, 255) -1px -1px 1px; font-family: 'Open Sans', verdana, arial, sans-serif; font-size: 9px; fill-opacity: 1;"><textPath class="node-label-text-path" alignment-baseline="middle" xlink:href="#5bf38f_0_node_2" startOffset="0%" text-anchor="start" style="fill: rgb(0, 0, 0);">COGEN 2 (1602.00KW)</textPath></text></g></g><g class="sankey-node" transform="translate(260.000, 52.323)" style="opacity: 1;"><rect class="node-rect" width="20" height="106.84187831053934" style="stroke-width: 0.5; stroke: rgb(0, 0, 0); stroke-opacity: 1; fill: rgb(138, 43, 226); fill-opacity: 1;"/><rect class="node-capture" x="-10" y="-7.5" width="40" height="121.84187831053934" style="fill-opacity: 0;"/><g class="node-entered" transform="translate(0 54.42093915526967)"><path class="node-label-guide" id="5bf38f_0_node_5" d="M24,0L540,0" transform="matrix(1 0 0 1 0 0)"/><text class="node-label" transform="scale(1 1)" style="user-select: none; cursor: default; fill: rgb(42, 63, 95); text-shadow: rgb(255, 255, 255) -1px 1px 1px, rgb(255, 255, 255) 1px 1px 1px, rgb(255, 255, 255) 1px -1px 1px, rgb(255, 255, 255) -1px -1px 1px; font-family: 'Open Sans', verdana, arial, sans-serif; font-size: 9px; fill-opacity: 1;"><textPath class="node-label-text-path" alignment-baseline="middle" xlink:href="#5bf38f_0_node_5" startOffset="0%" text-anchor="start" style="fill: rgb(0, 0, 0);">Total Power (1664.72KW)</textPath></text></g></g><g class="sankey-node" transform="translate(520.000, -0.000)" style="opacity: 1;"><rect class="node-rect" width="20" height="27.671887315808128" style="stroke-width: 0.5; stroke: rgb(0, 0, 0); stroke-opacity: 1; fill: rgb(250, 128, 114); fill-opacity: 1;"/><rect class="node-capture" x="-10" y="-7.5" width="40" height="42.67188731580813" style="fill-opacity: 0;"/><g class="node-entered" transform="translate(0 14.835943657904064)"><path class="node-label-guide" id="5bf38f_0_node_6" d="M-540,0L-4,0" transform="matrix(1 0 0 1 0 0)"/><text class="node-label" transform="scale(1 1)" style="user-select: none; cursor: default; fill: rgb(42, 63, 95); text-shadow: rgb(255, 255, 255) -1px 1px 1px, rgb(255, 255, 255) 1px 1px 1px, rgb(255, 255, 255) 1px -1px 1px, rgb(255, 255, 255) -1px -1px 1px; font-family: 'Open Sans', verdana, arial, sans-serif; font-size: 9px; fill-opacity: 1;"><textPath class="node-label-text-path" alignment-baseline="middle" xlink:href="#5bf38f_0_node_6" startOffset="100%" text-anchor="end" style="fill: rgb(0, 0, 0);">Building A (420.63KW)</textPath></text></g></g><g class="sankey-node" transform="translate(520.000, 41.894)" style="opacity: 1;"><rect class="node-rect" width="20" height="10.995332904128986" style="stroke-width: 0.5; stroke: rgb(0, 0, 0); stroke-opacity: 1; fill: rgb(255, 160, 122); fill-opacity: 1;"/><rect class="node-capture" x="-10" y="-7.5" width="40" height="25.995332904128986" style="fill-opacity: 0;"/><g class="node-entered" transform="translate(0 6.497666452064493)"><path class="node-label-guide" id="5bf38f_0_node_7" d="M-540,0L-4,0" transform="matrix(1 0 0 1 0 0)"/><text class="node-label" transform="scale(1 1)" style="user-select: none; cursor: default; fill: rgb(42, 63, 95); text-shadow: rgb(255, 255, 255) -1px 1px 1px, rgb(255, 255, 255) 1px 1px 1px, rgb(255, 255, 255) 1px -1px 1px, rgb(255, 255, 255) -1px -1px 1px; font-family: 'Open Sans', verdana, arial, sans-serif; font-size: 9px; fill-opacity: 1;"><textPath class="node-label-text-path" alignment-baseline="middle" xlink:href="#5bf38f_0_node_7" startOffset="100%" text-anchor="end" style="fill: rgb(0, 0, 0);">Building B (171.32KW)</textPath></text></g></g><g class="sankey-node" transform="translate(520.000, 204.098)" style="opacity: 1;"><rect class="node-rect" width="20" height="4.045271030511628" style="stroke-width: 0.5; stroke: rgb(0, 0, 0); stroke-opacity: 1; fill: rgb(102, 205, 170); fill-opacity: 1;"/><rect class="node-capture" x="-10" y="-7.5" width="40" height="19.04527103051163" style="fill-opacity: 0;"/><g class="node-entered" transform="translate(0 3.022635515255814)"><path class="node-label-guide" id="5bf38f_0_node_9" d="M-540,0L-4,0" transform="matrix(1 0 0 1 0 0)"/><text class="node-label" transform="scale(1 1)" style="user-select: none; cursor: default; fill: rgb(42, 63, 95); text-shadow: rgb(255, 255, 255) -1px 1px 1px, rgb(255, 255, 255) 1px 1px 1px, rgb(255, 255, 255) 1px -1px 1px, rgb(255, 255, 255) -1px -1px 1px; font-family: 'Open Sans', verdana, arial, sans-serif; font-size: 9px; fill-opacity: 1;"><textPath class="node-label-text-path" alignment-baseline="middle" xlink:href="#5bf38f_0_node_9" startOffset="100%" text-anchor="end" style="fill: rgb(0, 0, 0);">Building D (63.03KW)</textPath></text></g></g><g class="sankey-node" transform="translate(520.000, 164.725)" style="opacity: 1;"><rect class="node-rect" width="20" height="6.097108486412907" style="stroke-width: 0.5; stroke: rgb(0, 0, 0); stroke-opacity: 1; fill: rgb(135, 206, 250); fill-opacity: 1;"/><rect class="node-capture" x="-10" y="-7.5" width="40" height="21.097108486412907" style="fill-opacity: 0;"/><g class="node-entered" transform="translate(0 4.048554243206453)"><path class="node-label-guide" id="5bf38f_0_node_10" d="M-540,0L-4,0" transform="matrix(1 0 0 1 0 0)"/><text class="node-label" transform="scale(1 1)" style="user-select: none; cursor: default; fill: rgb(42, 63, 95); text-shadow: rgb(255, 255, 255) -1px 1px 1px, rgb(255, 255, 255) 1px 1px 1px, rgb(255, 255, 255) 1px -1px 1px, rgb(255, 255, 255) -1px -1px 1px; font-family: 'Open Sans', verdana, arial, sans-serif; font-size: 9px; fill-opacity: 1;"><textPath class="node-label-text-path" alignment-baseline="middle" xlink:href="#5bf38f_0_node_10" startOffset="100%" text-anchor="end" style="fill: rgb(0, 0, 0);">Building E (95.00KW)</textPath></text></g></g><g class="sankey-node" transform="translate(520.000, 275.419)" style="opacity: 1;"><rect class="node-rect" width="20" height="1.2271233080022625" style="stroke-width: 0.5; stroke: rgb(0, 0, 0); stroke-opacity: 1; fill: rgb(0, 191, 255); fill-opacity: 1;"/><rect class="node-capture" x="-10" y="-7.5" width="40" height="16.227123308002263" style="fill-opacity: 0;"/><g class="node-entered" transform="translate(0 1.6135616540011313)"><path class="node-label-guide" id="5bf38f_0_node_11" d="M-540,0L-4,0" transform="matrix(1 0 0 1 0 0)"/><text class="node-label" transform="scale(1 1)" style="user-select: none; cursor: default; fill: rgb(42, 63, 95); text-shadow: rgb(255, 255, 255) -1px 1px 1px, rgb(255, 255, 255) 1px 1px 1px, rgb(255, 255, 255) 1px -1px 1px, rgb(255, 255, 255) -1px -1px 1px; font-family: 'Open Sans', verdana, arial, sans-serif; font-size: 9px; fill-opacity: 1;"><textPath class="node-label-text-path" alignment-baseline="middle" xlink:href="#5bf38f_0_node_11" startOffset="100%" text-anchor="end" style="fill: rgb(0, 0, 0);">Building G (19.12KW)</textPath></text></g></g><g class="sankey-node" transform="translate(520.000, 119.366)" style="opacity: 1;"><rect class="node-rect" width="20" height="9.444741945900205" style="stroke-width: 0.5; stroke: rgb(0, 0, 0); stroke-opacity: 1; fill: rgb(255, 228, 181); fill-opacity: 1;"/><rect class="node-capture" x="-10" y="-7.5" width="40" height="24.444741945900205" style="fill-opacity: 0;"/><g class="node-entered" transform="translate(0 5.722370972950102)"><path class="node-label-guide" id="5bf38f_0_node_12" d="M-540,0L-4,0" transform="matrix(1 0 0 1 0 0)"/><text class="node-label" transform="scale(1 1)" style="user-select: none; cursor: default; fill: rgb(42, 63, 95); text-shadow: rgb(255, 255, 255) -1px 1px 1px, rgb(255, 255, 255) 1px 1px 1px, rgb(255, 255, 255) 1px -1px 1px, rgb(255, 255, 255) -1px -1px 1px; font-family: 'Open Sans', verdana, arial, sans-serif; font-size: 9px; fill-opacity: 1;"><textPath class="node-label-text-path" alignment-baseline="middle" xlink:href="#5bf38f_0_node_12" startOffset="100%" text-anchor="end" style="fill: rgb(0, 0, 0);">Building H (147.16KW)</textPath></text></g></g><g class="sankey-node" transform="translate(520.000, 185.044)" style="opacity: 1;"><rect class="node-rect" width="20" height="4.831477124812125" style="stroke-width: 0.5; stroke: rgb(0, 0, 0); stroke-opacity: 1; fill: rgb(175, 238, 238); fill-opacity: 1;"/><rect class="node-capture" x="-10" y="-7.5" width="40" height="19.831477124812125" style="fill-opacity: 0;"/><g class="node-entered" transform="translate(0 3.4157385624060623)"><path class="node-label-guide" id="5bf38f_0_node_13" d="M-540,0L-4,0" transform="matrix(1 0 0 1 0 0)"/><text class="node-label" transform="scale(1 1)" style="user-select: none; cursor: default; fill: rgb(42, 63, 95); text-shadow: rgb(255, 255, 255) -1px 1px 1px, rgb(255, 255, 255) 1px 1px 1px, rgb(255, 255, 255) 1px -1px 1px, rgb(255, 255, 255) -1px -1px 1px; font-family: 'Open Sans', verdana, arial, sans-serif; font-size: 9px; fill-opacity: 1;"><textPath class="node-label-text-path" alignment-baseline="middle" xlink:href="#5bf38f_0_node_13" startOffset="100%" text-anchor="end" style="fill: rgb(0, 0, 0);">Building J (75.28KW)</textPath></text></g></g><g class="sankey-node" transform="translate(520.000, 290.869)" style="opacity: 1;"><rect class="node-rect" width="20" height="0.5" style="stroke-width: 0.5; stroke: rgb(0, 0, 0); stroke-opacity: 1; fill: rgb(255, 165, 0); fill-opacity: 1;"/><rect class="node-capture" x="-10" y="-7.5" width="40" height="15.5" style="fill-opacity: 0;"/><g class="node-entered" transform="translate(0 1.134457287147768)"><path class="node-label-guide" id="5bf38f_0_node_14" d="M-540,0L-4,0" transform="matrix(1 0 0 1 0 0)"/><text class="node-label" transform="scale(1 1)" style="user-select: none; cursor: default; fill: rgb(42, 63, 95); text-shadow: rgb(255, 255, 255) -1px 1px 1px, rgb(255, 255, 255) 1px 1px 1px, rgb(255, 255, 255) 1px -1px 1px, rgb(255, 255, 255) -1px -1px 1px; font-family: 'Open Sans', verdana, arial, sans-serif; font-size: 9px; fill-opacity: 1;"><textPath class="node-label-text-path" alignment-baseline="middle" xlink:href="#5bf38f_0_node_14" startOffset="100%" text-anchor="end" style="fill: rgb(0, 0, 0);">Building K (4.19KW)</textPath></text></g></g><g class="sankey-node" transform="translate(520.000, 305.360)" style="opacity: 1;"><rect class="node-rect" width="20" height="0.5" style="stroke-width: 0.5; stroke: rgb(0, 0, 0); stroke-opacity: 1; fill: rgb(255, 140, 0); fill-opacity: 1;"/><rect class="node-capture" x="-10" y="-7.5" width="40" height="15.5" style="fill-opacity: 0;"/><g class="node-entered" transform="translate(0 1.090814826402891)"><path class="node-label-guide" id="5bf38f_0_node_15" d="M-540,0L-4,0" transform="matrix(1 0 0 1 0 0)"/><text class="node-label" transform="scale(1 1)" style="user-select: none; cursor: default; fill: rgb(42, 63, 95); text-shadow: rgb(255, 255, 255) -1px 1px 1px, rgb(255, 255, 255) 1px 1px 1px, rgb(255, 255, 255) 1px -1px 1px, rgb(255, 255, 255) -1px -1px 1px; font-family: 'Open Sans', verdana, arial, sans-serif; font-size: 9px; fill-opacity: 1;"><textPath class="node-label-text-path" alignment-baseline="middle" xlink:href="#5bf38f_0_node_15" startOffset="100%" text-anchor="end" style="fill: rgb(0, 0, 0);">Building M (2.83KW)</textPath></text></g></g><g class="sankey-node" transform="translate(520.000, 222.365)" style="opacity: 1;"><rect class="node-rect" width="20" height="5.111944115187214" style="stroke-width: 0.5; stroke: rgb(0, 0, 0); stroke-opacity: 1; fill: rgb(240, 230, 140); fill-opacity: 1;"/><rect class="node-capture" x="-10" y="-7.5" width="40" height="20.111944115187214" style="fill-opacity: 0;"/><g class="node-entered" transform="translate(0 3.555972057593607)"><path class="node-label-guide" id="5bf38f_0_node_16" d="M-540,0L-4,0" transform="matrix(1 0 0 1 0 0)"/><text class="node-label" transform="scale(1 1)" style="user-select: none; cursor: default; fill: rgb(42, 63, 95); text-shadow: rgb(255, 255, 255) -1px 1px 1px, rgb(255, 255, 255) 1px 1px 1px, rgb(255, 255, 255) 1px -1px 1px, rgb(255, 255, 255) -1px -1px 1px; font-family: 'Open Sans', verdana, arial, sans-serif; font-size: 9px; fill-opacity: 1;"><textPath class="node-label-text-path" alignment-baseline="middle" xlink:href="#5bf38f_0_node_16" startOffset="100%" text-anchor="end" style="fill: rgb(0, 0, 0);">Building N (79.65KW)</textPath></text></g></g><g class="sankey-node" transform="translate(520.000, 143.033)" style="opacity: 1;"><rect class="node-rect" width="20" height="7.469278796302433" style="stroke-width: 0.5; stroke: rgb(0, 0, 0); stroke-opacity: 1; fill: rgb(189, 183, 107); fill-opacity: 1;"/><rect class="node-capture" x="-10" y="-7.5" width="40" height="22.469278796302433" style="fill-opacity: 0;"/><g class="node-entered" transform="translate(0 4.7346393981512165)"><path class="node-label-guide" id="5bf38f_0_node_17" d="M-540,0L-4,0" transform="matrix(1 0 0 1 0 0)"/><text class="node-label" transform="scale(1 1)" style="user-select: none; cursor: default; fill: rgb(42, 63, 95); text-shadow: rgb(255, 255, 255) -1px 1px 1px, rgb(255, 255, 255) 1px 1px 1px, rgb(255, 255, 255) 1px -1px 1px, rgb(255, 255, 255) -1px -1px 1px; font-family: 'Open Sans', verdana, arial, sans-serif; font-size: 9px; fill-opacity: 1;"><textPath class="node-label-text-path" alignment-baseline="middle" xlink:href="#5bf38f_0_node_17" startOffset="100%" text-anchor="end" style="fill: rgb(0, 0, 0);">Building P (116.38KW)</textPath></text></g></g><g class="sankey-node" transform="translate(520.000, 319.764)" style="opacity: 1;"><rect class="node-rect" width="20" height="0.5" style="stroke-width: 0.5; stroke: rgb(0, 0, 0); stroke-opacity: 1; fill: rgb(152, 251, 152); fill-opacity: 1;"/><rect class="node-capture" x="-10" y="-7.5" width="40" height="15.5" style="fill-opacity: 0;"/><g class="node-entered" transform="translate(0 1.1180913643684107)"><path class="node-label-guide" id="5bf38f_0_node_18" d="M-540,0L-4,0" transform="matrix(1 0 0 1 0 0)"/><text class="node-label" transform="scale(1 1)" style="user-select: none; cursor: default; fill: rgb(42, 63, 95); text-shadow: rgb(255, 255, 255) -1px 1px 1px, rgb(255, 255, 255) 1px 1px 1px, rgb(255, 255, 255) 1px -1px 1px, rgb(255, 255, 255) -1px -1px 1px; font-family: 'Open Sans', verdana, arial, sans-serif; font-size: 9px; fill-opacity: 1;"><textPath class="node-label-text-path" alignment-baseline="middle" xlink:href="#5bf38f_0_node_18" startOffset="100%" text-anchor="end" style="fill: rgb(0, 0, 0);">Building S (3.68KW)</textPath></text></g></g><g class="sankey-node" transform="translate(520.000, 67.112)" style="opacity: 1;"><rect class="node-rect" width="20" height="11.571028305425045" style="stroke-width: 0.5; stroke: rgb(0, 0, 0); stroke-opacity: 1; fill: rgb(0, 255, 127); fill-opacity: 1;"/><rect class="node-capture" x="-10" y="-7.5" width="40" height="26.571028305425045" style="fill-opacity: 0;"/><g class="node-entered" transform="translate(0 6.785514152712523)"><path class="node-label-guide" id="5bf38f_0_node_19" d="M-540,0L-4,0" transform="matrix(1 0 0 1 0 0)"/><text class="node-label" transform="scale(1 1)" style="user-select: none; cursor: default; fill: rgb(42, 63, 95); text-shadow: rgb(255, 255, 255) -1px 1px 1px, rgb(255, 255, 255) 1px 1px 1px, rgb(255, 255, 255) 1px -1px 1px, rgb(255, 255, 255) -1px -1px 1px; font-family: 'Open Sans', verdana, arial, sans-serif; font-size: 9px; fill-opacity: 1;"><textPath class="node-label-text-path" alignment-baseline="middle" xlink:href="#5bf38f_0_node_19" startOffset="100%" text-anchor="end" style="fill: rgb(0, 0, 0);">Building T (180.29KW)</textPath></text></g></g><g class="sankey-node" transform="translate(520.000, 241.699)" style="opacity: 1;"><rect class="node-rect" width="20" height="3.0485542432064108" style="stroke-width: 0.5; stroke: rgb(0, 0, 0); stroke-opacity: 1; fill: rgb(144, 238, 144); fill-opacity: 1;"/><rect class="node-capture" x="-10" y="-7.5" width="40" height="18.04855424320641" style="fill-opacity: 0;"/><g class="node-entered" transform="translate(0 2.5242771216032054)"><path class="node-label-guide" id="5bf38f_0_node_20" d="M-540,0L-4,0" transform="matrix(1 0 0 1 0 0)"/><text class="node-label" transform="scale(1 1)" style="user-select: none; cursor: default; fill: rgb(42, 63, 95); text-shadow: rgb(255, 255, 255) -1px 1px 1px, rgb(255, 255, 255) 1px 1px 1px, rgb(255, 255, 255) 1px -1px 1px, rgb(255, 255, 255) -1px -1px 1px; font-family: 'Open Sans', verdana, arial, sans-serif; font-size: 9px; fill-opacity: 1;"><textPath class="node-label-text-path" alignment-baseline="middle" xlink:href="#5bf38f_0_node_20" startOffset="100%" text-anchor="end" style="fill: rgb(0, 0, 0);">Building V (47.50KW)</textPath></text></g></g><g class="sankey-node" transform="translate(520.000, 258.970)" style="opacity: 1;"><rect class="node-rect" width="20" height="2.2270490997739785" style="stroke-width: 0.5; stroke: rgb(0, 0, 0); stroke-opacity: 1; fill: rgb(100, 149, 237); fill-opacity: 1;"/><rect class="node-capture" x="-10" y="-7.5" width="40" height="17.22704909977398" style="fill-opacity: 0;"/><g class="node-entered" transform="translate(0 2.1135245498869892)"><path class="node-label-guide" id="5bf38f_0_node_21" d="M-540,0L-4,0" transform="matrix(1 0 0 1 0 0)"/><text class="node-label" transform="scale(1 1)" style="user-select: none; cursor: default; fill: rgb(42, 63, 95); text-shadow: rgb(255, 255, 255) -1px 1px 1px, rgb(255, 255, 255) 1px 1px 1px, rgb(255, 255, 255) 1px -1px 1px, rgb(255, 255, 255) -1px -1px 1px; font-family: 'Open Sans', verdana, arial, sans-serif; font-size: 9px; fill-opacity: 1;"><textPath class="node-label-text-path" alignment-baseline="middle" xlink:href="#5bf38f_0_node_21" startOffset="100%" text-anchor="end" style="fill: rgb(0, 0, 0);">Building Z (34.70KW)</textPath></text></g></g><g class="sankey-node" transform="translate(520.000, 92.905)" style="opacity: 1;"><rect class="node-rect" width="20" height="12.239143035357245" style="stroke-width: 0.5; stroke: rgb(0, 0, 0); stroke-opacity: 1; fill: rgb(221, 160, 221); fill-opacity: 1;"/><rect class="node-capture" x="-10" y="-7.5" width="40" height="27.239143035357245" style="fill-opacity: 0;"/><g class="node-entered" transform="translate(0 7.119571517678622)"><path class="node-label-guide" id="5bf38f_0_node_22" d="M-540,0L-4,0" transform="matrix(1 0 0 1 0 0)"/><text class="node-label" transform="scale(1 1)" style="user-select: none; cursor: default; fill: rgb(42, 63, 95); text-shadow: rgb(255, 255, 255) -1px 1px 1px, rgb(255, 255, 255) 1px 1px 1px, rgb(255, 255, 255) 1px -1px 1px, rgb(255, 255, 255) -1px -1px 1px; font-family: 'Open Sans', verdana, arial, sans-serif; font-size: 9px; fill-opacity: 1;"><textPath class="node-label-text-path" alignment-baseline="middle" xlink:href="#5bf38f_0_node_22" startOffset="100%" text-anchor="end" style="fill: rgb(0, 0, 0);">Residence 1&amp;2 (190.70KW)</textPath></text></g></g></g></g><defs id="topdefs-c4de31"><g class="clips"/></defs><g class="layer-above"><g class="imagelayer"/><g class="shapelayer"/></g><g class="infolayer"><g class="g-gtitle"/><g class="first-render"/></g></svg>